%TF.GenerationSoftware,KiCad,Pcbnew,(2017-10-29 revision a6f84051e)-master*%
%TF.CreationDate,2018-04-26T10:12:28+02:00*%
%TF.ProjectId,ledbox,6C6564626F782E6B696361645F706362,rev?*%
%TF.SameCoordinates,Original*%
%TF.FileFunction,Legend,Top*%
%TF.FilePolarity,Positive*%
%FSLAX46Y46*%
G04 Gerber Fmt 4.6, Leading zero omitted, Abs format (unit mm)*
G04 Created by KiCad (PCBNEW (2017-10-29 revision a6f84051e)-master) date Thursday, 26 April 2018 'AMt' 10:12:28*
%MOMM*%
%LPD*%
G01*
G04 APERTURE LIST*
%ADD10C,0.300000*%
%ADD11C,0.120000*%
%ADD12C,0.150000*%
%ADD13C,0.010000*%
%ADD14C,6.400000*%
%ADD15C,0.800000*%
%ADD16R,1.600000X1.600000*%
%ADD17C,1.600000*%
%ADD18R,1.800000X1.800000*%
%ADD19C,1.800000*%
%ADD20O,2.600000X2.000000*%
%ADD21R,2.600000X2.000000*%
%ADD22R,2.500000X2.500000*%
%ADD23C,2.500000*%
%ADD24R,2.000000X2.600000*%
%ADD25O,2.000000X2.600000*%
%ADD26R,1.600000X2.400000*%
%ADD27O,1.600000X2.400000*%
%ADD28R,2.400000X1.600000*%
%ADD29O,2.400000X1.600000*%
%ADD30O,1.727200X1.727200*%
%ADD31R,1.727200X1.727200*%
G04 APERTURE END LIST*
D10*
X115471428Y-142122857D02*
X114971428Y-142122857D01*
X114971428Y-142908571D02*
X114971428Y-141408571D01*
X115685714Y-141408571D01*
X116257142Y-142765714D02*
X116328571Y-142837142D01*
X116257142Y-142908571D01*
X116185714Y-142837142D01*
X116257142Y-142765714D01*
X116257142Y-142908571D01*
X118900000Y-141480000D02*
X118757142Y-141408571D01*
X118542857Y-141408571D01*
X118328571Y-141480000D01*
X118185714Y-141622857D01*
X118114285Y-141765714D01*
X118042857Y-142051428D01*
X118042857Y-142265714D01*
X118114285Y-142551428D01*
X118185714Y-142694285D01*
X118328571Y-142837142D01*
X118542857Y-142908571D01*
X118685714Y-142908571D01*
X118900000Y-142837142D01*
X118971428Y-142765714D01*
X118971428Y-142265714D01*
X118685714Y-142265714D01*
X120185714Y-142837142D02*
X120042857Y-142908571D01*
X119757142Y-142908571D01*
X119614285Y-142837142D01*
X119542857Y-142694285D01*
X119542857Y-142122857D01*
X119614285Y-141980000D01*
X119757142Y-141908571D01*
X120042857Y-141908571D01*
X120185714Y-141980000D01*
X120257142Y-142122857D01*
X120257142Y-142265714D01*
X119542857Y-142408571D01*
X120900000Y-142908571D02*
X120900000Y-141908571D01*
X120900000Y-141408571D02*
X120828571Y-141480000D01*
X120900000Y-141551428D01*
X120971428Y-141480000D01*
X120900000Y-141408571D01*
X120900000Y-141551428D01*
X121542857Y-142837142D02*
X121685714Y-142908571D01*
X121971428Y-142908571D01*
X122114285Y-142837142D01*
X122185714Y-142694285D01*
X122185714Y-142622857D01*
X122114285Y-142480000D01*
X121971428Y-142408571D01*
X121757142Y-142408571D01*
X121614285Y-142337142D01*
X121542857Y-142194285D01*
X121542857Y-142122857D01*
X121614285Y-141980000D01*
X121757142Y-141908571D01*
X121971428Y-141908571D01*
X122114285Y-141980000D01*
X122757142Y-142837142D02*
X122900000Y-142908571D01*
X123185714Y-142908571D01*
X123328571Y-142837142D01*
X123400000Y-142694285D01*
X123400000Y-142622857D01*
X123328571Y-142480000D01*
X123185714Y-142408571D01*
X122971428Y-142408571D01*
X122828571Y-142337142D01*
X122757142Y-142194285D01*
X122757142Y-142122857D01*
X122828571Y-141980000D01*
X122971428Y-141908571D01*
X123185714Y-141908571D01*
X123328571Y-141980000D01*
X124257142Y-142908571D02*
X124114285Y-142837142D01*
X124042857Y-142694285D01*
X124042857Y-141408571D01*
X125400000Y-142837142D02*
X125257142Y-142908571D01*
X124971428Y-142908571D01*
X124828571Y-142837142D01*
X124757142Y-142694285D01*
X124757142Y-142122857D01*
X124828571Y-141980000D01*
X124971428Y-141908571D01*
X125257142Y-141908571D01*
X125400000Y-141980000D01*
X125471428Y-142122857D01*
X125471428Y-142265714D01*
X124757142Y-142408571D01*
X126114285Y-142908571D02*
X126114285Y-141908571D01*
X126114285Y-142194285D02*
X126185714Y-142051428D01*
X126257142Y-141980000D01*
X126400000Y-141908571D01*
X126542857Y-141908571D01*
X111221428Y-145458571D02*
X110721428Y-144744285D01*
X110364285Y-145458571D02*
X110364285Y-143958571D01*
X110935714Y-143958571D01*
X111078571Y-144030000D01*
X111150000Y-144101428D01*
X111221428Y-144244285D01*
X111221428Y-144458571D01*
X111150000Y-144601428D01*
X111078571Y-144672857D01*
X110935714Y-144744285D01*
X110364285Y-144744285D01*
X112078571Y-145458571D02*
X111935714Y-145387142D01*
X111864285Y-145315714D01*
X111792857Y-145172857D01*
X111792857Y-144744285D01*
X111864285Y-144601428D01*
X111935714Y-144530000D01*
X112078571Y-144458571D01*
X112292857Y-144458571D01*
X112435714Y-144530000D01*
X112507142Y-144601428D01*
X112578571Y-144744285D01*
X112578571Y-145172857D01*
X112507142Y-145315714D01*
X112435714Y-145387142D01*
X112292857Y-145458571D01*
X112078571Y-145458571D01*
X113221428Y-145458571D02*
X113221428Y-143958571D01*
X113221428Y-144530000D02*
X113364285Y-144458571D01*
X113650000Y-144458571D01*
X113792857Y-144530000D01*
X113864285Y-144601428D01*
X113935714Y-144744285D01*
X113935714Y-145172857D01*
X113864285Y-145315714D01*
X113792857Y-145387142D01*
X113650000Y-145458571D01*
X113364285Y-145458571D01*
X113221428Y-145387142D01*
X114792857Y-145458571D02*
X114650000Y-145387142D01*
X114578571Y-145315714D01*
X114507142Y-145172857D01*
X114507142Y-144744285D01*
X114578571Y-144601428D01*
X114650000Y-144530000D01*
X114792857Y-144458571D01*
X115007142Y-144458571D01*
X115150000Y-144530000D01*
X115221428Y-144601428D01*
X115292857Y-144744285D01*
X115292857Y-145172857D01*
X115221428Y-145315714D01*
X115150000Y-145387142D01*
X115007142Y-145458571D01*
X114792857Y-145458571D01*
X115864285Y-145387142D02*
X116078571Y-145458571D01*
X116435714Y-145458571D01*
X116578571Y-145387142D01*
X116650000Y-145315714D01*
X116721428Y-145172857D01*
X116721428Y-145030000D01*
X116650000Y-144887142D01*
X116578571Y-144815714D01*
X116435714Y-144744285D01*
X116150000Y-144672857D01*
X116007142Y-144601428D01*
X115935714Y-144530000D01*
X115864285Y-144387142D01*
X115864285Y-144244285D01*
X115935714Y-144101428D01*
X116007142Y-144030000D01*
X116150000Y-143958571D01*
X116507142Y-143958571D01*
X116721428Y-144030000D01*
X117292857Y-145030000D02*
X118007142Y-145030000D01*
X117150000Y-145458571D02*
X117650000Y-143958571D01*
X118150000Y-145458571D01*
X118507142Y-143958571D02*
X119507142Y-145458571D01*
X119507142Y-143958571D02*
X118507142Y-145458571D01*
X121935714Y-145458571D02*
X121221428Y-145458571D01*
X121221428Y-143958571D01*
X122435714Y-144672857D02*
X122935714Y-144672857D01*
X123149999Y-145458571D02*
X122435714Y-145458571D01*
X122435714Y-143958571D01*
X123149999Y-143958571D01*
X123792857Y-145458571D02*
X123792857Y-143958571D01*
X124149999Y-143958571D01*
X124364285Y-144030000D01*
X124507142Y-144172857D01*
X124578571Y-144315714D01*
X124649999Y-144601428D01*
X124649999Y-144815714D01*
X124578571Y-145101428D01*
X124507142Y-145244285D01*
X124364285Y-145387142D01*
X124149999Y-145458571D01*
X123792857Y-145458571D01*
X126935714Y-144672857D02*
X127149999Y-144744285D01*
X127221428Y-144815714D01*
X127292857Y-144958571D01*
X127292857Y-145172857D01*
X127221428Y-145315714D01*
X127149999Y-145387142D01*
X127007142Y-145458571D01*
X126435714Y-145458571D01*
X126435714Y-143958571D01*
X126935714Y-143958571D01*
X127078571Y-144030000D01*
X127149999Y-144101428D01*
X127221428Y-144244285D01*
X127221428Y-144387142D01*
X127149999Y-144530000D01*
X127078571Y-144601428D01*
X126935714Y-144672857D01*
X126435714Y-144672857D01*
X128149999Y-145458571D02*
X128007142Y-145387142D01*
X127935714Y-145315714D01*
X127864285Y-145172857D01*
X127864285Y-144744285D01*
X127935714Y-144601428D01*
X128007142Y-144530000D01*
X128149999Y-144458571D01*
X128364285Y-144458571D01*
X128507142Y-144530000D01*
X128578571Y-144601428D01*
X128649999Y-144744285D01*
X128649999Y-145172857D01*
X128578571Y-145315714D01*
X128507142Y-145387142D01*
X128364285Y-145458571D01*
X128149999Y-145458571D01*
X129149999Y-145458571D02*
X129935714Y-144458571D01*
X129149999Y-144458571D02*
X129935714Y-145458571D01*
X109614285Y-146508571D02*
X110114285Y-148008571D01*
X110614285Y-146508571D01*
X111114285Y-147865714D02*
X111185714Y-147937142D01*
X111114285Y-148008571D01*
X111042857Y-147937142D01*
X111114285Y-147865714D01*
X111114285Y-148008571D01*
X112471428Y-147008571D02*
X112471428Y-148008571D01*
X112114285Y-146437142D02*
X111757142Y-147508571D01*
X112685714Y-147508571D01*
X114828571Y-146580000D02*
X114828571Y-146508571D01*
X114900000Y-146365714D01*
X114971428Y-146294285D01*
X114257142Y-146580000D02*
X114257142Y-146508571D01*
X114328571Y-146365714D01*
X114400000Y-146294285D01*
X115471428Y-147937142D02*
X115685714Y-148008571D01*
X116042857Y-148008571D01*
X116185714Y-147937142D01*
X116257142Y-147865714D01*
X116328571Y-147722857D01*
X116328571Y-147580000D01*
X116257142Y-147437142D01*
X116185714Y-147365714D01*
X116042857Y-147294285D01*
X115757142Y-147222857D01*
X115614285Y-147151428D01*
X115542857Y-147080000D01*
X115471428Y-146937142D01*
X115471428Y-146794285D01*
X115542857Y-146651428D01*
X115614285Y-146580000D01*
X115757142Y-146508571D01*
X116114285Y-146508571D01*
X116328571Y-146580000D01*
X116971428Y-148008571D02*
X116971428Y-146508571D01*
X117614285Y-148008571D02*
X117614285Y-147222857D01*
X117542857Y-147080000D01*
X117400000Y-147008571D01*
X117185714Y-147008571D01*
X117042857Y-147080000D01*
X116971428Y-147151428D01*
X118328571Y-148008571D02*
X118328571Y-147008571D01*
X118328571Y-146508571D02*
X118257142Y-146580000D01*
X118328571Y-146651428D01*
X118400000Y-146580000D01*
X118328571Y-146508571D01*
X118328571Y-146651428D01*
X118828571Y-147008571D02*
X119400000Y-147008571D01*
X119042857Y-148008571D02*
X119042857Y-146722857D01*
X119114285Y-146580000D01*
X119257142Y-146508571D01*
X119400000Y-146508571D01*
X119685714Y-147008571D02*
X120257142Y-147008571D01*
X119900000Y-146508571D02*
X119900000Y-147794285D01*
X119971428Y-147937142D01*
X120114285Y-148008571D01*
X120257142Y-148008571D01*
X122757142Y-148008571D02*
X122257142Y-147294285D01*
X121899999Y-148008571D02*
X121899999Y-146508571D01*
X122471428Y-146508571D01*
X122614285Y-146580000D01*
X122685714Y-146651428D01*
X122757142Y-146794285D01*
X122757142Y-147008571D01*
X122685714Y-147151428D01*
X122614285Y-147222857D01*
X122471428Y-147294285D01*
X121899999Y-147294285D01*
X123971428Y-147937142D02*
X123828571Y-148008571D01*
X123542857Y-148008571D01*
X123399999Y-147937142D01*
X123328571Y-147794285D01*
X123328571Y-147222857D01*
X123399999Y-147080000D01*
X123542857Y-147008571D01*
X123828571Y-147008571D01*
X123971428Y-147080000D01*
X124042857Y-147222857D01*
X124042857Y-147365714D01*
X123328571Y-147508571D01*
X125328571Y-147008571D02*
X125328571Y-148222857D01*
X125257142Y-148365714D01*
X125185714Y-148437142D01*
X125042857Y-148508571D01*
X124828571Y-148508571D01*
X124685714Y-148437142D01*
X125328571Y-147937142D02*
X125185714Y-148008571D01*
X124899999Y-148008571D01*
X124757142Y-147937142D01*
X124685714Y-147865714D01*
X124614285Y-147722857D01*
X124614285Y-147294285D01*
X124685714Y-147151428D01*
X124757142Y-147080000D01*
X124899999Y-147008571D01*
X125185714Y-147008571D01*
X125328571Y-147080000D01*
X126042857Y-148008571D02*
X126042857Y-147008571D01*
X126042857Y-146508571D02*
X125971428Y-146580000D01*
X126042857Y-146651428D01*
X126114285Y-146580000D01*
X126042857Y-146508571D01*
X126042857Y-146651428D01*
X126685714Y-147937142D02*
X126828571Y-148008571D01*
X127114285Y-148008571D01*
X127257142Y-147937142D01*
X127328571Y-147794285D01*
X127328571Y-147722857D01*
X127257142Y-147580000D01*
X127114285Y-147508571D01*
X126899999Y-147508571D01*
X126757142Y-147437142D01*
X126685714Y-147294285D01*
X126685714Y-147222857D01*
X126757142Y-147080000D01*
X126899999Y-147008571D01*
X127114285Y-147008571D01*
X127257142Y-147080000D01*
X127757142Y-147008571D02*
X128328571Y-147008571D01*
X127971428Y-146508571D02*
X127971428Y-147794285D01*
X128042857Y-147937142D01*
X128185714Y-148008571D01*
X128328571Y-148008571D01*
X129399999Y-147937142D02*
X129257142Y-148008571D01*
X128971428Y-148008571D01*
X128828571Y-147937142D01*
X128757142Y-147794285D01*
X128757142Y-147222857D01*
X128828571Y-147080000D01*
X128971428Y-147008571D01*
X129257142Y-147008571D01*
X129399999Y-147080000D01*
X129471428Y-147222857D01*
X129471428Y-147365714D01*
X128757142Y-147508571D01*
X130114285Y-148008571D02*
X130114285Y-147008571D01*
X130114285Y-147294285D02*
X130185714Y-147151428D01*
X130257142Y-147080000D01*
X130399999Y-147008571D01*
X130542857Y-147008571D01*
X131042857Y-146508571D02*
X131042857Y-146580000D01*
X130971428Y-146722857D01*
X130899999Y-146794285D01*
X131614285Y-146508571D02*
X131614285Y-146580000D01*
X131542857Y-146722857D01*
X131471428Y-146794285D01*
D11*
%TO.C,C101*%
X125312864Y-106476180D02*
G75*
G03X125312000Y-112511482I1179136J-3017820D01*
G01*
X127671136Y-106476180D02*
G75*
G02X127672000Y-112511482I-1179136J-3017820D01*
G01*
X127671136Y-106476180D02*
G75*
G03X125312000Y-106476518I-1179136J-3017820D01*
G01*
X123292000Y-109494000D02*
X129692000Y-109494000D01*
X123292000Y-109454000D02*
X129692000Y-109454000D01*
X123292000Y-109414000D02*
X129692000Y-109414000D01*
X123294000Y-109374000D02*
X129690000Y-109374000D01*
X123295000Y-109334000D02*
X129689000Y-109334000D01*
X123298000Y-109294000D02*
X129686000Y-109294000D01*
X123300000Y-109254000D02*
X129684000Y-109254000D01*
X123304000Y-109214000D02*
X125512000Y-109214000D01*
X127472000Y-109214000D02*
X129680000Y-109214000D01*
X123307000Y-109174000D02*
X125512000Y-109174000D01*
X127472000Y-109174000D02*
X129677000Y-109174000D01*
X123312000Y-109134000D02*
X125512000Y-109134000D01*
X127472000Y-109134000D02*
X129672000Y-109134000D01*
X123316000Y-109094000D02*
X125512000Y-109094000D01*
X127472000Y-109094000D02*
X129668000Y-109094000D01*
X123322000Y-109054000D02*
X125512000Y-109054000D01*
X127472000Y-109054000D02*
X129662000Y-109054000D01*
X123327000Y-109014000D02*
X125512000Y-109014000D01*
X127472000Y-109014000D02*
X129657000Y-109014000D01*
X123334000Y-108974000D02*
X125512000Y-108974000D01*
X127472000Y-108974000D02*
X129650000Y-108974000D01*
X123340000Y-108934000D02*
X125512000Y-108934000D01*
X127472000Y-108934000D02*
X129644000Y-108934000D01*
X123348000Y-108894000D02*
X125512000Y-108894000D01*
X127472000Y-108894000D02*
X129636000Y-108894000D01*
X123355000Y-108854000D02*
X125512000Y-108854000D01*
X127472000Y-108854000D02*
X129629000Y-108854000D01*
X123364000Y-108814000D02*
X125512000Y-108814000D01*
X127472000Y-108814000D02*
X129620000Y-108814000D01*
X123373000Y-108773000D02*
X125512000Y-108773000D01*
X127472000Y-108773000D02*
X129611000Y-108773000D01*
X123382000Y-108733000D02*
X125512000Y-108733000D01*
X127472000Y-108733000D02*
X129602000Y-108733000D01*
X123392000Y-108693000D02*
X125512000Y-108693000D01*
X127472000Y-108693000D02*
X129592000Y-108693000D01*
X123402000Y-108653000D02*
X125512000Y-108653000D01*
X127472000Y-108653000D02*
X129582000Y-108653000D01*
X123413000Y-108613000D02*
X125512000Y-108613000D01*
X127472000Y-108613000D02*
X129571000Y-108613000D01*
X123425000Y-108573000D02*
X125512000Y-108573000D01*
X127472000Y-108573000D02*
X129559000Y-108573000D01*
X123437000Y-108533000D02*
X125512000Y-108533000D01*
X127472000Y-108533000D02*
X129547000Y-108533000D01*
X123450000Y-108493000D02*
X125512000Y-108493000D01*
X127472000Y-108493000D02*
X129534000Y-108493000D01*
X123463000Y-108453000D02*
X125512000Y-108453000D01*
X127472000Y-108453000D02*
X129521000Y-108453000D01*
X123477000Y-108413000D02*
X125512000Y-108413000D01*
X127472000Y-108413000D02*
X129507000Y-108413000D01*
X123491000Y-108373000D02*
X125512000Y-108373000D01*
X127472000Y-108373000D02*
X129493000Y-108373000D01*
X123506000Y-108333000D02*
X125512000Y-108333000D01*
X127472000Y-108333000D02*
X129478000Y-108333000D01*
X123522000Y-108293000D02*
X125512000Y-108293000D01*
X127472000Y-108293000D02*
X129462000Y-108293000D01*
X123538000Y-108253000D02*
X125512000Y-108253000D01*
X127472000Y-108253000D02*
X129446000Y-108253000D01*
X123555000Y-108213000D02*
X125512000Y-108213000D01*
X127472000Y-108213000D02*
X129429000Y-108213000D01*
X123573000Y-108173000D02*
X125512000Y-108173000D01*
X127472000Y-108173000D02*
X129411000Y-108173000D01*
X123591000Y-108133000D02*
X125512000Y-108133000D01*
X127472000Y-108133000D02*
X129393000Y-108133000D01*
X123610000Y-108093000D02*
X125512000Y-108093000D01*
X127472000Y-108093000D02*
X129374000Y-108093000D01*
X123629000Y-108053000D02*
X125512000Y-108053000D01*
X127472000Y-108053000D02*
X129355000Y-108053000D01*
X123649000Y-108013000D02*
X125512000Y-108013000D01*
X127472000Y-108013000D02*
X129335000Y-108013000D01*
X123670000Y-107973000D02*
X125512000Y-107973000D01*
X127472000Y-107973000D02*
X129314000Y-107973000D01*
X123692000Y-107933000D02*
X125512000Y-107933000D01*
X127472000Y-107933000D02*
X129292000Y-107933000D01*
X123714000Y-107893000D02*
X125512000Y-107893000D01*
X127472000Y-107893000D02*
X129270000Y-107893000D01*
X123737000Y-107853000D02*
X125512000Y-107853000D01*
X127472000Y-107853000D02*
X129247000Y-107853000D01*
X123761000Y-107813000D02*
X125512000Y-107813000D01*
X127472000Y-107813000D02*
X129223000Y-107813000D01*
X123786000Y-107773000D02*
X125512000Y-107773000D01*
X127472000Y-107773000D02*
X129198000Y-107773000D01*
X123811000Y-107733000D02*
X125512000Y-107733000D01*
X127472000Y-107733000D02*
X129173000Y-107733000D01*
X123838000Y-107693000D02*
X125512000Y-107693000D01*
X127472000Y-107693000D02*
X129146000Y-107693000D01*
X123865000Y-107653000D02*
X125512000Y-107653000D01*
X127472000Y-107653000D02*
X129119000Y-107653000D01*
X123893000Y-107613000D02*
X125512000Y-107613000D01*
X127472000Y-107613000D02*
X129091000Y-107613000D01*
X123922000Y-107573000D02*
X125512000Y-107573000D01*
X127472000Y-107573000D02*
X129062000Y-107573000D01*
X123952000Y-107533000D02*
X125512000Y-107533000D01*
X127472000Y-107533000D02*
X129032000Y-107533000D01*
X123982000Y-107493000D02*
X125512000Y-107493000D01*
X127472000Y-107493000D02*
X129002000Y-107493000D01*
X124014000Y-107453000D02*
X125512000Y-107453000D01*
X127472000Y-107453000D02*
X128970000Y-107453000D01*
X124047000Y-107413000D02*
X125512000Y-107413000D01*
X127472000Y-107413000D02*
X128937000Y-107413000D01*
X124081000Y-107373000D02*
X125512000Y-107373000D01*
X127472000Y-107373000D02*
X128903000Y-107373000D01*
X124117000Y-107333000D02*
X125512000Y-107333000D01*
X127472000Y-107333000D02*
X128867000Y-107333000D01*
X124153000Y-107293000D02*
X125512000Y-107293000D01*
X127472000Y-107293000D02*
X128831000Y-107293000D01*
X124191000Y-107253000D02*
X128793000Y-107253000D01*
X124230000Y-107213000D02*
X128754000Y-107213000D01*
X124270000Y-107173000D02*
X128714000Y-107173000D01*
X124312000Y-107133000D02*
X128672000Y-107133000D01*
X124355000Y-107093000D02*
X128629000Y-107093000D01*
X124400000Y-107053000D02*
X128584000Y-107053000D01*
X124447000Y-107013000D02*
X128537000Y-107013000D01*
X124495000Y-106973000D02*
X128489000Y-106973000D01*
X124546000Y-106933000D02*
X128438000Y-106933000D01*
X124598000Y-106893000D02*
X128386000Y-106893000D01*
X124653000Y-106853000D02*
X128331000Y-106853000D01*
X124711000Y-106813000D02*
X128273000Y-106813000D01*
X124771000Y-106773000D02*
X128213000Y-106773000D01*
X124834000Y-106733000D02*
X128150000Y-106733000D01*
X124901000Y-106693000D02*
X128083000Y-106693000D01*
X124972000Y-106653000D02*
X128012000Y-106653000D01*
X125047000Y-106613000D02*
X127937000Y-106613000D01*
X125128000Y-106573000D02*
X127856000Y-106573000D01*
X125214000Y-106533000D02*
X127770000Y-106533000D01*
X125308000Y-106493000D02*
X127676000Y-106493000D01*
X125411000Y-106453000D02*
X127573000Y-106453000D01*
X125526000Y-106413000D02*
X127458000Y-106413000D01*
X125658000Y-106373000D02*
X127326000Y-106373000D01*
X125816000Y-106333000D02*
X127168000Y-106333000D01*
X126024000Y-106293000D02*
X126960000Y-106293000D01*
X126492000Y-112944000D02*
X126492000Y-111744000D01*
X125842000Y-112344000D02*
X127142000Y-112344000D01*
%TO.C,D201*%
X129477392Y-101705665D02*
G75*
G03X129320484Y-104938000I1078608J-1672335D01*
G01*
X131634608Y-101705665D02*
G75*
G02X131791516Y-104938000I-1078608J-1672335D01*
G01*
X129476163Y-102336870D02*
G75*
G03X129476000Y-104418961I1079837J-1041130D01*
G01*
X131635837Y-102336870D02*
G75*
G02X131636000Y-104418961I-1079837J-1041130D01*
G01*
X129320000Y-104938000D02*
X129476000Y-104938000D01*
X131636000Y-104938000D02*
X131792000Y-104938000D01*
%TO.C,D202*%
X126556000Y-104938000D02*
X126712000Y-104938000D01*
X124240000Y-104938000D02*
X124396000Y-104938000D01*
X126555837Y-102336870D02*
G75*
G02X126556000Y-104418961I-1079837J-1041130D01*
G01*
X124396163Y-102336870D02*
G75*
G03X124396000Y-104418961I1079837J-1041130D01*
G01*
X126554608Y-101705665D02*
G75*
G02X126711516Y-104938000I-1078608J-1672335D01*
G01*
X124397392Y-101705665D02*
G75*
G03X124240484Y-104938000I1078608J-1672335D01*
G01*
%TO.C,J101*%
X143624000Y-119164000D02*
X144244000Y-119164000D01*
X143624000Y-117564000D02*
X143624000Y-119164000D01*
X144244000Y-117564000D02*
X143624000Y-117564000D01*
X143624000Y-116624000D02*
X144244000Y-116624000D01*
X143624000Y-115024000D02*
X143624000Y-116624000D01*
X144244000Y-115024000D02*
X143624000Y-115024000D01*
X143624000Y-114084000D02*
X144244000Y-114084000D01*
X143624000Y-112484000D02*
X143624000Y-114084000D01*
X144244000Y-112484000D02*
X143624000Y-112484000D01*
X138244000Y-118114000D02*
X139244000Y-118114000D01*
X138244000Y-113534000D02*
X139244000Y-113534000D01*
X139674000Y-118114000D02*
X139244000Y-118364000D01*
X139674000Y-113534000D02*
X139674000Y-118114000D01*
X139244000Y-113284000D02*
X139674000Y-113534000D01*
X139244000Y-118364000D02*
X138244000Y-118364000D01*
X139244000Y-113284000D02*
X139244000Y-118364000D01*
X138244000Y-113284000D02*
X139244000Y-113284000D01*
X144244000Y-119734000D02*
X144244000Y-111914000D01*
X138244000Y-119734000D02*
X144244000Y-119734000D01*
X138244000Y-111914000D02*
X138244000Y-119734000D01*
X144244000Y-111914000D02*
X138244000Y-111914000D01*
D12*
%TO.C,J102*%
X115784000Y-109764000D02*
X115784000Y-110264000D01*
X110784000Y-108264000D02*
X120784000Y-108264000D01*
X110784000Y-103364000D02*
X120784000Y-103364000D01*
X110784000Y-109764000D02*
X120784000Y-109764000D01*
X110784000Y-110264000D02*
X120784000Y-110264000D01*
X120784000Y-110264000D02*
X120784000Y-100464000D01*
X120784000Y-100464000D02*
X110784000Y-100464000D01*
X110784000Y-100464000D02*
X110784000Y-110264000D01*
X120284000Y-105764000D02*
G75*
G03X120284000Y-105764000I-2000000J0D01*
G01*
X115284000Y-105764000D02*
G75*
G03X115284000Y-105764000I-2000000J0D01*
G01*
D11*
%TO.C,J104*%
X136806000Y-120932000D02*
X136806000Y-126932000D01*
X136806000Y-126932000D02*
X144626000Y-126932000D01*
X144626000Y-126932000D02*
X144626000Y-120932000D01*
X144626000Y-120932000D02*
X136806000Y-120932000D01*
X138176000Y-126932000D02*
X138176000Y-125932000D01*
X138176000Y-125932000D02*
X143256000Y-125932000D01*
X143256000Y-125932000D02*
X143256000Y-126932000D01*
X138176000Y-125932000D02*
X138426000Y-125502000D01*
X138426000Y-125502000D02*
X143006000Y-125502000D01*
X143006000Y-125502000D02*
X143256000Y-125932000D01*
X138426000Y-126932000D02*
X138426000Y-125932000D01*
X143006000Y-126932000D02*
X143006000Y-125932000D01*
X137376000Y-120932000D02*
X137376000Y-121552000D01*
X137376000Y-121552000D02*
X138976000Y-121552000D01*
X138976000Y-121552000D02*
X138976000Y-120932000D01*
X139916000Y-120932000D02*
X139916000Y-121552000D01*
X139916000Y-121552000D02*
X141516000Y-121552000D01*
X141516000Y-121552000D02*
X141516000Y-120932000D01*
X142456000Y-120932000D02*
X142456000Y-121552000D01*
X142456000Y-121552000D02*
X144056000Y-121552000D01*
X144056000Y-121552000D02*
X144056000Y-120932000D01*
%TO.C,J301*%
X172366000Y-111788000D02*
X172366000Y-117788000D01*
X172366000Y-117788000D02*
X177646000Y-117788000D01*
X177646000Y-117788000D02*
X177646000Y-111788000D01*
X177646000Y-111788000D02*
X172366000Y-111788000D01*
X173736000Y-117788000D02*
X173736000Y-116788000D01*
X173736000Y-116788000D02*
X176276000Y-116788000D01*
X176276000Y-116788000D02*
X176276000Y-117788000D01*
X173736000Y-116788000D02*
X173986000Y-116358000D01*
X173986000Y-116358000D02*
X176026000Y-116358000D01*
X176026000Y-116358000D02*
X176276000Y-116788000D01*
X173986000Y-117788000D02*
X173986000Y-116788000D01*
X176026000Y-117788000D02*
X176026000Y-116788000D01*
X172936000Y-111788000D02*
X172936000Y-112408000D01*
X172936000Y-112408000D02*
X174536000Y-112408000D01*
X174536000Y-112408000D02*
X174536000Y-111788000D01*
X175476000Y-111788000D02*
X175476000Y-112408000D01*
X175476000Y-112408000D02*
X177076000Y-112408000D01*
X177076000Y-112408000D02*
X177076000Y-111788000D01*
%TO.C,J401*%
X177076000Y-122568000D02*
X177076000Y-121948000D01*
X175476000Y-122568000D02*
X177076000Y-122568000D01*
X175476000Y-121948000D02*
X175476000Y-122568000D01*
X174536000Y-122568000D02*
X174536000Y-121948000D01*
X172936000Y-122568000D02*
X174536000Y-122568000D01*
X172936000Y-121948000D02*
X172936000Y-122568000D01*
X176026000Y-127948000D02*
X176026000Y-126948000D01*
X173986000Y-127948000D02*
X173986000Y-126948000D01*
X176026000Y-126518000D02*
X176276000Y-126948000D01*
X173986000Y-126518000D02*
X176026000Y-126518000D01*
X173736000Y-126948000D02*
X173986000Y-126518000D01*
X176276000Y-126948000D02*
X176276000Y-127948000D01*
X173736000Y-126948000D02*
X176276000Y-126948000D01*
X173736000Y-127948000D02*
X173736000Y-126948000D01*
X177646000Y-121948000D02*
X172366000Y-121948000D01*
X177646000Y-127948000D02*
X177646000Y-121948000D01*
X172366000Y-127948000D02*
X177646000Y-127948000D01*
X172366000Y-121948000D02*
X172366000Y-127948000D01*
%TO.C,J501*%
X136298000Y-104676000D02*
X136298000Y-110676000D01*
X136298000Y-110676000D02*
X144118000Y-110676000D01*
X144118000Y-110676000D02*
X144118000Y-104676000D01*
X144118000Y-104676000D02*
X136298000Y-104676000D01*
X137668000Y-110676000D02*
X137668000Y-109676000D01*
X137668000Y-109676000D02*
X142748000Y-109676000D01*
X142748000Y-109676000D02*
X142748000Y-110676000D01*
X137668000Y-109676000D02*
X137918000Y-109246000D01*
X137918000Y-109246000D02*
X142498000Y-109246000D01*
X142498000Y-109246000D02*
X142748000Y-109676000D01*
X137918000Y-110676000D02*
X137918000Y-109676000D01*
X142498000Y-110676000D02*
X142498000Y-109676000D01*
X136868000Y-104676000D02*
X136868000Y-105296000D01*
X136868000Y-105296000D02*
X138468000Y-105296000D01*
X138468000Y-105296000D02*
X138468000Y-104676000D01*
X139408000Y-104676000D02*
X139408000Y-105296000D01*
X139408000Y-105296000D02*
X141008000Y-105296000D01*
X141008000Y-105296000D02*
X141008000Y-104676000D01*
X141948000Y-104676000D02*
X141948000Y-105296000D01*
X141948000Y-105296000D02*
X143548000Y-105296000D01*
X143548000Y-105296000D02*
X143548000Y-104676000D01*
%TO.C,U201*%
X167573000Y-107680000D02*
G75*
G02X167573000Y-105680000I0J1000000D01*
G01*
X167573000Y-105680000D02*
X167573000Y-104430000D01*
X167573000Y-104430000D02*
X147133000Y-104430000D01*
X147133000Y-104430000D02*
X147133000Y-108930000D01*
X147133000Y-108930000D02*
X167573000Y-108930000D01*
X167573000Y-108930000D02*
X167573000Y-107680000D01*
%TO.C,U202*%
X133290000Y-140357000D02*
X133290000Y-141607000D01*
X153730000Y-140357000D02*
X133290000Y-140357000D01*
X153730000Y-144857000D02*
X153730000Y-140357000D01*
X133290000Y-144857000D02*
X153730000Y-144857000D01*
X133290000Y-143607000D02*
X133290000Y-144857000D01*
X133290000Y-141607000D02*
G75*
G02X133290000Y-143607000I0J-1000000D01*
G01*
%TO.C,U203*%
X151622000Y-113478000D02*
G75*
G02X149622000Y-113478000I-1000000J0D01*
G01*
X149622000Y-113478000D02*
X148372000Y-113478000D01*
X148372000Y-113478000D02*
X148372000Y-131378000D01*
X148372000Y-131378000D02*
X152872000Y-131378000D01*
X152872000Y-131378000D02*
X152872000Y-113478000D01*
X152872000Y-113478000D02*
X151622000Y-113478000D01*
%TO.C,U204*%
X161072000Y-131378000D02*
X162322000Y-131378000D01*
X161072000Y-113478000D02*
X161072000Y-131378000D01*
X165572000Y-113478000D02*
X161072000Y-113478000D01*
X165572000Y-131378000D02*
X165572000Y-113478000D01*
X164322000Y-131378000D02*
X165572000Y-131378000D01*
X162322000Y-131378000D02*
G75*
G02X164322000Y-131378000I1000000J0D01*
G01*
%TO.C,J103*%
X101715000Y-123670000D02*
X101715000Y-121130000D01*
X101715000Y-123670000D02*
X104255000Y-123670000D01*
X101965000Y-123420000D02*
X101965000Y-114070000D01*
X122825000Y-123420000D02*
X101965000Y-123420000D01*
X122825000Y-114070000D02*
X122825000Y-123420000D01*
X101965000Y-114070000D02*
X122825000Y-114070000D01*
%TO.C,J105*%
X101965000Y-127405000D02*
X122825000Y-127405000D01*
X122825000Y-127405000D02*
X122825000Y-136755000D01*
X122825000Y-136755000D02*
X101965000Y-136755000D01*
X101965000Y-136755000D02*
X101965000Y-127405000D01*
X101715000Y-137005000D02*
X104255000Y-137005000D01*
X101715000Y-137005000D02*
X101715000Y-134465000D01*
%TO.C,C101*%
D12*
X122389142Y-110613047D02*
X122436761Y-110660666D01*
X122484380Y-110803523D01*
X122484380Y-110898761D01*
X122436761Y-111041619D01*
X122341523Y-111136857D01*
X122246285Y-111184476D01*
X122055809Y-111232095D01*
X121912952Y-111232095D01*
X121722476Y-111184476D01*
X121627238Y-111136857D01*
X121532000Y-111041619D01*
X121484380Y-110898761D01*
X121484380Y-110803523D01*
X121532000Y-110660666D01*
X121579619Y-110613047D01*
X122484380Y-109660666D02*
X122484380Y-110232095D01*
X122484380Y-109946380D02*
X121484380Y-109946380D01*
X121627238Y-110041619D01*
X121722476Y-110136857D01*
X121770095Y-110232095D01*
X121484380Y-109041619D02*
X121484380Y-108946380D01*
X121532000Y-108851142D01*
X121579619Y-108803523D01*
X121674857Y-108755904D01*
X121865333Y-108708285D01*
X122103428Y-108708285D01*
X122293904Y-108755904D01*
X122389142Y-108803523D01*
X122436761Y-108851142D01*
X122484380Y-108946380D01*
X122484380Y-109041619D01*
X122436761Y-109136857D01*
X122389142Y-109184476D01*
X122293904Y-109232095D01*
X122103428Y-109279714D01*
X121865333Y-109279714D01*
X121674857Y-109232095D01*
X121579619Y-109184476D01*
X121532000Y-109136857D01*
X121484380Y-109041619D01*
X122484380Y-107755904D02*
X122484380Y-108327333D01*
X122484380Y-108041619D02*
X121484380Y-108041619D01*
X121627238Y-108136857D01*
X121722476Y-108232095D01*
X121770095Y-108327333D01*
%TO.C,D201*%
X133802380Y-104814476D02*
X132802380Y-104814476D01*
X132802380Y-104576380D01*
X132850000Y-104433523D01*
X132945238Y-104338285D01*
X133040476Y-104290666D01*
X133230952Y-104243047D01*
X133373809Y-104243047D01*
X133564285Y-104290666D01*
X133659523Y-104338285D01*
X133754761Y-104433523D01*
X133802380Y-104576380D01*
X133802380Y-104814476D01*
X132897619Y-103862095D02*
X132850000Y-103814476D01*
X132802380Y-103719238D01*
X132802380Y-103481142D01*
X132850000Y-103385904D01*
X132897619Y-103338285D01*
X132992857Y-103290666D01*
X133088095Y-103290666D01*
X133230952Y-103338285D01*
X133802380Y-103909714D01*
X133802380Y-103290666D01*
X132802380Y-102671619D02*
X132802380Y-102576380D01*
X132850000Y-102481142D01*
X132897619Y-102433523D01*
X132992857Y-102385904D01*
X133183333Y-102338285D01*
X133421428Y-102338285D01*
X133611904Y-102385904D01*
X133707142Y-102433523D01*
X133754761Y-102481142D01*
X133802380Y-102576380D01*
X133802380Y-102671619D01*
X133754761Y-102766857D01*
X133707142Y-102814476D01*
X133611904Y-102862095D01*
X133421428Y-102909714D01*
X133183333Y-102909714D01*
X132992857Y-102862095D01*
X132897619Y-102814476D01*
X132850000Y-102766857D01*
X132802380Y-102671619D01*
X133802380Y-101385904D02*
X133802380Y-101957333D01*
X133802380Y-101671619D02*
X132802380Y-101671619D01*
X132945238Y-101766857D01*
X133040476Y-101862095D01*
X133088095Y-101957333D01*
%TO.C,D202*%
X123388380Y-105068476D02*
X122388380Y-105068476D01*
X122388380Y-104830380D01*
X122436000Y-104687523D01*
X122531238Y-104592285D01*
X122626476Y-104544666D01*
X122816952Y-104497047D01*
X122959809Y-104497047D01*
X123150285Y-104544666D01*
X123245523Y-104592285D01*
X123340761Y-104687523D01*
X123388380Y-104830380D01*
X123388380Y-105068476D01*
X122483619Y-104116095D02*
X122436000Y-104068476D01*
X122388380Y-103973238D01*
X122388380Y-103735142D01*
X122436000Y-103639904D01*
X122483619Y-103592285D01*
X122578857Y-103544666D01*
X122674095Y-103544666D01*
X122816952Y-103592285D01*
X123388380Y-104163714D01*
X123388380Y-103544666D01*
X122388380Y-102925619D02*
X122388380Y-102830380D01*
X122436000Y-102735142D01*
X122483619Y-102687523D01*
X122578857Y-102639904D01*
X122769333Y-102592285D01*
X123007428Y-102592285D01*
X123197904Y-102639904D01*
X123293142Y-102687523D01*
X123340761Y-102735142D01*
X123388380Y-102830380D01*
X123388380Y-102925619D01*
X123340761Y-103020857D01*
X123293142Y-103068476D01*
X123197904Y-103116095D01*
X123007428Y-103163714D01*
X122769333Y-103163714D01*
X122578857Y-103116095D01*
X122483619Y-103068476D01*
X122436000Y-103020857D01*
X122388380Y-102925619D01*
X122483619Y-102211333D02*
X122436000Y-102163714D01*
X122388380Y-102068476D01*
X122388380Y-101830380D01*
X122436000Y-101735142D01*
X122483619Y-101687523D01*
X122578857Y-101639904D01*
X122674095Y-101639904D01*
X122816952Y-101687523D01*
X123388380Y-102258952D01*
X123388380Y-101639904D01*
%TO.C,J101*%
X135850380Y-116601714D02*
X136564666Y-116601714D01*
X136707523Y-116649333D01*
X136802761Y-116744571D01*
X136850380Y-116887428D01*
X136850380Y-116982666D01*
X136850380Y-115601714D02*
X136850380Y-116173142D01*
X136850380Y-115887428D02*
X135850380Y-115887428D01*
X135993238Y-115982666D01*
X136088476Y-116077904D01*
X136136095Y-116173142D01*
X135850380Y-114982666D02*
X135850380Y-114887428D01*
X135898000Y-114792190D01*
X135945619Y-114744571D01*
X136040857Y-114696952D01*
X136231333Y-114649333D01*
X136469428Y-114649333D01*
X136659904Y-114696952D01*
X136755142Y-114744571D01*
X136802761Y-114792190D01*
X136850380Y-114887428D01*
X136850380Y-114982666D01*
X136802761Y-115077904D01*
X136755142Y-115125523D01*
X136659904Y-115173142D01*
X136469428Y-115220761D01*
X136231333Y-115220761D01*
X136040857Y-115173142D01*
X135945619Y-115125523D01*
X135898000Y-115077904D01*
X135850380Y-114982666D01*
X136850380Y-113696952D02*
X136850380Y-114268380D01*
X136850380Y-113982666D02*
X135850380Y-113982666D01*
X135993238Y-114077904D01*
X136088476Y-114173142D01*
X136136095Y-114268380D01*
%TO.C,J102*%
X114498285Y-111016380D02*
X114498285Y-111730666D01*
X114450666Y-111873523D01*
X114355428Y-111968761D01*
X114212571Y-112016380D01*
X114117333Y-112016380D01*
X115498285Y-112016380D02*
X114926857Y-112016380D01*
X115212571Y-112016380D02*
X115212571Y-111016380D01*
X115117333Y-111159238D01*
X115022095Y-111254476D01*
X114926857Y-111302095D01*
X116117333Y-111016380D02*
X116212571Y-111016380D01*
X116307809Y-111064000D01*
X116355428Y-111111619D01*
X116403047Y-111206857D01*
X116450666Y-111397333D01*
X116450666Y-111635428D01*
X116403047Y-111825904D01*
X116355428Y-111921142D01*
X116307809Y-111968761D01*
X116212571Y-112016380D01*
X116117333Y-112016380D01*
X116022095Y-111968761D01*
X115974476Y-111921142D01*
X115926857Y-111825904D01*
X115879238Y-111635428D01*
X115879238Y-111397333D01*
X115926857Y-111206857D01*
X115974476Y-111111619D01*
X116022095Y-111064000D01*
X116117333Y-111016380D01*
X116831619Y-111111619D02*
X116879238Y-111064000D01*
X116974476Y-111016380D01*
X117212571Y-111016380D01*
X117307809Y-111064000D01*
X117355428Y-111111619D01*
X117403047Y-111206857D01*
X117403047Y-111302095D01*
X117355428Y-111444952D01*
X116784000Y-112016380D01*
X117403047Y-112016380D01*
%TO.C,J104*%
X139176285Y-127976380D02*
X139176285Y-128690666D01*
X139128666Y-128833523D01*
X139033428Y-128928761D01*
X138890571Y-128976380D01*
X138795333Y-128976380D01*
X140176285Y-128976380D02*
X139604857Y-128976380D01*
X139890571Y-128976380D02*
X139890571Y-127976380D01*
X139795333Y-128119238D01*
X139700095Y-128214476D01*
X139604857Y-128262095D01*
X140795333Y-127976380D02*
X140890571Y-127976380D01*
X140985809Y-128024000D01*
X141033428Y-128071619D01*
X141081047Y-128166857D01*
X141128666Y-128357333D01*
X141128666Y-128595428D01*
X141081047Y-128785904D01*
X141033428Y-128881142D01*
X140985809Y-128928761D01*
X140890571Y-128976380D01*
X140795333Y-128976380D01*
X140700095Y-128928761D01*
X140652476Y-128881142D01*
X140604857Y-128785904D01*
X140557238Y-128595428D01*
X140557238Y-128357333D01*
X140604857Y-128166857D01*
X140652476Y-128071619D01*
X140700095Y-128024000D01*
X140795333Y-127976380D01*
X141985809Y-128309714D02*
X141985809Y-128976380D01*
X141747714Y-127928761D02*
X141509619Y-128643047D01*
X142128666Y-128643047D01*
%TO.C,J301*%
X173450285Y-109760380D02*
X173450285Y-110474666D01*
X173402666Y-110617523D01*
X173307428Y-110712761D01*
X173164571Y-110760380D01*
X173069333Y-110760380D01*
X173831238Y-109760380D02*
X174450285Y-109760380D01*
X174116952Y-110141333D01*
X174259809Y-110141333D01*
X174355047Y-110188952D01*
X174402666Y-110236571D01*
X174450285Y-110331809D01*
X174450285Y-110569904D01*
X174402666Y-110665142D01*
X174355047Y-110712761D01*
X174259809Y-110760380D01*
X173974095Y-110760380D01*
X173878857Y-110712761D01*
X173831238Y-110665142D01*
X175069333Y-109760380D02*
X175164571Y-109760380D01*
X175259809Y-109808000D01*
X175307428Y-109855619D01*
X175355047Y-109950857D01*
X175402666Y-110141333D01*
X175402666Y-110379428D01*
X175355047Y-110569904D01*
X175307428Y-110665142D01*
X175259809Y-110712761D01*
X175164571Y-110760380D01*
X175069333Y-110760380D01*
X174974095Y-110712761D01*
X174926476Y-110665142D01*
X174878857Y-110569904D01*
X174831238Y-110379428D01*
X174831238Y-110141333D01*
X174878857Y-109950857D01*
X174926476Y-109855619D01*
X174974095Y-109808000D01*
X175069333Y-109760380D01*
X176355047Y-110760380D02*
X175783619Y-110760380D01*
X176069333Y-110760380D02*
X176069333Y-109760380D01*
X175974095Y-109903238D01*
X175878857Y-109998476D01*
X175783619Y-110046095D01*
%TO.C,J401*%
X173450285Y-119920380D02*
X173450285Y-120634666D01*
X173402666Y-120777523D01*
X173307428Y-120872761D01*
X173164571Y-120920380D01*
X173069333Y-120920380D01*
X174355047Y-120253714D02*
X174355047Y-120920380D01*
X174116952Y-119872761D02*
X173878857Y-120587047D01*
X174497904Y-120587047D01*
X175069333Y-119920380D02*
X175164571Y-119920380D01*
X175259809Y-119968000D01*
X175307428Y-120015619D01*
X175355047Y-120110857D01*
X175402666Y-120301333D01*
X175402666Y-120539428D01*
X175355047Y-120729904D01*
X175307428Y-120825142D01*
X175259809Y-120872761D01*
X175164571Y-120920380D01*
X175069333Y-120920380D01*
X174974095Y-120872761D01*
X174926476Y-120825142D01*
X174878857Y-120729904D01*
X174831238Y-120539428D01*
X174831238Y-120301333D01*
X174878857Y-120110857D01*
X174926476Y-120015619D01*
X174974095Y-119968000D01*
X175069333Y-119920380D01*
X176355047Y-120920380D02*
X175783619Y-120920380D01*
X176069333Y-120920380D02*
X176069333Y-119920380D01*
X175974095Y-120063238D01*
X175878857Y-120158476D01*
X175783619Y-120206095D01*
%TO.C,J501*%
X137382285Y-102648380D02*
X137382285Y-103362666D01*
X137334666Y-103505523D01*
X137239428Y-103600761D01*
X137096571Y-103648380D01*
X137001333Y-103648380D01*
X138334666Y-102648380D02*
X137858476Y-102648380D01*
X137810857Y-103124571D01*
X137858476Y-103076952D01*
X137953714Y-103029333D01*
X138191809Y-103029333D01*
X138287047Y-103076952D01*
X138334666Y-103124571D01*
X138382285Y-103219809D01*
X138382285Y-103457904D01*
X138334666Y-103553142D01*
X138287047Y-103600761D01*
X138191809Y-103648380D01*
X137953714Y-103648380D01*
X137858476Y-103600761D01*
X137810857Y-103553142D01*
X139001333Y-102648380D02*
X139096571Y-102648380D01*
X139191809Y-102696000D01*
X139239428Y-102743619D01*
X139287047Y-102838857D01*
X139334666Y-103029333D01*
X139334666Y-103267428D01*
X139287047Y-103457904D01*
X139239428Y-103553142D01*
X139191809Y-103600761D01*
X139096571Y-103648380D01*
X139001333Y-103648380D01*
X138906095Y-103600761D01*
X138858476Y-103553142D01*
X138810857Y-103457904D01*
X138763238Y-103267428D01*
X138763238Y-103029333D01*
X138810857Y-102838857D01*
X138858476Y-102743619D01*
X138906095Y-102696000D01*
X139001333Y-102648380D01*
X140287047Y-103648380D02*
X139715619Y-103648380D01*
X140001333Y-103648380D02*
X140001333Y-102648380D01*
X139906095Y-102791238D01*
X139810857Y-102886476D01*
X139715619Y-102934095D01*
%TO.C,U201*%
X168025380Y-108394285D02*
X168834904Y-108394285D01*
X168930142Y-108346666D01*
X168977761Y-108299047D01*
X169025380Y-108203809D01*
X169025380Y-108013333D01*
X168977761Y-107918095D01*
X168930142Y-107870476D01*
X168834904Y-107822857D01*
X168025380Y-107822857D01*
X168120619Y-107394285D02*
X168073000Y-107346666D01*
X168025380Y-107251428D01*
X168025380Y-107013333D01*
X168073000Y-106918095D01*
X168120619Y-106870476D01*
X168215857Y-106822857D01*
X168311095Y-106822857D01*
X168453952Y-106870476D01*
X169025380Y-107441904D01*
X169025380Y-106822857D01*
X168025380Y-106203809D02*
X168025380Y-106108571D01*
X168073000Y-106013333D01*
X168120619Y-105965714D01*
X168215857Y-105918095D01*
X168406333Y-105870476D01*
X168644428Y-105870476D01*
X168834904Y-105918095D01*
X168930142Y-105965714D01*
X168977761Y-106013333D01*
X169025380Y-106108571D01*
X169025380Y-106203809D01*
X168977761Y-106299047D01*
X168930142Y-106346666D01*
X168834904Y-106394285D01*
X168644428Y-106441904D01*
X168406333Y-106441904D01*
X168215857Y-106394285D01*
X168120619Y-106346666D01*
X168073000Y-106299047D01*
X168025380Y-106203809D01*
X169025380Y-104918095D02*
X169025380Y-105489523D01*
X169025380Y-105203809D02*
X168025380Y-105203809D01*
X168168238Y-105299047D01*
X168263476Y-105394285D01*
X168311095Y-105489523D01*
%TO.C,U202*%
X131742380Y-144321285D02*
X132551904Y-144321285D01*
X132647142Y-144273666D01*
X132694761Y-144226047D01*
X132742380Y-144130809D01*
X132742380Y-143940333D01*
X132694761Y-143845095D01*
X132647142Y-143797476D01*
X132551904Y-143749857D01*
X131742380Y-143749857D01*
X131837619Y-143321285D02*
X131790000Y-143273666D01*
X131742380Y-143178428D01*
X131742380Y-142940333D01*
X131790000Y-142845095D01*
X131837619Y-142797476D01*
X131932857Y-142749857D01*
X132028095Y-142749857D01*
X132170952Y-142797476D01*
X132742380Y-143368904D01*
X132742380Y-142749857D01*
X131742380Y-142130809D02*
X131742380Y-142035571D01*
X131790000Y-141940333D01*
X131837619Y-141892714D01*
X131932857Y-141845095D01*
X132123333Y-141797476D01*
X132361428Y-141797476D01*
X132551904Y-141845095D01*
X132647142Y-141892714D01*
X132694761Y-141940333D01*
X132742380Y-142035571D01*
X132742380Y-142130809D01*
X132694761Y-142226047D01*
X132647142Y-142273666D01*
X132551904Y-142321285D01*
X132361428Y-142368904D01*
X132123333Y-142368904D01*
X131932857Y-142321285D01*
X131837619Y-142273666D01*
X131790000Y-142226047D01*
X131742380Y-142130809D01*
X131837619Y-141416523D02*
X131790000Y-141368904D01*
X131742380Y-141273666D01*
X131742380Y-141035571D01*
X131790000Y-140940333D01*
X131837619Y-140892714D01*
X131932857Y-140845095D01*
X132028095Y-140845095D01*
X132170952Y-140892714D01*
X132742380Y-141464142D01*
X132742380Y-140845095D01*
%TO.C,U203*%
X148907714Y-111930380D02*
X148907714Y-112739904D01*
X148955333Y-112835142D01*
X149002952Y-112882761D01*
X149098190Y-112930380D01*
X149288666Y-112930380D01*
X149383904Y-112882761D01*
X149431523Y-112835142D01*
X149479142Y-112739904D01*
X149479142Y-111930380D01*
X149907714Y-112025619D02*
X149955333Y-111978000D01*
X150050571Y-111930380D01*
X150288666Y-111930380D01*
X150383904Y-111978000D01*
X150431523Y-112025619D01*
X150479142Y-112120857D01*
X150479142Y-112216095D01*
X150431523Y-112358952D01*
X149860095Y-112930380D01*
X150479142Y-112930380D01*
X151098190Y-111930380D02*
X151193428Y-111930380D01*
X151288666Y-111978000D01*
X151336285Y-112025619D01*
X151383904Y-112120857D01*
X151431523Y-112311333D01*
X151431523Y-112549428D01*
X151383904Y-112739904D01*
X151336285Y-112835142D01*
X151288666Y-112882761D01*
X151193428Y-112930380D01*
X151098190Y-112930380D01*
X151002952Y-112882761D01*
X150955333Y-112835142D01*
X150907714Y-112739904D01*
X150860095Y-112549428D01*
X150860095Y-112311333D01*
X150907714Y-112120857D01*
X150955333Y-112025619D01*
X151002952Y-111978000D01*
X151098190Y-111930380D01*
X151764857Y-111930380D02*
X152383904Y-111930380D01*
X152050571Y-112311333D01*
X152193428Y-112311333D01*
X152288666Y-112358952D01*
X152336285Y-112406571D01*
X152383904Y-112501809D01*
X152383904Y-112739904D01*
X152336285Y-112835142D01*
X152288666Y-112882761D01*
X152193428Y-112930380D01*
X151907714Y-112930380D01*
X151812476Y-112882761D01*
X151764857Y-112835142D01*
%TO.C,U204*%
X161607714Y-131830380D02*
X161607714Y-132639904D01*
X161655333Y-132735142D01*
X161702952Y-132782761D01*
X161798190Y-132830380D01*
X161988666Y-132830380D01*
X162083904Y-132782761D01*
X162131523Y-132735142D01*
X162179142Y-132639904D01*
X162179142Y-131830380D01*
X162607714Y-131925619D02*
X162655333Y-131878000D01*
X162750571Y-131830380D01*
X162988666Y-131830380D01*
X163083904Y-131878000D01*
X163131523Y-131925619D01*
X163179142Y-132020857D01*
X163179142Y-132116095D01*
X163131523Y-132258952D01*
X162560095Y-132830380D01*
X163179142Y-132830380D01*
X163798190Y-131830380D02*
X163893428Y-131830380D01*
X163988666Y-131878000D01*
X164036285Y-131925619D01*
X164083904Y-132020857D01*
X164131523Y-132211333D01*
X164131523Y-132449428D01*
X164083904Y-132639904D01*
X164036285Y-132735142D01*
X163988666Y-132782761D01*
X163893428Y-132830380D01*
X163798190Y-132830380D01*
X163702952Y-132782761D01*
X163655333Y-132735142D01*
X163607714Y-132639904D01*
X163560095Y-132449428D01*
X163560095Y-132211333D01*
X163607714Y-132020857D01*
X163655333Y-131925619D01*
X163702952Y-131878000D01*
X163798190Y-131830380D01*
X164988666Y-132163714D02*
X164988666Y-132830380D01*
X164750571Y-131782761D02*
X164512476Y-132497047D01*
X165131523Y-132497047D01*
%TO.C,J103*%
X100163380Y-120030714D02*
X100877666Y-120030714D01*
X101020523Y-120078333D01*
X101115761Y-120173571D01*
X101163380Y-120316428D01*
X101163380Y-120411666D01*
X101163380Y-119030714D02*
X101163380Y-119602142D01*
X101163380Y-119316428D02*
X100163380Y-119316428D01*
X100306238Y-119411666D01*
X100401476Y-119506904D01*
X100449095Y-119602142D01*
X100163380Y-118411666D02*
X100163380Y-118316428D01*
X100211000Y-118221190D01*
X100258619Y-118173571D01*
X100353857Y-118125952D01*
X100544333Y-118078333D01*
X100782428Y-118078333D01*
X100972904Y-118125952D01*
X101068142Y-118173571D01*
X101115761Y-118221190D01*
X101163380Y-118316428D01*
X101163380Y-118411666D01*
X101115761Y-118506904D01*
X101068142Y-118554523D01*
X100972904Y-118602142D01*
X100782428Y-118649761D01*
X100544333Y-118649761D01*
X100353857Y-118602142D01*
X100258619Y-118554523D01*
X100211000Y-118506904D01*
X100163380Y-118411666D01*
X100163380Y-117745000D02*
X100163380Y-117125952D01*
X100544333Y-117459285D01*
X100544333Y-117316428D01*
X100591952Y-117221190D01*
X100639571Y-117173571D01*
X100734809Y-117125952D01*
X100972904Y-117125952D01*
X101068142Y-117173571D01*
X101115761Y-117221190D01*
X101163380Y-117316428D01*
X101163380Y-117602142D01*
X101115761Y-117697380D01*
X101068142Y-117745000D01*
%TO.C,J105*%
X100163380Y-133365714D02*
X100877666Y-133365714D01*
X101020523Y-133413333D01*
X101115761Y-133508571D01*
X101163380Y-133651428D01*
X101163380Y-133746666D01*
X101163380Y-132365714D02*
X101163380Y-132937142D01*
X101163380Y-132651428D02*
X100163380Y-132651428D01*
X100306238Y-132746666D01*
X100401476Y-132841904D01*
X100449095Y-132937142D01*
X100163380Y-131746666D02*
X100163380Y-131651428D01*
X100211000Y-131556190D01*
X100258619Y-131508571D01*
X100353857Y-131460952D01*
X100544333Y-131413333D01*
X100782428Y-131413333D01*
X100972904Y-131460952D01*
X101068142Y-131508571D01*
X101115761Y-131556190D01*
X101163380Y-131651428D01*
X101163380Y-131746666D01*
X101115761Y-131841904D01*
X101068142Y-131889523D01*
X100972904Y-131937142D01*
X100782428Y-131984761D01*
X100544333Y-131984761D01*
X100353857Y-131937142D01*
X100258619Y-131889523D01*
X100211000Y-131841904D01*
X100163380Y-131746666D01*
X100163380Y-130508571D02*
X100163380Y-130984761D01*
X100639571Y-131032380D01*
X100591952Y-130984761D01*
X100544333Y-130889523D01*
X100544333Y-130651428D01*
X100591952Y-130556190D01*
X100639571Y-130508571D01*
X100734809Y-130460952D01*
X100972904Y-130460952D01*
X101068142Y-130508571D01*
X101115761Y-130556190D01*
X101163380Y-130651428D01*
X101163380Y-130889523D01*
X101115761Y-130984761D01*
X101068142Y-131032380D01*
%TD*%
%LPC*%
D13*
%TO.C,G\002A\002A\002A*%
G36*
X164468120Y-136964691D02*
X164511376Y-136989392D01*
X164535856Y-137022929D01*
X164550418Y-137051035D01*
X164559230Y-137067075D01*
X164559915Y-137068091D01*
X164572130Y-137065839D01*
X164599126Y-137056115D01*
X164608692Y-137052216D01*
X164664223Y-137035516D01*
X164709298Y-137038442D01*
X164750376Y-137061677D01*
X164757683Y-137067925D01*
X164791806Y-137113639D01*
X164806092Y-137167741D01*
X164799227Y-137222554D01*
X164788263Y-137246472D01*
X164765635Y-137284778D01*
X164813235Y-137329670D01*
X164845399Y-137365959D01*
X164854838Y-137392990D01*
X164854021Y-137397456D01*
X164845875Y-137427283D01*
X164838825Y-137455475D01*
X164822622Y-137488976D01*
X164798410Y-137515800D01*
X164759048Y-137536977D01*
X164715653Y-137539475D01*
X164664620Y-137522712D01*
X164602347Y-137486105D01*
X164598399Y-137483418D01*
X164514292Y-137425837D01*
X164340421Y-137517129D01*
X164272381Y-137552928D01*
X164205087Y-137588465D01*
X164145070Y-137620283D01*
X164098862Y-137644923D01*
X164087718Y-137650910D01*
X164043670Y-137674423D01*
X164016844Y-137687480D01*
X164002142Y-137691756D01*
X163994469Y-137688926D01*
X163990148Y-137682963D01*
X163995925Y-137670366D01*
X164016200Y-137642896D01*
X164048069Y-137604178D01*
X164088624Y-137557836D01*
X164104698Y-137540088D01*
X164153102Y-137486767D01*
X164199470Y-137435083D01*
X164239021Y-137390403D01*
X164266974Y-137358097D01*
X164270305Y-137354130D01*
X164314913Y-137300610D01*
X164280794Y-137230873D01*
X164260966Y-137185552D01*
X164252941Y-137150472D01*
X164254512Y-137114682D01*
X164255764Y-137106593D01*
X164273986Y-137055519D01*
X164307362Y-137009679D01*
X164349801Y-136975084D01*
X164395212Y-136957744D01*
X164407557Y-136956800D01*
X164468120Y-136964691D01*
X164468120Y-136964691D01*
G37*
X164468120Y-136964691D02*
X164511376Y-136989392D01*
X164535856Y-137022929D01*
X164550418Y-137051035D01*
X164559230Y-137067075D01*
X164559915Y-137068091D01*
X164572130Y-137065839D01*
X164599126Y-137056115D01*
X164608692Y-137052216D01*
X164664223Y-137035516D01*
X164709298Y-137038442D01*
X164750376Y-137061677D01*
X164757683Y-137067925D01*
X164791806Y-137113639D01*
X164806092Y-137167741D01*
X164799227Y-137222554D01*
X164788263Y-137246472D01*
X164765635Y-137284778D01*
X164813235Y-137329670D01*
X164845399Y-137365959D01*
X164854838Y-137392990D01*
X164854021Y-137397456D01*
X164845875Y-137427283D01*
X164838825Y-137455475D01*
X164822622Y-137488976D01*
X164798410Y-137515800D01*
X164759048Y-137536977D01*
X164715653Y-137539475D01*
X164664620Y-137522712D01*
X164602347Y-137486105D01*
X164598399Y-137483418D01*
X164514292Y-137425837D01*
X164340421Y-137517129D01*
X164272381Y-137552928D01*
X164205087Y-137588465D01*
X164145070Y-137620283D01*
X164098862Y-137644923D01*
X164087718Y-137650910D01*
X164043670Y-137674423D01*
X164016844Y-137687480D01*
X164002142Y-137691756D01*
X163994469Y-137688926D01*
X163990148Y-137682963D01*
X163995925Y-137670366D01*
X164016200Y-137642896D01*
X164048069Y-137604178D01*
X164088624Y-137557836D01*
X164104698Y-137540088D01*
X164153102Y-137486767D01*
X164199470Y-137435083D01*
X164239021Y-137390403D01*
X164266974Y-137358097D01*
X164270305Y-137354130D01*
X164314913Y-137300610D01*
X164280794Y-137230873D01*
X164260966Y-137185552D01*
X164252941Y-137150472D01*
X164254512Y-137114682D01*
X164255764Y-137106593D01*
X164273986Y-137055519D01*
X164307362Y-137009679D01*
X164349801Y-136975084D01*
X164395212Y-136957744D01*
X164407557Y-136956800D01*
X164468120Y-136964691D01*
G36*
X162198336Y-136811315D02*
X162243302Y-136813722D01*
X162276014Y-136819031D01*
X162303041Y-136828307D01*
X162330750Y-136842500D01*
X162386358Y-136883102D01*
X162418627Y-136928094D01*
X162427078Y-136975402D01*
X162411231Y-137022950D01*
X162380946Y-137059570D01*
X162362336Y-137078220D01*
X162351346Y-137095846D01*
X162346285Y-137119367D01*
X162345461Y-137155706D01*
X162346749Y-137199541D01*
X162350450Y-137304109D01*
X162426650Y-137321181D01*
X162608285Y-137373351D01*
X162780363Y-137445539D01*
X162940647Y-137536045D01*
X163086900Y-137643172D01*
X163216883Y-137765220D01*
X163328360Y-137900493D01*
X163419094Y-138047291D01*
X163440871Y-138091061D01*
X163499427Y-138241353D01*
X163538543Y-138399994D01*
X163557772Y-138562051D01*
X163556670Y-138722588D01*
X163534791Y-138876669D01*
X163517788Y-138943472D01*
X163468405Y-139078976D01*
X163400908Y-139215876D01*
X163319584Y-139347079D01*
X163228721Y-139465492D01*
X163155212Y-139543246D01*
X163087548Y-139601589D01*
X163006312Y-139662052D01*
X162917481Y-139720956D01*
X162827029Y-139774620D01*
X162740932Y-139819364D01*
X162665166Y-139851507D01*
X162642550Y-139858993D01*
X162591750Y-139874233D01*
X162588306Y-140115571D01*
X162584863Y-140356908D01*
X162708956Y-140391294D01*
X162918299Y-140460695D01*
X163111416Y-140548122D01*
X163287534Y-140652960D01*
X163445877Y-140774595D01*
X163585669Y-140912412D01*
X163706134Y-141065798D01*
X163806499Y-141234139D01*
X163827952Y-141277630D01*
X163853434Y-141328146D01*
X163876187Y-141359868D01*
X163901759Y-141374657D01*
X163935697Y-141374373D01*
X163983553Y-141360876D01*
X164027968Y-141344689D01*
X164139974Y-141290751D01*
X164250586Y-141215297D01*
X164355864Y-141122082D01*
X164451869Y-141014859D01*
X164534662Y-140897385D01*
X164577908Y-140820504D01*
X164609705Y-140752755D01*
X164642624Y-140673832D01*
X164673362Y-140592424D01*
X164698620Y-140517222D01*
X164713701Y-140463037D01*
X164726977Y-140400809D01*
X164740101Y-140329288D01*
X164752006Y-140255481D01*
X164761627Y-140186398D01*
X164767898Y-140129046D01*
X164769800Y-140094171D01*
X164773414Y-140059649D01*
X164782268Y-140035783D01*
X164783786Y-140033993D01*
X164786800Y-140019469D01*
X164774623Y-139993924D01*
X164745698Y-139954130D01*
X164744672Y-139952830D01*
X164670562Y-139841562D01*
X164617019Y-139719664D01*
X164602919Y-139674724D01*
X164589920Y-139623969D01*
X164582546Y-139578029D01*
X164580706Y-139530205D01*
X164584310Y-139473799D01*
X164593267Y-139402112D01*
X164598735Y-139364965D01*
X164614562Y-139270492D01*
X164630695Y-139193228D01*
X164646593Y-139135069D01*
X164661712Y-139097914D01*
X164675513Y-139083656D01*
X164679030Y-139084012D01*
X164698370Y-139089542D01*
X164736183Y-139098968D01*
X164786134Y-139110740D01*
X164818837Y-139118183D01*
X164871125Y-139130133D01*
X164913201Y-139140134D01*
X164939530Y-139146851D01*
X164945553Y-139148802D01*
X164941655Y-139160038D01*
X164926874Y-139185004D01*
X164916570Y-139200537D01*
X164878006Y-139273291D01*
X164850477Y-139358361D01*
X164836842Y-139444906D01*
X164837182Y-139501512D01*
X164855800Y-139600550D01*
X164890915Y-139689450D01*
X164940216Y-139764315D01*
X165001396Y-139821245D01*
X165039905Y-139843801D01*
X165083624Y-139857280D01*
X165139021Y-139864420D01*
X165159069Y-139864980D01*
X165242306Y-139852949D01*
X165316385Y-139817536D01*
X165380518Y-139759342D01*
X165433913Y-139678969D01*
X165451174Y-139642850D01*
X165462214Y-139602632D01*
X165469917Y-139545001D01*
X165474168Y-139477303D01*
X165474857Y-139406888D01*
X165471870Y-139341104D01*
X165465095Y-139287297D01*
X165457065Y-139258267D01*
X165446711Y-139230110D01*
X165443854Y-139214441D01*
X165444365Y-139213616D01*
X165458307Y-139212979D01*
X165491954Y-139213645D01*
X165539651Y-139215461D01*
X165575777Y-139217198D01*
X165702304Y-139223750D01*
X165718390Y-139299950D01*
X165725645Y-139348602D01*
X165730863Y-139411353D01*
X165733199Y-139476928D01*
X165733197Y-139496800D01*
X165720964Y-139633117D01*
X165686775Y-139757449D01*
X165629846Y-139871839D01*
X165549396Y-139978331D01*
X165548344Y-139979504D01*
X165508593Y-140017818D01*
X165459161Y-140057092D01*
X165406954Y-140092631D01*
X165358880Y-140119736D01*
X165321845Y-140133711D01*
X165321480Y-140133783D01*
X165299551Y-140144339D01*
X165294031Y-140158885D01*
X165306379Y-140168980D01*
X165315240Y-140169900D01*
X165334266Y-140173508D01*
X165346085Y-140186738D01*
X165351253Y-140213194D01*
X165350329Y-140256484D01*
X165343870Y-140320211D01*
X165341486Y-140339523D01*
X165305603Y-140541555D01*
X165249430Y-140746732D01*
X165175304Y-140946662D01*
X165166598Y-140966955D01*
X165072236Y-141155625D01*
X164959844Y-141330724D01*
X164831215Y-141490549D01*
X164688145Y-141633392D01*
X164532426Y-141757550D01*
X164365855Y-141861316D01*
X164190224Y-141942984D01*
X164109400Y-141971849D01*
X164001450Y-142006878D01*
X163992197Y-142120264D01*
X163963798Y-142313337D01*
X163910427Y-142505192D01*
X163832514Y-142694596D01*
X163730487Y-142880320D01*
X163723739Y-142891111D01*
X163653623Y-143002473D01*
X163712296Y-143087961D01*
X163799613Y-143224901D01*
X163888180Y-143381990D01*
X163975706Y-143554226D01*
X164059898Y-143736607D01*
X164138465Y-143924130D01*
X164209116Y-144111794D01*
X164269557Y-144294596D01*
X164278050Y-144322800D01*
X164301034Y-144400324D01*
X164319143Y-144462131D01*
X164333768Y-144513679D01*
X164346300Y-144560426D01*
X164358131Y-144607833D01*
X164370652Y-144661359D01*
X164385253Y-144726462D01*
X164403327Y-144808601D01*
X164412367Y-144849850D01*
X164432260Y-144949495D01*
X164452653Y-145067492D01*
X164472553Y-145196835D01*
X164490967Y-145330519D01*
X164506903Y-145461539D01*
X164519367Y-145582890D01*
X164523923Y-145636908D01*
X164532229Y-145744972D01*
X164584339Y-145775639D01*
X164628562Y-145807103D01*
X164678854Y-145851213D01*
X164729026Y-145901624D01*
X164772886Y-145951988D01*
X164804243Y-145995958D01*
X164810608Y-146007606D01*
X164826767Y-146056167D01*
X164834342Y-146120811D01*
X164835194Y-146152697D01*
X164831062Y-146225135D01*
X164815354Y-146286153D01*
X164784961Y-146342521D01*
X164736770Y-146401004D01*
X164707270Y-146430968D01*
X164642905Y-146486440D01*
X164569683Y-146534216D01*
X164482282Y-146577263D01*
X164375380Y-146618549D01*
X164363400Y-146622699D01*
X164242750Y-146664131D01*
X163976050Y-146664015D01*
X163885651Y-146663801D01*
X163816075Y-146662980D01*
X163762747Y-146661147D01*
X163721089Y-146657898D01*
X163686525Y-146652826D01*
X163654480Y-146645529D01*
X163620377Y-146635601D01*
X163606945Y-146631379D01*
X163474220Y-146581417D01*
X163359834Y-146522165D01*
X163265005Y-146454775D01*
X163190950Y-146380398D01*
X163138886Y-146300187D01*
X163110030Y-146215293D01*
X163104285Y-146155634D01*
X163116504Y-146071802D01*
X163151442Y-145988944D01*
X163206518Y-145910308D01*
X163279152Y-145839143D01*
X163366766Y-145778695D01*
X163428307Y-145747660D01*
X163464765Y-145731647D01*
X163458326Y-145538398D01*
X163455818Y-145473592D01*
X163452565Y-145415859D01*
X163447984Y-145360453D01*
X163441494Y-145302627D01*
X163432512Y-145237634D01*
X163420455Y-145160728D01*
X163404742Y-145067164D01*
X163390206Y-144983200D01*
X163345397Y-144765776D01*
X163287797Y-144550796D01*
X163219001Y-144342544D01*
X163140602Y-144145303D01*
X163054194Y-143963357D01*
X162961372Y-143800991D01*
X162935470Y-143761143D01*
X162896057Y-143701623D01*
X162867575Y-143660057D01*
X162845612Y-143634153D01*
X162825761Y-143621619D01*
X162803612Y-143620164D01*
X162774754Y-143627495D01*
X162734779Y-143641322D01*
X162716744Y-143647473D01*
X162659913Y-143664582D01*
X162587239Y-143683734D01*
X162507904Y-143702636D01*
X162431093Y-143718992D01*
X162428107Y-143719580D01*
X162365477Y-143731529D01*
X162313497Y-143740217D01*
X162266264Y-143746036D01*
X162217875Y-143749375D01*
X162162426Y-143750626D01*
X162094015Y-143750181D01*
X162006738Y-143748431D01*
X161996307Y-143748188D01*
X161900057Y-143745521D01*
X161822395Y-143741953D01*
X161756507Y-143736581D01*
X161695583Y-143728501D01*
X161632808Y-143716807D01*
X161561371Y-143700598D01*
X161474460Y-143678967D01*
X161474150Y-143678888D01*
X161418240Y-143663116D01*
X161359479Y-143644203D01*
X161330818Y-143633895D01*
X161293908Y-143620787D01*
X161268187Y-143613493D01*
X161260456Y-143613114D01*
X161251907Y-143625076D01*
X161232586Y-143651807D01*
X161206662Y-143687539D01*
X161206472Y-143687800D01*
X161105682Y-143842541D01*
X161011747Y-144018590D01*
X160925720Y-144212528D01*
X160848653Y-144420935D01*
X160781602Y-144640389D01*
X160725618Y-144867472D01*
X160681756Y-145098763D01*
X160651069Y-145330841D01*
X160635383Y-145542000D01*
X160627109Y-145726150D01*
X160700295Y-145763726D01*
X160800627Y-145825374D01*
X160880997Y-145896311D01*
X160940074Y-145974762D01*
X160976532Y-146058955D01*
X160989040Y-146147116D01*
X160989035Y-146149183D01*
X160976169Y-146239726D01*
X160939303Y-146325171D01*
X160879503Y-146404515D01*
X160797839Y-146476754D01*
X160695376Y-146540886D01*
X160573184Y-146595906D01*
X160480396Y-146627295D01*
X160429429Y-146641349D01*
X160381485Y-146651303D01*
X160329599Y-146658042D01*
X160266804Y-146662451D01*
X160186133Y-146665414D01*
X160178750Y-146665614D01*
X160104304Y-146666760D01*
X160031965Y-146666402D01*
X159968790Y-146664673D01*
X159921837Y-146661705D01*
X159912050Y-146660603D01*
X159790942Y-146636807D01*
X159673878Y-146599073D01*
X159564579Y-146549567D01*
X159466765Y-146490452D01*
X159384155Y-146423892D01*
X159320469Y-146352052D01*
X159288128Y-146297650D01*
X159262171Y-146213962D01*
X159258293Y-146125341D01*
X159275747Y-146037996D01*
X159313789Y-145958140D01*
X159331899Y-145933021D01*
X159369826Y-145891097D01*
X159418762Y-145844562D01*
X159471231Y-145799889D01*
X159519755Y-145763555D01*
X159546925Y-145746786D01*
X159561204Y-145736934D01*
X159569747Y-145722133D01*
X159574000Y-145696423D01*
X159575409Y-145653842D01*
X159575500Y-145628927D01*
X159578040Y-145563844D01*
X159585205Y-145478801D01*
X159596309Y-145378675D01*
X159610667Y-145268345D01*
X159627594Y-145152690D01*
X159646405Y-145036587D01*
X159666415Y-144924915D01*
X159686938Y-144822552D01*
X159692055Y-144799050D01*
X159781584Y-144442505D01*
X159887871Y-144104923D01*
X160010989Y-143786110D01*
X160151016Y-143485874D01*
X160308027Y-143204023D01*
X160339306Y-143153298D01*
X160372114Y-143099605D01*
X160399273Y-143052638D01*
X160418191Y-143017064D01*
X160426279Y-142997548D01*
X160426400Y-142996412D01*
X160418831Y-142975252D01*
X160400280Y-142946799D01*
X160396971Y-142942649D01*
X160369225Y-142903819D01*
X160334957Y-142848464D01*
X160297936Y-142783281D01*
X160261930Y-142714969D01*
X160230707Y-142650224D01*
X160224160Y-142635538D01*
X160167226Y-142480114D01*
X160124949Y-142309816D01*
X160102617Y-142165074D01*
X160095032Y-142104221D01*
X160087309Y-142052687D01*
X160080316Y-142015663D01*
X160074925Y-141998339D01*
X160074614Y-141997984D01*
X160058246Y-141989999D01*
X160024190Y-141977625D01*
X159979228Y-141963288D01*
X159970221Y-141960605D01*
X159916134Y-141941876D01*
X159850715Y-141915125D01*
X159784718Y-141884875D01*
X159756693Y-141870805D01*
X159579194Y-141764335D01*
X159415594Y-141637237D01*
X159266869Y-141490752D01*
X159133998Y-141326122D01*
X159017960Y-141144586D01*
X158919733Y-140947388D01*
X158840294Y-140735766D01*
X158826385Y-140690600D01*
X158805236Y-140612213D01*
X158784254Y-140521899D01*
X158765024Y-140427691D01*
X158749131Y-140337624D01*
X158738159Y-140259732D01*
X158734960Y-140227165D01*
X158734078Y-140194293D01*
X158741388Y-140178374D01*
X158761647Y-140171193D01*
X158768057Y-140170015D01*
X158794221Y-140160877D01*
X158809698Y-140147742D01*
X158810522Y-140136202D01*
X158795146Y-140131800D01*
X158773595Y-140126288D01*
X158737992Y-140111942D01*
X158702012Y-140094825D01*
X158611285Y-140035213D01*
X158529742Y-139955191D01*
X158460319Y-139858972D01*
X158405951Y-139750764D01*
X158369575Y-139634779D01*
X158364732Y-139611100D01*
X158357945Y-139563565D01*
X158355705Y-139513314D01*
X158358002Y-139452815D01*
X158364449Y-139378291D01*
X158371009Y-139318990D01*
X158377656Y-139269226D01*
X158383604Y-139234290D01*
X158387998Y-139219541D01*
X158402664Y-139215917D01*
X158435288Y-139212344D01*
X158479427Y-139209119D01*
X158528639Y-139206539D01*
X158576481Y-139204900D01*
X158616511Y-139204499D01*
X158642285Y-139205632D01*
X158648399Y-139207554D01*
X158645018Y-139221584D01*
X158636285Y-139252367D01*
X158627540Y-139281769D01*
X158608404Y-139378840D01*
X158607474Y-139477308D01*
X158623353Y-139572835D01*
X158654644Y-139661082D01*
X158699950Y-139737711D01*
X158757875Y-139798383D01*
X158803469Y-139828163D01*
X158859033Y-139846174D01*
X158926648Y-139852928D01*
X158995605Y-139848442D01*
X159055194Y-139832734D01*
X159066033Y-139827748D01*
X159128596Y-139782310D01*
X159181472Y-139716774D01*
X159222219Y-139635387D01*
X159248398Y-139542394D01*
X159254591Y-139499685D01*
X159253799Y-139433782D01*
X159241133Y-139358020D01*
X159219177Y-139283419D01*
X159190519Y-139221002D01*
X159188345Y-139217400D01*
X159168818Y-139185550D01*
X159154408Y-139161784D01*
X159152250Y-139158157D01*
X159157971Y-139148732D01*
X159185724Y-139136841D01*
X159236671Y-139122066D01*
X159285079Y-139110176D01*
X159341497Y-139097468D01*
X159388177Y-139087939D01*
X159420004Y-139082566D01*
X159431768Y-139082134D01*
X159437652Y-139097175D01*
X159442896Y-139120260D01*
X159452453Y-139159009D01*
X159461352Y-139186049D01*
X159467504Y-139210805D01*
X159475349Y-139254863D01*
X159483933Y-139312268D01*
X159492303Y-139377060D01*
X159493306Y-139385547D01*
X159501458Y-139461625D01*
X159505522Y-139518775D01*
X159505611Y-139563121D01*
X159501839Y-139600787D01*
X159497725Y-139622941D01*
X159476132Y-139697647D01*
X159443411Y-139778789D01*
X159403964Y-139857051D01*
X159362192Y-139923117D01*
X159346331Y-139943435D01*
X159318844Y-139977282D01*
X159305057Y-140001273D01*
X159302025Y-140024738D01*
X159306804Y-140057008D01*
X159308215Y-140064212D01*
X159315216Y-140102829D01*
X159324451Y-140158118D01*
X159334532Y-140221612D01*
X159341161Y-140265150D01*
X159383029Y-140470868D01*
X159444878Y-140661214D01*
X159526630Y-140835974D01*
X159600017Y-140955318D01*
X159645832Y-141015134D01*
X159703746Y-141080471D01*
X159767550Y-141145123D01*
X159831036Y-141202881D01*
X159887992Y-141247536D01*
X159901112Y-141256329D01*
X159963503Y-141292045D01*
X160032815Y-141325018D01*
X160100607Y-141351678D01*
X160158442Y-141368458D01*
X160172226Y-141370978D01*
X160195912Y-141373512D01*
X160211954Y-141369354D01*
X160225361Y-141353847D01*
X160241140Y-141322333D01*
X160252862Y-141295999D01*
X160310184Y-141186109D01*
X160386398Y-141070294D01*
X160477351Y-140953313D01*
X160578893Y-140839926D01*
X160686869Y-140734892D01*
X160797130Y-140642971D01*
X160864550Y-140594830D01*
X161050739Y-140484350D01*
X161248102Y-140392056D01*
X161450308Y-140320740D01*
X161541144Y-140296249D01*
X161595439Y-140283048D01*
X161591944Y-140084144D01*
X161588450Y-139885239D01*
X161531300Y-139868807D01*
X161441444Y-139836093D01*
X161341218Y-139787976D01*
X161236874Y-139728257D01*
X161134664Y-139660737D01*
X161040841Y-139589218D01*
X160974770Y-139530467D01*
X160872980Y-139417662D01*
X161378900Y-139417662D01*
X161388116Y-139473168D01*
X161416061Y-139511644D01*
X161463176Y-139533688D01*
X161464858Y-139534094D01*
X161477821Y-139531424D01*
X161509197Y-139523618D01*
X161552891Y-139512207D01*
X161565603Y-139508815D01*
X161612598Y-139495825D01*
X161649836Y-139484795D01*
X161670681Y-139477710D01*
X161672478Y-139476836D01*
X161692358Y-139471171D01*
X161732343Y-139464516D01*
X161787183Y-139457398D01*
X161851628Y-139450349D01*
X161920428Y-139443896D01*
X161988334Y-139438569D01*
X162050095Y-139434897D01*
X162100463Y-139433409D01*
X162103310Y-139433401D01*
X162174477Y-139435519D01*
X162255764Y-139441428D01*
X162340583Y-139450304D01*
X162422346Y-139461321D01*
X162494466Y-139473653D01*
X162550355Y-139486474D01*
X162566350Y-139491435D01*
X162610896Y-139502236D01*
X162663275Y-139508607D01*
X162682903Y-139509315D01*
X162737434Y-139502478D01*
X162773980Y-139480084D01*
X162794585Y-139439845D01*
X162801291Y-139379473D01*
X162801300Y-139376813D01*
X162797364Y-139333804D01*
X162783270Y-139298724D01*
X162755589Y-139267919D01*
X162710892Y-139237737D01*
X162645749Y-139204526D01*
X162634706Y-139199382D01*
X162530311Y-139157859D01*
X162421467Y-139128774D01*
X162302315Y-139111027D01*
X162166995Y-139103519D01*
X162121316Y-139103100D01*
X161956364Y-139110334D01*
X161810367Y-139132487D01*
X161681249Y-139170238D01*
X161566935Y-139224262D01*
X161465347Y-139295238D01*
X161426525Y-139329745D01*
X161395113Y-139364533D01*
X161381030Y-139395675D01*
X161378900Y-139417662D01*
X160872980Y-139417662D01*
X160857970Y-139401028D01*
X160761090Y-139259487D01*
X160684594Y-139108345D01*
X160628947Y-138950106D01*
X160594616Y-138787273D01*
X160582065Y-138622350D01*
X160591760Y-138457839D01*
X160606894Y-138382375D01*
X161038510Y-138382375D01*
X161041216Y-138436486D01*
X161047050Y-138488185D01*
X161055170Y-138531542D01*
X161064731Y-138560625D01*
X161073623Y-138569700D01*
X161084433Y-138580367D01*
X161091287Y-138598275D01*
X161107910Y-138630198D01*
X161140192Y-138668790D01*
X161181905Y-138707828D01*
X161226821Y-138741088D01*
X161244749Y-138751628D01*
X161343691Y-138792088D01*
X161444446Y-138807665D01*
X161550266Y-138798828D01*
X161559249Y-138797039D01*
X161653912Y-138764793D01*
X161738313Y-138710771D01*
X161809111Y-138637636D01*
X161857717Y-138559152D01*
X161876093Y-138517506D01*
X161884401Y-138488048D01*
X162256452Y-138488048D01*
X162261932Y-138516432D01*
X162265327Y-138528022D01*
X162292635Y-138587948D01*
X162336746Y-138650240D01*
X162391314Y-138706810D01*
X162428524Y-138736089D01*
X162518641Y-138783176D01*
X162617259Y-138806384D01*
X162724085Y-138805662D01*
X162778449Y-138796745D01*
X162871773Y-138765610D01*
X162950968Y-138714267D01*
X163017135Y-138641788D01*
X163069519Y-138551251D01*
X163087079Y-138510941D01*
X163097402Y-138476821D01*
X163102000Y-138439853D01*
X163102385Y-138391004D01*
X163101499Y-138360150D01*
X163097600Y-138295064D01*
X163090045Y-138247070D01*
X163077232Y-138207941D01*
X163068133Y-138188700D01*
X163041149Y-138144630D01*
X163007292Y-138100859D01*
X162971500Y-138062621D01*
X162938710Y-138035146D01*
X162913861Y-138023670D01*
X162912349Y-138023600D01*
X162895081Y-138030644D01*
X162860800Y-138050269D01*
X162813103Y-138080208D01*
X162755587Y-138118197D01*
X162691850Y-138161971D01*
X162685422Y-138166475D01*
X162618876Y-138213069D01*
X162556210Y-138256743D01*
X162501637Y-138294575D01*
X162459372Y-138323642D01*
X162433628Y-138341025D01*
X162433515Y-138341100D01*
X162341876Y-138404515D01*
X162282726Y-138450554D01*
X162262575Y-138469689D01*
X162256452Y-138488048D01*
X161884401Y-138488048D01*
X161886815Y-138479490D01*
X161891814Y-138435256D01*
X161893022Y-138379200D01*
X161891682Y-138319421D01*
X161886186Y-138274558D01*
X161874530Y-138234219D01*
X161857237Y-138193448D01*
X161803378Y-138104649D01*
X161733160Y-138034971D01*
X161647884Y-137985282D01*
X161548852Y-137956445D01*
X161491232Y-137949913D01*
X161395092Y-137951312D01*
X161313681Y-137969162D01*
X161240764Y-138005572D01*
X161176868Y-138056306D01*
X161113816Y-138123831D01*
X161071998Y-138192511D01*
X161047931Y-138269347D01*
X161039778Y-138331783D01*
X161038510Y-138382375D01*
X160606894Y-138382375D01*
X160624168Y-138296245D01*
X160679752Y-138140070D01*
X160705955Y-138084809D01*
X160794697Y-137935698D01*
X160903920Y-137794693D01*
X161028864Y-137667207D01*
X161164771Y-137558655D01*
X161174097Y-137552229D01*
X161308967Y-137471915D01*
X161459108Y-137402913D01*
X161616396Y-137348282D01*
X161772706Y-137311082D01*
X161842450Y-137300616D01*
X161914062Y-137292188D01*
X161964311Y-137285471D01*
X161996954Y-137278422D01*
X162015749Y-137268994D01*
X162024453Y-137255144D01*
X162026825Y-137234827D01*
X162026620Y-137205999D01*
X162026600Y-137200409D01*
X162025885Y-137158909D01*
X162021222Y-137135323D01*
X162008836Y-137122164D01*
X161984950Y-137111945D01*
X161981309Y-137110625D01*
X161942151Y-137091214D01*
X161901410Y-137063444D01*
X161892409Y-137055958D01*
X161858154Y-137013009D01*
X161848438Y-136967316D01*
X161862806Y-136920659D01*
X161900805Y-136874819D01*
X161947433Y-136840232D01*
X161971450Y-136826975D01*
X161996454Y-136818375D01*
X162028643Y-136813456D01*
X162074215Y-136811240D01*
X162134550Y-136810750D01*
X162198336Y-136811315D01*
X162198336Y-136811315D01*
G37*
X162198336Y-136811315D02*
X162243302Y-136813722D01*
X162276014Y-136819031D01*
X162303041Y-136828307D01*
X162330750Y-136842500D01*
X162386358Y-136883102D01*
X162418627Y-136928094D01*
X162427078Y-136975402D01*
X162411231Y-137022950D01*
X162380946Y-137059570D01*
X162362336Y-137078220D01*
X162351346Y-137095846D01*
X162346285Y-137119367D01*
X162345461Y-137155706D01*
X162346749Y-137199541D01*
X162350450Y-137304109D01*
X162426650Y-137321181D01*
X162608285Y-137373351D01*
X162780363Y-137445539D01*
X162940647Y-137536045D01*
X163086900Y-137643172D01*
X163216883Y-137765220D01*
X163328360Y-137900493D01*
X163419094Y-138047291D01*
X163440871Y-138091061D01*
X163499427Y-138241353D01*
X163538543Y-138399994D01*
X163557772Y-138562051D01*
X163556670Y-138722588D01*
X163534791Y-138876669D01*
X163517788Y-138943472D01*
X163468405Y-139078976D01*
X163400908Y-139215876D01*
X163319584Y-139347079D01*
X163228721Y-139465492D01*
X163155212Y-139543246D01*
X163087548Y-139601589D01*
X163006312Y-139662052D01*
X162917481Y-139720956D01*
X162827029Y-139774620D01*
X162740932Y-139819364D01*
X162665166Y-139851507D01*
X162642550Y-139858993D01*
X162591750Y-139874233D01*
X162588306Y-140115571D01*
X162584863Y-140356908D01*
X162708956Y-140391294D01*
X162918299Y-140460695D01*
X163111416Y-140548122D01*
X163287534Y-140652960D01*
X163445877Y-140774595D01*
X163585669Y-140912412D01*
X163706134Y-141065798D01*
X163806499Y-141234139D01*
X163827952Y-141277630D01*
X163853434Y-141328146D01*
X163876187Y-141359868D01*
X163901759Y-141374657D01*
X163935697Y-141374373D01*
X163983553Y-141360876D01*
X164027968Y-141344689D01*
X164139974Y-141290751D01*
X164250586Y-141215297D01*
X164355864Y-141122082D01*
X164451869Y-141014859D01*
X164534662Y-140897385D01*
X164577908Y-140820504D01*
X164609705Y-140752755D01*
X164642624Y-140673832D01*
X164673362Y-140592424D01*
X164698620Y-140517222D01*
X164713701Y-140463037D01*
X164726977Y-140400809D01*
X164740101Y-140329288D01*
X164752006Y-140255481D01*
X164761627Y-140186398D01*
X164767898Y-140129046D01*
X164769800Y-140094171D01*
X164773414Y-140059649D01*
X164782268Y-140035783D01*
X164783786Y-140033993D01*
X164786800Y-140019469D01*
X164774623Y-139993924D01*
X164745698Y-139954130D01*
X164744672Y-139952830D01*
X164670562Y-139841562D01*
X164617019Y-139719664D01*
X164602919Y-139674724D01*
X164589920Y-139623969D01*
X164582546Y-139578029D01*
X164580706Y-139530205D01*
X164584310Y-139473799D01*
X164593267Y-139402112D01*
X164598735Y-139364965D01*
X164614562Y-139270492D01*
X164630695Y-139193228D01*
X164646593Y-139135069D01*
X164661712Y-139097914D01*
X164675513Y-139083656D01*
X164679030Y-139084012D01*
X164698370Y-139089542D01*
X164736183Y-139098968D01*
X164786134Y-139110740D01*
X164818837Y-139118183D01*
X164871125Y-139130133D01*
X164913201Y-139140134D01*
X164939530Y-139146851D01*
X164945553Y-139148802D01*
X164941655Y-139160038D01*
X164926874Y-139185004D01*
X164916570Y-139200537D01*
X164878006Y-139273291D01*
X164850477Y-139358361D01*
X164836842Y-139444906D01*
X164837182Y-139501512D01*
X164855800Y-139600550D01*
X164890915Y-139689450D01*
X164940216Y-139764315D01*
X165001396Y-139821245D01*
X165039905Y-139843801D01*
X165083624Y-139857280D01*
X165139021Y-139864420D01*
X165159069Y-139864980D01*
X165242306Y-139852949D01*
X165316385Y-139817536D01*
X165380518Y-139759342D01*
X165433913Y-139678969D01*
X165451174Y-139642850D01*
X165462214Y-139602632D01*
X165469917Y-139545001D01*
X165474168Y-139477303D01*
X165474857Y-139406888D01*
X165471870Y-139341104D01*
X165465095Y-139287297D01*
X165457065Y-139258267D01*
X165446711Y-139230110D01*
X165443854Y-139214441D01*
X165444365Y-139213616D01*
X165458307Y-139212979D01*
X165491954Y-139213645D01*
X165539651Y-139215461D01*
X165575777Y-139217198D01*
X165702304Y-139223750D01*
X165718390Y-139299950D01*
X165725645Y-139348602D01*
X165730863Y-139411353D01*
X165733199Y-139476928D01*
X165733197Y-139496800D01*
X165720964Y-139633117D01*
X165686775Y-139757449D01*
X165629846Y-139871839D01*
X165549396Y-139978331D01*
X165548344Y-139979504D01*
X165508593Y-140017818D01*
X165459161Y-140057092D01*
X165406954Y-140092631D01*
X165358880Y-140119736D01*
X165321845Y-140133711D01*
X165321480Y-140133783D01*
X165299551Y-140144339D01*
X165294031Y-140158885D01*
X165306379Y-140168980D01*
X165315240Y-140169900D01*
X165334266Y-140173508D01*
X165346085Y-140186738D01*
X165351253Y-140213194D01*
X165350329Y-140256484D01*
X165343870Y-140320211D01*
X165341486Y-140339523D01*
X165305603Y-140541555D01*
X165249430Y-140746732D01*
X165175304Y-140946662D01*
X165166598Y-140966955D01*
X165072236Y-141155625D01*
X164959844Y-141330724D01*
X164831215Y-141490549D01*
X164688145Y-141633392D01*
X164532426Y-141757550D01*
X164365855Y-141861316D01*
X164190224Y-141942984D01*
X164109400Y-141971849D01*
X164001450Y-142006878D01*
X163992197Y-142120264D01*
X163963798Y-142313337D01*
X163910427Y-142505192D01*
X163832514Y-142694596D01*
X163730487Y-142880320D01*
X163723739Y-142891111D01*
X163653623Y-143002473D01*
X163712296Y-143087961D01*
X163799613Y-143224901D01*
X163888180Y-143381990D01*
X163975706Y-143554226D01*
X164059898Y-143736607D01*
X164138465Y-143924130D01*
X164209116Y-144111794D01*
X164269557Y-144294596D01*
X164278050Y-144322800D01*
X164301034Y-144400324D01*
X164319143Y-144462131D01*
X164333768Y-144513679D01*
X164346300Y-144560426D01*
X164358131Y-144607833D01*
X164370652Y-144661359D01*
X164385253Y-144726462D01*
X164403327Y-144808601D01*
X164412367Y-144849850D01*
X164432260Y-144949495D01*
X164452653Y-145067492D01*
X164472553Y-145196835D01*
X164490967Y-145330519D01*
X164506903Y-145461539D01*
X164519367Y-145582890D01*
X164523923Y-145636908D01*
X164532229Y-145744972D01*
X164584339Y-145775639D01*
X164628562Y-145807103D01*
X164678854Y-145851213D01*
X164729026Y-145901624D01*
X164772886Y-145951988D01*
X164804243Y-145995958D01*
X164810608Y-146007606D01*
X164826767Y-146056167D01*
X164834342Y-146120811D01*
X164835194Y-146152697D01*
X164831062Y-146225135D01*
X164815354Y-146286153D01*
X164784961Y-146342521D01*
X164736770Y-146401004D01*
X164707270Y-146430968D01*
X164642905Y-146486440D01*
X164569683Y-146534216D01*
X164482282Y-146577263D01*
X164375380Y-146618549D01*
X164363400Y-146622699D01*
X164242750Y-146664131D01*
X163976050Y-146664015D01*
X163885651Y-146663801D01*
X163816075Y-146662980D01*
X163762747Y-146661147D01*
X163721089Y-146657898D01*
X163686525Y-146652826D01*
X163654480Y-146645529D01*
X163620377Y-146635601D01*
X163606945Y-146631379D01*
X163474220Y-146581417D01*
X163359834Y-146522165D01*
X163265005Y-146454775D01*
X163190950Y-146380398D01*
X163138886Y-146300187D01*
X163110030Y-146215293D01*
X163104285Y-146155634D01*
X163116504Y-146071802D01*
X163151442Y-145988944D01*
X163206518Y-145910308D01*
X163279152Y-145839143D01*
X163366766Y-145778695D01*
X163428307Y-145747660D01*
X163464765Y-145731647D01*
X163458326Y-145538398D01*
X163455818Y-145473592D01*
X163452565Y-145415859D01*
X163447984Y-145360453D01*
X163441494Y-145302627D01*
X163432512Y-145237634D01*
X163420455Y-145160728D01*
X163404742Y-145067164D01*
X163390206Y-144983200D01*
X163345397Y-144765776D01*
X163287797Y-144550796D01*
X163219001Y-144342544D01*
X163140602Y-144145303D01*
X163054194Y-143963357D01*
X162961372Y-143800991D01*
X162935470Y-143761143D01*
X162896057Y-143701623D01*
X162867575Y-143660057D01*
X162845612Y-143634153D01*
X162825761Y-143621619D01*
X162803612Y-143620164D01*
X162774754Y-143627495D01*
X162734779Y-143641322D01*
X162716744Y-143647473D01*
X162659913Y-143664582D01*
X162587239Y-143683734D01*
X162507904Y-143702636D01*
X162431093Y-143718992D01*
X162428107Y-143719580D01*
X162365477Y-143731529D01*
X162313497Y-143740217D01*
X162266264Y-143746036D01*
X162217875Y-143749375D01*
X162162426Y-143750626D01*
X162094015Y-143750181D01*
X162006738Y-143748431D01*
X161996307Y-143748188D01*
X161900057Y-143745521D01*
X161822395Y-143741953D01*
X161756507Y-143736581D01*
X161695583Y-143728501D01*
X161632808Y-143716807D01*
X161561371Y-143700598D01*
X161474460Y-143678967D01*
X161474150Y-143678888D01*
X161418240Y-143663116D01*
X161359479Y-143644203D01*
X161330818Y-143633895D01*
X161293908Y-143620787D01*
X161268187Y-143613493D01*
X161260456Y-143613114D01*
X161251907Y-143625076D01*
X161232586Y-143651807D01*
X161206662Y-143687539D01*
X161206472Y-143687800D01*
X161105682Y-143842541D01*
X161011747Y-144018590D01*
X160925720Y-144212528D01*
X160848653Y-144420935D01*
X160781602Y-144640389D01*
X160725618Y-144867472D01*
X160681756Y-145098763D01*
X160651069Y-145330841D01*
X160635383Y-145542000D01*
X160627109Y-145726150D01*
X160700295Y-145763726D01*
X160800627Y-145825374D01*
X160880997Y-145896311D01*
X160940074Y-145974762D01*
X160976532Y-146058955D01*
X160989040Y-146147116D01*
X160989035Y-146149183D01*
X160976169Y-146239726D01*
X160939303Y-146325171D01*
X160879503Y-146404515D01*
X160797839Y-146476754D01*
X160695376Y-146540886D01*
X160573184Y-146595906D01*
X160480396Y-146627295D01*
X160429429Y-146641349D01*
X160381485Y-146651303D01*
X160329599Y-146658042D01*
X160266804Y-146662451D01*
X160186133Y-146665414D01*
X160178750Y-146665614D01*
X160104304Y-146666760D01*
X160031965Y-146666402D01*
X159968790Y-146664673D01*
X159921837Y-146661705D01*
X159912050Y-146660603D01*
X159790942Y-146636807D01*
X159673878Y-146599073D01*
X159564579Y-146549567D01*
X159466765Y-146490452D01*
X159384155Y-146423892D01*
X159320469Y-146352052D01*
X159288128Y-146297650D01*
X159262171Y-146213962D01*
X159258293Y-146125341D01*
X159275747Y-146037996D01*
X159313789Y-145958140D01*
X159331899Y-145933021D01*
X159369826Y-145891097D01*
X159418762Y-145844562D01*
X159471231Y-145799889D01*
X159519755Y-145763555D01*
X159546925Y-145746786D01*
X159561204Y-145736934D01*
X159569747Y-145722133D01*
X159574000Y-145696423D01*
X159575409Y-145653842D01*
X159575500Y-145628927D01*
X159578040Y-145563844D01*
X159585205Y-145478801D01*
X159596309Y-145378675D01*
X159610667Y-145268345D01*
X159627594Y-145152690D01*
X159646405Y-145036587D01*
X159666415Y-144924915D01*
X159686938Y-144822552D01*
X159692055Y-144799050D01*
X159781584Y-144442505D01*
X159887871Y-144104923D01*
X160010989Y-143786110D01*
X160151016Y-143485874D01*
X160308027Y-143204023D01*
X160339306Y-143153298D01*
X160372114Y-143099605D01*
X160399273Y-143052638D01*
X160418191Y-143017064D01*
X160426279Y-142997548D01*
X160426400Y-142996412D01*
X160418831Y-142975252D01*
X160400280Y-142946799D01*
X160396971Y-142942649D01*
X160369225Y-142903819D01*
X160334957Y-142848464D01*
X160297936Y-142783281D01*
X160261930Y-142714969D01*
X160230707Y-142650224D01*
X160224160Y-142635538D01*
X160167226Y-142480114D01*
X160124949Y-142309816D01*
X160102617Y-142165074D01*
X160095032Y-142104221D01*
X160087309Y-142052687D01*
X160080316Y-142015663D01*
X160074925Y-141998339D01*
X160074614Y-141997984D01*
X160058246Y-141989999D01*
X160024190Y-141977625D01*
X159979228Y-141963288D01*
X159970221Y-141960605D01*
X159916134Y-141941876D01*
X159850715Y-141915125D01*
X159784718Y-141884875D01*
X159756693Y-141870805D01*
X159579194Y-141764335D01*
X159415594Y-141637237D01*
X159266869Y-141490752D01*
X159133998Y-141326122D01*
X159017960Y-141144586D01*
X158919733Y-140947388D01*
X158840294Y-140735766D01*
X158826385Y-140690600D01*
X158805236Y-140612213D01*
X158784254Y-140521899D01*
X158765024Y-140427691D01*
X158749131Y-140337624D01*
X158738159Y-140259732D01*
X158734960Y-140227165D01*
X158734078Y-140194293D01*
X158741388Y-140178374D01*
X158761647Y-140171193D01*
X158768057Y-140170015D01*
X158794221Y-140160877D01*
X158809698Y-140147742D01*
X158810522Y-140136202D01*
X158795146Y-140131800D01*
X158773595Y-140126288D01*
X158737992Y-140111942D01*
X158702012Y-140094825D01*
X158611285Y-140035213D01*
X158529742Y-139955191D01*
X158460319Y-139858972D01*
X158405951Y-139750764D01*
X158369575Y-139634779D01*
X158364732Y-139611100D01*
X158357945Y-139563565D01*
X158355705Y-139513314D01*
X158358002Y-139452815D01*
X158364449Y-139378291D01*
X158371009Y-139318990D01*
X158377656Y-139269226D01*
X158383604Y-139234290D01*
X158387998Y-139219541D01*
X158402664Y-139215917D01*
X158435288Y-139212344D01*
X158479427Y-139209119D01*
X158528639Y-139206539D01*
X158576481Y-139204900D01*
X158616511Y-139204499D01*
X158642285Y-139205632D01*
X158648399Y-139207554D01*
X158645018Y-139221584D01*
X158636285Y-139252367D01*
X158627540Y-139281769D01*
X158608404Y-139378840D01*
X158607474Y-139477308D01*
X158623353Y-139572835D01*
X158654644Y-139661082D01*
X158699950Y-139737711D01*
X158757875Y-139798383D01*
X158803469Y-139828163D01*
X158859033Y-139846174D01*
X158926648Y-139852928D01*
X158995605Y-139848442D01*
X159055194Y-139832734D01*
X159066033Y-139827748D01*
X159128596Y-139782310D01*
X159181472Y-139716774D01*
X159222219Y-139635387D01*
X159248398Y-139542394D01*
X159254591Y-139499685D01*
X159253799Y-139433782D01*
X159241133Y-139358020D01*
X159219177Y-139283419D01*
X159190519Y-139221002D01*
X159188345Y-139217400D01*
X159168818Y-139185550D01*
X159154408Y-139161784D01*
X159152250Y-139158157D01*
X159157971Y-139148732D01*
X159185724Y-139136841D01*
X159236671Y-139122066D01*
X159285079Y-139110176D01*
X159341497Y-139097468D01*
X159388177Y-139087939D01*
X159420004Y-139082566D01*
X159431768Y-139082134D01*
X159437652Y-139097175D01*
X159442896Y-139120260D01*
X159452453Y-139159009D01*
X159461352Y-139186049D01*
X159467504Y-139210805D01*
X159475349Y-139254863D01*
X159483933Y-139312268D01*
X159492303Y-139377060D01*
X159493306Y-139385547D01*
X159501458Y-139461625D01*
X159505522Y-139518775D01*
X159505611Y-139563121D01*
X159501839Y-139600787D01*
X159497725Y-139622941D01*
X159476132Y-139697647D01*
X159443411Y-139778789D01*
X159403964Y-139857051D01*
X159362192Y-139923117D01*
X159346331Y-139943435D01*
X159318844Y-139977282D01*
X159305057Y-140001273D01*
X159302025Y-140024738D01*
X159306804Y-140057008D01*
X159308215Y-140064212D01*
X159315216Y-140102829D01*
X159324451Y-140158118D01*
X159334532Y-140221612D01*
X159341161Y-140265150D01*
X159383029Y-140470868D01*
X159444878Y-140661214D01*
X159526630Y-140835974D01*
X159600017Y-140955318D01*
X159645832Y-141015134D01*
X159703746Y-141080471D01*
X159767550Y-141145123D01*
X159831036Y-141202881D01*
X159887992Y-141247536D01*
X159901112Y-141256329D01*
X159963503Y-141292045D01*
X160032815Y-141325018D01*
X160100607Y-141351678D01*
X160158442Y-141368458D01*
X160172226Y-141370978D01*
X160195912Y-141373512D01*
X160211954Y-141369354D01*
X160225361Y-141353847D01*
X160241140Y-141322333D01*
X160252862Y-141295999D01*
X160310184Y-141186109D01*
X160386398Y-141070294D01*
X160477351Y-140953313D01*
X160578893Y-140839926D01*
X160686869Y-140734892D01*
X160797130Y-140642971D01*
X160864550Y-140594830D01*
X161050739Y-140484350D01*
X161248102Y-140392056D01*
X161450308Y-140320740D01*
X161541144Y-140296249D01*
X161595439Y-140283048D01*
X161591944Y-140084144D01*
X161588450Y-139885239D01*
X161531300Y-139868807D01*
X161441444Y-139836093D01*
X161341218Y-139787976D01*
X161236874Y-139728257D01*
X161134664Y-139660737D01*
X161040841Y-139589218D01*
X160974770Y-139530467D01*
X160872980Y-139417662D01*
X161378900Y-139417662D01*
X161388116Y-139473168D01*
X161416061Y-139511644D01*
X161463176Y-139533688D01*
X161464858Y-139534094D01*
X161477821Y-139531424D01*
X161509197Y-139523618D01*
X161552891Y-139512207D01*
X161565603Y-139508815D01*
X161612598Y-139495825D01*
X161649836Y-139484795D01*
X161670681Y-139477710D01*
X161672478Y-139476836D01*
X161692358Y-139471171D01*
X161732343Y-139464516D01*
X161787183Y-139457398D01*
X161851628Y-139450349D01*
X161920428Y-139443896D01*
X161988334Y-139438569D01*
X162050095Y-139434897D01*
X162100463Y-139433409D01*
X162103310Y-139433401D01*
X162174477Y-139435519D01*
X162255764Y-139441428D01*
X162340583Y-139450304D01*
X162422346Y-139461321D01*
X162494466Y-139473653D01*
X162550355Y-139486474D01*
X162566350Y-139491435D01*
X162610896Y-139502236D01*
X162663275Y-139508607D01*
X162682903Y-139509315D01*
X162737434Y-139502478D01*
X162773980Y-139480084D01*
X162794585Y-139439845D01*
X162801291Y-139379473D01*
X162801300Y-139376813D01*
X162797364Y-139333804D01*
X162783270Y-139298724D01*
X162755589Y-139267919D01*
X162710892Y-139237737D01*
X162645749Y-139204526D01*
X162634706Y-139199382D01*
X162530311Y-139157859D01*
X162421467Y-139128774D01*
X162302315Y-139111027D01*
X162166995Y-139103519D01*
X162121316Y-139103100D01*
X161956364Y-139110334D01*
X161810367Y-139132487D01*
X161681249Y-139170238D01*
X161566935Y-139224262D01*
X161465347Y-139295238D01*
X161426525Y-139329745D01*
X161395113Y-139364533D01*
X161381030Y-139395675D01*
X161378900Y-139417662D01*
X160872980Y-139417662D01*
X160857970Y-139401028D01*
X160761090Y-139259487D01*
X160684594Y-139108345D01*
X160628947Y-138950106D01*
X160594616Y-138787273D01*
X160582065Y-138622350D01*
X160591760Y-138457839D01*
X160606894Y-138382375D01*
X161038510Y-138382375D01*
X161041216Y-138436486D01*
X161047050Y-138488185D01*
X161055170Y-138531542D01*
X161064731Y-138560625D01*
X161073623Y-138569700D01*
X161084433Y-138580367D01*
X161091287Y-138598275D01*
X161107910Y-138630198D01*
X161140192Y-138668790D01*
X161181905Y-138707828D01*
X161226821Y-138741088D01*
X161244749Y-138751628D01*
X161343691Y-138792088D01*
X161444446Y-138807665D01*
X161550266Y-138798828D01*
X161559249Y-138797039D01*
X161653912Y-138764793D01*
X161738313Y-138710771D01*
X161809111Y-138637636D01*
X161857717Y-138559152D01*
X161876093Y-138517506D01*
X161884401Y-138488048D01*
X162256452Y-138488048D01*
X162261932Y-138516432D01*
X162265327Y-138528022D01*
X162292635Y-138587948D01*
X162336746Y-138650240D01*
X162391314Y-138706810D01*
X162428524Y-138736089D01*
X162518641Y-138783176D01*
X162617259Y-138806384D01*
X162724085Y-138805662D01*
X162778449Y-138796745D01*
X162871773Y-138765610D01*
X162950968Y-138714267D01*
X163017135Y-138641788D01*
X163069519Y-138551251D01*
X163087079Y-138510941D01*
X163097402Y-138476821D01*
X163102000Y-138439853D01*
X163102385Y-138391004D01*
X163101499Y-138360150D01*
X163097600Y-138295064D01*
X163090045Y-138247070D01*
X163077232Y-138207941D01*
X163068133Y-138188700D01*
X163041149Y-138144630D01*
X163007292Y-138100859D01*
X162971500Y-138062621D01*
X162938710Y-138035146D01*
X162913861Y-138023670D01*
X162912349Y-138023600D01*
X162895081Y-138030644D01*
X162860800Y-138050269D01*
X162813103Y-138080208D01*
X162755587Y-138118197D01*
X162691850Y-138161971D01*
X162685422Y-138166475D01*
X162618876Y-138213069D01*
X162556210Y-138256743D01*
X162501637Y-138294575D01*
X162459372Y-138323642D01*
X162433628Y-138341025D01*
X162433515Y-138341100D01*
X162341876Y-138404515D01*
X162282726Y-138450554D01*
X162262575Y-138469689D01*
X162256452Y-138488048D01*
X161884401Y-138488048D01*
X161886815Y-138479490D01*
X161891814Y-138435256D01*
X161893022Y-138379200D01*
X161891682Y-138319421D01*
X161886186Y-138274558D01*
X161874530Y-138234219D01*
X161857237Y-138193448D01*
X161803378Y-138104649D01*
X161733160Y-138034971D01*
X161647884Y-137985282D01*
X161548852Y-137956445D01*
X161491232Y-137949913D01*
X161395092Y-137951312D01*
X161313681Y-137969162D01*
X161240764Y-138005572D01*
X161176868Y-138056306D01*
X161113816Y-138123831D01*
X161071998Y-138192511D01*
X161047931Y-138269347D01*
X161039778Y-138331783D01*
X161038510Y-138382375D01*
X160606894Y-138382375D01*
X160624168Y-138296245D01*
X160679752Y-138140070D01*
X160705955Y-138084809D01*
X160794697Y-137935698D01*
X160903920Y-137794693D01*
X161028864Y-137667207D01*
X161164771Y-137558655D01*
X161174097Y-137552229D01*
X161308967Y-137471915D01*
X161459108Y-137402913D01*
X161616396Y-137348282D01*
X161772706Y-137311082D01*
X161842450Y-137300616D01*
X161914062Y-137292188D01*
X161964311Y-137285471D01*
X161996954Y-137278422D01*
X162015749Y-137268994D01*
X162024453Y-137255144D01*
X162026825Y-137234827D01*
X162026620Y-137205999D01*
X162026600Y-137200409D01*
X162025885Y-137158909D01*
X162021222Y-137135323D01*
X162008836Y-137122164D01*
X161984950Y-137111945D01*
X161981309Y-137110625D01*
X161942151Y-137091214D01*
X161901410Y-137063444D01*
X161892409Y-137055958D01*
X161858154Y-137013009D01*
X161848438Y-136967316D01*
X161862806Y-136920659D01*
X161900805Y-136874819D01*
X161947433Y-136840232D01*
X161971450Y-136826975D01*
X161996454Y-136818375D01*
X162028643Y-136813456D01*
X162074215Y-136811240D01*
X162134550Y-136810750D01*
X162198336Y-136811315D01*
%TD*%
D14*
%TO.C,REF\002A\002A*%
X105000000Y-105000000D03*
D15*
X107400000Y-105000000D03*
X106697056Y-106697056D03*
X105000000Y-107400000D03*
X103302944Y-106697056D03*
X102600000Y-105000000D03*
X103302944Y-103302944D03*
X105000000Y-102600000D03*
X106697056Y-103302944D03*
%TD*%
%TO.C,REF\002A\002A*%
X106697056Y-143302944D03*
X105000000Y-142600000D03*
X103302944Y-143302944D03*
X102600000Y-145000000D03*
X103302944Y-146697056D03*
X105000000Y-147400000D03*
X106697056Y-146697056D03*
X107400000Y-145000000D03*
D14*
X105000000Y-145000000D03*
%TD*%
%TO.C,REF\002A\002A*%
X175000000Y-145000000D03*
D15*
X177400000Y-145000000D03*
X176697056Y-146697056D03*
X175000000Y-147400000D03*
X173302944Y-146697056D03*
X172600000Y-145000000D03*
X173302944Y-143302944D03*
X175000000Y-142600000D03*
X176697056Y-143302944D03*
%TD*%
%TO.C,REF\002A\002A*%
X176697056Y-103302944D03*
X175000000Y-102600000D03*
X173302944Y-103302944D03*
X172600000Y-105000000D03*
X173302944Y-106697056D03*
X175000000Y-107400000D03*
X176697056Y-106697056D03*
X177400000Y-105000000D03*
D14*
X175000000Y-105000000D03*
%TD*%
D16*
%TO.C,C101*%
X126492000Y-110744000D03*
D17*
X126492000Y-108244000D03*
%TD*%
D18*
%TO.C,D201*%
X130556000Y-104648000D03*
D19*
X130556000Y-102108000D03*
%TD*%
%TO.C,D202*%
X125476000Y-102108000D03*
D18*
X125476000Y-104648000D03*
%TD*%
D20*
%TO.C,J101*%
X141224000Y-118364000D03*
X141224000Y-115824000D03*
D21*
X141224000Y-113284000D03*
%TD*%
D22*
%TO.C,J102*%
X113284000Y-105664000D03*
D23*
X118284000Y-105664000D03*
%TD*%
D24*
%TO.C,J104*%
X138176000Y-123952000D03*
D25*
X140716000Y-123952000D03*
X143256000Y-123952000D03*
%TD*%
D24*
%TO.C,J301*%
X173736000Y-114808000D03*
D25*
X176276000Y-114808000D03*
%TD*%
%TO.C,J401*%
X176276000Y-124968000D03*
D24*
X173736000Y-124968000D03*
%TD*%
%TO.C,J501*%
X137668000Y-107696000D03*
D25*
X140208000Y-107696000D03*
X142748000Y-107696000D03*
%TD*%
D26*
%TO.C,U201*%
X166243000Y-102870000D03*
D27*
X148463000Y-110490000D03*
X163703000Y-102870000D03*
X151003000Y-110490000D03*
X161163000Y-102870000D03*
X153543000Y-110490000D03*
X158623000Y-102870000D03*
X156083000Y-110490000D03*
X156083000Y-102870000D03*
X158623000Y-110490000D03*
X153543000Y-102870000D03*
X161163000Y-110490000D03*
X151003000Y-102870000D03*
X163703000Y-110490000D03*
X148463000Y-102870000D03*
X166243000Y-110490000D03*
%TD*%
%TO.C,U202*%
X134620000Y-138797000D03*
X152400000Y-146417000D03*
X137160000Y-138797000D03*
X149860000Y-146417000D03*
X139700000Y-138797000D03*
X147320000Y-146417000D03*
X142240000Y-138797000D03*
X144780000Y-146417000D03*
X144780000Y-138797000D03*
X142240000Y-146417000D03*
X147320000Y-138797000D03*
X139700000Y-146417000D03*
X149860000Y-138797000D03*
X137160000Y-146417000D03*
X152400000Y-138797000D03*
D26*
X134620000Y-146417000D03*
%TD*%
D28*
%TO.C,U203*%
X146812000Y-114808000D03*
D29*
X154432000Y-130048000D03*
X146812000Y-117348000D03*
X154432000Y-127508000D03*
X146812000Y-119888000D03*
X154432000Y-124968000D03*
X146812000Y-122428000D03*
X154432000Y-122428000D03*
X146812000Y-124968000D03*
X154432000Y-119888000D03*
X146812000Y-127508000D03*
X154432000Y-117348000D03*
X146812000Y-130048000D03*
X154432000Y-114808000D03*
%TD*%
%TO.C,U204*%
X159512000Y-130048000D03*
X167132000Y-114808000D03*
X159512000Y-127508000D03*
X167132000Y-117348000D03*
X159512000Y-124968000D03*
X167132000Y-119888000D03*
X159512000Y-122428000D03*
X167132000Y-122428000D03*
X159512000Y-119888000D03*
X167132000Y-124968000D03*
X159512000Y-117348000D03*
X167132000Y-127508000D03*
X159512000Y-114808000D03*
D28*
X167132000Y-130048000D03*
%TD*%
D30*
%TO.C,J103*%
X117475000Y-117475000D03*
X117475000Y-120015000D03*
X114935000Y-117475000D03*
X114935000Y-120015000D03*
X112395000Y-117475000D03*
X112395000Y-120015000D03*
X109855000Y-117475000D03*
X109855000Y-120015000D03*
X107315000Y-117475000D03*
D31*
X107315000Y-120015000D03*
%TD*%
%TO.C,J105*%
X107315000Y-133350000D03*
D30*
X107315000Y-130810000D03*
X109855000Y-133350000D03*
X109855000Y-130810000D03*
X112395000Y-133350000D03*
X112395000Y-130810000D03*
X114935000Y-133350000D03*
X114935000Y-130810000D03*
X117475000Y-133350000D03*
X117475000Y-130810000D03*
%TD*%
M02*
