M48
;DRILL file {KiCad (2017-10-29 revision a6f84051e)-master} date Thursday, 26 April 2018 'AMt' 10:12:48
;FORMAT={-:-/ absolute / inch / decimal}
FMAT,2
INCH,TZ
T1C0.012
T2C0.016
T3C0.020
T4C0.024
T5C0.031
T6C0.035
T7C0.040
T8C0.047
T9C0.051
T10C0.126
%
G90
G05
M72
T1
X4.46Y-4.84
X4.48Y-4.82
X4.5Y-4.55
X4.52Y-5.06
X4.54Y-4.96
X4.575Y-4.55
X4.62Y-4.96
X4.62Y-5.06
X4.7Y-5.16
X4.7Y-5.28
X4.74Y-5.36
X4.75Y-4.575
X4.75Y-4.625
X4.75Y-5.
X4.75Y-5.4
X4.76Y-5.24
X4.8Y-4.65
X4.8Y-5.05
X4.8Y-5.425
X4.85Y-4.65
X4.85Y-5.05
X4.85Y-5.425
X4.88Y-5.23
X4.88Y-5.27
X4.9Y-4.6
X4.9Y-5.
X4.9Y-5.375
X4.91Y-4.8
X4.91Y-4.9
X4.93Y-4.68
X4.93Y-5.23
X4.95Y-5.05
X4.96Y-4.8
X4.96Y-4.9
X4.97Y-4.64
X4.97Y-4.68
X4.975Y-5.15
X5.075Y-5.05
X5.1Y-4.625
X5.125Y-4.325
X5.15Y-4.625
X5.15Y-5.575
X5.15Y-5.65
X5.175Y-4.2
X5.175Y-4.25
X5.2Y-5.55
X5.2Y-5.675
X5.225Y-5.35
X5.25Y-4.175
X5.25Y-4.7
X5.3Y-3.98
X5.3Y-4.7
X5.3Y-5.35
X5.325Y-4.125
X5.35Y-4.7
X5.4Y-4.7
X5.46Y-3.98
X5.5Y-4.1
X5.575Y-5.375
X5.62Y-3.98
X5.675Y-4.125
X5.8Y-4.125
X5.85Y-4.5
X5.85Y-4.55
X5.875Y-4.125
X5.95Y-5.175
X6.Y-4.975
X6.Y-5.075
X6.Y-5.275
X6.075Y-5.275
X6.15Y-4.25
X6.25Y-4.25
X6.4Y-4.575
X6.4Y-4.725
X6.5Y-5.075
X6.5Y-5.175
X6.625Y-4.15
X6.625Y-4.25
X6.675Y-4.2
X6.9Y-4.775
X6.9Y-5.175
X6.925Y-4.4
X6.95Y-4.725
X6.95Y-4.775
X6.95Y-5.05
X6.95Y-5.125
X6.95Y-5.175
X7.Y-4.4
X7.Y-5.05
T2
X4.375Y-5.3
X4.525Y-4.85
X4.6545Y-4.8
X4.7295Y-4.85
X4.775Y-5.15
X4.875Y-5.15
X4.9Y-4.5295
X4.95Y-4.475
X4.95Y-5.275
X5.125Y-5.275
X5.15Y-5.15
X5.25Y-5.55
X5.3795Y-5.55
X5.425Y-5.1795
X5.4882Y-5.3864
X5.5Y-5.6045
X5.55Y-5.175
X5.55Y-5.5205
X5.55Y-5.6045
X5.6Y-4.3705
X5.6Y-5.1955
X5.6Y-5.3292
X5.65Y-4.5
X5.7Y-4.775
X5.9Y-4.275
X5.9Y-4.65
X5.95Y-4.575
X5.975Y-4.625
X5.975Y-4.775
X6.Y-4.275
X6.0151Y-4.595
X6.1Y-4.2455
X6.1705Y-4.85
X6.2Y-4.2455
X6.2Y-4.675
X6.2Y-5.2545
X6.3939Y-5.1894
X6.45Y-4.8
X6.45Y-4.975
X6.4538Y-4.9038
T3
X4.0394Y-5.7087
X4.067Y-5.6418
X4.067Y-5.7755
X4.1339Y-5.6142
X4.1339Y-5.8031
X4.2007Y-5.6418
X4.2007Y-5.7755
X4.2283Y-5.7087
X4.0394Y-4.1339
X4.067Y-4.067
X4.067Y-4.2007
X4.1339Y-4.0394
X4.1339Y-4.2283
X4.2007Y-4.067
X4.2007Y-4.2007
X4.2283Y-4.1339
X6.7953Y-5.7087
X6.823Y-5.6418
X6.823Y-5.7755
X6.8898Y-5.6142
X6.8898Y-5.8031
X6.9566Y-5.6418
X6.9566Y-5.7755
X6.9843Y-5.7087
X6.7953Y-4.1339
X6.823Y-4.067
X6.823Y-4.2007
X6.8898Y-4.0394
X6.8898Y-4.2283
X6.9566Y-4.067
X6.9566Y-4.2007
X6.9843Y-4.1339
T4
X5.02Y-4.52
X5.02Y-4.8
X5.02Y-5.2
T5
X5.78Y-4.52
X5.78Y-4.82
X5.78Y-4.92
X5.78Y-5.02
X5.78Y-5.12
X6.08Y-4.52
X6.08Y-4.62
X6.08Y-4.72
X6.08Y-4.82
X6.08Y-4.92
X6.08Y-5.02
X6.08Y-5.12
X4.98Y-4.2616
X4.98Y-4.36
X5.845Y-4.05
X5.845Y-4.35
X5.945Y-4.05
X5.945Y-4.35
X6.045Y-4.05
X6.045Y-4.35
X6.145Y-4.05
X6.145Y-4.35
X6.245Y-4.05
X6.245Y-4.35
X6.345Y-4.05
X6.345Y-4.35
X6.445Y-4.05
X6.445Y-4.35
X6.545Y-4.05
X6.545Y-4.35
X5.3Y-5.4644
X5.78Y-4.72
X5.3Y-5.7644
X5.4Y-5.4644
X5.4Y-5.7644
X5.5Y-5.4644
X5.5Y-5.7644
X5.6Y-5.4644
X5.6Y-5.7644
X5.7Y-5.4644
X5.7Y-5.7644
X5.8Y-5.4644
X5.8Y-5.7644
X5.78Y-4.62
X5.9Y-5.4644
X5.9Y-5.7644
X6.Y-5.4644
X6.Y-5.7644
X6.28Y-4.52
X6.28Y-4.62
X6.28Y-4.72
X6.28Y-4.82
X6.28Y-4.92
X6.28Y-5.02
X6.28Y-5.12
X6.58Y-4.52
X6.58Y-4.62
X6.58Y-4.72
X6.58Y-4.82
X6.58Y-4.92
X6.58Y-5.02
X6.58Y-5.12
T6
X4.94Y-4.02
X4.94Y-4.12
X5.14Y-4.02
X5.14Y-4.12
T7
X4.225Y-4.625
X4.225Y-4.725
X4.325Y-4.625
X4.325Y-4.725
X4.425Y-4.625
X4.425Y-4.725
X4.525Y-4.625
X4.525Y-4.725
X4.625Y-4.625
X4.625Y-4.725
X4.225Y-5.15
X4.225Y-5.25
X4.325Y-5.15
X4.325Y-5.25
X4.425Y-5.15
X4.425Y-5.25
X4.525Y-5.15
X4.525Y-5.25
X4.625Y-5.15
X4.625Y-5.25
T8
X5.56Y-4.46
X5.56Y-4.56
X5.56Y-4.66
X5.44Y-4.88
X5.54Y-4.88
X5.64Y-4.88
X6.84Y-4.52
X6.94Y-4.52
X5.42Y-4.24
X5.52Y-4.24
X5.62Y-4.24
X6.84Y-4.92
X6.94Y-4.92
T9
X4.46Y-4.16
X4.6569Y-4.16
T10
X6.8898Y-5.7087
X4.1339Y-5.7087
X4.1339Y-4.1339
X6.8898Y-4.1339
T0
M30
