%TF.GenerationSoftware,KiCad,Pcbnew,(2017-10-29 revision a6f84051e)-master*%
%TF.CreationDate,2018-04-26T10:12:28+02:00*%
%TF.ProjectId,ledbox,6C6564626F782E6B696361645F706362,rev?*%
%TF.SameCoordinates,Original*%
%TF.FileFunction,Legend,Bot*%
%TF.FilePolarity,Positive*%
%FSLAX46Y46*%
G04 Gerber Fmt 4.6, Leading zero omitted, Abs format (unit mm)*
G04 Created by KiCad (PCBNEW (2017-10-29 revision a6f84051e)-master) date Thursday, 26 April 2018 'AMt' 10:12:28*
%MOMM*%
%LPD*%
G01*
G04 APERTURE LIST*
%ADD10C,0.200000*%
%ADD11C,0.120000*%
%ADD12C,0.150000*%
%ADD13C,6.400000*%
%ADD14C,0.800000*%
%ADD15R,1.600000X1.600000*%
%ADD16C,1.600000*%
%ADD17R,1.000000X1.250000*%
%ADD18R,1.250000X1.000000*%
%ADD19R,1.800000X1.800000*%
%ADD20C,1.800000*%
%ADD21O,2.600000X2.000000*%
%ADD22R,2.600000X2.000000*%
%ADD23R,2.500000X2.500000*%
%ADD24C,2.500000*%
%ADD25R,2.000000X2.600000*%
%ADD26O,2.000000X2.600000*%
%ADD27R,0.900000X0.800000*%
%ADD28R,0.700000X1.300000*%
%ADD29R,1.300000X0.700000*%
%ADD30R,1.600000X2.400000*%
%ADD31O,1.600000X2.400000*%
%ADD32R,2.400000X1.600000*%
%ADD33O,2.400000X1.600000*%
%ADD34R,1.600000X1.000000*%
%ADD35O,1.727200X1.727200*%
%ADD36R,1.727200X1.727200*%
G04 APERTURE END LIST*
D10*
X169418000Y-116078000D02*
X169672000Y-116332000D01*
X169418000Y-128778000D02*
X169672000Y-129032000D01*
X166116000Y-128778000D02*
X169418000Y-128778000D01*
X169418000Y-126238000D02*
X169672000Y-126492000D01*
X165862000Y-126238000D02*
X169418000Y-126238000D01*
X169418000Y-118618000D02*
X169672000Y-118872000D01*
X166116000Y-118618000D02*
X169418000Y-118618000D01*
X166116000Y-116078000D02*
X169418000Y-116078000D01*
D11*
%TO.C,C201*%
X167632000Y-107530000D02*
X166632000Y-107530000D01*
X166632000Y-105830000D02*
X167632000Y-105830000D01*
%TO.C,C202*%
X151376000Y-115658000D02*
X150376000Y-115658000D01*
X150376000Y-113958000D02*
X151376000Y-113958000D01*
%TO.C,C203*%
X163568000Y-130898000D02*
X162568000Y-130898000D01*
X162568000Y-129198000D02*
X163568000Y-129198000D01*
%TO.C,C204*%
X132850000Y-141757000D02*
X133850000Y-141757000D01*
X133850000Y-143457000D02*
X132850000Y-143457000D01*
%TO.C,C301*%
X173744000Y-119038000D02*
X174744000Y-119038000D01*
X174744000Y-120738000D02*
X173744000Y-120738000D01*
%TO.C,C401*%
X173744000Y-129198000D02*
X174744000Y-129198000D01*
X174744000Y-130898000D02*
X173744000Y-130898000D01*
%TO.C,C501*%
X130850000Y-114500000D02*
X130850000Y-115500000D01*
X129150000Y-115500000D02*
X129150000Y-114500000D01*
%TO.C,C502*%
X126185000Y-129960000D02*
X127185000Y-129960000D01*
X127185000Y-131660000D02*
X126185000Y-131660000D01*
%TO.C,C503*%
X126185000Y-119800000D02*
X127185000Y-119800000D01*
X127185000Y-121500000D02*
X126185000Y-121500000D01*
%TO.C,C504*%
X134612000Y-108546000D02*
X133612000Y-108546000D01*
X133612000Y-106846000D02*
X134612000Y-106846000D01*
%TO.C,Q501*%
X132336000Y-120960000D02*
X132336000Y-120030000D01*
X132336000Y-117800000D02*
X132336000Y-118730000D01*
X132336000Y-117800000D02*
X134496000Y-117800000D01*
X132336000Y-120960000D02*
X133796000Y-120960000D01*
%TO.C,R101*%
X142656000Y-134992000D02*
X143856000Y-134992000D01*
X143856000Y-133232000D02*
X142656000Y-133232000D01*
%TO.C,R102*%
X132496000Y-134992000D02*
X133696000Y-134992000D01*
X133696000Y-133232000D02*
X132496000Y-133232000D01*
%TO.C,R103*%
X127285000Y-138185000D02*
X126085000Y-138185000D01*
X126085000Y-139945000D02*
X127285000Y-139945000D01*
%TO.C,R201*%
X132216000Y-102524000D02*
X132216000Y-103724000D01*
X133976000Y-103724000D02*
X133976000Y-102524000D01*
%TO.C,R202*%
X128896000Y-103724000D02*
X128896000Y-102524000D01*
X127136000Y-102524000D02*
X127136000Y-103724000D01*
%TO.C,R301*%
X174844000Y-116468000D02*
X173644000Y-116468000D01*
X173644000Y-118228000D02*
X174844000Y-118228000D01*
%TO.C,R302*%
X171288000Y-116468000D02*
X170088000Y-116468000D01*
X170088000Y-118228000D02*
X171288000Y-118228000D01*
%TO.C,R401*%
X174844000Y-126628000D02*
X173644000Y-126628000D01*
X173644000Y-128388000D02*
X174844000Y-128388000D01*
%TO.C,R402*%
X171288000Y-126628000D02*
X170088000Y-126628000D01*
X170088000Y-128388000D02*
X171288000Y-128388000D01*
%TO.C,R501*%
X139056000Y-119980000D02*
X139056000Y-118780000D01*
X137296000Y-118780000D02*
X137296000Y-119980000D01*
%TO.C,R502*%
X137024000Y-119980000D02*
X137024000Y-118780000D01*
X135264000Y-118780000D02*
X135264000Y-119980000D01*
%TO.C,R503*%
X138548000Y-111344000D02*
X138548000Y-110144000D01*
X136788000Y-110144000D02*
X136788000Y-111344000D01*
%TO.C,R504*%
X134248000Y-110144000D02*
X134248000Y-111344000D01*
X136008000Y-111344000D02*
X136008000Y-110144000D01*
%TO.C,R505*%
X133468000Y-111344000D02*
X133468000Y-110144000D01*
X131708000Y-110144000D02*
X131708000Y-111344000D01*
%TO.C,U501*%
X128500000Y-112400000D02*
X121500000Y-112400000D01*
X128500000Y-117600000D02*
X121500000Y-117600000D01*
X121500000Y-117600000D02*
X121500000Y-116600000D01*
%TO.C,U502*%
X121500000Y-127600000D02*
X121500000Y-126600000D01*
X128500000Y-127600000D02*
X121500000Y-127600000D01*
X128500000Y-122400000D02*
X121500000Y-122400000D01*
%TO.C,U503*%
X128500000Y-132400000D02*
X121500000Y-132400000D01*
X128500000Y-137600000D02*
X121500000Y-137600000D01*
X121500000Y-137600000D02*
X121500000Y-136600000D01*
%TO.C,C201*%
D12*
X168251047Y-108537142D02*
X168298666Y-108584761D01*
X168441523Y-108632380D01*
X168536761Y-108632380D01*
X168679619Y-108584761D01*
X168774857Y-108489523D01*
X168822476Y-108394285D01*
X168870095Y-108203809D01*
X168870095Y-108060952D01*
X168822476Y-107870476D01*
X168774857Y-107775238D01*
X168679619Y-107680000D01*
X168536761Y-107632380D01*
X168441523Y-107632380D01*
X168298666Y-107680000D01*
X168251047Y-107727619D01*
X167870095Y-107727619D02*
X167822476Y-107680000D01*
X167727238Y-107632380D01*
X167489142Y-107632380D01*
X167393904Y-107680000D01*
X167346285Y-107727619D01*
X167298666Y-107822857D01*
X167298666Y-107918095D01*
X167346285Y-108060952D01*
X167917714Y-108632380D01*
X167298666Y-108632380D01*
X166679619Y-107632380D02*
X166584380Y-107632380D01*
X166489142Y-107680000D01*
X166441523Y-107727619D01*
X166393904Y-107822857D01*
X166346285Y-108013333D01*
X166346285Y-108251428D01*
X166393904Y-108441904D01*
X166441523Y-108537142D01*
X166489142Y-108584761D01*
X166584380Y-108632380D01*
X166679619Y-108632380D01*
X166774857Y-108584761D01*
X166822476Y-108537142D01*
X166870095Y-108441904D01*
X166917714Y-108251428D01*
X166917714Y-108013333D01*
X166870095Y-107822857D01*
X166822476Y-107727619D01*
X166774857Y-107680000D01*
X166679619Y-107632380D01*
X165393904Y-108632380D02*
X165965333Y-108632380D01*
X165679619Y-108632380D02*
X165679619Y-107632380D01*
X165774857Y-107775238D01*
X165870095Y-107870476D01*
X165965333Y-107918095D01*
%TO.C,C202*%
X151995047Y-113665142D02*
X152042666Y-113712761D01*
X152185523Y-113760380D01*
X152280761Y-113760380D01*
X152423619Y-113712761D01*
X152518857Y-113617523D01*
X152566476Y-113522285D01*
X152614095Y-113331809D01*
X152614095Y-113188952D01*
X152566476Y-112998476D01*
X152518857Y-112903238D01*
X152423619Y-112808000D01*
X152280761Y-112760380D01*
X152185523Y-112760380D01*
X152042666Y-112808000D01*
X151995047Y-112855619D01*
X151614095Y-112855619D02*
X151566476Y-112808000D01*
X151471238Y-112760380D01*
X151233142Y-112760380D01*
X151137904Y-112808000D01*
X151090285Y-112855619D01*
X151042666Y-112950857D01*
X151042666Y-113046095D01*
X151090285Y-113188952D01*
X151661714Y-113760380D01*
X151042666Y-113760380D01*
X150423619Y-112760380D02*
X150328380Y-112760380D01*
X150233142Y-112808000D01*
X150185523Y-112855619D01*
X150137904Y-112950857D01*
X150090285Y-113141333D01*
X150090285Y-113379428D01*
X150137904Y-113569904D01*
X150185523Y-113665142D01*
X150233142Y-113712761D01*
X150328380Y-113760380D01*
X150423619Y-113760380D01*
X150518857Y-113712761D01*
X150566476Y-113665142D01*
X150614095Y-113569904D01*
X150661714Y-113379428D01*
X150661714Y-113141333D01*
X150614095Y-112950857D01*
X150566476Y-112855619D01*
X150518857Y-112808000D01*
X150423619Y-112760380D01*
X149709333Y-112855619D02*
X149661714Y-112808000D01*
X149566476Y-112760380D01*
X149328380Y-112760380D01*
X149233142Y-112808000D01*
X149185523Y-112855619D01*
X149137904Y-112950857D01*
X149137904Y-113046095D01*
X149185523Y-113188952D01*
X149756952Y-113760380D01*
X149137904Y-113760380D01*
%TO.C,C203*%
X164187047Y-131905142D02*
X164234666Y-131952761D01*
X164377523Y-132000380D01*
X164472761Y-132000380D01*
X164615619Y-131952761D01*
X164710857Y-131857523D01*
X164758476Y-131762285D01*
X164806095Y-131571809D01*
X164806095Y-131428952D01*
X164758476Y-131238476D01*
X164710857Y-131143238D01*
X164615619Y-131048000D01*
X164472761Y-131000380D01*
X164377523Y-131000380D01*
X164234666Y-131048000D01*
X164187047Y-131095619D01*
X163806095Y-131095619D02*
X163758476Y-131048000D01*
X163663238Y-131000380D01*
X163425142Y-131000380D01*
X163329904Y-131048000D01*
X163282285Y-131095619D01*
X163234666Y-131190857D01*
X163234666Y-131286095D01*
X163282285Y-131428952D01*
X163853714Y-132000380D01*
X163234666Y-132000380D01*
X162615619Y-131000380D02*
X162520380Y-131000380D01*
X162425142Y-131048000D01*
X162377523Y-131095619D01*
X162329904Y-131190857D01*
X162282285Y-131381333D01*
X162282285Y-131619428D01*
X162329904Y-131809904D01*
X162377523Y-131905142D01*
X162425142Y-131952761D01*
X162520380Y-132000380D01*
X162615619Y-132000380D01*
X162710857Y-131952761D01*
X162758476Y-131905142D01*
X162806095Y-131809904D01*
X162853714Y-131619428D01*
X162853714Y-131381333D01*
X162806095Y-131190857D01*
X162758476Y-131095619D01*
X162710857Y-131048000D01*
X162615619Y-131000380D01*
X161948952Y-131000380D02*
X161329904Y-131000380D01*
X161663238Y-131381333D01*
X161520380Y-131381333D01*
X161425142Y-131428952D01*
X161377523Y-131476571D01*
X161329904Y-131571809D01*
X161329904Y-131809904D01*
X161377523Y-131905142D01*
X161425142Y-131952761D01*
X161520380Y-132000380D01*
X161806095Y-132000380D01*
X161901333Y-131952761D01*
X161948952Y-131905142D01*
%TO.C,C204*%
X134469047Y-141464142D02*
X134516666Y-141511761D01*
X134659523Y-141559380D01*
X134754761Y-141559380D01*
X134897619Y-141511761D01*
X134992857Y-141416523D01*
X135040476Y-141321285D01*
X135088095Y-141130809D01*
X135088095Y-140987952D01*
X135040476Y-140797476D01*
X134992857Y-140702238D01*
X134897619Y-140607000D01*
X134754761Y-140559380D01*
X134659523Y-140559380D01*
X134516666Y-140607000D01*
X134469047Y-140654619D01*
X134088095Y-140654619D02*
X134040476Y-140607000D01*
X133945238Y-140559380D01*
X133707142Y-140559380D01*
X133611904Y-140607000D01*
X133564285Y-140654619D01*
X133516666Y-140749857D01*
X133516666Y-140845095D01*
X133564285Y-140987952D01*
X134135714Y-141559380D01*
X133516666Y-141559380D01*
X132897619Y-140559380D02*
X132802380Y-140559380D01*
X132707142Y-140607000D01*
X132659523Y-140654619D01*
X132611904Y-140749857D01*
X132564285Y-140940333D01*
X132564285Y-141178428D01*
X132611904Y-141368904D01*
X132659523Y-141464142D01*
X132707142Y-141511761D01*
X132802380Y-141559380D01*
X132897619Y-141559380D01*
X132992857Y-141511761D01*
X133040476Y-141464142D01*
X133088095Y-141368904D01*
X133135714Y-141178428D01*
X133135714Y-140940333D01*
X133088095Y-140749857D01*
X133040476Y-140654619D01*
X132992857Y-140607000D01*
X132897619Y-140559380D01*
X131707142Y-140892714D02*
X131707142Y-141559380D01*
X131945238Y-140511761D02*
X132183333Y-141226047D01*
X131564285Y-141226047D01*
%TO.C,C301*%
X178919047Y-120245142D02*
X178966666Y-120292761D01*
X179109523Y-120340380D01*
X179204761Y-120340380D01*
X179347619Y-120292761D01*
X179442857Y-120197523D01*
X179490476Y-120102285D01*
X179538095Y-119911809D01*
X179538095Y-119768952D01*
X179490476Y-119578476D01*
X179442857Y-119483238D01*
X179347619Y-119388000D01*
X179204761Y-119340380D01*
X179109523Y-119340380D01*
X178966666Y-119388000D01*
X178919047Y-119435619D01*
X178585714Y-119340380D02*
X177966666Y-119340380D01*
X178300000Y-119721333D01*
X178157142Y-119721333D01*
X178061904Y-119768952D01*
X178014285Y-119816571D01*
X177966666Y-119911809D01*
X177966666Y-120149904D01*
X178014285Y-120245142D01*
X178061904Y-120292761D01*
X178157142Y-120340380D01*
X178442857Y-120340380D01*
X178538095Y-120292761D01*
X178585714Y-120245142D01*
X177347619Y-119340380D02*
X177252380Y-119340380D01*
X177157142Y-119388000D01*
X177109523Y-119435619D01*
X177061904Y-119530857D01*
X177014285Y-119721333D01*
X177014285Y-119959428D01*
X177061904Y-120149904D01*
X177109523Y-120245142D01*
X177157142Y-120292761D01*
X177252380Y-120340380D01*
X177347619Y-120340380D01*
X177442857Y-120292761D01*
X177490476Y-120245142D01*
X177538095Y-120149904D01*
X177585714Y-119959428D01*
X177585714Y-119721333D01*
X177538095Y-119530857D01*
X177490476Y-119435619D01*
X177442857Y-119388000D01*
X177347619Y-119340380D01*
X176061904Y-120340380D02*
X176633333Y-120340380D01*
X176347619Y-120340380D02*
X176347619Y-119340380D01*
X176442857Y-119483238D01*
X176538095Y-119578476D01*
X176633333Y-119626095D01*
%TO.C,C401*%
X178919047Y-130405142D02*
X178966666Y-130452761D01*
X179109523Y-130500380D01*
X179204761Y-130500380D01*
X179347619Y-130452761D01*
X179442857Y-130357523D01*
X179490476Y-130262285D01*
X179538095Y-130071809D01*
X179538095Y-129928952D01*
X179490476Y-129738476D01*
X179442857Y-129643238D01*
X179347619Y-129548000D01*
X179204761Y-129500380D01*
X179109523Y-129500380D01*
X178966666Y-129548000D01*
X178919047Y-129595619D01*
X178061904Y-129833714D02*
X178061904Y-130500380D01*
X178300000Y-129452761D02*
X178538095Y-130167047D01*
X177919047Y-130167047D01*
X177347619Y-129500380D02*
X177252380Y-129500380D01*
X177157142Y-129548000D01*
X177109523Y-129595619D01*
X177061904Y-129690857D01*
X177014285Y-129881333D01*
X177014285Y-130119428D01*
X177061904Y-130309904D01*
X177109523Y-130405142D01*
X177157142Y-130452761D01*
X177252380Y-130500380D01*
X177347619Y-130500380D01*
X177442857Y-130452761D01*
X177490476Y-130405142D01*
X177538095Y-130309904D01*
X177585714Y-130119428D01*
X177585714Y-129881333D01*
X177538095Y-129690857D01*
X177490476Y-129595619D01*
X177442857Y-129548000D01*
X177347619Y-129500380D01*
X176061904Y-130500380D02*
X176633333Y-130500380D01*
X176347619Y-130500380D02*
X176347619Y-129500380D01*
X176442857Y-129643238D01*
X176538095Y-129738476D01*
X176633333Y-129786095D01*
%TO.C,C501*%
X129897142Y-110386952D02*
X129944761Y-110339333D01*
X129992380Y-110196476D01*
X129992380Y-110101238D01*
X129944761Y-109958380D01*
X129849523Y-109863142D01*
X129754285Y-109815523D01*
X129563809Y-109767904D01*
X129420952Y-109767904D01*
X129230476Y-109815523D01*
X129135238Y-109863142D01*
X129040000Y-109958380D01*
X128992380Y-110101238D01*
X128992380Y-110196476D01*
X129040000Y-110339333D01*
X129087619Y-110386952D01*
X128992380Y-111291714D02*
X128992380Y-110815523D01*
X129468571Y-110767904D01*
X129420952Y-110815523D01*
X129373333Y-110910761D01*
X129373333Y-111148857D01*
X129420952Y-111244095D01*
X129468571Y-111291714D01*
X129563809Y-111339333D01*
X129801904Y-111339333D01*
X129897142Y-111291714D01*
X129944761Y-111244095D01*
X129992380Y-111148857D01*
X129992380Y-110910761D01*
X129944761Y-110815523D01*
X129897142Y-110767904D01*
X128992380Y-111958380D02*
X128992380Y-112053619D01*
X129040000Y-112148857D01*
X129087619Y-112196476D01*
X129182857Y-112244095D01*
X129373333Y-112291714D01*
X129611428Y-112291714D01*
X129801904Y-112244095D01*
X129897142Y-112196476D01*
X129944761Y-112148857D01*
X129992380Y-112053619D01*
X129992380Y-111958380D01*
X129944761Y-111863142D01*
X129897142Y-111815523D01*
X129801904Y-111767904D01*
X129611428Y-111720285D01*
X129373333Y-111720285D01*
X129182857Y-111767904D01*
X129087619Y-111815523D01*
X129040000Y-111863142D01*
X128992380Y-111958380D01*
X129992380Y-113244095D02*
X129992380Y-112672666D01*
X129992380Y-112958380D02*
X128992380Y-112958380D01*
X129135238Y-112863142D01*
X129230476Y-112767904D01*
X129278095Y-112672666D01*
%TO.C,C502*%
X127865047Y-129643142D02*
X127912666Y-129690761D01*
X128055523Y-129738380D01*
X128150761Y-129738380D01*
X128293619Y-129690761D01*
X128388857Y-129595523D01*
X128436476Y-129500285D01*
X128484095Y-129309809D01*
X128484095Y-129166952D01*
X128436476Y-128976476D01*
X128388857Y-128881238D01*
X128293619Y-128786000D01*
X128150761Y-128738380D01*
X128055523Y-128738380D01*
X127912666Y-128786000D01*
X127865047Y-128833619D01*
X126960285Y-128738380D02*
X127436476Y-128738380D01*
X127484095Y-129214571D01*
X127436476Y-129166952D01*
X127341238Y-129119333D01*
X127103142Y-129119333D01*
X127007904Y-129166952D01*
X126960285Y-129214571D01*
X126912666Y-129309809D01*
X126912666Y-129547904D01*
X126960285Y-129643142D01*
X127007904Y-129690761D01*
X127103142Y-129738380D01*
X127341238Y-129738380D01*
X127436476Y-129690761D01*
X127484095Y-129643142D01*
X126293619Y-128738380D02*
X126198380Y-128738380D01*
X126103142Y-128786000D01*
X126055523Y-128833619D01*
X126007904Y-128928857D01*
X125960285Y-129119333D01*
X125960285Y-129357428D01*
X126007904Y-129547904D01*
X126055523Y-129643142D01*
X126103142Y-129690761D01*
X126198380Y-129738380D01*
X126293619Y-129738380D01*
X126388857Y-129690761D01*
X126436476Y-129643142D01*
X126484095Y-129547904D01*
X126531714Y-129357428D01*
X126531714Y-129119333D01*
X126484095Y-128928857D01*
X126436476Y-128833619D01*
X126388857Y-128786000D01*
X126293619Y-128738380D01*
X125579333Y-128833619D02*
X125531714Y-128786000D01*
X125436476Y-128738380D01*
X125198380Y-128738380D01*
X125103142Y-128786000D01*
X125055523Y-128833619D01*
X125007904Y-128928857D01*
X125007904Y-129024095D01*
X125055523Y-129166952D01*
X125626952Y-129738380D01*
X125007904Y-129738380D01*
%TO.C,C503*%
X127804047Y-119507142D02*
X127851666Y-119554761D01*
X127994523Y-119602380D01*
X128089761Y-119602380D01*
X128232619Y-119554761D01*
X128327857Y-119459523D01*
X128375476Y-119364285D01*
X128423095Y-119173809D01*
X128423095Y-119030952D01*
X128375476Y-118840476D01*
X128327857Y-118745238D01*
X128232619Y-118650000D01*
X128089761Y-118602380D01*
X127994523Y-118602380D01*
X127851666Y-118650000D01*
X127804047Y-118697619D01*
X126899285Y-118602380D02*
X127375476Y-118602380D01*
X127423095Y-119078571D01*
X127375476Y-119030952D01*
X127280238Y-118983333D01*
X127042142Y-118983333D01*
X126946904Y-119030952D01*
X126899285Y-119078571D01*
X126851666Y-119173809D01*
X126851666Y-119411904D01*
X126899285Y-119507142D01*
X126946904Y-119554761D01*
X127042142Y-119602380D01*
X127280238Y-119602380D01*
X127375476Y-119554761D01*
X127423095Y-119507142D01*
X126232619Y-118602380D02*
X126137380Y-118602380D01*
X126042142Y-118650000D01*
X125994523Y-118697619D01*
X125946904Y-118792857D01*
X125899285Y-118983333D01*
X125899285Y-119221428D01*
X125946904Y-119411904D01*
X125994523Y-119507142D01*
X126042142Y-119554761D01*
X126137380Y-119602380D01*
X126232619Y-119602380D01*
X126327857Y-119554761D01*
X126375476Y-119507142D01*
X126423095Y-119411904D01*
X126470714Y-119221428D01*
X126470714Y-118983333D01*
X126423095Y-118792857D01*
X126375476Y-118697619D01*
X126327857Y-118650000D01*
X126232619Y-118602380D01*
X125565952Y-118602380D02*
X124946904Y-118602380D01*
X125280238Y-118983333D01*
X125137380Y-118983333D01*
X125042142Y-119030952D01*
X124994523Y-119078571D01*
X124946904Y-119173809D01*
X124946904Y-119411904D01*
X124994523Y-119507142D01*
X125042142Y-119554761D01*
X125137380Y-119602380D01*
X125423095Y-119602380D01*
X125518333Y-119554761D01*
X125565952Y-119507142D01*
%TO.C,C504*%
X135231047Y-106553142D02*
X135278666Y-106600761D01*
X135421523Y-106648380D01*
X135516761Y-106648380D01*
X135659619Y-106600761D01*
X135754857Y-106505523D01*
X135802476Y-106410285D01*
X135850095Y-106219809D01*
X135850095Y-106076952D01*
X135802476Y-105886476D01*
X135754857Y-105791238D01*
X135659619Y-105696000D01*
X135516761Y-105648380D01*
X135421523Y-105648380D01*
X135278666Y-105696000D01*
X135231047Y-105743619D01*
X134326285Y-105648380D02*
X134802476Y-105648380D01*
X134850095Y-106124571D01*
X134802476Y-106076952D01*
X134707238Y-106029333D01*
X134469142Y-106029333D01*
X134373904Y-106076952D01*
X134326285Y-106124571D01*
X134278666Y-106219809D01*
X134278666Y-106457904D01*
X134326285Y-106553142D01*
X134373904Y-106600761D01*
X134469142Y-106648380D01*
X134707238Y-106648380D01*
X134802476Y-106600761D01*
X134850095Y-106553142D01*
X133659619Y-105648380D02*
X133564380Y-105648380D01*
X133469142Y-105696000D01*
X133421523Y-105743619D01*
X133373904Y-105838857D01*
X133326285Y-106029333D01*
X133326285Y-106267428D01*
X133373904Y-106457904D01*
X133421523Y-106553142D01*
X133469142Y-106600761D01*
X133564380Y-106648380D01*
X133659619Y-106648380D01*
X133754857Y-106600761D01*
X133802476Y-106553142D01*
X133850095Y-106457904D01*
X133897714Y-106267428D01*
X133897714Y-106029333D01*
X133850095Y-105838857D01*
X133802476Y-105743619D01*
X133754857Y-105696000D01*
X133659619Y-105648380D01*
X132469142Y-105981714D02*
X132469142Y-106648380D01*
X132707238Y-105600761D02*
X132945333Y-106315047D01*
X132326285Y-106315047D01*
%TO.C,JP201*%
X138945714Y-132294380D02*
X138945714Y-133008666D01*
X138993333Y-133151523D01*
X139088571Y-133246761D01*
X139231428Y-133294380D01*
X139326666Y-133294380D01*
X138469523Y-133294380D02*
X138469523Y-132294380D01*
X138088571Y-132294380D01*
X137993333Y-132342000D01*
X137945714Y-132389619D01*
X137898095Y-132484857D01*
X137898095Y-132627714D01*
X137945714Y-132722952D01*
X137993333Y-132770571D01*
X138088571Y-132818190D01*
X138469523Y-132818190D01*
X137517142Y-132389619D02*
X137469523Y-132342000D01*
X137374285Y-132294380D01*
X137136190Y-132294380D01*
X137040952Y-132342000D01*
X136993333Y-132389619D01*
X136945714Y-132484857D01*
X136945714Y-132580095D01*
X136993333Y-132722952D01*
X137564761Y-133294380D01*
X136945714Y-133294380D01*
X136326666Y-132294380D02*
X136231428Y-132294380D01*
X136136190Y-132342000D01*
X136088571Y-132389619D01*
X136040952Y-132484857D01*
X135993333Y-132675333D01*
X135993333Y-132913428D01*
X136040952Y-133103904D01*
X136088571Y-133199142D01*
X136136190Y-133246761D01*
X136231428Y-133294380D01*
X136326666Y-133294380D01*
X136421904Y-133246761D01*
X136469523Y-133199142D01*
X136517142Y-133103904D01*
X136564761Y-132913428D01*
X136564761Y-132675333D01*
X136517142Y-132484857D01*
X136469523Y-132389619D01*
X136421904Y-132342000D01*
X136326666Y-132294380D01*
X135040952Y-133294380D02*
X135612380Y-133294380D01*
X135326666Y-133294380D02*
X135326666Y-132294380D01*
X135421904Y-132437238D01*
X135517142Y-132532476D01*
X135612380Y-132580095D01*
%TO.C,JP202*%
X141739714Y-136358380D02*
X141739714Y-137072666D01*
X141787333Y-137215523D01*
X141882571Y-137310761D01*
X142025428Y-137358380D01*
X142120666Y-137358380D01*
X141263523Y-137358380D02*
X141263523Y-136358380D01*
X140882571Y-136358380D01*
X140787333Y-136406000D01*
X140739714Y-136453619D01*
X140692095Y-136548857D01*
X140692095Y-136691714D01*
X140739714Y-136786952D01*
X140787333Y-136834571D01*
X140882571Y-136882190D01*
X141263523Y-136882190D01*
X140311142Y-136453619D02*
X140263523Y-136406000D01*
X140168285Y-136358380D01*
X139930190Y-136358380D01*
X139834952Y-136406000D01*
X139787333Y-136453619D01*
X139739714Y-136548857D01*
X139739714Y-136644095D01*
X139787333Y-136786952D01*
X140358761Y-137358380D01*
X139739714Y-137358380D01*
X139120666Y-136358380D02*
X139025428Y-136358380D01*
X138930190Y-136406000D01*
X138882571Y-136453619D01*
X138834952Y-136548857D01*
X138787333Y-136739333D01*
X138787333Y-136977428D01*
X138834952Y-137167904D01*
X138882571Y-137263142D01*
X138930190Y-137310761D01*
X139025428Y-137358380D01*
X139120666Y-137358380D01*
X139215904Y-137310761D01*
X139263523Y-137263142D01*
X139311142Y-137167904D01*
X139358761Y-136977428D01*
X139358761Y-136739333D01*
X139311142Y-136548857D01*
X139263523Y-136453619D01*
X139215904Y-136406000D01*
X139120666Y-136358380D01*
X138406380Y-136453619D02*
X138358761Y-136406000D01*
X138263523Y-136358380D01*
X138025428Y-136358380D01*
X137930190Y-136406000D01*
X137882571Y-136453619D01*
X137834952Y-136548857D01*
X137834952Y-136644095D01*
X137882571Y-136786952D01*
X138454000Y-137358380D01*
X137834952Y-137358380D01*
%TO.C,JP203*%
X151899714Y-136358380D02*
X151899714Y-137072666D01*
X151947333Y-137215523D01*
X152042571Y-137310761D01*
X152185428Y-137358380D01*
X152280666Y-137358380D01*
X151423523Y-137358380D02*
X151423523Y-136358380D01*
X151042571Y-136358380D01*
X150947333Y-136406000D01*
X150899714Y-136453619D01*
X150852095Y-136548857D01*
X150852095Y-136691714D01*
X150899714Y-136786952D01*
X150947333Y-136834571D01*
X151042571Y-136882190D01*
X151423523Y-136882190D01*
X150471142Y-136453619D02*
X150423523Y-136406000D01*
X150328285Y-136358380D01*
X150090190Y-136358380D01*
X149994952Y-136406000D01*
X149947333Y-136453619D01*
X149899714Y-136548857D01*
X149899714Y-136644095D01*
X149947333Y-136786952D01*
X150518761Y-137358380D01*
X149899714Y-137358380D01*
X149280666Y-136358380D02*
X149185428Y-136358380D01*
X149090190Y-136406000D01*
X149042571Y-136453619D01*
X148994952Y-136548857D01*
X148947333Y-136739333D01*
X148947333Y-136977428D01*
X148994952Y-137167904D01*
X149042571Y-137263142D01*
X149090190Y-137310761D01*
X149185428Y-137358380D01*
X149280666Y-137358380D01*
X149375904Y-137310761D01*
X149423523Y-137263142D01*
X149471142Y-137167904D01*
X149518761Y-136977428D01*
X149518761Y-136739333D01*
X149471142Y-136548857D01*
X149423523Y-136453619D01*
X149375904Y-136406000D01*
X149280666Y-136358380D01*
X148614000Y-136358380D02*
X147994952Y-136358380D01*
X148328285Y-136739333D01*
X148185428Y-136739333D01*
X148090190Y-136786952D01*
X148042571Y-136834571D01*
X147994952Y-136929809D01*
X147994952Y-137167904D01*
X148042571Y-137263142D01*
X148090190Y-137310761D01*
X148185428Y-137358380D01*
X148471142Y-137358380D01*
X148566380Y-137310761D01*
X148614000Y-137263142D01*
%TO.C,JP204*%
X149613714Y-132294380D02*
X149613714Y-133008666D01*
X149661333Y-133151523D01*
X149756571Y-133246761D01*
X149899428Y-133294380D01*
X149994666Y-133294380D01*
X149137523Y-133294380D02*
X149137523Y-132294380D01*
X148756571Y-132294380D01*
X148661333Y-132342000D01*
X148613714Y-132389619D01*
X148566095Y-132484857D01*
X148566095Y-132627714D01*
X148613714Y-132722952D01*
X148661333Y-132770571D01*
X148756571Y-132818190D01*
X149137523Y-132818190D01*
X148185142Y-132389619D02*
X148137523Y-132342000D01*
X148042285Y-132294380D01*
X147804190Y-132294380D01*
X147708952Y-132342000D01*
X147661333Y-132389619D01*
X147613714Y-132484857D01*
X147613714Y-132580095D01*
X147661333Y-132722952D01*
X148232761Y-133294380D01*
X147613714Y-133294380D01*
X146994666Y-132294380D02*
X146899428Y-132294380D01*
X146804190Y-132342000D01*
X146756571Y-132389619D01*
X146708952Y-132484857D01*
X146661333Y-132675333D01*
X146661333Y-132913428D01*
X146708952Y-133103904D01*
X146756571Y-133199142D01*
X146804190Y-133246761D01*
X146899428Y-133294380D01*
X146994666Y-133294380D01*
X147089904Y-133246761D01*
X147137523Y-133199142D01*
X147185142Y-133103904D01*
X147232761Y-132913428D01*
X147232761Y-132675333D01*
X147185142Y-132484857D01*
X147137523Y-132389619D01*
X147089904Y-132342000D01*
X146994666Y-132294380D01*
X145804190Y-132627714D02*
X145804190Y-133294380D01*
X146042285Y-132246761D02*
X146280380Y-132961047D01*
X145661333Y-132961047D01*
%TO.C,JP301*%
X172473714Y-111720380D02*
X172473714Y-112434666D01*
X172521333Y-112577523D01*
X172616571Y-112672761D01*
X172759428Y-112720380D01*
X172854666Y-112720380D01*
X171997523Y-112720380D02*
X171997523Y-111720380D01*
X171616571Y-111720380D01*
X171521333Y-111768000D01*
X171473714Y-111815619D01*
X171426095Y-111910857D01*
X171426095Y-112053714D01*
X171473714Y-112148952D01*
X171521333Y-112196571D01*
X171616571Y-112244190D01*
X171997523Y-112244190D01*
X171092761Y-111720380D02*
X170473714Y-111720380D01*
X170807047Y-112101333D01*
X170664190Y-112101333D01*
X170568952Y-112148952D01*
X170521333Y-112196571D01*
X170473714Y-112291809D01*
X170473714Y-112529904D01*
X170521333Y-112625142D01*
X170568952Y-112672761D01*
X170664190Y-112720380D01*
X170949904Y-112720380D01*
X171045142Y-112672761D01*
X171092761Y-112625142D01*
X169854666Y-111720380D02*
X169759428Y-111720380D01*
X169664190Y-111768000D01*
X169616571Y-111815619D01*
X169568952Y-111910857D01*
X169521333Y-112101333D01*
X169521333Y-112339428D01*
X169568952Y-112529904D01*
X169616571Y-112625142D01*
X169664190Y-112672761D01*
X169759428Y-112720380D01*
X169854666Y-112720380D01*
X169949904Y-112672761D01*
X169997523Y-112625142D01*
X170045142Y-112529904D01*
X170092761Y-112339428D01*
X170092761Y-112101333D01*
X170045142Y-111910857D01*
X169997523Y-111815619D01*
X169949904Y-111768000D01*
X169854666Y-111720380D01*
X168568952Y-112720380D02*
X169140380Y-112720380D01*
X168854666Y-112720380D02*
X168854666Y-111720380D01*
X168949904Y-111863238D01*
X169045142Y-111958476D01*
X169140380Y-112006095D01*
%TO.C,JP302*%
X165615714Y-117816380D02*
X165615714Y-118530666D01*
X165663333Y-118673523D01*
X165758571Y-118768761D01*
X165901428Y-118816380D01*
X165996666Y-118816380D01*
X165139523Y-118816380D02*
X165139523Y-117816380D01*
X164758571Y-117816380D01*
X164663333Y-117864000D01*
X164615714Y-117911619D01*
X164568095Y-118006857D01*
X164568095Y-118149714D01*
X164615714Y-118244952D01*
X164663333Y-118292571D01*
X164758571Y-118340190D01*
X165139523Y-118340190D01*
X164234761Y-117816380D02*
X163615714Y-117816380D01*
X163949047Y-118197333D01*
X163806190Y-118197333D01*
X163710952Y-118244952D01*
X163663333Y-118292571D01*
X163615714Y-118387809D01*
X163615714Y-118625904D01*
X163663333Y-118721142D01*
X163710952Y-118768761D01*
X163806190Y-118816380D01*
X164091904Y-118816380D01*
X164187142Y-118768761D01*
X164234761Y-118721142D01*
X162996666Y-117816380D02*
X162901428Y-117816380D01*
X162806190Y-117864000D01*
X162758571Y-117911619D01*
X162710952Y-118006857D01*
X162663333Y-118197333D01*
X162663333Y-118435428D01*
X162710952Y-118625904D01*
X162758571Y-118721142D01*
X162806190Y-118768761D01*
X162901428Y-118816380D01*
X162996666Y-118816380D01*
X163091904Y-118768761D01*
X163139523Y-118721142D01*
X163187142Y-118625904D01*
X163234761Y-118435428D01*
X163234761Y-118197333D01*
X163187142Y-118006857D01*
X163139523Y-117911619D01*
X163091904Y-117864000D01*
X162996666Y-117816380D01*
X162282380Y-117911619D02*
X162234761Y-117864000D01*
X162139523Y-117816380D01*
X161901428Y-117816380D01*
X161806190Y-117864000D01*
X161758571Y-117911619D01*
X161710952Y-118006857D01*
X161710952Y-118102095D01*
X161758571Y-118244952D01*
X162330000Y-118816380D01*
X161710952Y-118816380D01*
%TO.C,JP401*%
X172473714Y-121880380D02*
X172473714Y-122594666D01*
X172521333Y-122737523D01*
X172616571Y-122832761D01*
X172759428Y-122880380D01*
X172854666Y-122880380D01*
X171997523Y-122880380D02*
X171997523Y-121880380D01*
X171616571Y-121880380D01*
X171521333Y-121928000D01*
X171473714Y-121975619D01*
X171426095Y-122070857D01*
X171426095Y-122213714D01*
X171473714Y-122308952D01*
X171521333Y-122356571D01*
X171616571Y-122404190D01*
X171997523Y-122404190D01*
X170568952Y-122213714D02*
X170568952Y-122880380D01*
X170807047Y-121832761D02*
X171045142Y-122547047D01*
X170426095Y-122547047D01*
X169854666Y-121880380D02*
X169759428Y-121880380D01*
X169664190Y-121928000D01*
X169616571Y-121975619D01*
X169568952Y-122070857D01*
X169521333Y-122261333D01*
X169521333Y-122499428D01*
X169568952Y-122689904D01*
X169616571Y-122785142D01*
X169664190Y-122832761D01*
X169759428Y-122880380D01*
X169854666Y-122880380D01*
X169949904Y-122832761D01*
X169997523Y-122785142D01*
X170045142Y-122689904D01*
X170092761Y-122499428D01*
X170092761Y-122261333D01*
X170045142Y-122070857D01*
X169997523Y-121975619D01*
X169949904Y-121928000D01*
X169854666Y-121880380D01*
X168568952Y-122880380D02*
X169140380Y-122880380D01*
X168854666Y-122880380D02*
X168854666Y-121880380D01*
X168949904Y-122023238D01*
X169045142Y-122118476D01*
X169140380Y-122166095D01*
%TO.C,JP402*%
X165615714Y-127976380D02*
X165615714Y-128690666D01*
X165663333Y-128833523D01*
X165758571Y-128928761D01*
X165901428Y-128976380D01*
X165996666Y-128976380D01*
X165139523Y-128976380D02*
X165139523Y-127976380D01*
X164758571Y-127976380D01*
X164663333Y-128024000D01*
X164615714Y-128071619D01*
X164568095Y-128166857D01*
X164568095Y-128309714D01*
X164615714Y-128404952D01*
X164663333Y-128452571D01*
X164758571Y-128500190D01*
X165139523Y-128500190D01*
X163710952Y-128309714D02*
X163710952Y-128976380D01*
X163949047Y-127928761D02*
X164187142Y-128643047D01*
X163568095Y-128643047D01*
X162996666Y-127976380D02*
X162901428Y-127976380D01*
X162806190Y-128024000D01*
X162758571Y-128071619D01*
X162710952Y-128166857D01*
X162663333Y-128357333D01*
X162663333Y-128595428D01*
X162710952Y-128785904D01*
X162758571Y-128881142D01*
X162806190Y-128928761D01*
X162901428Y-128976380D01*
X162996666Y-128976380D01*
X163091904Y-128928761D01*
X163139523Y-128881142D01*
X163187142Y-128785904D01*
X163234761Y-128595428D01*
X163234761Y-128357333D01*
X163187142Y-128166857D01*
X163139523Y-128071619D01*
X163091904Y-128024000D01*
X162996666Y-127976380D01*
X162282380Y-128071619D02*
X162234761Y-128024000D01*
X162139523Y-127976380D01*
X161901428Y-127976380D01*
X161806190Y-128024000D01*
X161758571Y-128071619D01*
X161710952Y-128166857D01*
X161710952Y-128262095D01*
X161758571Y-128404952D01*
X162330000Y-128976380D01*
X161710952Y-128976380D01*
%TO.C,JP501*%
X138644380Y-112514285D02*
X139358666Y-112514285D01*
X139501523Y-112466666D01*
X139596761Y-112371428D01*
X139644380Y-112228571D01*
X139644380Y-112133333D01*
X139644380Y-112990476D02*
X138644380Y-112990476D01*
X138644380Y-113371428D01*
X138692000Y-113466666D01*
X138739619Y-113514285D01*
X138834857Y-113561904D01*
X138977714Y-113561904D01*
X139072952Y-113514285D01*
X139120571Y-113466666D01*
X139168190Y-113371428D01*
X139168190Y-112990476D01*
X138644380Y-114466666D02*
X138644380Y-113990476D01*
X139120571Y-113942857D01*
X139072952Y-113990476D01*
X139025333Y-114085714D01*
X139025333Y-114323809D01*
X139072952Y-114419047D01*
X139120571Y-114466666D01*
X139215809Y-114514285D01*
X139453904Y-114514285D01*
X139549142Y-114466666D01*
X139596761Y-114419047D01*
X139644380Y-114323809D01*
X139644380Y-114085714D01*
X139596761Y-113990476D01*
X139549142Y-113942857D01*
X138644380Y-115133333D02*
X138644380Y-115228571D01*
X138692000Y-115323809D01*
X138739619Y-115371428D01*
X138834857Y-115419047D01*
X139025333Y-115466666D01*
X139263428Y-115466666D01*
X139453904Y-115419047D01*
X139549142Y-115371428D01*
X139596761Y-115323809D01*
X139644380Y-115228571D01*
X139644380Y-115133333D01*
X139596761Y-115038095D01*
X139549142Y-114990476D01*
X139453904Y-114942857D01*
X139263428Y-114895238D01*
X139025333Y-114895238D01*
X138834857Y-114942857D01*
X138739619Y-114990476D01*
X138692000Y-115038095D01*
X138644380Y-115133333D01*
X139644380Y-116419047D02*
X139644380Y-115847619D01*
X139644380Y-116133333D02*
X138644380Y-116133333D01*
X138787238Y-116038095D01*
X138882476Y-115942857D01*
X138930095Y-115847619D01*
%TO.C,JP502*%
X139707714Y-116546380D02*
X139707714Y-117260666D01*
X139755333Y-117403523D01*
X139850571Y-117498761D01*
X139993428Y-117546380D01*
X140088666Y-117546380D01*
X139231523Y-117546380D02*
X139231523Y-116546380D01*
X138850571Y-116546380D01*
X138755333Y-116594000D01*
X138707714Y-116641619D01*
X138660095Y-116736857D01*
X138660095Y-116879714D01*
X138707714Y-116974952D01*
X138755333Y-117022571D01*
X138850571Y-117070190D01*
X139231523Y-117070190D01*
X137755333Y-116546380D02*
X138231523Y-116546380D01*
X138279142Y-117022571D01*
X138231523Y-116974952D01*
X138136285Y-116927333D01*
X137898190Y-116927333D01*
X137802952Y-116974952D01*
X137755333Y-117022571D01*
X137707714Y-117117809D01*
X137707714Y-117355904D01*
X137755333Y-117451142D01*
X137802952Y-117498761D01*
X137898190Y-117546380D01*
X138136285Y-117546380D01*
X138231523Y-117498761D01*
X138279142Y-117451142D01*
X137088666Y-116546380D02*
X136993428Y-116546380D01*
X136898190Y-116594000D01*
X136850571Y-116641619D01*
X136802952Y-116736857D01*
X136755333Y-116927333D01*
X136755333Y-117165428D01*
X136802952Y-117355904D01*
X136850571Y-117451142D01*
X136898190Y-117498761D01*
X136993428Y-117546380D01*
X137088666Y-117546380D01*
X137183904Y-117498761D01*
X137231523Y-117451142D01*
X137279142Y-117355904D01*
X137326761Y-117165428D01*
X137326761Y-116927333D01*
X137279142Y-116736857D01*
X137231523Y-116641619D01*
X137183904Y-116594000D01*
X137088666Y-116546380D01*
X136374380Y-116641619D02*
X136326761Y-116594000D01*
X136231523Y-116546380D01*
X135993428Y-116546380D01*
X135898190Y-116594000D01*
X135850571Y-116641619D01*
X135802952Y-116736857D01*
X135802952Y-116832095D01*
X135850571Y-116974952D01*
X136422000Y-117546380D01*
X135802952Y-117546380D01*
%TO.C,JP503*%
X131024380Y-113530285D02*
X131738666Y-113530285D01*
X131881523Y-113482666D01*
X131976761Y-113387428D01*
X132024380Y-113244571D01*
X132024380Y-113149333D01*
X132024380Y-114006476D02*
X131024380Y-114006476D01*
X131024380Y-114387428D01*
X131072000Y-114482666D01*
X131119619Y-114530285D01*
X131214857Y-114577904D01*
X131357714Y-114577904D01*
X131452952Y-114530285D01*
X131500571Y-114482666D01*
X131548190Y-114387428D01*
X131548190Y-114006476D01*
X131024380Y-115482666D02*
X131024380Y-115006476D01*
X131500571Y-114958857D01*
X131452952Y-115006476D01*
X131405333Y-115101714D01*
X131405333Y-115339809D01*
X131452952Y-115435047D01*
X131500571Y-115482666D01*
X131595809Y-115530285D01*
X131833904Y-115530285D01*
X131929142Y-115482666D01*
X131976761Y-115435047D01*
X132024380Y-115339809D01*
X132024380Y-115101714D01*
X131976761Y-115006476D01*
X131929142Y-114958857D01*
X131024380Y-116149333D02*
X131024380Y-116244571D01*
X131072000Y-116339809D01*
X131119619Y-116387428D01*
X131214857Y-116435047D01*
X131405333Y-116482666D01*
X131643428Y-116482666D01*
X131833904Y-116435047D01*
X131929142Y-116387428D01*
X131976761Y-116339809D01*
X132024380Y-116244571D01*
X132024380Y-116149333D01*
X131976761Y-116054095D01*
X131929142Y-116006476D01*
X131833904Y-115958857D01*
X131643428Y-115911238D01*
X131405333Y-115911238D01*
X131214857Y-115958857D01*
X131119619Y-116006476D01*
X131072000Y-116054095D01*
X131024380Y-116149333D01*
X131024380Y-116816000D02*
X131024380Y-117435047D01*
X131405333Y-117101714D01*
X131405333Y-117244571D01*
X131452952Y-117339809D01*
X131500571Y-117387428D01*
X131595809Y-117435047D01*
X131833904Y-117435047D01*
X131929142Y-117387428D01*
X131976761Y-117339809D01*
X132024380Y-117244571D01*
X132024380Y-116958857D01*
X131976761Y-116863619D01*
X131929142Y-116816000D01*
%TO.C,Q501*%
X134143619Y-122467619D02*
X134238857Y-122420000D01*
X134334095Y-122324761D01*
X134476952Y-122181904D01*
X134572190Y-122134285D01*
X134667428Y-122134285D01*
X134619809Y-122372380D02*
X134715047Y-122324761D01*
X134810285Y-122229523D01*
X134857904Y-122039047D01*
X134857904Y-121705714D01*
X134810285Y-121515238D01*
X134715047Y-121420000D01*
X134619809Y-121372380D01*
X134429333Y-121372380D01*
X134334095Y-121420000D01*
X134238857Y-121515238D01*
X134191238Y-121705714D01*
X134191238Y-122039047D01*
X134238857Y-122229523D01*
X134334095Y-122324761D01*
X134429333Y-122372380D01*
X134619809Y-122372380D01*
X133286476Y-121372380D02*
X133762666Y-121372380D01*
X133810285Y-121848571D01*
X133762666Y-121800952D01*
X133667428Y-121753333D01*
X133429333Y-121753333D01*
X133334095Y-121800952D01*
X133286476Y-121848571D01*
X133238857Y-121943809D01*
X133238857Y-122181904D01*
X133286476Y-122277142D01*
X133334095Y-122324761D01*
X133429333Y-122372380D01*
X133667428Y-122372380D01*
X133762666Y-122324761D01*
X133810285Y-122277142D01*
X132619809Y-121372380D02*
X132524571Y-121372380D01*
X132429333Y-121420000D01*
X132381714Y-121467619D01*
X132334095Y-121562857D01*
X132286476Y-121753333D01*
X132286476Y-121991428D01*
X132334095Y-122181904D01*
X132381714Y-122277142D01*
X132429333Y-122324761D01*
X132524571Y-122372380D01*
X132619809Y-122372380D01*
X132715047Y-122324761D01*
X132762666Y-122277142D01*
X132810285Y-122181904D01*
X132857904Y-121991428D01*
X132857904Y-121753333D01*
X132810285Y-121562857D01*
X132762666Y-121467619D01*
X132715047Y-121420000D01*
X132619809Y-121372380D01*
X131334095Y-122372380D02*
X131905523Y-122372380D01*
X131619809Y-122372380D02*
X131619809Y-121372380D01*
X131715047Y-121515238D01*
X131810285Y-121610476D01*
X131905523Y-121658095D01*
%TO.C,R101*%
X144375047Y-132914380D02*
X144708380Y-132438190D01*
X144946476Y-132914380D02*
X144946476Y-131914380D01*
X144565523Y-131914380D01*
X144470285Y-131962000D01*
X144422666Y-132009619D01*
X144375047Y-132104857D01*
X144375047Y-132247714D01*
X144422666Y-132342952D01*
X144470285Y-132390571D01*
X144565523Y-132438190D01*
X144946476Y-132438190D01*
X143422666Y-132914380D02*
X143994095Y-132914380D01*
X143708380Y-132914380D02*
X143708380Y-131914380D01*
X143803619Y-132057238D01*
X143898857Y-132152476D01*
X143994095Y-132200095D01*
X142803619Y-131914380D02*
X142708380Y-131914380D01*
X142613142Y-131962000D01*
X142565523Y-132009619D01*
X142517904Y-132104857D01*
X142470285Y-132295333D01*
X142470285Y-132533428D01*
X142517904Y-132723904D01*
X142565523Y-132819142D01*
X142613142Y-132866761D01*
X142708380Y-132914380D01*
X142803619Y-132914380D01*
X142898857Y-132866761D01*
X142946476Y-132819142D01*
X142994095Y-132723904D01*
X143041714Y-132533428D01*
X143041714Y-132295333D01*
X142994095Y-132104857D01*
X142946476Y-132009619D01*
X142898857Y-131962000D01*
X142803619Y-131914380D01*
X141517904Y-132914380D02*
X142089333Y-132914380D01*
X141803619Y-132914380D02*
X141803619Y-131914380D01*
X141898857Y-132057238D01*
X141994095Y-132152476D01*
X142089333Y-132200095D01*
%TO.C,R102*%
X134215047Y-132914380D02*
X134548380Y-132438190D01*
X134786476Y-132914380D02*
X134786476Y-131914380D01*
X134405523Y-131914380D01*
X134310285Y-131962000D01*
X134262666Y-132009619D01*
X134215047Y-132104857D01*
X134215047Y-132247714D01*
X134262666Y-132342952D01*
X134310285Y-132390571D01*
X134405523Y-132438190D01*
X134786476Y-132438190D01*
X133262666Y-132914380D02*
X133834095Y-132914380D01*
X133548380Y-132914380D02*
X133548380Y-131914380D01*
X133643619Y-132057238D01*
X133738857Y-132152476D01*
X133834095Y-132200095D01*
X132643619Y-131914380D02*
X132548380Y-131914380D01*
X132453142Y-131962000D01*
X132405523Y-132009619D01*
X132357904Y-132104857D01*
X132310285Y-132295333D01*
X132310285Y-132533428D01*
X132357904Y-132723904D01*
X132405523Y-132819142D01*
X132453142Y-132866761D01*
X132548380Y-132914380D01*
X132643619Y-132914380D01*
X132738857Y-132866761D01*
X132786476Y-132819142D01*
X132834095Y-132723904D01*
X132881714Y-132533428D01*
X132881714Y-132295333D01*
X132834095Y-132104857D01*
X132786476Y-132009619D01*
X132738857Y-131962000D01*
X132643619Y-131914380D01*
X131929333Y-132009619D02*
X131881714Y-131962000D01*
X131786476Y-131914380D01*
X131548380Y-131914380D01*
X131453142Y-131962000D01*
X131405523Y-132009619D01*
X131357904Y-132104857D01*
X131357904Y-132200095D01*
X131405523Y-132342952D01*
X131976952Y-132914380D01*
X131357904Y-132914380D01*
%TO.C,R103*%
X124055047Y-139644380D02*
X124388380Y-139168190D01*
X124626476Y-139644380D02*
X124626476Y-138644380D01*
X124245523Y-138644380D01*
X124150285Y-138692000D01*
X124102666Y-138739619D01*
X124055047Y-138834857D01*
X124055047Y-138977714D01*
X124102666Y-139072952D01*
X124150285Y-139120571D01*
X124245523Y-139168190D01*
X124626476Y-139168190D01*
X123102666Y-139644380D02*
X123674095Y-139644380D01*
X123388380Y-139644380D02*
X123388380Y-138644380D01*
X123483619Y-138787238D01*
X123578857Y-138882476D01*
X123674095Y-138930095D01*
X122483619Y-138644380D02*
X122388380Y-138644380D01*
X122293142Y-138692000D01*
X122245523Y-138739619D01*
X122197904Y-138834857D01*
X122150285Y-139025333D01*
X122150285Y-139263428D01*
X122197904Y-139453904D01*
X122245523Y-139549142D01*
X122293142Y-139596761D01*
X122388380Y-139644380D01*
X122483619Y-139644380D01*
X122578857Y-139596761D01*
X122626476Y-139549142D01*
X122674095Y-139453904D01*
X122721714Y-139263428D01*
X122721714Y-139025333D01*
X122674095Y-138834857D01*
X122626476Y-138739619D01*
X122578857Y-138692000D01*
X122483619Y-138644380D01*
X121816952Y-138644380D02*
X121197904Y-138644380D01*
X121531238Y-139025333D01*
X121388380Y-139025333D01*
X121293142Y-139072952D01*
X121245523Y-139120571D01*
X121197904Y-139215809D01*
X121197904Y-139453904D01*
X121245523Y-139549142D01*
X121293142Y-139596761D01*
X121388380Y-139644380D01*
X121674095Y-139644380D01*
X121769333Y-139596761D01*
X121816952Y-139549142D01*
%TO.C,R201*%
X134215047Y-101544380D02*
X134548380Y-101068190D01*
X134786476Y-101544380D02*
X134786476Y-100544380D01*
X134405523Y-100544380D01*
X134310285Y-100592000D01*
X134262666Y-100639619D01*
X134215047Y-100734857D01*
X134215047Y-100877714D01*
X134262666Y-100972952D01*
X134310285Y-101020571D01*
X134405523Y-101068190D01*
X134786476Y-101068190D01*
X133834095Y-100639619D02*
X133786476Y-100592000D01*
X133691238Y-100544380D01*
X133453142Y-100544380D01*
X133357904Y-100592000D01*
X133310285Y-100639619D01*
X133262666Y-100734857D01*
X133262666Y-100830095D01*
X133310285Y-100972952D01*
X133881714Y-101544380D01*
X133262666Y-101544380D01*
X132643619Y-100544380D02*
X132548380Y-100544380D01*
X132453142Y-100592000D01*
X132405523Y-100639619D01*
X132357904Y-100734857D01*
X132310285Y-100925333D01*
X132310285Y-101163428D01*
X132357904Y-101353904D01*
X132405523Y-101449142D01*
X132453142Y-101496761D01*
X132548380Y-101544380D01*
X132643619Y-101544380D01*
X132738857Y-101496761D01*
X132786476Y-101449142D01*
X132834095Y-101353904D01*
X132881714Y-101163428D01*
X132881714Y-100925333D01*
X132834095Y-100734857D01*
X132786476Y-100639619D01*
X132738857Y-100592000D01*
X132643619Y-100544380D01*
X131357904Y-101544380D02*
X131929333Y-101544380D01*
X131643619Y-101544380D02*
X131643619Y-100544380D01*
X131738857Y-100687238D01*
X131834095Y-100782476D01*
X131929333Y-100830095D01*
%TO.C,R202*%
X129135047Y-101544380D02*
X129468380Y-101068190D01*
X129706476Y-101544380D02*
X129706476Y-100544380D01*
X129325523Y-100544380D01*
X129230285Y-100592000D01*
X129182666Y-100639619D01*
X129135047Y-100734857D01*
X129135047Y-100877714D01*
X129182666Y-100972952D01*
X129230285Y-101020571D01*
X129325523Y-101068190D01*
X129706476Y-101068190D01*
X128754095Y-100639619D02*
X128706476Y-100592000D01*
X128611238Y-100544380D01*
X128373142Y-100544380D01*
X128277904Y-100592000D01*
X128230285Y-100639619D01*
X128182666Y-100734857D01*
X128182666Y-100830095D01*
X128230285Y-100972952D01*
X128801714Y-101544380D01*
X128182666Y-101544380D01*
X127563619Y-100544380D02*
X127468380Y-100544380D01*
X127373142Y-100592000D01*
X127325523Y-100639619D01*
X127277904Y-100734857D01*
X127230285Y-100925333D01*
X127230285Y-101163428D01*
X127277904Y-101353904D01*
X127325523Y-101449142D01*
X127373142Y-101496761D01*
X127468380Y-101544380D01*
X127563619Y-101544380D01*
X127658857Y-101496761D01*
X127706476Y-101449142D01*
X127754095Y-101353904D01*
X127801714Y-101163428D01*
X127801714Y-100925333D01*
X127754095Y-100734857D01*
X127706476Y-100639619D01*
X127658857Y-100592000D01*
X127563619Y-100544380D01*
X126849333Y-100639619D02*
X126801714Y-100592000D01*
X126706476Y-100544380D01*
X126468380Y-100544380D01*
X126373142Y-100592000D01*
X126325523Y-100639619D01*
X126277904Y-100734857D01*
X126277904Y-100830095D01*
X126325523Y-100972952D01*
X126896952Y-101544380D01*
X126277904Y-101544380D01*
%TO.C,R301*%
X178919047Y-117800380D02*
X179252380Y-117324190D01*
X179490476Y-117800380D02*
X179490476Y-116800380D01*
X179109523Y-116800380D01*
X179014285Y-116848000D01*
X178966666Y-116895619D01*
X178919047Y-116990857D01*
X178919047Y-117133714D01*
X178966666Y-117228952D01*
X179014285Y-117276571D01*
X179109523Y-117324190D01*
X179490476Y-117324190D01*
X178585714Y-116800380D02*
X177966666Y-116800380D01*
X178300000Y-117181333D01*
X178157142Y-117181333D01*
X178061904Y-117228952D01*
X178014285Y-117276571D01*
X177966666Y-117371809D01*
X177966666Y-117609904D01*
X178014285Y-117705142D01*
X178061904Y-117752761D01*
X178157142Y-117800380D01*
X178442857Y-117800380D01*
X178538095Y-117752761D01*
X178585714Y-117705142D01*
X177347619Y-116800380D02*
X177252380Y-116800380D01*
X177157142Y-116848000D01*
X177109523Y-116895619D01*
X177061904Y-116990857D01*
X177014285Y-117181333D01*
X177014285Y-117419428D01*
X177061904Y-117609904D01*
X177109523Y-117705142D01*
X177157142Y-117752761D01*
X177252380Y-117800380D01*
X177347619Y-117800380D01*
X177442857Y-117752761D01*
X177490476Y-117705142D01*
X177538095Y-117609904D01*
X177585714Y-117419428D01*
X177585714Y-117181333D01*
X177538095Y-116990857D01*
X177490476Y-116895619D01*
X177442857Y-116848000D01*
X177347619Y-116800380D01*
X176061904Y-117800380D02*
X176633333Y-117800380D01*
X176347619Y-117800380D02*
X176347619Y-116800380D01*
X176442857Y-116943238D01*
X176538095Y-117038476D01*
X176633333Y-117086095D01*
%TO.C,R302*%
X165203047Y-116530380D02*
X165536380Y-116054190D01*
X165774476Y-116530380D02*
X165774476Y-115530380D01*
X165393523Y-115530380D01*
X165298285Y-115578000D01*
X165250666Y-115625619D01*
X165203047Y-115720857D01*
X165203047Y-115863714D01*
X165250666Y-115958952D01*
X165298285Y-116006571D01*
X165393523Y-116054190D01*
X165774476Y-116054190D01*
X164869714Y-115530380D02*
X164250666Y-115530380D01*
X164584000Y-115911333D01*
X164441142Y-115911333D01*
X164345904Y-115958952D01*
X164298285Y-116006571D01*
X164250666Y-116101809D01*
X164250666Y-116339904D01*
X164298285Y-116435142D01*
X164345904Y-116482761D01*
X164441142Y-116530380D01*
X164726857Y-116530380D01*
X164822095Y-116482761D01*
X164869714Y-116435142D01*
X163631619Y-115530380D02*
X163536380Y-115530380D01*
X163441142Y-115578000D01*
X163393523Y-115625619D01*
X163345904Y-115720857D01*
X163298285Y-115911333D01*
X163298285Y-116149428D01*
X163345904Y-116339904D01*
X163393523Y-116435142D01*
X163441142Y-116482761D01*
X163536380Y-116530380D01*
X163631619Y-116530380D01*
X163726857Y-116482761D01*
X163774476Y-116435142D01*
X163822095Y-116339904D01*
X163869714Y-116149428D01*
X163869714Y-115911333D01*
X163822095Y-115720857D01*
X163774476Y-115625619D01*
X163726857Y-115578000D01*
X163631619Y-115530380D01*
X162917333Y-115625619D02*
X162869714Y-115578000D01*
X162774476Y-115530380D01*
X162536380Y-115530380D01*
X162441142Y-115578000D01*
X162393523Y-115625619D01*
X162345904Y-115720857D01*
X162345904Y-115816095D01*
X162393523Y-115958952D01*
X162964952Y-116530380D01*
X162345904Y-116530380D01*
%TO.C,R401*%
X178919047Y-127960380D02*
X179252380Y-127484190D01*
X179490476Y-127960380D02*
X179490476Y-126960380D01*
X179109523Y-126960380D01*
X179014285Y-127008000D01*
X178966666Y-127055619D01*
X178919047Y-127150857D01*
X178919047Y-127293714D01*
X178966666Y-127388952D01*
X179014285Y-127436571D01*
X179109523Y-127484190D01*
X179490476Y-127484190D01*
X178061904Y-127293714D02*
X178061904Y-127960380D01*
X178300000Y-126912761D02*
X178538095Y-127627047D01*
X177919047Y-127627047D01*
X177347619Y-126960380D02*
X177252380Y-126960380D01*
X177157142Y-127008000D01*
X177109523Y-127055619D01*
X177061904Y-127150857D01*
X177014285Y-127341333D01*
X177014285Y-127579428D01*
X177061904Y-127769904D01*
X177109523Y-127865142D01*
X177157142Y-127912761D01*
X177252380Y-127960380D01*
X177347619Y-127960380D01*
X177442857Y-127912761D01*
X177490476Y-127865142D01*
X177538095Y-127769904D01*
X177585714Y-127579428D01*
X177585714Y-127341333D01*
X177538095Y-127150857D01*
X177490476Y-127055619D01*
X177442857Y-127008000D01*
X177347619Y-126960380D01*
X176061904Y-127960380D02*
X176633333Y-127960380D01*
X176347619Y-127960380D02*
X176347619Y-126960380D01*
X176442857Y-127103238D01*
X176538095Y-127198476D01*
X176633333Y-127246095D01*
%TO.C,R402*%
X164949047Y-126690380D02*
X165282380Y-126214190D01*
X165520476Y-126690380D02*
X165520476Y-125690380D01*
X165139523Y-125690380D01*
X165044285Y-125738000D01*
X164996666Y-125785619D01*
X164949047Y-125880857D01*
X164949047Y-126023714D01*
X164996666Y-126118952D01*
X165044285Y-126166571D01*
X165139523Y-126214190D01*
X165520476Y-126214190D01*
X164091904Y-126023714D02*
X164091904Y-126690380D01*
X164330000Y-125642761D02*
X164568095Y-126357047D01*
X163949047Y-126357047D01*
X163377619Y-125690380D02*
X163282380Y-125690380D01*
X163187142Y-125738000D01*
X163139523Y-125785619D01*
X163091904Y-125880857D01*
X163044285Y-126071333D01*
X163044285Y-126309428D01*
X163091904Y-126499904D01*
X163139523Y-126595142D01*
X163187142Y-126642761D01*
X163282380Y-126690380D01*
X163377619Y-126690380D01*
X163472857Y-126642761D01*
X163520476Y-126595142D01*
X163568095Y-126499904D01*
X163615714Y-126309428D01*
X163615714Y-126071333D01*
X163568095Y-125880857D01*
X163520476Y-125785619D01*
X163472857Y-125738000D01*
X163377619Y-125690380D01*
X162663333Y-125785619D02*
X162615714Y-125738000D01*
X162520476Y-125690380D01*
X162282380Y-125690380D01*
X162187142Y-125738000D01*
X162139523Y-125785619D01*
X162091904Y-125880857D01*
X162091904Y-125976095D01*
X162139523Y-126118952D01*
X162710952Y-126690380D01*
X162091904Y-126690380D01*
%TO.C,R501*%
X142089047Y-120848380D02*
X142422380Y-120372190D01*
X142660476Y-120848380D02*
X142660476Y-119848380D01*
X142279523Y-119848380D01*
X142184285Y-119896000D01*
X142136666Y-119943619D01*
X142089047Y-120038857D01*
X142089047Y-120181714D01*
X142136666Y-120276952D01*
X142184285Y-120324571D01*
X142279523Y-120372190D01*
X142660476Y-120372190D01*
X141184285Y-119848380D02*
X141660476Y-119848380D01*
X141708095Y-120324571D01*
X141660476Y-120276952D01*
X141565238Y-120229333D01*
X141327142Y-120229333D01*
X141231904Y-120276952D01*
X141184285Y-120324571D01*
X141136666Y-120419809D01*
X141136666Y-120657904D01*
X141184285Y-120753142D01*
X141231904Y-120800761D01*
X141327142Y-120848380D01*
X141565238Y-120848380D01*
X141660476Y-120800761D01*
X141708095Y-120753142D01*
X140517619Y-119848380D02*
X140422380Y-119848380D01*
X140327142Y-119896000D01*
X140279523Y-119943619D01*
X140231904Y-120038857D01*
X140184285Y-120229333D01*
X140184285Y-120467428D01*
X140231904Y-120657904D01*
X140279523Y-120753142D01*
X140327142Y-120800761D01*
X140422380Y-120848380D01*
X140517619Y-120848380D01*
X140612857Y-120800761D01*
X140660476Y-120753142D01*
X140708095Y-120657904D01*
X140755714Y-120467428D01*
X140755714Y-120229333D01*
X140708095Y-120038857D01*
X140660476Y-119943619D01*
X140612857Y-119896000D01*
X140517619Y-119848380D01*
X139231904Y-120848380D02*
X139803333Y-120848380D01*
X139517619Y-120848380D02*
X139517619Y-119848380D01*
X139612857Y-119991238D01*
X139708095Y-120086476D01*
X139803333Y-120134095D01*
%TO.C,R502*%
X138279047Y-122372380D02*
X138612380Y-121896190D01*
X138850476Y-122372380D02*
X138850476Y-121372380D01*
X138469523Y-121372380D01*
X138374285Y-121420000D01*
X138326666Y-121467619D01*
X138279047Y-121562857D01*
X138279047Y-121705714D01*
X138326666Y-121800952D01*
X138374285Y-121848571D01*
X138469523Y-121896190D01*
X138850476Y-121896190D01*
X137374285Y-121372380D02*
X137850476Y-121372380D01*
X137898095Y-121848571D01*
X137850476Y-121800952D01*
X137755238Y-121753333D01*
X137517142Y-121753333D01*
X137421904Y-121800952D01*
X137374285Y-121848571D01*
X137326666Y-121943809D01*
X137326666Y-122181904D01*
X137374285Y-122277142D01*
X137421904Y-122324761D01*
X137517142Y-122372380D01*
X137755238Y-122372380D01*
X137850476Y-122324761D01*
X137898095Y-122277142D01*
X136707619Y-121372380D02*
X136612380Y-121372380D01*
X136517142Y-121420000D01*
X136469523Y-121467619D01*
X136421904Y-121562857D01*
X136374285Y-121753333D01*
X136374285Y-121991428D01*
X136421904Y-122181904D01*
X136469523Y-122277142D01*
X136517142Y-122324761D01*
X136612380Y-122372380D01*
X136707619Y-122372380D01*
X136802857Y-122324761D01*
X136850476Y-122277142D01*
X136898095Y-122181904D01*
X136945714Y-121991428D01*
X136945714Y-121753333D01*
X136898095Y-121562857D01*
X136850476Y-121467619D01*
X136802857Y-121420000D01*
X136707619Y-121372380D01*
X135993333Y-121467619D02*
X135945714Y-121420000D01*
X135850476Y-121372380D01*
X135612380Y-121372380D01*
X135517142Y-121420000D01*
X135469523Y-121467619D01*
X135421904Y-121562857D01*
X135421904Y-121658095D01*
X135469523Y-121800952D01*
X136040952Y-122372380D01*
X135421904Y-122372380D01*
%TO.C,R503*%
X136850380Y-109624952D02*
X136374190Y-109291619D01*
X136850380Y-109053523D02*
X135850380Y-109053523D01*
X135850380Y-109434476D01*
X135898000Y-109529714D01*
X135945619Y-109577333D01*
X136040857Y-109624952D01*
X136183714Y-109624952D01*
X136278952Y-109577333D01*
X136326571Y-109529714D01*
X136374190Y-109434476D01*
X136374190Y-109053523D01*
X135850380Y-110529714D02*
X135850380Y-110053523D01*
X136326571Y-110005904D01*
X136278952Y-110053523D01*
X136231333Y-110148761D01*
X136231333Y-110386857D01*
X136278952Y-110482095D01*
X136326571Y-110529714D01*
X136421809Y-110577333D01*
X136659904Y-110577333D01*
X136755142Y-110529714D01*
X136802761Y-110482095D01*
X136850380Y-110386857D01*
X136850380Y-110148761D01*
X136802761Y-110053523D01*
X136755142Y-110005904D01*
X135850380Y-111196380D02*
X135850380Y-111291619D01*
X135898000Y-111386857D01*
X135945619Y-111434476D01*
X136040857Y-111482095D01*
X136231333Y-111529714D01*
X136469428Y-111529714D01*
X136659904Y-111482095D01*
X136755142Y-111434476D01*
X136802761Y-111386857D01*
X136850380Y-111291619D01*
X136850380Y-111196380D01*
X136802761Y-111101142D01*
X136755142Y-111053523D01*
X136659904Y-111005904D01*
X136469428Y-110958285D01*
X136231333Y-110958285D01*
X136040857Y-111005904D01*
X135945619Y-111053523D01*
X135898000Y-111101142D01*
X135850380Y-111196380D01*
X135850380Y-111863047D02*
X135850380Y-112482095D01*
X136231333Y-112148761D01*
X136231333Y-112291619D01*
X136278952Y-112386857D01*
X136326571Y-112434476D01*
X136421809Y-112482095D01*
X136659904Y-112482095D01*
X136755142Y-112434476D01*
X136802761Y-112386857D01*
X136850380Y-112291619D01*
X136850380Y-112005904D01*
X136802761Y-111910666D01*
X136755142Y-111863047D01*
%TO.C,R504*%
X134310380Y-109624952D02*
X133834190Y-109291619D01*
X134310380Y-109053523D02*
X133310380Y-109053523D01*
X133310380Y-109434476D01*
X133358000Y-109529714D01*
X133405619Y-109577333D01*
X133500857Y-109624952D01*
X133643714Y-109624952D01*
X133738952Y-109577333D01*
X133786571Y-109529714D01*
X133834190Y-109434476D01*
X133834190Y-109053523D01*
X133310380Y-110529714D02*
X133310380Y-110053523D01*
X133786571Y-110005904D01*
X133738952Y-110053523D01*
X133691333Y-110148761D01*
X133691333Y-110386857D01*
X133738952Y-110482095D01*
X133786571Y-110529714D01*
X133881809Y-110577333D01*
X134119904Y-110577333D01*
X134215142Y-110529714D01*
X134262761Y-110482095D01*
X134310380Y-110386857D01*
X134310380Y-110148761D01*
X134262761Y-110053523D01*
X134215142Y-110005904D01*
X133310380Y-111196380D02*
X133310380Y-111291619D01*
X133358000Y-111386857D01*
X133405619Y-111434476D01*
X133500857Y-111482095D01*
X133691333Y-111529714D01*
X133929428Y-111529714D01*
X134119904Y-111482095D01*
X134215142Y-111434476D01*
X134262761Y-111386857D01*
X134310380Y-111291619D01*
X134310380Y-111196380D01*
X134262761Y-111101142D01*
X134215142Y-111053523D01*
X134119904Y-111005904D01*
X133929428Y-110958285D01*
X133691333Y-110958285D01*
X133500857Y-111005904D01*
X133405619Y-111053523D01*
X133358000Y-111101142D01*
X133310380Y-111196380D01*
X133643714Y-112386857D02*
X134310380Y-112386857D01*
X133262761Y-112148761D02*
X133977047Y-111910666D01*
X133977047Y-112529714D01*
%TO.C,R505*%
X131516380Y-109624952D02*
X131040190Y-109291619D01*
X131516380Y-109053523D02*
X130516380Y-109053523D01*
X130516380Y-109434476D01*
X130564000Y-109529714D01*
X130611619Y-109577333D01*
X130706857Y-109624952D01*
X130849714Y-109624952D01*
X130944952Y-109577333D01*
X130992571Y-109529714D01*
X131040190Y-109434476D01*
X131040190Y-109053523D01*
X130516380Y-110529714D02*
X130516380Y-110053523D01*
X130992571Y-110005904D01*
X130944952Y-110053523D01*
X130897333Y-110148761D01*
X130897333Y-110386857D01*
X130944952Y-110482095D01*
X130992571Y-110529714D01*
X131087809Y-110577333D01*
X131325904Y-110577333D01*
X131421142Y-110529714D01*
X131468761Y-110482095D01*
X131516380Y-110386857D01*
X131516380Y-110148761D01*
X131468761Y-110053523D01*
X131421142Y-110005904D01*
X130516380Y-111196380D02*
X130516380Y-111291619D01*
X130564000Y-111386857D01*
X130611619Y-111434476D01*
X130706857Y-111482095D01*
X130897333Y-111529714D01*
X131135428Y-111529714D01*
X131325904Y-111482095D01*
X131421142Y-111434476D01*
X131468761Y-111386857D01*
X131516380Y-111291619D01*
X131516380Y-111196380D01*
X131468761Y-111101142D01*
X131421142Y-111053523D01*
X131325904Y-111005904D01*
X131135428Y-110958285D01*
X130897333Y-110958285D01*
X130706857Y-111005904D01*
X130611619Y-111053523D01*
X130564000Y-111101142D01*
X130516380Y-111196380D01*
X130516380Y-112434476D02*
X130516380Y-111958285D01*
X130992571Y-111910666D01*
X130944952Y-111958285D01*
X130897333Y-112053523D01*
X130897333Y-112291619D01*
X130944952Y-112386857D01*
X130992571Y-112434476D01*
X131087809Y-112482095D01*
X131325904Y-112482095D01*
X131421142Y-112434476D01*
X131468761Y-112386857D01*
X131516380Y-112291619D01*
X131516380Y-112053523D01*
X131468761Y-111958285D01*
X131421142Y-111910666D01*
%TO.C,U501*%
X124904285Y-110958380D02*
X124904285Y-111767904D01*
X124856666Y-111863142D01*
X124809047Y-111910761D01*
X124713809Y-111958380D01*
X124523333Y-111958380D01*
X124428095Y-111910761D01*
X124380476Y-111863142D01*
X124332857Y-111767904D01*
X124332857Y-110958380D01*
X123380476Y-110958380D02*
X123856666Y-110958380D01*
X123904285Y-111434571D01*
X123856666Y-111386952D01*
X123761428Y-111339333D01*
X123523333Y-111339333D01*
X123428095Y-111386952D01*
X123380476Y-111434571D01*
X123332857Y-111529809D01*
X123332857Y-111767904D01*
X123380476Y-111863142D01*
X123428095Y-111910761D01*
X123523333Y-111958380D01*
X123761428Y-111958380D01*
X123856666Y-111910761D01*
X123904285Y-111863142D01*
X122713809Y-110958380D02*
X122618571Y-110958380D01*
X122523333Y-111006000D01*
X122475714Y-111053619D01*
X122428095Y-111148857D01*
X122380476Y-111339333D01*
X122380476Y-111577428D01*
X122428095Y-111767904D01*
X122475714Y-111863142D01*
X122523333Y-111910761D01*
X122618571Y-111958380D01*
X122713809Y-111958380D01*
X122809047Y-111910761D01*
X122856666Y-111863142D01*
X122904285Y-111767904D01*
X122951904Y-111577428D01*
X122951904Y-111339333D01*
X122904285Y-111148857D01*
X122856666Y-111053619D01*
X122809047Y-111006000D01*
X122713809Y-110958380D01*
X121428095Y-111958380D02*
X121999523Y-111958380D01*
X121713809Y-111958380D02*
X121713809Y-110958380D01*
X121809047Y-111101238D01*
X121904285Y-111196476D01*
X121999523Y-111244095D01*
%TO.C,U502*%
X124650285Y-120864380D02*
X124650285Y-121673904D01*
X124602666Y-121769142D01*
X124555047Y-121816761D01*
X124459809Y-121864380D01*
X124269333Y-121864380D01*
X124174095Y-121816761D01*
X124126476Y-121769142D01*
X124078857Y-121673904D01*
X124078857Y-120864380D01*
X123126476Y-120864380D02*
X123602666Y-120864380D01*
X123650285Y-121340571D01*
X123602666Y-121292952D01*
X123507428Y-121245333D01*
X123269333Y-121245333D01*
X123174095Y-121292952D01*
X123126476Y-121340571D01*
X123078857Y-121435809D01*
X123078857Y-121673904D01*
X123126476Y-121769142D01*
X123174095Y-121816761D01*
X123269333Y-121864380D01*
X123507428Y-121864380D01*
X123602666Y-121816761D01*
X123650285Y-121769142D01*
X122459809Y-120864380D02*
X122364571Y-120864380D01*
X122269333Y-120912000D01*
X122221714Y-120959619D01*
X122174095Y-121054857D01*
X122126476Y-121245333D01*
X122126476Y-121483428D01*
X122174095Y-121673904D01*
X122221714Y-121769142D01*
X122269333Y-121816761D01*
X122364571Y-121864380D01*
X122459809Y-121864380D01*
X122555047Y-121816761D01*
X122602666Y-121769142D01*
X122650285Y-121673904D01*
X122697904Y-121483428D01*
X122697904Y-121245333D01*
X122650285Y-121054857D01*
X122602666Y-120959619D01*
X122555047Y-120912000D01*
X122459809Y-120864380D01*
X121745523Y-120959619D02*
X121697904Y-120912000D01*
X121602666Y-120864380D01*
X121364571Y-120864380D01*
X121269333Y-120912000D01*
X121221714Y-120959619D01*
X121174095Y-121054857D01*
X121174095Y-121150095D01*
X121221714Y-121292952D01*
X121793142Y-121864380D01*
X121174095Y-121864380D01*
%TO.C,U503*%
X124650285Y-131024380D02*
X124650285Y-131833904D01*
X124602666Y-131929142D01*
X124555047Y-131976761D01*
X124459809Y-132024380D01*
X124269333Y-132024380D01*
X124174095Y-131976761D01*
X124126476Y-131929142D01*
X124078857Y-131833904D01*
X124078857Y-131024380D01*
X123126476Y-131024380D02*
X123602666Y-131024380D01*
X123650285Y-131500571D01*
X123602666Y-131452952D01*
X123507428Y-131405333D01*
X123269333Y-131405333D01*
X123174095Y-131452952D01*
X123126476Y-131500571D01*
X123078857Y-131595809D01*
X123078857Y-131833904D01*
X123126476Y-131929142D01*
X123174095Y-131976761D01*
X123269333Y-132024380D01*
X123507428Y-132024380D01*
X123602666Y-131976761D01*
X123650285Y-131929142D01*
X122459809Y-131024380D02*
X122364571Y-131024380D01*
X122269333Y-131072000D01*
X122221714Y-131119619D01*
X122174095Y-131214857D01*
X122126476Y-131405333D01*
X122126476Y-131643428D01*
X122174095Y-131833904D01*
X122221714Y-131929142D01*
X122269333Y-131976761D01*
X122364571Y-132024380D01*
X122459809Y-132024380D01*
X122555047Y-131976761D01*
X122602666Y-131929142D01*
X122650285Y-131833904D01*
X122697904Y-131643428D01*
X122697904Y-131405333D01*
X122650285Y-131214857D01*
X122602666Y-131119619D01*
X122555047Y-131072000D01*
X122459809Y-131024380D01*
X121793142Y-131024380D02*
X121174095Y-131024380D01*
X121507428Y-131405333D01*
X121364571Y-131405333D01*
X121269333Y-131452952D01*
X121221714Y-131500571D01*
X121174095Y-131595809D01*
X121174095Y-131833904D01*
X121221714Y-131929142D01*
X121269333Y-131976761D01*
X121364571Y-132024380D01*
X121650285Y-132024380D01*
X121745523Y-131976761D01*
X121793142Y-131929142D01*
%TD*%
%LPC*%
%TO.C,JP201*%
G36*
X135991600Y-133869400D02*
X135242300Y-134872700D01*
X135242300Y-135101300D01*
X135991600Y-136104600D01*
X137058400Y-136104600D01*
X137807700Y-135101300D01*
X137807700Y-134872700D01*
X137058400Y-133869400D01*
X137045700Y-133869400D01*
X135991600Y-133869400D01*
G37*
X135991600Y-133869400D02*
X135242300Y-134872700D01*
X135242300Y-135101300D01*
X135991600Y-136104600D01*
X137058400Y-136104600D01*
X137807700Y-135101300D01*
X137807700Y-134872700D01*
X137058400Y-133869400D01*
X137045700Y-133869400D01*
X135991600Y-133869400D01*
%TO.C,JP202*%
G36*
X139166600Y-133869400D02*
X138417300Y-134872700D01*
X138417300Y-135101300D01*
X139166600Y-136104600D01*
X140233400Y-136104600D01*
X140982700Y-135101300D01*
X140982700Y-134872700D01*
X140233400Y-133869400D01*
X140220700Y-133869400D01*
X139166600Y-133869400D01*
G37*
X139166600Y-133869400D02*
X138417300Y-134872700D01*
X138417300Y-135101300D01*
X139166600Y-136104600D01*
X140233400Y-136104600D01*
X140982700Y-135101300D01*
X140982700Y-134872700D01*
X140233400Y-133869400D01*
X140220700Y-133869400D01*
X139166600Y-133869400D01*
%TO.C,JP203*%
G36*
X149326600Y-133869400D02*
X148577300Y-134872700D01*
X148577300Y-135101300D01*
X149326600Y-136104600D01*
X150393400Y-136104600D01*
X151142700Y-135101300D01*
X151142700Y-134872700D01*
X150393400Y-133869400D01*
X150380700Y-133869400D01*
X149326600Y-133869400D01*
G37*
X149326600Y-133869400D02*
X148577300Y-134872700D01*
X148577300Y-135101300D01*
X149326600Y-136104600D01*
X150393400Y-136104600D01*
X151142700Y-135101300D01*
X151142700Y-134872700D01*
X150393400Y-133869400D01*
X150380700Y-133869400D01*
X149326600Y-133869400D01*
%TO.C,JP204*%
G36*
X146151600Y-133869400D02*
X145402300Y-134872700D01*
X145402300Y-135101300D01*
X146151600Y-136104600D01*
X147218400Y-136104600D01*
X147967700Y-135101300D01*
X147967700Y-134872700D01*
X147218400Y-133869400D01*
X147205700Y-133869400D01*
X146151600Y-133869400D01*
G37*
X146151600Y-133869400D02*
X145402300Y-134872700D01*
X145402300Y-135101300D01*
X146151600Y-136104600D01*
X147218400Y-136104600D01*
X147967700Y-135101300D01*
X147967700Y-134872700D01*
X147218400Y-133869400D01*
X147205700Y-133869400D01*
X146151600Y-133869400D01*
%TO.C,JP301*%
G36*
X169570400Y-115341400D02*
X170573700Y-116090700D01*
X170802300Y-116090700D01*
X171805600Y-115341400D01*
X171805600Y-114274600D01*
X170802300Y-113525300D01*
X170573700Y-113525300D01*
X169570400Y-114274600D01*
X169570400Y-114287300D01*
X169570400Y-115341400D01*
G37*
X169570400Y-115341400D02*
X170573700Y-116090700D01*
X170802300Y-116090700D01*
X171805600Y-115341400D01*
X171805600Y-114274600D01*
X170802300Y-113525300D01*
X170573700Y-113525300D01*
X169570400Y-114274600D01*
X169570400Y-114287300D01*
X169570400Y-115341400D01*
%TO.C,JP302*%
G36*
X171805600Y-119354600D02*
X170802300Y-118605300D01*
X170573700Y-118605300D01*
X169570400Y-119354600D01*
X169570400Y-120421400D01*
X170573700Y-121170700D01*
X170802300Y-121170700D01*
X171805600Y-120421400D01*
X171805600Y-120408700D01*
X171805600Y-119354600D01*
G37*
X171805600Y-119354600D02*
X170802300Y-118605300D01*
X170573700Y-118605300D01*
X169570400Y-119354600D01*
X169570400Y-120421400D01*
X170573700Y-121170700D01*
X170802300Y-121170700D01*
X171805600Y-120421400D01*
X171805600Y-120408700D01*
X171805600Y-119354600D01*
%TO.C,JP401*%
G36*
X169570400Y-125501400D02*
X170573700Y-126250700D01*
X170802300Y-126250700D01*
X171805600Y-125501400D01*
X171805600Y-124434600D01*
X170802300Y-123685300D01*
X170573700Y-123685300D01*
X169570400Y-124434600D01*
X169570400Y-124447300D01*
X169570400Y-125501400D01*
G37*
X169570400Y-125501400D02*
X170573700Y-126250700D01*
X170802300Y-126250700D01*
X171805600Y-125501400D01*
X171805600Y-124434600D01*
X170802300Y-123685300D01*
X170573700Y-123685300D01*
X169570400Y-124434600D01*
X169570400Y-124447300D01*
X169570400Y-125501400D01*
%TO.C,JP402*%
G36*
X171805600Y-129514600D02*
X170802300Y-128765300D01*
X170573700Y-128765300D01*
X169570400Y-129514600D01*
X169570400Y-130581400D01*
X170573700Y-131330700D01*
X170802300Y-131330700D01*
X171805600Y-130581400D01*
X171805600Y-130568700D01*
X171805600Y-129514600D01*
G37*
X171805600Y-129514600D02*
X170802300Y-128765300D01*
X170573700Y-128765300D01*
X169570400Y-129514600D01*
X169570400Y-130581400D01*
X170573700Y-131330700D01*
X170802300Y-131330700D01*
X171805600Y-130581400D01*
X171805600Y-130568700D01*
X171805600Y-129514600D01*
%TO.C,JP501*%
G36*
X137693400Y-114909600D02*
X138442700Y-113906300D01*
X138442700Y-113677700D01*
X137693400Y-112674400D01*
X136626600Y-112674400D01*
X135877300Y-113677700D01*
X135877300Y-113906300D01*
X136626600Y-114909600D01*
X136639300Y-114909600D01*
X137693400Y-114909600D01*
G37*
X137693400Y-114909600D02*
X138442700Y-113906300D01*
X138442700Y-113677700D01*
X137693400Y-112674400D01*
X136626600Y-112674400D01*
X135877300Y-113677700D01*
X135877300Y-113906300D01*
X136626600Y-114909600D01*
X136639300Y-114909600D01*
X137693400Y-114909600D01*
%TO.C,JP502*%
G36*
X135661400Y-116941600D02*
X136410700Y-115938300D01*
X136410700Y-115709700D01*
X135661400Y-114706400D01*
X134594600Y-114706400D01*
X133845300Y-115709700D01*
X133845300Y-115938300D01*
X134594600Y-116941600D01*
X134607300Y-116941600D01*
X135661400Y-116941600D01*
G37*
X135661400Y-116941600D02*
X136410700Y-115938300D01*
X136410700Y-115709700D01*
X135661400Y-114706400D01*
X134594600Y-114706400D01*
X133845300Y-115709700D01*
X133845300Y-115938300D01*
X134594600Y-116941600D01*
X134607300Y-116941600D01*
X135661400Y-116941600D01*
%TO.C,JP503*%
G36*
X133629400Y-114909600D02*
X134378700Y-113906300D01*
X134378700Y-113677700D01*
X133629400Y-112674400D01*
X132562600Y-112674400D01*
X131813300Y-113677700D01*
X131813300Y-113906300D01*
X132562600Y-114909600D01*
X132575300Y-114909600D01*
X133629400Y-114909600D01*
G37*
X133629400Y-114909600D02*
X134378700Y-113906300D01*
X134378700Y-113677700D01*
X133629400Y-112674400D01*
X132562600Y-112674400D01*
X131813300Y-113677700D01*
X131813300Y-113906300D01*
X132562600Y-114909600D01*
X132575300Y-114909600D01*
X133629400Y-114909600D01*
%TD*%
D13*
%TO.C,REF\002A\002A*%
X105000000Y-105000000D03*
D14*
X107400000Y-105000000D03*
X106697056Y-106697056D03*
X105000000Y-107400000D03*
X103302944Y-106697056D03*
X102600000Y-105000000D03*
X103302944Y-103302944D03*
X105000000Y-102600000D03*
X106697056Y-103302944D03*
%TD*%
%TO.C,REF\002A\002A*%
X106697056Y-143302944D03*
X105000000Y-142600000D03*
X103302944Y-143302944D03*
X102600000Y-145000000D03*
X103302944Y-146697056D03*
X105000000Y-147400000D03*
X106697056Y-146697056D03*
X107400000Y-145000000D03*
D13*
X105000000Y-145000000D03*
%TD*%
%TO.C,REF\002A\002A*%
X175000000Y-145000000D03*
D14*
X177400000Y-145000000D03*
X176697056Y-146697056D03*
X175000000Y-147400000D03*
X173302944Y-146697056D03*
X172600000Y-145000000D03*
X173302944Y-143302944D03*
X175000000Y-142600000D03*
X176697056Y-143302944D03*
%TD*%
%TO.C,REF\002A\002A*%
X176697056Y-103302944D03*
X175000000Y-102600000D03*
X173302944Y-103302944D03*
X172600000Y-105000000D03*
X173302944Y-106697056D03*
X175000000Y-107400000D03*
X176697056Y-106697056D03*
X177400000Y-105000000D03*
D13*
X175000000Y-105000000D03*
%TD*%
D15*
%TO.C,C101*%
X126492000Y-110744000D03*
D16*
X126492000Y-108244000D03*
%TD*%
D17*
%TO.C,C201*%
X166132000Y-106680000D03*
X168132000Y-106680000D03*
%TD*%
%TO.C,C202*%
X149876000Y-114808000D03*
X151876000Y-114808000D03*
%TD*%
%TO.C,C203*%
X162068000Y-130048000D03*
X164068000Y-130048000D03*
%TD*%
%TO.C,C204*%
X134350000Y-142607000D03*
X132350000Y-142607000D03*
%TD*%
%TO.C,C301*%
X175244000Y-119888000D03*
X173244000Y-119888000D03*
%TD*%
%TO.C,C401*%
X175244000Y-130048000D03*
X173244000Y-130048000D03*
%TD*%
D18*
%TO.C,C501*%
X130000000Y-116000000D03*
X130000000Y-114000000D03*
%TD*%
D17*
%TO.C,C502*%
X127685000Y-130810000D03*
X125685000Y-130810000D03*
%TD*%
%TO.C,C503*%
X127685000Y-120650000D03*
X125685000Y-120650000D03*
%TD*%
%TO.C,C504*%
X133112000Y-107696000D03*
X135112000Y-107696000D03*
%TD*%
D19*
%TO.C,D201*%
X130556000Y-104648000D03*
D20*
X130556000Y-102108000D03*
%TD*%
%TO.C,D202*%
X125476000Y-102108000D03*
D19*
X125476000Y-104648000D03*
%TD*%
D21*
%TO.C,J101*%
X141224000Y-118364000D03*
X141224000Y-115824000D03*
D22*
X141224000Y-113284000D03*
%TD*%
D23*
%TO.C,J102*%
X113284000Y-105664000D03*
D24*
X118284000Y-105664000D03*
%TD*%
D25*
%TO.C,J104*%
X138176000Y-123952000D03*
D26*
X140716000Y-123952000D03*
X143256000Y-123952000D03*
%TD*%
D25*
%TO.C,J301*%
X173736000Y-114808000D03*
D26*
X176276000Y-114808000D03*
%TD*%
%TO.C,J401*%
X176276000Y-124968000D03*
D25*
X173736000Y-124968000D03*
%TD*%
%TO.C,J501*%
X137668000Y-107696000D03*
D26*
X140208000Y-107696000D03*
X142748000Y-107696000D03*
%TD*%
D27*
%TO.C,Q501*%
X134096000Y-118430000D03*
X134096000Y-120330000D03*
X132096000Y-119380000D03*
%TD*%
D28*
%TO.C,R101*%
X144206000Y-134112000D03*
X142306000Y-134112000D03*
%TD*%
%TO.C,R102*%
X134046000Y-134112000D03*
X132146000Y-134112000D03*
%TD*%
%TO.C,R103*%
X125735000Y-139065000D03*
X127635000Y-139065000D03*
%TD*%
D29*
%TO.C,R201*%
X133096000Y-104074000D03*
X133096000Y-102174000D03*
%TD*%
%TO.C,R202*%
X128016000Y-102174000D03*
X128016000Y-104074000D03*
%TD*%
D28*
%TO.C,R301*%
X173294000Y-117348000D03*
X175194000Y-117348000D03*
%TD*%
%TO.C,R302*%
X169738000Y-117348000D03*
X171638000Y-117348000D03*
%TD*%
%TO.C,R401*%
X173294000Y-127508000D03*
X175194000Y-127508000D03*
%TD*%
%TO.C,R402*%
X169738000Y-127508000D03*
X171638000Y-127508000D03*
%TD*%
D29*
%TO.C,R501*%
X138176000Y-118430000D03*
X138176000Y-120330000D03*
%TD*%
%TO.C,R502*%
X136144000Y-118430000D03*
X136144000Y-120330000D03*
%TD*%
%TO.C,R503*%
X137668000Y-109794000D03*
X137668000Y-111694000D03*
%TD*%
%TO.C,R504*%
X135128000Y-111694000D03*
X135128000Y-109794000D03*
%TD*%
%TO.C,R505*%
X132588000Y-109794000D03*
X132588000Y-111694000D03*
%TD*%
D30*
%TO.C,U201*%
X166243000Y-102870000D03*
D31*
X148463000Y-110490000D03*
X163703000Y-102870000D03*
X151003000Y-110490000D03*
X161163000Y-102870000D03*
X153543000Y-110490000D03*
X158623000Y-102870000D03*
X156083000Y-110490000D03*
X156083000Y-102870000D03*
X158623000Y-110490000D03*
X153543000Y-102870000D03*
X161163000Y-110490000D03*
X151003000Y-102870000D03*
X163703000Y-110490000D03*
X148463000Y-102870000D03*
X166243000Y-110490000D03*
%TD*%
%TO.C,U202*%
X134620000Y-138797000D03*
X152400000Y-146417000D03*
X137160000Y-138797000D03*
X149860000Y-146417000D03*
X139700000Y-138797000D03*
X147320000Y-146417000D03*
X142240000Y-138797000D03*
X144780000Y-146417000D03*
X144780000Y-138797000D03*
X142240000Y-146417000D03*
X147320000Y-138797000D03*
X139700000Y-146417000D03*
X149860000Y-138797000D03*
X137160000Y-146417000D03*
X152400000Y-138797000D03*
D30*
X134620000Y-146417000D03*
%TD*%
D32*
%TO.C,U203*%
X146812000Y-114808000D03*
D33*
X154432000Y-130048000D03*
X146812000Y-117348000D03*
X154432000Y-127508000D03*
X146812000Y-119888000D03*
X154432000Y-124968000D03*
X146812000Y-122428000D03*
X154432000Y-122428000D03*
X146812000Y-124968000D03*
X154432000Y-119888000D03*
X146812000Y-127508000D03*
X154432000Y-117348000D03*
X146812000Y-130048000D03*
X154432000Y-114808000D03*
%TD*%
%TO.C,U204*%
X159512000Y-130048000D03*
X167132000Y-114808000D03*
X159512000Y-127508000D03*
X167132000Y-117348000D03*
X159512000Y-124968000D03*
X167132000Y-119888000D03*
X159512000Y-122428000D03*
X167132000Y-122428000D03*
X159512000Y-119888000D03*
X167132000Y-124968000D03*
X159512000Y-117348000D03*
X167132000Y-127508000D03*
X159512000Y-114808000D03*
D32*
X167132000Y-130048000D03*
%TD*%
D34*
%TO.C,U501*%
X122500000Y-116600000D03*
X122500000Y-113400000D03*
X127500000Y-116600000D03*
X127500000Y-113400000D03*
%TD*%
%TO.C,U502*%
X127500000Y-123400000D03*
X127500000Y-126600000D03*
X122500000Y-123400000D03*
X122500000Y-126600000D03*
%TD*%
%TO.C,U503*%
X122500000Y-136600000D03*
X122500000Y-133400000D03*
X127500000Y-136600000D03*
X127500000Y-133400000D03*
%TD*%
D35*
%TO.C,J103*%
X117475000Y-117475000D03*
X117475000Y-120015000D03*
X114935000Y-117475000D03*
X114935000Y-120015000D03*
X112395000Y-117475000D03*
X112395000Y-120015000D03*
X109855000Y-117475000D03*
X109855000Y-120015000D03*
X107315000Y-117475000D03*
D36*
X107315000Y-120015000D03*
%TD*%
%TO.C,J105*%
X107315000Y-133350000D03*
D35*
X107315000Y-130810000D03*
X109855000Y-133350000D03*
X109855000Y-130810000D03*
X112395000Y-133350000D03*
X112395000Y-130810000D03*
X114935000Y-133350000D03*
X114935000Y-130810000D03*
X117475000Y-133350000D03*
X117475000Y-130810000D03*
%TD*%
M02*
