M48
;DRILL file {KiCad (5.0.0-rc2-dev-488-g86906b05e)} date Fri May 18 00:41:17 2018
;FORMAT={-:-/ absolute / metric / decimal}
FMAT,2
METRIC,TZ
T1C0.300
T2C0.400
T3C0.500
T4C0.600
T5C0.800
T6C0.900
T7C1.016
T8C1.200
T9C1.300
T10C3.200
%
G90
G05
M71
T1
X113.792Y-122.428
X115.824Y-121.92
X117.475Y-124.46
X119.38Y-131.064
X119.38Y-134.112
X120.396Y-136.144
X120.65Y-116.205
X120.65Y-117.475
X120.65Y-126.365
X120.65Y-127.635
X120.65Y-137.16
X121.92Y-118.11
X121.92Y-137.795
X123.19Y-118.11
X123.19Y-137.795
X124.333Y-119.761
X124.333Y-120.777
X124.46Y-117.475
X124.46Y-121.793
X124.46Y-126.365
X124.46Y-127.
X124.46Y-130.81
X124.46Y-132.08
X124.46Y-136.525
X125.095Y-106.68
X125.349Y-119.126
X125.666Y-121.92
X125.73Y-114.935
X125.73Y-128.27
X126.365Y-106.68
X127.635Y-106.68
X128.27Y-108.585
X128.905Y-128.27
X129.032Y-118.364
X129.032Y-119.38
X129.54Y-117.348
X130.175Y-109.855
X130.556Y-122.936
X130.81Y-141.605
X130.81Y-143.51
X131.064Y-116.84
X131.572Y-115.824
X132.08Y-122.936
X132.08Y-140.97
X132.08Y-144.145
X132.715Y-135.89
X134.112Y-122.936
X134.62Y-101.092
X134.62Y-135.89
X135.255Y-104.14
X135.636Y-122.936
X138.684Y-101.092
X139.065Y-105.41
X139.7Y-104.14
X140.97Y-105.41
X141.605Y-136.525
X142.748Y-101.092
X143.51Y-104.14
X147.32Y-104.775
X148.59Y-114.3
X148.59Y-115.57
X149.225Y-104.775
X151.13Y-131.445
X152.4Y-126.365
X152.4Y-128.905
X152.4Y-133.985
X154.305Y-133.985
X156.21Y-107.95
X158.75Y-107.95
X162.56Y-116.205
X162.56Y-120.015
X165.1Y-128.905
X165.1Y-131.445
X168.275Y-105.41
X168.275Y-107.95
X169.545Y-106.68
X175.26Y-121.285
X175.26Y-131.445
X175.895Y-111.76
X176.53Y-120.015
X176.53Y-121.285
X176.53Y-128.27
X176.53Y-130.175
X176.53Y-131.445
X177.8Y-111.76
X177.8Y-128.27
T2
X111.125Y-134.62
X114.935Y-123.19
X118.225Y-121.92
X120.13Y-123.19
X121.741Y-129.54
X123.241Y-129.54
X124.23Y-113.55
X124.46Y-115.05
X125.73Y-113.665
X125.73Y-123.19
X125.73Y-133.35
X127.635Y-134.505
X130.175Y-133.985
X130.81Y-130.81
X133.35Y-140.97
X136.64Y-140.97
X137.795Y-131.56
X139.401Y-136.815
X139.7Y-142.355
X140.97Y-131.445
X140.97Y-140.22
X140.97Y-142.355
X142.24Y-111.01
X142.24Y-131.965
X142.24Y-135.362
X143.51Y-114.3
X144.78Y-121.285
X149.86Y-108.585
X149.86Y-118.11
X151.13Y-116.205
X151.765Y-117.475
X151.765Y-121.285
X152.4Y-108.585
X152.785Y-116.712
X154.94Y-107.835
X156.73Y-123.19
X157.48Y-107.835
X157.48Y-118.745
X157.48Y-133.465
X162.405Y-131.81
X163.83Y-121.92
X163.83Y-126.365
X163.925Y-124.555
T3
X102.6Y-145.
X103.303Y-143.303
X103.303Y-146.697
X105.Y-142.6
X105.Y-147.4
X106.697Y-143.303
X106.697Y-146.697
X107.4Y-145.
X172.6Y-105.
X173.303Y-103.303
X173.303Y-106.697
X175.Y-102.6
X175.Y-107.4
X176.697Y-103.303
X176.697Y-106.697
X177.4Y-105.
X172.6Y-145.
X173.303Y-143.303
X173.303Y-146.697
X175.Y-142.6
X175.Y-147.4
X176.697Y-143.303
X176.697Y-146.697
X177.4Y-145.
X102.6Y-105.
X103.303Y-103.303
X103.303Y-106.697
X105.Y-102.6
X105.Y-107.4
X106.697Y-103.303
X106.697Y-106.697
X107.4Y-105.
T4
X127.508Y-114.808
X127.508Y-121.92
X127.508Y-132.08
T5
X148.463Y-102.87
X148.463Y-110.49
X151.003Y-102.87
X151.003Y-110.49
X153.543Y-102.87
X153.543Y-110.49
X156.083Y-102.87
X156.083Y-110.49
X158.623Y-102.87
X158.623Y-110.49
X161.163Y-102.87
X161.163Y-110.49
X163.703Y-102.87
X163.703Y-110.49
X166.243Y-102.87
X166.243Y-110.49
X126.492Y-108.244
X126.492Y-110.744
X146.812Y-114.808
X146.812Y-117.348
X146.812Y-119.888
X146.812Y-122.428
X146.812Y-124.968
X146.812Y-127.508
X146.812Y-130.048
X154.432Y-114.808
X154.432Y-117.348
X154.432Y-119.888
X154.432Y-122.428
X154.432Y-124.968
X154.432Y-127.508
X154.432Y-130.048
X159.512Y-114.808
X159.512Y-117.348
X159.512Y-119.888
X159.512Y-122.428
X159.512Y-124.968
X159.512Y-127.508
X159.512Y-130.048
X167.132Y-114.808
X167.132Y-117.348
X167.132Y-119.888
X167.132Y-122.428
X167.132Y-124.968
X167.132Y-127.508
X167.132Y-130.048
X134.62Y-138.797
X134.62Y-146.417
X137.16Y-138.797
X137.16Y-146.417
X139.7Y-138.797
X139.7Y-146.417
X142.24Y-138.797
X142.24Y-146.417
X144.78Y-138.797
X144.78Y-146.417
X147.32Y-138.797
X147.32Y-146.417
X149.86Y-138.797
X149.86Y-146.417
X152.4Y-138.797
X152.4Y-146.417
T6
X125.476Y-102.108
X125.476Y-104.648
X130.556Y-102.108
X130.556Y-104.648
T7
X107.315Y-130.81
X107.315Y-133.35
X109.855Y-130.81
X109.855Y-133.35
X112.395Y-130.81
X112.395Y-133.35
X114.935Y-130.81
X114.935Y-133.35
X117.475Y-130.81
X117.475Y-133.35
X107.315Y-117.475
X107.315Y-120.015
X109.855Y-117.475
X109.855Y-120.015
X112.395Y-117.475
X112.395Y-120.015
X114.935Y-117.475
X114.935Y-120.015
X117.475Y-117.475
X117.475Y-120.015
T8
X173.736Y-114.808
X176.276Y-114.808
X137.668Y-107.696
X140.208Y-107.696
X142.748Y-107.696
X141.224Y-113.284
X141.224Y-115.824
X141.224Y-118.364
X173.736Y-124.968
X176.276Y-124.968
X138.176Y-123.952
X140.716Y-123.952
X143.256Y-123.952
T9
X113.284Y-105.664
X118.284Y-105.664
T10
X105.Y-145.
X175.Y-105.
X175.Y-145.
X105.Y-105.
T0
M30
