  0
SECTION
  2
HEADER
  9
$ANGBASE
  50
0.0
  9
$ANGDIR
  70
  1
  9
$MEASUREMENT
  70
0
  0
ENDSEC
  0
SECTION
  2
TABLES
  0
TABLE
  2
LTYPE
  70
4
  0
LTYPE
  5
40F
  2
CONTINUOUS
  70
0
  3
Solid line
  72
65
  73
0
  40
0.0
  0
LTYPE
  5
410
  2
DASHDOT
 70
0
  3
Dash Dot ____ _ ____ _
 72
65
 73
4
 40
2.0
 49
1.25
 49
-0.25
 49
0.25
 49
-0.25
  0
LTYPE
  5
411
  2
DASHED
 70
0
  3
Dashed __ __ __ __ __
 72
65
 73
2
 40
0.75
 49
0.5
 49
-0.25
  0
LTYPE
  5
43B
  2
DOTTED
 70
0
  3
Dotted .  .  .  .
 72
65
 73
2
 40
0.2
 49
0.0
 49
-0.2
  0
ENDTAB
  0
TABLE
  2
STYLE
  70
4
  0
STYLE
  2
KICAD
  70
0
  40
0
  41
1
  42
1
  50
0
  71
0
  3
isocp.shx
  0
STYLE
  2
KICADB
  70
0
  40
0
  41
1
  42
1
  50
0
  71
0
  3
isocp.shx
  0
STYLE
  2
KICADI
  70
0
  40
0
  41
1
  42
1
  50
15
  71
0
  3
isocp.shx
  0
STYLE
  2
KICADBI
  70
0
  40
0
  41
1
  42
1
  50
15
  71
0
  3
isocp.shx
  0
ENDTAB
  0
TABLE
  2
LAYER
  70
30
  0
LAYER
  2
BLACK
  70
0
  62
7
  6
CONTINUOUS
  0
LAYER
  2
GRAY1
  70
0
  62
251
  6
CONTINUOUS
  0
LAYER
  2
GRAY2
  70
0
  62
8
  6
CONTINUOUS
  0
LAYER
  2
GRAY3
  70
0
  62
9
  6
CONTINUOUS
  0
LAYER
  2
WHITE
  70
0
  62
7
  6
CONTINUOUS
  0
LAYER
  2
LYELLOW
  70
0
  62
51
  6
CONTINUOUS
  0
LAYER
  2
BLUE1
  70
0
  62
178
  6
CONTINUOUS
  0
LAYER
  2
GREEN1
  70
0
  62
98
  6
CONTINUOUS
  0
LAYER
  2
CYAN1
  70
0
  62
138
  6
CONTINUOUS
  0
LAYER
  2
RED1
  70
0
  62
18
  6
CONTINUOUS
  0
LAYER
  2
MAGENTA1
  70
0
  62
228
  6
CONTINUOUS
  0
LAYER
  2
BROWN1
  70
0
  62
58
  6
CONTINUOUS
  0
LAYER
  2
BLUE2
  70
0
  62
5
  6
CONTINUOUS
  0
LAYER
  2
GREEN2
  70
0
  62
3
  6
CONTINUOUS
  0
LAYER
  2
CYAN2
  70
0
  62
4
  6
CONTINUOUS
  0
LAYER
  2
RED2
  70
0
  62
1
  6
CONTINUOUS
  0
LAYER
  2
MAGENTA2
  70
0
  62
6
  6
CONTINUOUS
  0
LAYER
  2
BROWN2
  70
0
  62
54
  6
CONTINUOUS
  0
LAYER
  2
BLUE3
  70
0
  62
171
  6
CONTINUOUS
  0
LAYER
  2
GREEN3
  70
0
  62
91
  6
CONTINUOUS
  0
LAYER
  2
CYAN3
  70
0
  62
131
  6
CONTINUOUS
  0
LAYER
  2
RED3
  70
0
  62
11
  6
CONTINUOUS
  0
LAYER
  2
MAGENTA3
  70
0
  62
221
  6
CONTINUOUS
  0
LAYER
  2
YELLOW3
  70
0
  62
2
  6
CONTINUOUS
  0
LAYER
  2
BLUE4
  70
0
  62
5
  6
CONTINUOUS
  0
LAYER
  2
GREEN4
  70
0
  62
3
  6
CONTINUOUS
  0
LAYER
  2
CYAN4
  70
0
  62
4
  6
CONTINUOUS
  0
LAYER
  2
RED4
  70
0
  62
1
  6
CONTINUOUS
  0
LAYER
  2
MAGENTA4
  70
0
  62
6
  6
CONTINUOUS
  0
LAYER
  2
YELLOW4
  70
0
  62
2
  6
CONTINUOUS
  0
ENDTAB
  0
ENDSEC
  0
SECTION
  2
ENTITIES
0
LINE
8
BLACK
6
CONTINUOUS
10
106.111
20
-141.947
11
107.089
21
-142.511
0
LINE
8
BLACK
6
CONTINUOUS
10
107.089
20
-142.511
11
107.814
21
-143.375
0
LINE
8
BLACK
6
CONTINUOUS
10
107.814
20
-143.375
11
108.2
21
-144.436
0
LINE
8
BLACK
6
CONTINUOUS
10
108.2
20
-144.436
11
108.2
21
-145.564
0
LINE
8
BLACK
6
CONTINUOUS
10
108.2
20
-145.564
11
107.814
21
-146.625
0
LINE
8
BLACK
6
CONTINUOUS
10
107.814
20
-146.625
11
107.089
21
-147.489
0
LINE
8
BLACK
6
CONTINUOUS
10
107.089
20
-147.489
11
106.111
21
-148.053
0
LINE
8
BLACK
6
CONTINUOUS
10
106.111
20
-148.053
11
105
21
-148.249
0
LINE
8
BLACK
6
CONTINUOUS
10
105
20
-148.249
11
103.889
21
-148.053
0
LINE
8
BLACK
6
CONTINUOUS
10
103.889
20
-148.053
11
102.911
21
-147.489
0
LINE
8
BLACK
6
CONTINUOUS
10
102.911
20
-147.489
11
102.186
21
-146.625
0
LINE
8
BLACK
6
CONTINUOUS
10
102.186
20
-146.625
11
101.8
21
-145.564
0
LINE
8
BLACK
6
CONTINUOUS
10
101.8
20
-145.564
11
101.8
21
-144.436
0
LINE
8
BLACK
6
CONTINUOUS
10
101.8
20
-144.436
11
102.186
21
-143.375
0
LINE
8
BLACK
6
CONTINUOUS
10
102.186
20
-143.375
11
102.911
21
-142.511
0
LINE
8
BLACK
6
CONTINUOUS
10
102.911
20
-142.511
11
103.889
21
-141.947
0
LINE
8
BLACK
6
CONTINUOUS
10
103.889
20
-141.947
11
105
21
-141.751
0
LINE
8
BLACK
6
CONTINUOUS
10
105
20
-141.751
11
106.111
21
-141.947
0
LINE
8
BLACK
6
CONTINUOUS
10
176.111
20
-141.947
11
177.089
21
-142.511
0
LINE
8
BLACK
6
CONTINUOUS
10
177.089
20
-142.511
11
177.814
21
-143.375
0
LINE
8
BLACK
6
CONTINUOUS
10
177.814
20
-143.375
11
178.2
21
-144.436
0
LINE
8
BLACK
6
CONTINUOUS
10
178.2
20
-144.436
11
178.2
21
-145.564
0
LINE
8
BLACK
6
CONTINUOUS
10
178.2
20
-145.564
11
177.814
21
-146.625
0
LINE
8
BLACK
6
CONTINUOUS
10
177.814
20
-146.625
11
177.089
21
-147.489
0
LINE
8
BLACK
6
CONTINUOUS
10
177.089
20
-147.489
11
176.111
21
-148.053
0
LINE
8
BLACK
6
CONTINUOUS
10
176.111
20
-148.053
11
175
21
-148.249
0
LINE
8
BLACK
6
CONTINUOUS
10
175
20
-148.249
11
173.889
21
-148.053
0
LINE
8
BLACK
6
CONTINUOUS
10
173.889
20
-148.053
11
172.911
21
-147.489
0
LINE
8
BLACK
6
CONTINUOUS
10
172.911
20
-147.489
11
172.186
21
-146.625
0
LINE
8
BLACK
6
CONTINUOUS
10
172.186
20
-146.625
11
171.8
21
-145.564
0
LINE
8
BLACK
6
CONTINUOUS
10
171.8
20
-145.564
11
171.8
21
-144.436
0
LINE
8
BLACK
6
CONTINUOUS
10
171.8
20
-144.436
11
172.186
21
-143.375
0
LINE
8
BLACK
6
CONTINUOUS
10
172.186
20
-143.375
11
172.911
21
-142.511
0
LINE
8
BLACK
6
CONTINUOUS
10
172.911
20
-142.511
11
173.889
21
-141.947
0
LINE
8
BLACK
6
CONTINUOUS
10
173.889
20
-141.947
11
175
21
-141.751
0
LINE
8
BLACK
6
CONTINUOUS
10
175
20
-141.751
11
176.111
21
-141.947
0
LINE
8
BLACK
6
CONTINUOUS
10
134.85
20
-143.232
11
133.85
21
-143.232
0
LINE
8
BLACK
6
CONTINUOUS
10
133.85
20
-143.232
11
133.85
21
-141.982
0
LINE
8
BLACK
6
CONTINUOUS
10
133.85
20
-141.982
11
134.85
21
-141.982
0
LINE
8
BLACK
6
CONTINUOUS
10
134.85
20
-141.982
11
134.85
21
-143.232
0
LINE
8
BLACK
6
CONTINUOUS
10
132.85
20
-143.232
11
131.85
21
-143.232
0
LINE
8
BLACK
6
CONTINUOUS
10
131.85
20
-143.232
11
131.85
21
-141.982
0
LINE
8
BLACK
6
CONTINUOUS
10
131.85
20
-141.982
11
132.85
21
-141.982
0
LINE
8
BLACK
6
CONTINUOUS
10
132.85
20
-141.982
11
132.85
21
-143.232
0
LINE
8
BLACK
6
CONTINUOUS
10
127.985
20
-139.715
11
127.285
21
-139.715
0
LINE
8
BLACK
6
CONTINUOUS
10
127.285
20
-139.715
11
127.285
21
-138.415
0
LINE
8
BLACK
6
CONTINUOUS
10
127.285
20
-138.415
11
127.985
21
-138.415
0
LINE
8
BLACK
6
CONTINUOUS
10
127.985
20
-138.415
11
127.985
21
-139.715
0
LINE
8
BLACK
6
CONTINUOUS
10
126.085
20
-139.715
11
125.385
21
-139.715
0
LINE
8
BLACK
6
CONTINUOUS
10
125.385
20
-139.715
11
125.385
21
-138.415
0
LINE
8
BLACK
6
CONTINUOUS
10
125.385
20
-138.415
11
126.085
21
-138.415
0
LINE
8
BLACK
6
CONTINUOUS
10
126.085
20
-138.415
11
126.085
21
-139.715
0
LINE
8
BLACK
6
CONTINUOUS
10
128.3
20
-137.1
11
126.7
21
-137.1
0
LINE
8
BLACK
6
CONTINUOUS
10
126.7
20
-137.1
11
126.7
21
-136.1
0
LINE
8
BLACK
6
CONTINUOUS
10
126.7
20
-136.1
11
128.3
21
-136.1
0
LINE
8
BLACK
6
CONTINUOUS
10
128.3
20
-136.1
11
128.3
21
-137.1
0
LINE
8
BLACK
6
CONTINUOUS
10
123.3
20
-137.1
11
121.7
21
-137.1
0
LINE
8
BLACK
6
CONTINUOUS
10
121.7
20
-137.1
11
121.7
21
-136.1
0
LINE
8
BLACK
6
CONTINUOUS
10
121.7
20
-136.1
11
123.3
21
-136.1
0
LINE
8
BLACK
6
CONTINUOUS
10
123.3
20
-136.1
11
123.3
21
-137.1
0
LINE
8
BLACK
6
CONTINUOUS
10
132.496
20
-134.762
11
131.796
21
-134.762
0
LINE
8
BLACK
6
CONTINUOUS
10
131.796
20
-134.762
11
131.796
21
-133.462
0
LINE
8
BLACK
6
CONTINUOUS
10
131.796
20
-133.462
11
132.496
21
-133.462
0
LINE
8
BLACK
6
CONTINUOUS
10
132.496
20
-133.462
11
132.496
21
-134.762
0
LINE
8
BLACK
6
CONTINUOUS
10
134.396
20
-134.762
11
133.696
21
-134.762
0
LINE
8
BLACK
6
CONTINUOUS
10
133.696
20
-134.762
11
133.696
21
-133.462
0
LINE
8
BLACK
6
CONTINUOUS
10
133.696
20
-133.462
11
134.396
21
-133.462
0
LINE
8
BLACK
6
CONTINUOUS
10
134.396
20
-133.462
11
134.396
21
-134.762
0
LINE
8
BLACK
6
CONTINUOUS
10
142.656
20
-134.762
11
141.956
21
-134.762
0
LINE
8
BLACK
6
CONTINUOUS
10
141.956
20
-134.762
11
141.956
21
-133.462
0
LINE
8
BLACK
6
CONTINUOUS
10
141.956
20
-133.462
11
142.656
21
-133.462
0
LINE
8
BLACK
6
CONTINUOUS
10
142.656
20
-133.462
11
142.656
21
-134.762
0
LINE
8
BLACK
6
CONTINUOUS
10
144.556
20
-134.762
11
143.856
21
-134.762
0
LINE
8
BLACK
6
CONTINUOUS
10
143.856
20
-134.762
11
143.856
21
-133.462
0
LINE
8
BLACK
6
CONTINUOUS
10
143.856
20
-133.462
11
144.556
21
-133.462
0
LINE
8
BLACK
6
CONTINUOUS
10
144.556
20
-133.462
11
144.556
21
-134.762
0
LINE
8
BLACK
6
CONTINUOUS
10
128.3
20
-133.9
11
126.7
21
-133.9
0
LINE
8
BLACK
6
CONTINUOUS
10
126.7
20
-133.9
11
126.7
21
-132.9
0
LINE
8
BLACK
6
CONTINUOUS
10
126.7
20
-132.9
11
128.3
21
-132.9
0
LINE
8
BLACK
6
CONTINUOUS
10
128.3
20
-132.9
11
128.3
21
-133.9
0
LINE
8
BLACK
6
CONTINUOUS
10
123.3
20
-133.9
11
121.7
21
-133.9
0
LINE
8
BLACK
6
CONTINUOUS
10
121.7
20
-133.9
11
121.7
21
-132.9
0
LINE
8
BLACK
6
CONTINUOUS
10
121.7
20
-132.9
11
123.3
21
-132.9
0
LINE
8
BLACK
6
CONTINUOUS
10
123.3
20
-132.9
11
123.3
21
-133.9
0
LINE
8
BLACK
6
CONTINUOUS
10
128.185
20
-131.435
11
127.185
21
-131.435
0
LINE
8
BLACK
6
CONTINUOUS
10
127.185
20
-131.435
11
127.185
21
-130.185
0
LINE
8
BLACK
6
CONTINUOUS
10
127.185
20
-130.185
11
128.185
21
-130.185
0
LINE
8
BLACK
6
CONTINUOUS
10
128.185
20
-130.185
11
128.185
21
-131.435
0
LINE
8
BLACK
6
CONTINUOUS
10
126.185
20
-131.435
11
125.185
21
-131.435
0
LINE
8
BLACK
6
CONTINUOUS
10
125.185
20
-131.435
11
125.185
21
-130.185
0
LINE
8
BLACK
6
CONTINUOUS
10
125.185
20
-130.185
11
126.185
21
-130.185
0
LINE
8
BLACK
6
CONTINUOUS
10
126.185
20
-130.185
11
126.185
21
-131.435
0
LINE
8
BLACK
6
CONTINUOUS
10
173.744
20
-130.673
11
172.744
21
-130.673
0
LINE
8
BLACK
6
CONTINUOUS
10
172.744
20
-130.673
11
172.744
21
-129.423
0
LINE
8
BLACK
6
CONTINUOUS
10
172.744
20
-129.423
11
173.744
21
-129.423
0
LINE
8
BLACK
6
CONTINUOUS
10
173.744
20
-129.423
11
173.744
21
-130.673
0
LINE
8
BLACK
6
CONTINUOUS
10
175.744
20
-130.673
11
174.744
21
-130.673
0
LINE
8
BLACK
6
CONTINUOUS
10
174.744
20
-130.673
11
174.744
21
-129.423
0
LINE
8
BLACK
6
CONTINUOUS
10
174.744
20
-129.423
11
175.744
21
-129.423
0
LINE
8
BLACK
6
CONTINUOUS
10
175.744
20
-129.423
11
175.744
21
-130.673
0
LINE
8
BLACK
6
CONTINUOUS
10
162.568
20
-130.673
11
161.568
21
-130.673
0
LINE
8
BLACK
6
CONTINUOUS
10
161.568
20
-130.673
11
161.568
21
-129.423
0
LINE
8
BLACK
6
CONTINUOUS
10
161.568
20
-129.423
11
162.568
21
-129.423
0
LINE
8
BLACK
6
CONTINUOUS
10
162.568
20
-129.423
11
162.568
21
-130.673
0
LINE
8
BLACK
6
CONTINUOUS
10
164.568
20
-130.673
11
163.568
21
-130.673
0
LINE
8
BLACK
6
CONTINUOUS
10
163.568
20
-130.673
11
163.568
21
-129.423
0
LINE
8
BLACK
6
CONTINUOUS
10
163.568
20
-129.423
11
164.568
21
-129.423
0
LINE
8
BLACK
6
CONTINUOUS
10
164.568
20
-129.423
11
164.568
21
-130.673
0
LINE
8
BLACK
6
CONTINUOUS
10
173.644
20
-128.158
11
172.944
21
-128.158
0
LINE
8
BLACK
6
CONTINUOUS
10
172.944
20
-128.158
11
172.944
21
-126.858
0
LINE
8
BLACK
6
CONTINUOUS
10
172.944
20
-126.858
11
173.644
21
-126.858
0
LINE
8
BLACK
6
CONTINUOUS
10
173.644
20
-126.858
11
173.644
21
-128.158
0
LINE
8
BLACK
6
CONTINUOUS
10
175.544
20
-128.158
11
174.844
21
-128.158
0
LINE
8
BLACK
6
CONTINUOUS
10
174.844
20
-128.158
11
174.844
21
-126.858
0
LINE
8
BLACK
6
CONTINUOUS
10
174.844
20
-126.858
11
175.544
21
-126.858
0
LINE
8
BLACK
6
CONTINUOUS
10
175.544
20
-126.858
11
175.544
21
-128.158
0
LINE
8
BLACK
6
CONTINUOUS
10
170.088
20
-128.158
11
169.388
21
-128.158
0
LINE
8
BLACK
6
CONTINUOUS
10
169.388
20
-128.158
11
169.388
21
-126.858
0
LINE
8
BLACK
6
CONTINUOUS
10
169.388
20
-126.858
11
170.088
21
-126.858
0
LINE
8
BLACK
6
CONTINUOUS
10
170.088
20
-126.858
11
170.088
21
-128.158
0
LINE
8
BLACK
6
CONTINUOUS
10
171.988
20
-128.158
11
171.288
21
-128.158
0
LINE
8
BLACK
6
CONTINUOUS
10
171.288
20
-128.158
11
171.288
21
-126.858
0
LINE
8
BLACK
6
CONTINUOUS
10
171.288
20
-126.858
11
171.988
21
-126.858
0
LINE
8
BLACK
6
CONTINUOUS
10
171.988
20
-126.858
11
171.988
21
-128.158
0
LINE
8
BLACK
6
CONTINUOUS
10
123.3
20
-127.1
11
121.7
21
-127.1
0
LINE
8
BLACK
6
CONTINUOUS
10
121.7
20
-127.1
11
121.7
21
-126.1
0
LINE
8
BLACK
6
CONTINUOUS
10
121.7
20
-126.1
11
123.3
21
-126.1
0
LINE
8
BLACK
6
CONTINUOUS
10
123.3
20
-126.1
11
123.3
21
-127.1
0
LINE
8
BLACK
6
CONTINUOUS
10
128.3
20
-127.1
11
126.7
21
-127.1
0
LINE
8
BLACK
6
CONTINUOUS
10
126.7
20
-127.1
11
126.7
21
-126.1
0
LINE
8
BLACK
6
CONTINUOUS
10
126.7
20
-126.1
11
128.3
21
-126.1
0
LINE
8
BLACK
6
CONTINUOUS
10
128.3
20
-126.1
11
128.3
21
-127.1
0
LINE
8
BLACK
6
CONTINUOUS
10
123.3
20
-123.9
11
121.7
21
-123.9
0
LINE
8
BLACK
6
CONTINUOUS
10
121.7
20
-123.9
11
121.7
21
-122.9
0
LINE
8
BLACK
6
CONTINUOUS
10
121.7
20
-122.9
11
123.3
21
-122.9
0
LINE
8
BLACK
6
CONTINUOUS
10
123.3
20
-122.9
11
123.3
21
-123.9
0
LINE
8
BLACK
6
CONTINUOUS
10
128.3
20
-123.9
11
126.7
21
-123.9
0
LINE
8
BLACK
6
CONTINUOUS
10
126.7
20
-123.9
11
126.7
21
-122.9
0
LINE
8
BLACK
6
CONTINUOUS
10
126.7
20
-122.9
11
128.3
21
-122.9
0
LINE
8
BLACK
6
CONTINUOUS
10
128.3
20
-122.9
11
128.3
21
-123.9
0
LINE
8
BLACK
6
CONTINUOUS
10
126.185
20
-121.275
11
125.185
21
-121.275
0
LINE
8
BLACK
6
CONTINUOUS
10
125.185
20
-121.275
11
125.185
21
-120.025
0
LINE
8
BLACK
6
CONTINUOUS
10
125.185
20
-120.025
11
126.185
21
-120.025
0
LINE
8
BLACK
6
CONTINUOUS
10
126.185
20
-120.025
11
126.185
21
-121.275
0
LINE
8
BLACK
6
CONTINUOUS
10
128.185
20
-121.275
11
127.185
21
-121.275
0
LINE
8
BLACK
6
CONTINUOUS
10
127.185
20
-121.275
11
127.185
21
-120.025
0
LINE
8
BLACK
6
CONTINUOUS
10
127.185
20
-120.025
11
128.185
21
-120.025
0
LINE
8
BLACK
6
CONTINUOUS
10
128.185
20
-120.025
11
128.185
21
-121.275
0
LINE
8
BLACK
6
CONTINUOUS
10
130.927
20
-120.88
11
129.677
21
-120.88
0
LINE
8
BLACK
6
CONTINUOUS
10
129.677
20
-120.88
11
129.677
21
-119.88
0
LINE
8
BLACK
6
CONTINUOUS
10
129.677
20
-119.88
11
130.927
21
-119.88
0
LINE
8
BLACK
6
CONTINUOUS
10
130.927
20
-119.88
11
130.927
21
-120.88
0
LINE
8
BLACK
6
CONTINUOUS
10
134.578
20
-120.73
11
133.678
21
-120.73
0
LINE
8
BLACK
6
CONTINUOUS
10
133.678
20
-120.73
11
133.678
21
-119.93
0
LINE
8
BLACK
6
CONTINUOUS
10
133.678
20
-119.93
11
134.578
21
-119.93
0
LINE
8
BLACK
6
CONTINUOUS
10
134.578
20
-119.93
11
134.578
21
-120.73
0
LINE
8
BLACK
6
CONTINUOUS
10
132.984
20
-120.68
11
131.684
21
-120.68
0
LINE
8
BLACK
6
CONTINUOUS
10
131.684
20
-120.68
11
131.684
21
-119.98
0
LINE
8
BLACK
6
CONTINUOUS
10
131.684
20
-119.98
11
132.984
21
-119.98
0
LINE
8
BLACK
6
CONTINUOUS
10
132.984
20
-119.98
11
132.984
21
-120.68
0
LINE
8
BLACK
6
CONTINUOUS
10
138.572
20
-120.68
11
137.272
21
-120.68
0
LINE
8
BLACK
6
CONTINUOUS
10
137.272
20
-120.68
11
137.272
21
-119.98
0
LINE
8
BLACK
6
CONTINUOUS
10
137.272
20
-119.98
11
138.572
21
-119.98
0
LINE
8
BLACK
6
CONTINUOUS
10
138.572
20
-119.98
11
138.572
21
-120.68
0
LINE
8
BLACK
6
CONTINUOUS
10
175.744
20
-120.513
11
174.744
21
-120.513
0
LINE
8
BLACK
6
CONTINUOUS
10
174.744
20
-120.513
11
174.744
21
-119.263
0
LINE
8
BLACK
6
CONTINUOUS
10
174.744
20
-119.263
11
175.744
21
-119.263
0
LINE
8
BLACK
6
CONTINUOUS
10
175.744
20
-119.263
11
175.744
21
-120.513
0
LINE
8
BLACK
6
CONTINUOUS
10
173.744
20
-120.513
11
172.744
21
-120.513
0
LINE
8
BLACK
6
CONTINUOUS
10
172.744
20
-120.513
11
172.744
21
-119.263
0
LINE
8
BLACK
6
CONTINUOUS
10
172.744
20
-119.263
11
173.744
21
-119.263
0
LINE
8
BLACK
6
CONTINUOUS
10
173.744
20
-119.263
11
173.744
21
-120.513
0
LINE
8
BLACK
6
CONTINUOUS
10
136.578
20
-119.78
11
135.678
21
-119.78
0
LINE
8
BLACK
6
CONTINUOUS
10
135.678
20
-119.78
11
135.678
21
-118.98
0
LINE
8
BLACK
6
CONTINUOUS
10
135.678
20
-118.98
11
136.578
21
-118.98
0
LINE
8
BLACK
6
CONTINUOUS
10
136.578
20
-118.98
11
136.578
21
-119.78
0
LINE
8
BLACK
6
CONTINUOUS
10
130.927
20
-118.88
11
129.677
21
-118.88
0
LINE
8
BLACK
6
CONTINUOUS
10
129.677
20
-118.88
11
129.677
21
-117.88
0
LINE
8
BLACK
6
CONTINUOUS
10
129.677
20
-117.88
11
130.927
21
-117.88
0
LINE
8
BLACK
6
CONTINUOUS
10
130.927
20
-117.88
11
130.927
21
-118.88
0
LINE
8
BLACK
6
CONTINUOUS
10
134.578
20
-118.83
11
133.678
21
-118.83
0
LINE
8
BLACK
6
CONTINUOUS
10
133.678
20
-118.83
11
133.678
21
-118.03
0
LINE
8
BLACK
6
CONTINUOUS
10
133.678
20
-118.03
11
134.578
21
-118.03
0
LINE
8
BLACK
6
CONTINUOUS
10
134.578
20
-118.03
11
134.578
21
-118.83
0
LINE
8
BLACK
6
CONTINUOUS
10
138.572
20
-118.78
11
137.272
21
-118.78
0
LINE
8
BLACK
6
CONTINUOUS
10
137.272
20
-118.78
11
137.272
21
-118.08
0
LINE
8
BLACK
6
CONTINUOUS
10
137.272
20
-118.08
11
138.572
21
-118.08
0
LINE
8
BLACK
6
CONTINUOUS
10
138.572
20
-118.08
11
138.572
21
-118.78
0
LINE
8
BLACK
6
CONTINUOUS
10
132.984
20
-118.78
11
131.684
21
-118.78
0
LINE
8
BLACK
6
CONTINUOUS
10
131.684
20
-118.78
11
131.684
21
-118.08
0
LINE
8
BLACK
6
CONTINUOUS
10
131.684
20
-118.08
11
132.984
21
-118.08
0
LINE
8
BLACK
6
CONTINUOUS
10
132.984
20
-118.08
11
132.984
21
-118.78
0
LINE
8
BLACK
6
CONTINUOUS
10
170.088
20
-117.998
11
169.388
21
-117.998
0
LINE
8
BLACK
6
CONTINUOUS
10
169.388
20
-117.998
11
169.388
21
-116.698
0
LINE
8
BLACK
6
CONTINUOUS
10
169.388
20
-116.698
11
170.088
21
-116.698
0
LINE
8
BLACK
6
CONTINUOUS
10
170.088
20
-116.698
11
170.088
21
-117.998
0
LINE
8
BLACK
6
CONTINUOUS
10
175.544
20
-117.998
11
174.844
21
-117.998
0
LINE
8
BLACK
6
CONTINUOUS
10
174.844
20
-117.998
11
174.844
21
-116.698
0
LINE
8
BLACK
6
CONTINUOUS
10
174.844
20
-116.698
11
175.544
21
-116.698
0
LINE
8
BLACK
6
CONTINUOUS
10
175.544
20
-116.698
11
175.544
21
-117.998
0
LINE
8
BLACK
6
CONTINUOUS
10
173.644
20
-117.998
11
172.944
21
-117.998
0
LINE
8
BLACK
6
CONTINUOUS
10
172.944
20
-117.998
11
172.944
21
-116.698
0
LINE
8
BLACK
6
CONTINUOUS
10
172.944
20
-116.698
11
173.644
21
-116.698
0
LINE
8
BLACK
6
CONTINUOUS
10
173.644
20
-116.698
11
173.644
21
-117.998
0
LINE
8
BLACK
6
CONTINUOUS
10
171.988
20
-117.998
11
171.288
21
-117.998
0
LINE
8
BLACK
6
CONTINUOUS
10
171.288
20
-117.998
11
171.288
21
-116.698
0
LINE
8
BLACK
6
CONTINUOUS
10
171.288
20
-116.698
11
171.988
21
-116.698
0
LINE
8
BLACK
6
CONTINUOUS
10
171.988
20
-116.698
11
171.988
21
-117.998
0
LINE
8
BLACK
6
CONTINUOUS
10
123.3
20
-117.1
11
121.7
21
-117.1
0
LINE
8
BLACK
6
CONTINUOUS
10
121.7
20
-117.1
11
121.7
21
-116.1
0
LINE
8
BLACK
6
CONTINUOUS
10
121.7
20
-116.1
11
123.3
21
-116.1
0
LINE
8
BLACK
6
CONTINUOUS
10
123.3
20
-116.1
11
123.3
21
-117.1
0
LINE
8
BLACK
6
CONTINUOUS
10
128.3
20
-117.1
11
126.7
21
-117.1
0
LINE
8
BLACK
6
CONTINUOUS
10
126.7
20
-117.1
11
126.7
21
-116.1
0
LINE
8
BLACK
6
CONTINUOUS
10
126.7
20
-116.1
11
128.3
21
-116.1
0
LINE
8
BLACK
6
CONTINUOUS
10
128.3
20
-116.1
11
128.3
21
-117.1
0
LINE
8
BLACK
6
CONTINUOUS
10
130.625
20
-116.5
11
129.375
21
-116.5
0
LINE
8
BLACK
6
CONTINUOUS
10
129.375
20
-116.5
11
129.375
21
-115.5
0
LINE
8
BLACK
6
CONTINUOUS
10
129.375
20
-115.5
11
130.625
21
-115.5
0
LINE
8
BLACK
6
CONTINUOUS
10
130.625
20
-115.5
11
130.625
21
-116.5
0
LINE
8
BLACK
6
CONTINUOUS
10
150.376
20
-115.433
11
149.376
21
-115.433
0
LINE
8
BLACK
6
CONTINUOUS
10
149.376
20
-115.433
11
149.376
21
-114.183
0
LINE
8
BLACK
6
CONTINUOUS
10
149.376
20
-114.183
11
150.376
21
-114.183
0
LINE
8
BLACK
6
CONTINUOUS
10
150.376
20
-114.183
11
150.376
21
-115.433
0
LINE
8
BLACK
6
CONTINUOUS
10
152.376
20
-115.433
11
151.376
21
-115.433
0
LINE
8
BLACK
6
CONTINUOUS
10
151.376
20
-115.433
11
151.376
21
-114.183
0
LINE
8
BLACK
6
CONTINUOUS
10
151.376
20
-114.183
11
152.376
21
-114.183
0
LINE
8
BLACK
6
CONTINUOUS
10
152.376
20
-114.183
11
152.376
21
-115.433
0
LINE
8
BLACK
6
CONTINUOUS
10
130.625
20
-114.5
11
129.375
21
-114.5
0
LINE
8
BLACK
6
CONTINUOUS
10
129.375
20
-114.5
11
129.375
21
-113.5
0
LINE
8
BLACK
6
CONTINUOUS
10
129.375
20
-113.5
11
130.625
21
-113.5
0
LINE
8
BLACK
6
CONTINUOUS
10
130.625
20
-113.5
11
130.625
21
-114.5
0
LINE
8
BLACK
6
CONTINUOUS
10
123.3
20
-113.9
11
121.7
21
-113.9
0
LINE
8
BLACK
6
CONTINUOUS
10
121.7
20
-113.9
11
121.7
21
-112.9
0
LINE
8
BLACK
6
CONTINUOUS
10
121.7
20
-112.9
11
123.3
21
-112.9
0
LINE
8
BLACK
6
CONTINUOUS
10
123.3
20
-112.9
11
123.3
21
-113.9
0
LINE
8
BLACK
6
CONTINUOUS
10
128.3
20
-113.9
11
126.7
21
-113.9
0
LINE
8
BLACK
6
CONTINUOUS
10
126.7
20
-113.9
11
126.7
21
-112.9
0
LINE
8
BLACK
6
CONTINUOUS
10
126.7
20
-112.9
11
128.3
21
-112.9
0
LINE
8
BLACK
6
CONTINUOUS
10
128.3
20
-112.9
11
128.3
21
-113.9
0
LINE
8
BLACK
6
CONTINUOUS
10
135.778
20
-112.044
11
134.478
21
-112.044
0
LINE
8
BLACK
6
CONTINUOUS
10
134.478
20
-112.044
11
134.478
21
-111.344
0
LINE
8
BLACK
6
CONTINUOUS
10
134.478
20
-111.344
11
135.778
21
-111.344
0
LINE
8
BLACK
6
CONTINUOUS
10
135.778
20
-111.344
11
135.778
21
-112.044
0
LINE
8
BLACK
6
CONTINUOUS
10
133.238
20
-112.044
11
131.938
21
-112.044
0
LINE
8
BLACK
6
CONTINUOUS
10
131.938
20
-112.044
11
131.938
21
-111.344
0
LINE
8
BLACK
6
CONTINUOUS
10
131.938
20
-111.344
11
133.238
21
-111.344
0
LINE
8
BLACK
6
CONTINUOUS
10
133.238
20
-111.344
11
133.238
21
-112.044
0
LINE
8
BLACK
6
CONTINUOUS
10
138.318
20
-112.044
11
137.018
21
-112.044
0
LINE
8
BLACK
6
CONTINUOUS
10
137.018
20
-112.044
11
137.018
21
-111.344
0
LINE
8
BLACK
6
CONTINUOUS
10
137.018
20
-111.344
11
138.318
21
-111.344
0
LINE
8
BLACK
6
CONTINUOUS
10
138.318
20
-111.344
11
138.318
21
-112.044
0
LINE
8
BLACK
6
CONTINUOUS
10
135.778
20
-110.144
11
134.478
21
-110.144
0
LINE
8
BLACK
6
CONTINUOUS
10
134.478
20
-110.144
11
134.478
21
-109.444
0
LINE
8
BLACK
6
CONTINUOUS
10
134.478
20
-109.444
11
135.778
21
-109.444
0
LINE
8
BLACK
6
CONTINUOUS
10
135.778
20
-109.444
11
135.778
21
-110.144
0
LINE
8
BLACK
6
CONTINUOUS
10
133.238
20
-110.144
11
131.938
21
-110.144
0
LINE
8
BLACK
6
CONTINUOUS
10
131.938
20
-110.144
11
131.938
21
-109.444
0
LINE
8
BLACK
6
CONTINUOUS
10
131.938
20
-109.444
11
133.238
21
-109.444
0
LINE
8
BLACK
6
CONTINUOUS
10
133.238
20
-109.444
11
133.238
21
-110.144
0
LINE
8
BLACK
6
CONTINUOUS
10
138.318
20
-110.144
11
137.018
21
-110.144
0
LINE
8
BLACK
6
CONTINUOUS
10
137.018
20
-110.144
11
137.018
21
-109.444
0
LINE
8
BLACK
6
CONTINUOUS
10
137.018
20
-109.444
11
138.318
21
-109.444
0
LINE
8
BLACK
6
CONTINUOUS
10
138.318
20
-109.444
11
138.318
21
-110.144
0
LINE
8
BLACK
6
CONTINUOUS
10
106.111
20
-101.947
11
107.089
21
-102.511
0
LINE
8
BLACK
6
CONTINUOUS
10
107.089
20
-102.511
11
107.814
21
-103.375
0
LINE
8
BLACK
6
CONTINUOUS
10
107.814
20
-103.375
11
108.2
21
-104.436
0
LINE
8
BLACK
6
CONTINUOUS
10
108.2
20
-104.436
11
108.2
21
-105.564
0
LINE
8
BLACK
6
CONTINUOUS
10
108.2
20
-105.564
11
107.814
21
-106.625
0
LINE
8
BLACK
6
CONTINUOUS
10
107.814
20
-106.625
11
107.089
21
-107.489
0
LINE
8
BLACK
6
CONTINUOUS
10
107.089
20
-107.489
11
106.111
21
-108.053
0
LINE
8
BLACK
6
CONTINUOUS
10
106.111
20
-108.053
11
105
21
-108.249
0
LINE
8
BLACK
6
CONTINUOUS
10
105
20
-108.249
11
103.889
21
-108.053
0
LINE
8
BLACK
6
CONTINUOUS
10
103.889
20
-108.053
11
102.911
21
-107.489
0
LINE
8
BLACK
6
CONTINUOUS
10
102.911
20
-107.489
11
102.186
21
-106.625
0
LINE
8
BLACK
6
CONTINUOUS
10
102.186
20
-106.625
11
101.8
21
-105.564
0
LINE
8
BLACK
6
CONTINUOUS
10
101.8
20
-105.564
11
101.8
21
-104.436
0
LINE
8
BLACK
6
CONTINUOUS
10
101.8
20
-104.436
11
102.186
21
-103.375
0
LINE
8
BLACK
6
CONTINUOUS
10
102.186
20
-103.375
11
102.911
21
-102.511
0
LINE
8
BLACK
6
CONTINUOUS
10
102.911
20
-102.511
11
103.889
21
-101.947
0
LINE
8
BLACK
6
CONTINUOUS
10
103.889
20
-101.947
11
105
21
-101.751
0
LINE
8
BLACK
6
CONTINUOUS
10
105
20
-101.751
11
106.111
21
-101.947
0
LINE
8
BLACK
6
CONTINUOUS
10
176.111
20
-101.947
11
177.089
21
-102.511
0
LINE
8
BLACK
6
CONTINUOUS
10
177.089
20
-102.511
11
177.814
21
-103.375
0
LINE
8
BLACK
6
CONTINUOUS
10
177.814
20
-103.375
11
178.2
21
-104.436
0
LINE
8
BLACK
6
CONTINUOUS
10
178.2
20
-104.436
11
178.2
21
-105.564
0
LINE
8
BLACK
6
CONTINUOUS
10
178.2
20
-105.564
11
177.814
21
-106.625
0
LINE
8
BLACK
6
CONTINUOUS
10
177.814
20
-106.625
11
177.089
21
-107.489
0
LINE
8
BLACK
6
CONTINUOUS
10
177.089
20
-107.489
11
176.111
21
-108.053
0
LINE
8
BLACK
6
CONTINUOUS
10
176.111
20
-108.053
11
175
21
-108.249
0
LINE
8
BLACK
6
CONTINUOUS
10
175
20
-108.249
11
173.889
21
-108.053
0
LINE
8
BLACK
6
CONTINUOUS
10
173.889
20
-108.053
11
172.911
21
-107.489
0
LINE
8
BLACK
6
CONTINUOUS
10
172.911
20
-107.489
11
172.186
21
-106.625
0
LINE
8
BLACK
6
CONTINUOUS
10
172.186
20
-106.625
11
171.8
21
-105.564
0
LINE
8
BLACK
6
CONTINUOUS
10
171.8
20
-105.564
11
171.8
21
-104.436
0
LINE
8
BLACK
6
CONTINUOUS
10
171.8
20
-104.436
11
172.186
21
-103.375
0
LINE
8
BLACK
6
CONTINUOUS
10
172.186
20
-103.375
11
172.911
21
-102.511
0
LINE
8
BLACK
6
CONTINUOUS
10
172.911
20
-102.511
11
173.889
21
-101.947
0
LINE
8
BLACK
6
CONTINUOUS
10
173.889
20
-101.947
11
175
21
-101.751
0
LINE
8
BLACK
6
CONTINUOUS
10
175
20
-101.751
11
176.111
21
-101.947
0
LINE
8
BLACK
6
CONTINUOUS
10
168.632
20
-107.305
11
167.632
21
-107.305
0
LINE
8
BLACK
6
CONTINUOUS
10
167.632
20
-107.305
11
167.632
21
-106.055
0
LINE
8
BLACK
6
CONTINUOUS
10
167.632
20
-106.055
11
168.632
21
-106.055
0
LINE
8
BLACK
6
CONTINUOUS
10
168.632
20
-106.055
11
168.632
21
-107.305
0
LINE
8
BLACK
6
CONTINUOUS
10
166.632
20
-107.305
11
165.632
21
-107.305
0
LINE
8
BLACK
6
CONTINUOUS
10
165.632
20
-107.305
11
165.632
21
-106.055
0
LINE
8
BLACK
6
CONTINUOUS
10
165.632
20
-106.055
11
166.632
21
-106.055
0
LINE
8
BLACK
6
CONTINUOUS
10
166.632
20
-106.055
11
166.632
21
-107.305
0
LINE
8
BLACK
6
CONTINUOUS
10
133.746
20
-104.424
11
132.446
21
-104.424
0
LINE
8
BLACK
6
CONTINUOUS
10
132.446
20
-104.424
11
132.446
21
-103.724
0
LINE
8
BLACK
6
CONTINUOUS
10
132.446
20
-103.724
11
133.746
21
-103.724
0
LINE
8
BLACK
6
CONTINUOUS
10
133.746
20
-103.724
11
133.746
21
-104.424
0
LINE
8
BLACK
6
CONTINUOUS
10
128.666
20
-104.424
11
127.366
21
-104.424
0
LINE
8
BLACK
6
CONTINUOUS
10
127.366
20
-104.424
11
127.366
21
-103.724
0
LINE
8
BLACK
6
CONTINUOUS
10
127.366
20
-103.724
11
128.666
21
-103.724
0
LINE
8
BLACK
6
CONTINUOUS
10
128.666
20
-103.724
11
128.666
21
-104.424
0
LINE
8
BLACK
6
CONTINUOUS
10
128.666
20
-102.524
11
127.366
21
-102.524
0
LINE
8
BLACK
6
CONTINUOUS
10
127.366
20
-102.524
11
127.366
21
-101.824
0
LINE
8
BLACK
6
CONTINUOUS
10
127.366
20
-101.824
11
128.666
21
-101.824
0
LINE
8
BLACK
6
CONTINUOUS
10
128.666
20
-101.824
11
128.666
21
-102.524
0
LINE
8
BLACK
6
CONTINUOUS
10
133.746
20
-102.524
11
132.446
21
-102.524
0
LINE
8
BLACK
6
CONTINUOUS
10
132.446
20
-102.524
11
132.446
21
-101.824
0
LINE
8
BLACK
6
CONTINUOUS
10
132.446
20
-101.824
11
133.746
21
-101.824
0
LINE
8
BLACK
6
CONTINUOUS
10
133.746
20
-101.824
11
133.746
21
-102.524
  0
ENDSEC
  0
EOF
