G04 #@! TF.FileFunction,Soldermask,Top*
%FSLAX46Y46*%
G04 Gerber Fmt 4.6, Leading zero omitted, Abs format (unit mm)*
G04 Created by KiCad (PCBNEW 4.0.7) date Monday, 16 October 2017 'PMt' 16:50:30*
%MOMM*%
%LPD*%
G01*
G04 APERTURE LIST*
%ADD10C,0.100000*%
%ADD11C,0.010000*%
%ADD12C,2.540000*%
%ADD13C,6.800000*%
%ADD14C,1.000000*%
%ADD15R,2.127200X2.127200*%
%ADD16O,2.127200X2.127200*%
%ADD17R,1.200000X2.000000*%
%ADD18R,1.000000X2.000000*%
%ADD19R,2.127200X2.432000*%
%ADD20O,2.127200X2.432000*%
%ADD21R,2.432000X2.432000*%
%ADD22O,2.432000X2.432000*%
%ADD23R,2.432000X2.127200*%
%ADD24O,2.432000X2.127200*%
%ADD25R,2.900000X2.900000*%
%ADD26C,2.900000*%
%ADD27C,2.400000*%
%ADD28R,1.950000X1.000000*%
%ADD29R,1.900000X1.000000*%
%ADD30R,6.000700X2.500580*%
%ADD31R,1.400000X1.650000*%
%ADD32R,1.650000X1.400000*%
%ADD33R,1.598880X1.598880*%
%ADD34R,1.700000X1.100000*%
%ADD35R,1.100000X1.700000*%
%ADD36R,4.200000X2.400000*%
%ADD37R,1.900000X2.400000*%
%ADD38C,2.000000*%
%ADD39O,2.000000X2.000000*%
%ADD40R,2.000000X2.000000*%
%ADD41R,1.600000X1.300000*%
G04 APERTURE END LIST*
D10*
D11*
G36*
X128416336Y-96425315D02*
X128461302Y-96427722D01*
X128494014Y-96433031D01*
X128521041Y-96442307D01*
X128548750Y-96456500D01*
X128604358Y-96497102D01*
X128636627Y-96542094D01*
X128645078Y-96589402D01*
X128629231Y-96636950D01*
X128598946Y-96673570D01*
X128580336Y-96692220D01*
X128569346Y-96709846D01*
X128564285Y-96733367D01*
X128563461Y-96769706D01*
X128564749Y-96813541D01*
X128568450Y-96918109D01*
X128644650Y-96935181D01*
X128826285Y-96987351D01*
X128998363Y-97059539D01*
X129158647Y-97150045D01*
X129304900Y-97257172D01*
X129434883Y-97379220D01*
X129546360Y-97514493D01*
X129637094Y-97661291D01*
X129658871Y-97705061D01*
X129717427Y-97855353D01*
X129756543Y-98013994D01*
X129775772Y-98176051D01*
X129774670Y-98336588D01*
X129752791Y-98490669D01*
X129735788Y-98557472D01*
X129686405Y-98692976D01*
X129618908Y-98829876D01*
X129537584Y-98961079D01*
X129446721Y-99079492D01*
X129373212Y-99157246D01*
X129305548Y-99215589D01*
X129224312Y-99276052D01*
X129135481Y-99334956D01*
X129045029Y-99388620D01*
X128958932Y-99433364D01*
X128883166Y-99465507D01*
X128860550Y-99472993D01*
X128809750Y-99488233D01*
X128806306Y-99729571D01*
X128802863Y-99970908D01*
X128926956Y-100005294D01*
X129136299Y-100074695D01*
X129329416Y-100162122D01*
X129505534Y-100266960D01*
X129663877Y-100388595D01*
X129803669Y-100526412D01*
X129924134Y-100679798D01*
X130024499Y-100848139D01*
X130045952Y-100891630D01*
X130071434Y-100942146D01*
X130094187Y-100973868D01*
X130119759Y-100988657D01*
X130153697Y-100988373D01*
X130201553Y-100974876D01*
X130245968Y-100958689D01*
X130357974Y-100904751D01*
X130468586Y-100829297D01*
X130573864Y-100736082D01*
X130669869Y-100628859D01*
X130752662Y-100511385D01*
X130795908Y-100434504D01*
X130827705Y-100366755D01*
X130860624Y-100287832D01*
X130891362Y-100206424D01*
X130916620Y-100131222D01*
X130931701Y-100077037D01*
X130944977Y-100014809D01*
X130958101Y-99943288D01*
X130970006Y-99869481D01*
X130979627Y-99800398D01*
X130985898Y-99743046D01*
X130987800Y-99708171D01*
X130991414Y-99673649D01*
X131000268Y-99649783D01*
X131001786Y-99647993D01*
X131004800Y-99633469D01*
X130992623Y-99607924D01*
X130963698Y-99568130D01*
X130962672Y-99566830D01*
X130888562Y-99455562D01*
X130835019Y-99333664D01*
X130820919Y-99288724D01*
X130807920Y-99237969D01*
X130800546Y-99192029D01*
X130798706Y-99144205D01*
X130802310Y-99087799D01*
X130811267Y-99016112D01*
X130816735Y-98978965D01*
X130832562Y-98884492D01*
X130848695Y-98807228D01*
X130864593Y-98749069D01*
X130879712Y-98711914D01*
X130893513Y-98697656D01*
X130897030Y-98698012D01*
X130916370Y-98703542D01*
X130954183Y-98712968D01*
X131004134Y-98724740D01*
X131036837Y-98732183D01*
X131089125Y-98744133D01*
X131131201Y-98754134D01*
X131157530Y-98760851D01*
X131163553Y-98762802D01*
X131159655Y-98774038D01*
X131144874Y-98799004D01*
X131134570Y-98814537D01*
X131096006Y-98887291D01*
X131068477Y-98972361D01*
X131054842Y-99058906D01*
X131055182Y-99115512D01*
X131073800Y-99214550D01*
X131108915Y-99303450D01*
X131158216Y-99378315D01*
X131219396Y-99435245D01*
X131257905Y-99457801D01*
X131301624Y-99471280D01*
X131357021Y-99478420D01*
X131377069Y-99478980D01*
X131460306Y-99466949D01*
X131534385Y-99431536D01*
X131598518Y-99373342D01*
X131651913Y-99292969D01*
X131669174Y-99256850D01*
X131680214Y-99216632D01*
X131687917Y-99159001D01*
X131692168Y-99091303D01*
X131692857Y-99020888D01*
X131689870Y-98955104D01*
X131683095Y-98901297D01*
X131675065Y-98872267D01*
X131664711Y-98844110D01*
X131661854Y-98828441D01*
X131662365Y-98827616D01*
X131676307Y-98826979D01*
X131709954Y-98827645D01*
X131757651Y-98829461D01*
X131793777Y-98831198D01*
X131920304Y-98837750D01*
X131936390Y-98913950D01*
X131943645Y-98962602D01*
X131948863Y-99025353D01*
X131951199Y-99090928D01*
X131951197Y-99110800D01*
X131938964Y-99247117D01*
X131904775Y-99371449D01*
X131847846Y-99485839D01*
X131767396Y-99592331D01*
X131766344Y-99593504D01*
X131726593Y-99631818D01*
X131677161Y-99671092D01*
X131624954Y-99706631D01*
X131576880Y-99733736D01*
X131539845Y-99747711D01*
X131539480Y-99747783D01*
X131517551Y-99758339D01*
X131512031Y-99772885D01*
X131524379Y-99782980D01*
X131533240Y-99783900D01*
X131552266Y-99787508D01*
X131564085Y-99800738D01*
X131569253Y-99827194D01*
X131568329Y-99870484D01*
X131561870Y-99934211D01*
X131559486Y-99953523D01*
X131523603Y-100155555D01*
X131467430Y-100360732D01*
X131393304Y-100560662D01*
X131384598Y-100580955D01*
X131290236Y-100769625D01*
X131177844Y-100944724D01*
X131049215Y-101104549D01*
X130906145Y-101247392D01*
X130750426Y-101371550D01*
X130583855Y-101475316D01*
X130408224Y-101556984D01*
X130327400Y-101585849D01*
X130219450Y-101620878D01*
X130210197Y-101734264D01*
X130181798Y-101927337D01*
X130128427Y-102119192D01*
X130050514Y-102308596D01*
X129948487Y-102494320D01*
X129941739Y-102505111D01*
X129871623Y-102616473D01*
X129930296Y-102701961D01*
X130017613Y-102838901D01*
X130106180Y-102995990D01*
X130193706Y-103168226D01*
X130277898Y-103350607D01*
X130356465Y-103538130D01*
X130427116Y-103725794D01*
X130487557Y-103908596D01*
X130496050Y-103936800D01*
X130519034Y-104014324D01*
X130537143Y-104076131D01*
X130551768Y-104127679D01*
X130564300Y-104174426D01*
X130576131Y-104221833D01*
X130588652Y-104275359D01*
X130603253Y-104340462D01*
X130621327Y-104422601D01*
X130630367Y-104463850D01*
X130650260Y-104563495D01*
X130670653Y-104681492D01*
X130690553Y-104810835D01*
X130708967Y-104944519D01*
X130724903Y-105075539D01*
X130737367Y-105196890D01*
X130741923Y-105250908D01*
X130750229Y-105358972D01*
X130802339Y-105389639D01*
X130846562Y-105421103D01*
X130896854Y-105465213D01*
X130947026Y-105515624D01*
X130990886Y-105565988D01*
X131022243Y-105609958D01*
X131028608Y-105621606D01*
X131044767Y-105670167D01*
X131052342Y-105734811D01*
X131053194Y-105766697D01*
X131049062Y-105839135D01*
X131033354Y-105900153D01*
X131002961Y-105956521D01*
X130954770Y-106015004D01*
X130925270Y-106044968D01*
X130860905Y-106100440D01*
X130787683Y-106148216D01*
X130700282Y-106191263D01*
X130593380Y-106232549D01*
X130581400Y-106236699D01*
X130460750Y-106278131D01*
X130194050Y-106278015D01*
X130103651Y-106277801D01*
X130034075Y-106276980D01*
X129980747Y-106275147D01*
X129939089Y-106271898D01*
X129904525Y-106266826D01*
X129872480Y-106259529D01*
X129838377Y-106249601D01*
X129824945Y-106245379D01*
X129692220Y-106195417D01*
X129577834Y-106136165D01*
X129483005Y-106068775D01*
X129408950Y-105994398D01*
X129356886Y-105914187D01*
X129328030Y-105829293D01*
X129322285Y-105769634D01*
X129334504Y-105685802D01*
X129369442Y-105602944D01*
X129424518Y-105524308D01*
X129497152Y-105453143D01*
X129584766Y-105392695D01*
X129646307Y-105361660D01*
X129682765Y-105345647D01*
X129676326Y-105152398D01*
X129673818Y-105087592D01*
X129670565Y-105029859D01*
X129665984Y-104974453D01*
X129659494Y-104916627D01*
X129650512Y-104851634D01*
X129638455Y-104774728D01*
X129622742Y-104681164D01*
X129608206Y-104597200D01*
X129563397Y-104379776D01*
X129505797Y-104164796D01*
X129437001Y-103956544D01*
X129358602Y-103759303D01*
X129272194Y-103577357D01*
X129179372Y-103414991D01*
X129153470Y-103375143D01*
X129114057Y-103315623D01*
X129085575Y-103274057D01*
X129063612Y-103248153D01*
X129043761Y-103235619D01*
X129021612Y-103234164D01*
X128992754Y-103241495D01*
X128952779Y-103255322D01*
X128934744Y-103261473D01*
X128877913Y-103278582D01*
X128805239Y-103297734D01*
X128725904Y-103316636D01*
X128649093Y-103332992D01*
X128646107Y-103333580D01*
X128583477Y-103345529D01*
X128531497Y-103354217D01*
X128484264Y-103360036D01*
X128435875Y-103363375D01*
X128380426Y-103364626D01*
X128312015Y-103364181D01*
X128224738Y-103362431D01*
X128214307Y-103362188D01*
X128118057Y-103359521D01*
X128040395Y-103355953D01*
X127974507Y-103350581D01*
X127913583Y-103342501D01*
X127850808Y-103330807D01*
X127779371Y-103314598D01*
X127692460Y-103292967D01*
X127692150Y-103292888D01*
X127636240Y-103277116D01*
X127577479Y-103258203D01*
X127548818Y-103247895D01*
X127511908Y-103234787D01*
X127486187Y-103227493D01*
X127478456Y-103227114D01*
X127469907Y-103239076D01*
X127450586Y-103265807D01*
X127424662Y-103301539D01*
X127424472Y-103301800D01*
X127323682Y-103456541D01*
X127229747Y-103632590D01*
X127143720Y-103826528D01*
X127066653Y-104034935D01*
X126999602Y-104254389D01*
X126943618Y-104481472D01*
X126899756Y-104712763D01*
X126869069Y-104944841D01*
X126853383Y-105156000D01*
X126845109Y-105340150D01*
X126918295Y-105377726D01*
X127018627Y-105439374D01*
X127098997Y-105510311D01*
X127158074Y-105588762D01*
X127194532Y-105672955D01*
X127207040Y-105761116D01*
X127207035Y-105763183D01*
X127194169Y-105853726D01*
X127157303Y-105939171D01*
X127097503Y-106018515D01*
X127015839Y-106090754D01*
X126913376Y-106154886D01*
X126791184Y-106209906D01*
X126698396Y-106241295D01*
X126647429Y-106255349D01*
X126599485Y-106265303D01*
X126547599Y-106272042D01*
X126484804Y-106276451D01*
X126404133Y-106279414D01*
X126396750Y-106279614D01*
X126322304Y-106280760D01*
X126249965Y-106280402D01*
X126186790Y-106278673D01*
X126139837Y-106275705D01*
X126130050Y-106274603D01*
X126008942Y-106250807D01*
X125891878Y-106213073D01*
X125782579Y-106163567D01*
X125684765Y-106104452D01*
X125602155Y-106037892D01*
X125538469Y-105966052D01*
X125506128Y-105911650D01*
X125480171Y-105827962D01*
X125476293Y-105739341D01*
X125493747Y-105651996D01*
X125531789Y-105572140D01*
X125549899Y-105547021D01*
X125587826Y-105505097D01*
X125636762Y-105458562D01*
X125689231Y-105413889D01*
X125737755Y-105377555D01*
X125764925Y-105360786D01*
X125779204Y-105350934D01*
X125787747Y-105336133D01*
X125792000Y-105310423D01*
X125793409Y-105267842D01*
X125793500Y-105242927D01*
X125796040Y-105177844D01*
X125803205Y-105092801D01*
X125814309Y-104992675D01*
X125828667Y-104882345D01*
X125845594Y-104766690D01*
X125864405Y-104650587D01*
X125884415Y-104538915D01*
X125904938Y-104436552D01*
X125910055Y-104413050D01*
X125999584Y-104056505D01*
X126105871Y-103718923D01*
X126228989Y-103400110D01*
X126369016Y-103099874D01*
X126526027Y-102818023D01*
X126557306Y-102767298D01*
X126590114Y-102713605D01*
X126617273Y-102666638D01*
X126636191Y-102631064D01*
X126644279Y-102611548D01*
X126644400Y-102610412D01*
X126636831Y-102589252D01*
X126618280Y-102560799D01*
X126614971Y-102556649D01*
X126587225Y-102517819D01*
X126552957Y-102462464D01*
X126515936Y-102397281D01*
X126479930Y-102328969D01*
X126448707Y-102264224D01*
X126442160Y-102249538D01*
X126385226Y-102094114D01*
X126342949Y-101923816D01*
X126320617Y-101779074D01*
X126313032Y-101718221D01*
X126305309Y-101666687D01*
X126298316Y-101629663D01*
X126292925Y-101612339D01*
X126292614Y-101611984D01*
X126276246Y-101603999D01*
X126242190Y-101591625D01*
X126197228Y-101577288D01*
X126188221Y-101574605D01*
X126134134Y-101555876D01*
X126068715Y-101529125D01*
X126002718Y-101498875D01*
X125974693Y-101484805D01*
X125797194Y-101378335D01*
X125633594Y-101251237D01*
X125484869Y-101104752D01*
X125351998Y-100940122D01*
X125235960Y-100758586D01*
X125137733Y-100561388D01*
X125058294Y-100349766D01*
X125044385Y-100304600D01*
X125023236Y-100226213D01*
X125002254Y-100135899D01*
X124983024Y-100041691D01*
X124967131Y-99951624D01*
X124956159Y-99873732D01*
X124952960Y-99841165D01*
X124952078Y-99808293D01*
X124959388Y-99792374D01*
X124979647Y-99785193D01*
X124986057Y-99784015D01*
X125012221Y-99774877D01*
X125027698Y-99761742D01*
X125028522Y-99750202D01*
X125013146Y-99745800D01*
X124991595Y-99740288D01*
X124955992Y-99725942D01*
X124920012Y-99708825D01*
X124829285Y-99649213D01*
X124747742Y-99569191D01*
X124678319Y-99472972D01*
X124623951Y-99364764D01*
X124587575Y-99248779D01*
X124582732Y-99225100D01*
X124575945Y-99177565D01*
X124573705Y-99127314D01*
X124576002Y-99066815D01*
X124582449Y-98992291D01*
X124589009Y-98932990D01*
X124595656Y-98883226D01*
X124601604Y-98848290D01*
X124605998Y-98833541D01*
X124620664Y-98829917D01*
X124653288Y-98826344D01*
X124697427Y-98823119D01*
X124746639Y-98820539D01*
X124794481Y-98818900D01*
X124834511Y-98818499D01*
X124860285Y-98819632D01*
X124866399Y-98821554D01*
X124863018Y-98835584D01*
X124854285Y-98866367D01*
X124845540Y-98895769D01*
X124826404Y-98992840D01*
X124825474Y-99091308D01*
X124841353Y-99186835D01*
X124872644Y-99275082D01*
X124917950Y-99351711D01*
X124975875Y-99412383D01*
X125021469Y-99442163D01*
X125077033Y-99460174D01*
X125144648Y-99466928D01*
X125213605Y-99462442D01*
X125273194Y-99446734D01*
X125284033Y-99441748D01*
X125346596Y-99396310D01*
X125399472Y-99330774D01*
X125440219Y-99249387D01*
X125466398Y-99156394D01*
X125472591Y-99113685D01*
X125471799Y-99047782D01*
X125459133Y-98972020D01*
X125437177Y-98897419D01*
X125408519Y-98835002D01*
X125406345Y-98831400D01*
X125386818Y-98799550D01*
X125372408Y-98775784D01*
X125370250Y-98772157D01*
X125375971Y-98762732D01*
X125403724Y-98750841D01*
X125454671Y-98736066D01*
X125503079Y-98724176D01*
X125559497Y-98711468D01*
X125606177Y-98701939D01*
X125638004Y-98696566D01*
X125649768Y-98696134D01*
X125655652Y-98711175D01*
X125660896Y-98734260D01*
X125670453Y-98773009D01*
X125679352Y-98800049D01*
X125685504Y-98824805D01*
X125693349Y-98868863D01*
X125701933Y-98926268D01*
X125710303Y-98991060D01*
X125711306Y-98999547D01*
X125719458Y-99075625D01*
X125723522Y-99132775D01*
X125723611Y-99177121D01*
X125719839Y-99214787D01*
X125715725Y-99236941D01*
X125694132Y-99311647D01*
X125661411Y-99392789D01*
X125621964Y-99471051D01*
X125580192Y-99537117D01*
X125564331Y-99557435D01*
X125536844Y-99591282D01*
X125523057Y-99615273D01*
X125520025Y-99638738D01*
X125524804Y-99671008D01*
X125526215Y-99678212D01*
X125533216Y-99716829D01*
X125542451Y-99772118D01*
X125552532Y-99835612D01*
X125559161Y-99879150D01*
X125601029Y-100084868D01*
X125662878Y-100275214D01*
X125744630Y-100449974D01*
X125818017Y-100569318D01*
X125863832Y-100629134D01*
X125921746Y-100694471D01*
X125985550Y-100759123D01*
X126049036Y-100816881D01*
X126105992Y-100861536D01*
X126119112Y-100870329D01*
X126181503Y-100906045D01*
X126250815Y-100939018D01*
X126318607Y-100965678D01*
X126376442Y-100982458D01*
X126390226Y-100984978D01*
X126413912Y-100987512D01*
X126429954Y-100983354D01*
X126443361Y-100967847D01*
X126459140Y-100936333D01*
X126470862Y-100909999D01*
X126528184Y-100800109D01*
X126604398Y-100684294D01*
X126695351Y-100567313D01*
X126796893Y-100453926D01*
X126904869Y-100348892D01*
X127015130Y-100256971D01*
X127082550Y-100208830D01*
X127268739Y-100098350D01*
X127466102Y-100006056D01*
X127668308Y-99934740D01*
X127759144Y-99910249D01*
X127813439Y-99897048D01*
X127809944Y-99698144D01*
X127806450Y-99499239D01*
X127749300Y-99482807D01*
X127659444Y-99450093D01*
X127559218Y-99401976D01*
X127454874Y-99342257D01*
X127352664Y-99274737D01*
X127258841Y-99203218D01*
X127192770Y-99144467D01*
X127090980Y-99031662D01*
X127596900Y-99031662D01*
X127606116Y-99087168D01*
X127634061Y-99125644D01*
X127681176Y-99147688D01*
X127682858Y-99148094D01*
X127695821Y-99145424D01*
X127727197Y-99137618D01*
X127770891Y-99126207D01*
X127783603Y-99122815D01*
X127830598Y-99109825D01*
X127867836Y-99098795D01*
X127888681Y-99091710D01*
X127890478Y-99090836D01*
X127910358Y-99085171D01*
X127950343Y-99078516D01*
X128005183Y-99071398D01*
X128069628Y-99064349D01*
X128138428Y-99057896D01*
X128206334Y-99052569D01*
X128268095Y-99048897D01*
X128318463Y-99047409D01*
X128321310Y-99047401D01*
X128392477Y-99049519D01*
X128473764Y-99055428D01*
X128558583Y-99064304D01*
X128640346Y-99075321D01*
X128712466Y-99087653D01*
X128768355Y-99100474D01*
X128784350Y-99105435D01*
X128828896Y-99116236D01*
X128881275Y-99122607D01*
X128900903Y-99123315D01*
X128955434Y-99116478D01*
X128991980Y-99094084D01*
X129012585Y-99053845D01*
X129019291Y-98993473D01*
X129019300Y-98990813D01*
X129015364Y-98947804D01*
X129001270Y-98912724D01*
X128973589Y-98881919D01*
X128928892Y-98851737D01*
X128863749Y-98818526D01*
X128852706Y-98813382D01*
X128748311Y-98771859D01*
X128639467Y-98742774D01*
X128520315Y-98725027D01*
X128384995Y-98717519D01*
X128339316Y-98717100D01*
X128174364Y-98724334D01*
X128028367Y-98746487D01*
X127899249Y-98784238D01*
X127784935Y-98838262D01*
X127683347Y-98909238D01*
X127644525Y-98943745D01*
X127613113Y-98978533D01*
X127599030Y-99009675D01*
X127596900Y-99031662D01*
X127090980Y-99031662D01*
X127075970Y-99015028D01*
X126979090Y-98873487D01*
X126902594Y-98722345D01*
X126846947Y-98564106D01*
X126812616Y-98401273D01*
X126800065Y-98236350D01*
X126809760Y-98071839D01*
X126824894Y-97996375D01*
X127256510Y-97996375D01*
X127259216Y-98050486D01*
X127265050Y-98102185D01*
X127273170Y-98145542D01*
X127282731Y-98174625D01*
X127291623Y-98183700D01*
X127302433Y-98194367D01*
X127309287Y-98212275D01*
X127325910Y-98244198D01*
X127358192Y-98282790D01*
X127399905Y-98321828D01*
X127444821Y-98355088D01*
X127462749Y-98365628D01*
X127561691Y-98406088D01*
X127662446Y-98421665D01*
X127768266Y-98412828D01*
X127777249Y-98411039D01*
X127871912Y-98378793D01*
X127956313Y-98324771D01*
X128027111Y-98251636D01*
X128075717Y-98173152D01*
X128094093Y-98131506D01*
X128102401Y-98102048D01*
X128474452Y-98102048D01*
X128479932Y-98130432D01*
X128483327Y-98142022D01*
X128510635Y-98201948D01*
X128554746Y-98264240D01*
X128609314Y-98320810D01*
X128646524Y-98350089D01*
X128736641Y-98397176D01*
X128835259Y-98420384D01*
X128942085Y-98419662D01*
X128996449Y-98410745D01*
X129089773Y-98379610D01*
X129168968Y-98328267D01*
X129235135Y-98255788D01*
X129287519Y-98165251D01*
X129305079Y-98124941D01*
X129315402Y-98090821D01*
X129320000Y-98053853D01*
X129320385Y-98005004D01*
X129319499Y-97974150D01*
X129315600Y-97909064D01*
X129308045Y-97861070D01*
X129295232Y-97821941D01*
X129286133Y-97802700D01*
X129259149Y-97758630D01*
X129225292Y-97714859D01*
X129189500Y-97676621D01*
X129156710Y-97649146D01*
X129131861Y-97637670D01*
X129130349Y-97637600D01*
X129113081Y-97644644D01*
X129078800Y-97664269D01*
X129031103Y-97694208D01*
X128973587Y-97732197D01*
X128909850Y-97775971D01*
X128903422Y-97780475D01*
X128836876Y-97827069D01*
X128774210Y-97870743D01*
X128719637Y-97908575D01*
X128677372Y-97937642D01*
X128651628Y-97955025D01*
X128651515Y-97955100D01*
X128559876Y-98018515D01*
X128500726Y-98064554D01*
X128480575Y-98083689D01*
X128474452Y-98102048D01*
X128102401Y-98102048D01*
X128104815Y-98093490D01*
X128109814Y-98049256D01*
X128111022Y-97993200D01*
X128109682Y-97933421D01*
X128104186Y-97888558D01*
X128092530Y-97848219D01*
X128075237Y-97807448D01*
X128021378Y-97718649D01*
X127951160Y-97648971D01*
X127865884Y-97599282D01*
X127766852Y-97570445D01*
X127709232Y-97563913D01*
X127613092Y-97565312D01*
X127531681Y-97583162D01*
X127458764Y-97619572D01*
X127394868Y-97670306D01*
X127331816Y-97737831D01*
X127289998Y-97806511D01*
X127265931Y-97883347D01*
X127257778Y-97945783D01*
X127256510Y-97996375D01*
X126824894Y-97996375D01*
X126842168Y-97910245D01*
X126897752Y-97754070D01*
X126923955Y-97698809D01*
X127012697Y-97549698D01*
X127121920Y-97408693D01*
X127246864Y-97281207D01*
X127382771Y-97172655D01*
X127392097Y-97166229D01*
X127526967Y-97085915D01*
X127677108Y-97016913D01*
X127834396Y-96962282D01*
X127990706Y-96925082D01*
X128060450Y-96914616D01*
X128132062Y-96906188D01*
X128182311Y-96899471D01*
X128214954Y-96892422D01*
X128233749Y-96882994D01*
X128242453Y-96869144D01*
X128244825Y-96848827D01*
X128244620Y-96819999D01*
X128244600Y-96814409D01*
X128243885Y-96772909D01*
X128239222Y-96749323D01*
X128226836Y-96736164D01*
X128202950Y-96725945D01*
X128199309Y-96724625D01*
X128160151Y-96705214D01*
X128119410Y-96677444D01*
X128110409Y-96669958D01*
X128076154Y-96627009D01*
X128066438Y-96581316D01*
X128080806Y-96534659D01*
X128118805Y-96488819D01*
X128165433Y-96454232D01*
X128189450Y-96440975D01*
X128214454Y-96432375D01*
X128246643Y-96427456D01*
X128292215Y-96425240D01*
X128352550Y-96424750D01*
X128416336Y-96425315D01*
X128416336Y-96425315D01*
G37*
X128416336Y-96425315D02*
X128461302Y-96427722D01*
X128494014Y-96433031D01*
X128521041Y-96442307D01*
X128548750Y-96456500D01*
X128604358Y-96497102D01*
X128636627Y-96542094D01*
X128645078Y-96589402D01*
X128629231Y-96636950D01*
X128598946Y-96673570D01*
X128580336Y-96692220D01*
X128569346Y-96709846D01*
X128564285Y-96733367D01*
X128563461Y-96769706D01*
X128564749Y-96813541D01*
X128568450Y-96918109D01*
X128644650Y-96935181D01*
X128826285Y-96987351D01*
X128998363Y-97059539D01*
X129158647Y-97150045D01*
X129304900Y-97257172D01*
X129434883Y-97379220D01*
X129546360Y-97514493D01*
X129637094Y-97661291D01*
X129658871Y-97705061D01*
X129717427Y-97855353D01*
X129756543Y-98013994D01*
X129775772Y-98176051D01*
X129774670Y-98336588D01*
X129752791Y-98490669D01*
X129735788Y-98557472D01*
X129686405Y-98692976D01*
X129618908Y-98829876D01*
X129537584Y-98961079D01*
X129446721Y-99079492D01*
X129373212Y-99157246D01*
X129305548Y-99215589D01*
X129224312Y-99276052D01*
X129135481Y-99334956D01*
X129045029Y-99388620D01*
X128958932Y-99433364D01*
X128883166Y-99465507D01*
X128860550Y-99472993D01*
X128809750Y-99488233D01*
X128806306Y-99729571D01*
X128802863Y-99970908D01*
X128926956Y-100005294D01*
X129136299Y-100074695D01*
X129329416Y-100162122D01*
X129505534Y-100266960D01*
X129663877Y-100388595D01*
X129803669Y-100526412D01*
X129924134Y-100679798D01*
X130024499Y-100848139D01*
X130045952Y-100891630D01*
X130071434Y-100942146D01*
X130094187Y-100973868D01*
X130119759Y-100988657D01*
X130153697Y-100988373D01*
X130201553Y-100974876D01*
X130245968Y-100958689D01*
X130357974Y-100904751D01*
X130468586Y-100829297D01*
X130573864Y-100736082D01*
X130669869Y-100628859D01*
X130752662Y-100511385D01*
X130795908Y-100434504D01*
X130827705Y-100366755D01*
X130860624Y-100287832D01*
X130891362Y-100206424D01*
X130916620Y-100131222D01*
X130931701Y-100077037D01*
X130944977Y-100014809D01*
X130958101Y-99943288D01*
X130970006Y-99869481D01*
X130979627Y-99800398D01*
X130985898Y-99743046D01*
X130987800Y-99708171D01*
X130991414Y-99673649D01*
X131000268Y-99649783D01*
X131001786Y-99647993D01*
X131004800Y-99633469D01*
X130992623Y-99607924D01*
X130963698Y-99568130D01*
X130962672Y-99566830D01*
X130888562Y-99455562D01*
X130835019Y-99333664D01*
X130820919Y-99288724D01*
X130807920Y-99237969D01*
X130800546Y-99192029D01*
X130798706Y-99144205D01*
X130802310Y-99087799D01*
X130811267Y-99016112D01*
X130816735Y-98978965D01*
X130832562Y-98884492D01*
X130848695Y-98807228D01*
X130864593Y-98749069D01*
X130879712Y-98711914D01*
X130893513Y-98697656D01*
X130897030Y-98698012D01*
X130916370Y-98703542D01*
X130954183Y-98712968D01*
X131004134Y-98724740D01*
X131036837Y-98732183D01*
X131089125Y-98744133D01*
X131131201Y-98754134D01*
X131157530Y-98760851D01*
X131163553Y-98762802D01*
X131159655Y-98774038D01*
X131144874Y-98799004D01*
X131134570Y-98814537D01*
X131096006Y-98887291D01*
X131068477Y-98972361D01*
X131054842Y-99058906D01*
X131055182Y-99115512D01*
X131073800Y-99214550D01*
X131108915Y-99303450D01*
X131158216Y-99378315D01*
X131219396Y-99435245D01*
X131257905Y-99457801D01*
X131301624Y-99471280D01*
X131357021Y-99478420D01*
X131377069Y-99478980D01*
X131460306Y-99466949D01*
X131534385Y-99431536D01*
X131598518Y-99373342D01*
X131651913Y-99292969D01*
X131669174Y-99256850D01*
X131680214Y-99216632D01*
X131687917Y-99159001D01*
X131692168Y-99091303D01*
X131692857Y-99020888D01*
X131689870Y-98955104D01*
X131683095Y-98901297D01*
X131675065Y-98872267D01*
X131664711Y-98844110D01*
X131661854Y-98828441D01*
X131662365Y-98827616D01*
X131676307Y-98826979D01*
X131709954Y-98827645D01*
X131757651Y-98829461D01*
X131793777Y-98831198D01*
X131920304Y-98837750D01*
X131936390Y-98913950D01*
X131943645Y-98962602D01*
X131948863Y-99025353D01*
X131951199Y-99090928D01*
X131951197Y-99110800D01*
X131938964Y-99247117D01*
X131904775Y-99371449D01*
X131847846Y-99485839D01*
X131767396Y-99592331D01*
X131766344Y-99593504D01*
X131726593Y-99631818D01*
X131677161Y-99671092D01*
X131624954Y-99706631D01*
X131576880Y-99733736D01*
X131539845Y-99747711D01*
X131539480Y-99747783D01*
X131517551Y-99758339D01*
X131512031Y-99772885D01*
X131524379Y-99782980D01*
X131533240Y-99783900D01*
X131552266Y-99787508D01*
X131564085Y-99800738D01*
X131569253Y-99827194D01*
X131568329Y-99870484D01*
X131561870Y-99934211D01*
X131559486Y-99953523D01*
X131523603Y-100155555D01*
X131467430Y-100360732D01*
X131393304Y-100560662D01*
X131384598Y-100580955D01*
X131290236Y-100769625D01*
X131177844Y-100944724D01*
X131049215Y-101104549D01*
X130906145Y-101247392D01*
X130750426Y-101371550D01*
X130583855Y-101475316D01*
X130408224Y-101556984D01*
X130327400Y-101585849D01*
X130219450Y-101620878D01*
X130210197Y-101734264D01*
X130181798Y-101927337D01*
X130128427Y-102119192D01*
X130050514Y-102308596D01*
X129948487Y-102494320D01*
X129941739Y-102505111D01*
X129871623Y-102616473D01*
X129930296Y-102701961D01*
X130017613Y-102838901D01*
X130106180Y-102995990D01*
X130193706Y-103168226D01*
X130277898Y-103350607D01*
X130356465Y-103538130D01*
X130427116Y-103725794D01*
X130487557Y-103908596D01*
X130496050Y-103936800D01*
X130519034Y-104014324D01*
X130537143Y-104076131D01*
X130551768Y-104127679D01*
X130564300Y-104174426D01*
X130576131Y-104221833D01*
X130588652Y-104275359D01*
X130603253Y-104340462D01*
X130621327Y-104422601D01*
X130630367Y-104463850D01*
X130650260Y-104563495D01*
X130670653Y-104681492D01*
X130690553Y-104810835D01*
X130708967Y-104944519D01*
X130724903Y-105075539D01*
X130737367Y-105196890D01*
X130741923Y-105250908D01*
X130750229Y-105358972D01*
X130802339Y-105389639D01*
X130846562Y-105421103D01*
X130896854Y-105465213D01*
X130947026Y-105515624D01*
X130990886Y-105565988D01*
X131022243Y-105609958D01*
X131028608Y-105621606D01*
X131044767Y-105670167D01*
X131052342Y-105734811D01*
X131053194Y-105766697D01*
X131049062Y-105839135D01*
X131033354Y-105900153D01*
X131002961Y-105956521D01*
X130954770Y-106015004D01*
X130925270Y-106044968D01*
X130860905Y-106100440D01*
X130787683Y-106148216D01*
X130700282Y-106191263D01*
X130593380Y-106232549D01*
X130581400Y-106236699D01*
X130460750Y-106278131D01*
X130194050Y-106278015D01*
X130103651Y-106277801D01*
X130034075Y-106276980D01*
X129980747Y-106275147D01*
X129939089Y-106271898D01*
X129904525Y-106266826D01*
X129872480Y-106259529D01*
X129838377Y-106249601D01*
X129824945Y-106245379D01*
X129692220Y-106195417D01*
X129577834Y-106136165D01*
X129483005Y-106068775D01*
X129408950Y-105994398D01*
X129356886Y-105914187D01*
X129328030Y-105829293D01*
X129322285Y-105769634D01*
X129334504Y-105685802D01*
X129369442Y-105602944D01*
X129424518Y-105524308D01*
X129497152Y-105453143D01*
X129584766Y-105392695D01*
X129646307Y-105361660D01*
X129682765Y-105345647D01*
X129676326Y-105152398D01*
X129673818Y-105087592D01*
X129670565Y-105029859D01*
X129665984Y-104974453D01*
X129659494Y-104916627D01*
X129650512Y-104851634D01*
X129638455Y-104774728D01*
X129622742Y-104681164D01*
X129608206Y-104597200D01*
X129563397Y-104379776D01*
X129505797Y-104164796D01*
X129437001Y-103956544D01*
X129358602Y-103759303D01*
X129272194Y-103577357D01*
X129179372Y-103414991D01*
X129153470Y-103375143D01*
X129114057Y-103315623D01*
X129085575Y-103274057D01*
X129063612Y-103248153D01*
X129043761Y-103235619D01*
X129021612Y-103234164D01*
X128992754Y-103241495D01*
X128952779Y-103255322D01*
X128934744Y-103261473D01*
X128877913Y-103278582D01*
X128805239Y-103297734D01*
X128725904Y-103316636D01*
X128649093Y-103332992D01*
X128646107Y-103333580D01*
X128583477Y-103345529D01*
X128531497Y-103354217D01*
X128484264Y-103360036D01*
X128435875Y-103363375D01*
X128380426Y-103364626D01*
X128312015Y-103364181D01*
X128224738Y-103362431D01*
X128214307Y-103362188D01*
X128118057Y-103359521D01*
X128040395Y-103355953D01*
X127974507Y-103350581D01*
X127913583Y-103342501D01*
X127850808Y-103330807D01*
X127779371Y-103314598D01*
X127692460Y-103292967D01*
X127692150Y-103292888D01*
X127636240Y-103277116D01*
X127577479Y-103258203D01*
X127548818Y-103247895D01*
X127511908Y-103234787D01*
X127486187Y-103227493D01*
X127478456Y-103227114D01*
X127469907Y-103239076D01*
X127450586Y-103265807D01*
X127424662Y-103301539D01*
X127424472Y-103301800D01*
X127323682Y-103456541D01*
X127229747Y-103632590D01*
X127143720Y-103826528D01*
X127066653Y-104034935D01*
X126999602Y-104254389D01*
X126943618Y-104481472D01*
X126899756Y-104712763D01*
X126869069Y-104944841D01*
X126853383Y-105156000D01*
X126845109Y-105340150D01*
X126918295Y-105377726D01*
X127018627Y-105439374D01*
X127098997Y-105510311D01*
X127158074Y-105588762D01*
X127194532Y-105672955D01*
X127207040Y-105761116D01*
X127207035Y-105763183D01*
X127194169Y-105853726D01*
X127157303Y-105939171D01*
X127097503Y-106018515D01*
X127015839Y-106090754D01*
X126913376Y-106154886D01*
X126791184Y-106209906D01*
X126698396Y-106241295D01*
X126647429Y-106255349D01*
X126599485Y-106265303D01*
X126547599Y-106272042D01*
X126484804Y-106276451D01*
X126404133Y-106279414D01*
X126396750Y-106279614D01*
X126322304Y-106280760D01*
X126249965Y-106280402D01*
X126186790Y-106278673D01*
X126139837Y-106275705D01*
X126130050Y-106274603D01*
X126008942Y-106250807D01*
X125891878Y-106213073D01*
X125782579Y-106163567D01*
X125684765Y-106104452D01*
X125602155Y-106037892D01*
X125538469Y-105966052D01*
X125506128Y-105911650D01*
X125480171Y-105827962D01*
X125476293Y-105739341D01*
X125493747Y-105651996D01*
X125531789Y-105572140D01*
X125549899Y-105547021D01*
X125587826Y-105505097D01*
X125636762Y-105458562D01*
X125689231Y-105413889D01*
X125737755Y-105377555D01*
X125764925Y-105360786D01*
X125779204Y-105350934D01*
X125787747Y-105336133D01*
X125792000Y-105310423D01*
X125793409Y-105267842D01*
X125793500Y-105242927D01*
X125796040Y-105177844D01*
X125803205Y-105092801D01*
X125814309Y-104992675D01*
X125828667Y-104882345D01*
X125845594Y-104766690D01*
X125864405Y-104650587D01*
X125884415Y-104538915D01*
X125904938Y-104436552D01*
X125910055Y-104413050D01*
X125999584Y-104056505D01*
X126105871Y-103718923D01*
X126228989Y-103400110D01*
X126369016Y-103099874D01*
X126526027Y-102818023D01*
X126557306Y-102767298D01*
X126590114Y-102713605D01*
X126617273Y-102666638D01*
X126636191Y-102631064D01*
X126644279Y-102611548D01*
X126644400Y-102610412D01*
X126636831Y-102589252D01*
X126618280Y-102560799D01*
X126614971Y-102556649D01*
X126587225Y-102517819D01*
X126552957Y-102462464D01*
X126515936Y-102397281D01*
X126479930Y-102328969D01*
X126448707Y-102264224D01*
X126442160Y-102249538D01*
X126385226Y-102094114D01*
X126342949Y-101923816D01*
X126320617Y-101779074D01*
X126313032Y-101718221D01*
X126305309Y-101666687D01*
X126298316Y-101629663D01*
X126292925Y-101612339D01*
X126292614Y-101611984D01*
X126276246Y-101603999D01*
X126242190Y-101591625D01*
X126197228Y-101577288D01*
X126188221Y-101574605D01*
X126134134Y-101555876D01*
X126068715Y-101529125D01*
X126002718Y-101498875D01*
X125974693Y-101484805D01*
X125797194Y-101378335D01*
X125633594Y-101251237D01*
X125484869Y-101104752D01*
X125351998Y-100940122D01*
X125235960Y-100758586D01*
X125137733Y-100561388D01*
X125058294Y-100349766D01*
X125044385Y-100304600D01*
X125023236Y-100226213D01*
X125002254Y-100135899D01*
X124983024Y-100041691D01*
X124967131Y-99951624D01*
X124956159Y-99873732D01*
X124952960Y-99841165D01*
X124952078Y-99808293D01*
X124959388Y-99792374D01*
X124979647Y-99785193D01*
X124986057Y-99784015D01*
X125012221Y-99774877D01*
X125027698Y-99761742D01*
X125028522Y-99750202D01*
X125013146Y-99745800D01*
X124991595Y-99740288D01*
X124955992Y-99725942D01*
X124920012Y-99708825D01*
X124829285Y-99649213D01*
X124747742Y-99569191D01*
X124678319Y-99472972D01*
X124623951Y-99364764D01*
X124587575Y-99248779D01*
X124582732Y-99225100D01*
X124575945Y-99177565D01*
X124573705Y-99127314D01*
X124576002Y-99066815D01*
X124582449Y-98992291D01*
X124589009Y-98932990D01*
X124595656Y-98883226D01*
X124601604Y-98848290D01*
X124605998Y-98833541D01*
X124620664Y-98829917D01*
X124653288Y-98826344D01*
X124697427Y-98823119D01*
X124746639Y-98820539D01*
X124794481Y-98818900D01*
X124834511Y-98818499D01*
X124860285Y-98819632D01*
X124866399Y-98821554D01*
X124863018Y-98835584D01*
X124854285Y-98866367D01*
X124845540Y-98895769D01*
X124826404Y-98992840D01*
X124825474Y-99091308D01*
X124841353Y-99186835D01*
X124872644Y-99275082D01*
X124917950Y-99351711D01*
X124975875Y-99412383D01*
X125021469Y-99442163D01*
X125077033Y-99460174D01*
X125144648Y-99466928D01*
X125213605Y-99462442D01*
X125273194Y-99446734D01*
X125284033Y-99441748D01*
X125346596Y-99396310D01*
X125399472Y-99330774D01*
X125440219Y-99249387D01*
X125466398Y-99156394D01*
X125472591Y-99113685D01*
X125471799Y-99047782D01*
X125459133Y-98972020D01*
X125437177Y-98897419D01*
X125408519Y-98835002D01*
X125406345Y-98831400D01*
X125386818Y-98799550D01*
X125372408Y-98775784D01*
X125370250Y-98772157D01*
X125375971Y-98762732D01*
X125403724Y-98750841D01*
X125454671Y-98736066D01*
X125503079Y-98724176D01*
X125559497Y-98711468D01*
X125606177Y-98701939D01*
X125638004Y-98696566D01*
X125649768Y-98696134D01*
X125655652Y-98711175D01*
X125660896Y-98734260D01*
X125670453Y-98773009D01*
X125679352Y-98800049D01*
X125685504Y-98824805D01*
X125693349Y-98868863D01*
X125701933Y-98926268D01*
X125710303Y-98991060D01*
X125711306Y-98999547D01*
X125719458Y-99075625D01*
X125723522Y-99132775D01*
X125723611Y-99177121D01*
X125719839Y-99214787D01*
X125715725Y-99236941D01*
X125694132Y-99311647D01*
X125661411Y-99392789D01*
X125621964Y-99471051D01*
X125580192Y-99537117D01*
X125564331Y-99557435D01*
X125536844Y-99591282D01*
X125523057Y-99615273D01*
X125520025Y-99638738D01*
X125524804Y-99671008D01*
X125526215Y-99678212D01*
X125533216Y-99716829D01*
X125542451Y-99772118D01*
X125552532Y-99835612D01*
X125559161Y-99879150D01*
X125601029Y-100084868D01*
X125662878Y-100275214D01*
X125744630Y-100449974D01*
X125818017Y-100569318D01*
X125863832Y-100629134D01*
X125921746Y-100694471D01*
X125985550Y-100759123D01*
X126049036Y-100816881D01*
X126105992Y-100861536D01*
X126119112Y-100870329D01*
X126181503Y-100906045D01*
X126250815Y-100939018D01*
X126318607Y-100965678D01*
X126376442Y-100982458D01*
X126390226Y-100984978D01*
X126413912Y-100987512D01*
X126429954Y-100983354D01*
X126443361Y-100967847D01*
X126459140Y-100936333D01*
X126470862Y-100909999D01*
X126528184Y-100800109D01*
X126604398Y-100684294D01*
X126695351Y-100567313D01*
X126796893Y-100453926D01*
X126904869Y-100348892D01*
X127015130Y-100256971D01*
X127082550Y-100208830D01*
X127268739Y-100098350D01*
X127466102Y-100006056D01*
X127668308Y-99934740D01*
X127759144Y-99910249D01*
X127813439Y-99897048D01*
X127809944Y-99698144D01*
X127806450Y-99499239D01*
X127749300Y-99482807D01*
X127659444Y-99450093D01*
X127559218Y-99401976D01*
X127454874Y-99342257D01*
X127352664Y-99274737D01*
X127258841Y-99203218D01*
X127192770Y-99144467D01*
X127090980Y-99031662D01*
X127596900Y-99031662D01*
X127606116Y-99087168D01*
X127634061Y-99125644D01*
X127681176Y-99147688D01*
X127682858Y-99148094D01*
X127695821Y-99145424D01*
X127727197Y-99137618D01*
X127770891Y-99126207D01*
X127783603Y-99122815D01*
X127830598Y-99109825D01*
X127867836Y-99098795D01*
X127888681Y-99091710D01*
X127890478Y-99090836D01*
X127910358Y-99085171D01*
X127950343Y-99078516D01*
X128005183Y-99071398D01*
X128069628Y-99064349D01*
X128138428Y-99057896D01*
X128206334Y-99052569D01*
X128268095Y-99048897D01*
X128318463Y-99047409D01*
X128321310Y-99047401D01*
X128392477Y-99049519D01*
X128473764Y-99055428D01*
X128558583Y-99064304D01*
X128640346Y-99075321D01*
X128712466Y-99087653D01*
X128768355Y-99100474D01*
X128784350Y-99105435D01*
X128828896Y-99116236D01*
X128881275Y-99122607D01*
X128900903Y-99123315D01*
X128955434Y-99116478D01*
X128991980Y-99094084D01*
X129012585Y-99053845D01*
X129019291Y-98993473D01*
X129019300Y-98990813D01*
X129015364Y-98947804D01*
X129001270Y-98912724D01*
X128973589Y-98881919D01*
X128928892Y-98851737D01*
X128863749Y-98818526D01*
X128852706Y-98813382D01*
X128748311Y-98771859D01*
X128639467Y-98742774D01*
X128520315Y-98725027D01*
X128384995Y-98717519D01*
X128339316Y-98717100D01*
X128174364Y-98724334D01*
X128028367Y-98746487D01*
X127899249Y-98784238D01*
X127784935Y-98838262D01*
X127683347Y-98909238D01*
X127644525Y-98943745D01*
X127613113Y-98978533D01*
X127599030Y-99009675D01*
X127596900Y-99031662D01*
X127090980Y-99031662D01*
X127075970Y-99015028D01*
X126979090Y-98873487D01*
X126902594Y-98722345D01*
X126846947Y-98564106D01*
X126812616Y-98401273D01*
X126800065Y-98236350D01*
X126809760Y-98071839D01*
X126824894Y-97996375D01*
X127256510Y-97996375D01*
X127259216Y-98050486D01*
X127265050Y-98102185D01*
X127273170Y-98145542D01*
X127282731Y-98174625D01*
X127291623Y-98183700D01*
X127302433Y-98194367D01*
X127309287Y-98212275D01*
X127325910Y-98244198D01*
X127358192Y-98282790D01*
X127399905Y-98321828D01*
X127444821Y-98355088D01*
X127462749Y-98365628D01*
X127561691Y-98406088D01*
X127662446Y-98421665D01*
X127768266Y-98412828D01*
X127777249Y-98411039D01*
X127871912Y-98378793D01*
X127956313Y-98324771D01*
X128027111Y-98251636D01*
X128075717Y-98173152D01*
X128094093Y-98131506D01*
X128102401Y-98102048D01*
X128474452Y-98102048D01*
X128479932Y-98130432D01*
X128483327Y-98142022D01*
X128510635Y-98201948D01*
X128554746Y-98264240D01*
X128609314Y-98320810D01*
X128646524Y-98350089D01*
X128736641Y-98397176D01*
X128835259Y-98420384D01*
X128942085Y-98419662D01*
X128996449Y-98410745D01*
X129089773Y-98379610D01*
X129168968Y-98328267D01*
X129235135Y-98255788D01*
X129287519Y-98165251D01*
X129305079Y-98124941D01*
X129315402Y-98090821D01*
X129320000Y-98053853D01*
X129320385Y-98005004D01*
X129319499Y-97974150D01*
X129315600Y-97909064D01*
X129308045Y-97861070D01*
X129295232Y-97821941D01*
X129286133Y-97802700D01*
X129259149Y-97758630D01*
X129225292Y-97714859D01*
X129189500Y-97676621D01*
X129156710Y-97649146D01*
X129131861Y-97637670D01*
X129130349Y-97637600D01*
X129113081Y-97644644D01*
X129078800Y-97664269D01*
X129031103Y-97694208D01*
X128973587Y-97732197D01*
X128909850Y-97775971D01*
X128903422Y-97780475D01*
X128836876Y-97827069D01*
X128774210Y-97870743D01*
X128719637Y-97908575D01*
X128677372Y-97937642D01*
X128651628Y-97955025D01*
X128651515Y-97955100D01*
X128559876Y-98018515D01*
X128500726Y-98064554D01*
X128480575Y-98083689D01*
X128474452Y-98102048D01*
X128102401Y-98102048D01*
X128104815Y-98093490D01*
X128109814Y-98049256D01*
X128111022Y-97993200D01*
X128109682Y-97933421D01*
X128104186Y-97888558D01*
X128092530Y-97848219D01*
X128075237Y-97807448D01*
X128021378Y-97718649D01*
X127951160Y-97648971D01*
X127865884Y-97599282D01*
X127766852Y-97570445D01*
X127709232Y-97563913D01*
X127613092Y-97565312D01*
X127531681Y-97583162D01*
X127458764Y-97619572D01*
X127394868Y-97670306D01*
X127331816Y-97737831D01*
X127289998Y-97806511D01*
X127265931Y-97883347D01*
X127257778Y-97945783D01*
X127256510Y-97996375D01*
X126824894Y-97996375D01*
X126842168Y-97910245D01*
X126897752Y-97754070D01*
X126923955Y-97698809D01*
X127012697Y-97549698D01*
X127121920Y-97408693D01*
X127246864Y-97281207D01*
X127382771Y-97172655D01*
X127392097Y-97166229D01*
X127526967Y-97085915D01*
X127677108Y-97016913D01*
X127834396Y-96962282D01*
X127990706Y-96925082D01*
X128060450Y-96914616D01*
X128132062Y-96906188D01*
X128182311Y-96899471D01*
X128214954Y-96892422D01*
X128233749Y-96882994D01*
X128242453Y-96869144D01*
X128244825Y-96848827D01*
X128244620Y-96819999D01*
X128244600Y-96814409D01*
X128243885Y-96772909D01*
X128239222Y-96749323D01*
X128226836Y-96736164D01*
X128202950Y-96725945D01*
X128199309Y-96724625D01*
X128160151Y-96705214D01*
X128119410Y-96677444D01*
X128110409Y-96669958D01*
X128076154Y-96627009D01*
X128066438Y-96581316D01*
X128080806Y-96534659D01*
X128118805Y-96488819D01*
X128165433Y-96454232D01*
X128189450Y-96440975D01*
X128214454Y-96432375D01*
X128246643Y-96427456D01*
X128292215Y-96425240D01*
X128352550Y-96424750D01*
X128416336Y-96425315D01*
G36*
X130686120Y-96578691D02*
X130729376Y-96603392D01*
X130753856Y-96636929D01*
X130768418Y-96665035D01*
X130777230Y-96681075D01*
X130777915Y-96682091D01*
X130790130Y-96679839D01*
X130817126Y-96670115D01*
X130826692Y-96666216D01*
X130882223Y-96649516D01*
X130927298Y-96652442D01*
X130968376Y-96675677D01*
X130975683Y-96681925D01*
X131009806Y-96727639D01*
X131024092Y-96781741D01*
X131017227Y-96836554D01*
X131006263Y-96860472D01*
X130983635Y-96898778D01*
X131031235Y-96943670D01*
X131063399Y-96979959D01*
X131072838Y-97006990D01*
X131072021Y-97011456D01*
X131063875Y-97041283D01*
X131056825Y-97069475D01*
X131040622Y-97102976D01*
X131016410Y-97129800D01*
X130977048Y-97150977D01*
X130933653Y-97153475D01*
X130882620Y-97136712D01*
X130820347Y-97100105D01*
X130816399Y-97097418D01*
X130732292Y-97039837D01*
X130558421Y-97131129D01*
X130490381Y-97166928D01*
X130423087Y-97202465D01*
X130363070Y-97234283D01*
X130316862Y-97258923D01*
X130305718Y-97264910D01*
X130261670Y-97288423D01*
X130234844Y-97301480D01*
X130220142Y-97305756D01*
X130212469Y-97302926D01*
X130208148Y-97296963D01*
X130213925Y-97284366D01*
X130234200Y-97256896D01*
X130266069Y-97218178D01*
X130306624Y-97171836D01*
X130322698Y-97154088D01*
X130371102Y-97100767D01*
X130417470Y-97049083D01*
X130457021Y-97004403D01*
X130484974Y-96972097D01*
X130488305Y-96968130D01*
X130532913Y-96914610D01*
X130498794Y-96844873D01*
X130478966Y-96799552D01*
X130470941Y-96764472D01*
X130472512Y-96728682D01*
X130473764Y-96720593D01*
X130491986Y-96669519D01*
X130525362Y-96623679D01*
X130567801Y-96589084D01*
X130613212Y-96571744D01*
X130625557Y-96570800D01*
X130686120Y-96578691D01*
X130686120Y-96578691D01*
G37*
X130686120Y-96578691D02*
X130729376Y-96603392D01*
X130753856Y-96636929D01*
X130768418Y-96665035D01*
X130777230Y-96681075D01*
X130777915Y-96682091D01*
X130790130Y-96679839D01*
X130817126Y-96670115D01*
X130826692Y-96666216D01*
X130882223Y-96649516D01*
X130927298Y-96652442D01*
X130968376Y-96675677D01*
X130975683Y-96681925D01*
X131009806Y-96727639D01*
X131024092Y-96781741D01*
X131017227Y-96836554D01*
X131006263Y-96860472D01*
X130983635Y-96898778D01*
X131031235Y-96943670D01*
X131063399Y-96979959D01*
X131072838Y-97006990D01*
X131072021Y-97011456D01*
X131063875Y-97041283D01*
X131056825Y-97069475D01*
X131040622Y-97102976D01*
X131016410Y-97129800D01*
X130977048Y-97150977D01*
X130933653Y-97153475D01*
X130882620Y-97136712D01*
X130820347Y-97100105D01*
X130816399Y-97097418D01*
X130732292Y-97039837D01*
X130558421Y-97131129D01*
X130490381Y-97166928D01*
X130423087Y-97202465D01*
X130363070Y-97234283D01*
X130316862Y-97258923D01*
X130305718Y-97264910D01*
X130261670Y-97288423D01*
X130234844Y-97301480D01*
X130220142Y-97305756D01*
X130212469Y-97302926D01*
X130208148Y-97296963D01*
X130213925Y-97284366D01*
X130234200Y-97256896D01*
X130266069Y-97218178D01*
X130306624Y-97171836D01*
X130322698Y-97154088D01*
X130371102Y-97100767D01*
X130417470Y-97049083D01*
X130457021Y-97004403D01*
X130484974Y-96972097D01*
X130488305Y-96968130D01*
X130532913Y-96914610D01*
X130498794Y-96844873D01*
X130478966Y-96799552D01*
X130470941Y-96764472D01*
X130472512Y-96728682D01*
X130473764Y-96720593D01*
X130491986Y-96669519D01*
X130525362Y-96623679D01*
X130567801Y-96589084D01*
X130613212Y-96571744D01*
X130625557Y-96570800D01*
X130686120Y-96578691D01*
D12*
X115000000Y-115000000D03*
X185000000Y-85000000D03*
D13*
X115000000Y-80000000D03*
D14*
X117400000Y-80000000D03*
X116697056Y-81697056D03*
X115000000Y-82400000D03*
X113302944Y-81697056D03*
X112600000Y-80000000D03*
X113302944Y-78302944D03*
X115000000Y-77600000D03*
X116697056Y-78302944D03*
D13*
X115000000Y-120000000D03*
D14*
X117400000Y-120000000D03*
X116697056Y-121697056D03*
X115000000Y-122400000D03*
X113302944Y-121697056D03*
X112600000Y-120000000D03*
X113302944Y-118302944D03*
X115000000Y-117600000D03*
X116697056Y-118302944D03*
D13*
X185000000Y-120000000D03*
D14*
X187400000Y-120000000D03*
X186697056Y-121697056D03*
X185000000Y-122400000D03*
X183302944Y-121697056D03*
X182600000Y-120000000D03*
X183302944Y-118302944D03*
X185000000Y-117600000D03*
X186697056Y-118302944D03*
D15*
X116135000Y-105960000D03*
D16*
X113595000Y-105960000D03*
X116135000Y-108500000D03*
X113595000Y-108500000D03*
X116135000Y-111040000D03*
X113595000Y-111040000D03*
D17*
X148950000Y-101500000D03*
X151050000Y-98500000D03*
X151050000Y-101500000D03*
X148950000Y-98500000D03*
D18*
X150000000Y-98500000D03*
X150000000Y-101500000D03*
D15*
X173285000Y-88815000D03*
D16*
X175825000Y-88815000D03*
X173285000Y-86275000D03*
X175825000Y-86275000D03*
X173285000Y-83735000D03*
X175825000Y-83735000D03*
X173285000Y-81195000D03*
X175825000Y-81195000D03*
X173285000Y-78655000D03*
X175825000Y-78655000D03*
D19*
X147555000Y-92310000D03*
D20*
X150095000Y-92310000D03*
X152635000Y-92310000D03*
D21*
X158045000Y-105960000D03*
D22*
X158045000Y-103420000D03*
D15*
X184080000Y-92625000D03*
D16*
X186620000Y-92625000D03*
X184080000Y-95165000D03*
X186620000Y-95165000D03*
X184080000Y-97705000D03*
X186620000Y-97705000D03*
D15*
X116135000Y-100245000D03*
D16*
X113595000Y-100245000D03*
X116135000Y-97705000D03*
X113595000Y-97705000D03*
X116135000Y-95165000D03*
X113595000Y-95165000D03*
X116135000Y-92625000D03*
X113595000Y-92625000D03*
D23*
X180270000Y-97705000D03*
D24*
X180270000Y-95165000D03*
X180270000Y-92625000D03*
D23*
X124390000Y-116755000D03*
D24*
X124390000Y-119295000D03*
X124390000Y-121835000D03*
D23*
X120580000Y-116755000D03*
D24*
X120580000Y-119295000D03*
X120580000Y-121835000D03*
D25*
X125660000Y-79925000D03*
D26*
X130660000Y-79925000D03*
D25*
X142805000Y-79925000D03*
D26*
X147805000Y-79925000D03*
D27*
X146465000Y-121890000D03*
X146465000Y-117390000D03*
X152965000Y-121890000D03*
X152965000Y-117390000D03*
X162340000Y-121835000D03*
X162340000Y-117335000D03*
X168840000Y-121835000D03*
X168840000Y-117335000D03*
X172500000Y-121835000D03*
X172500000Y-117335000D03*
X179000000Y-121835000D03*
X179000000Y-117335000D03*
D28*
X155980000Y-82465000D03*
X155980000Y-83735000D03*
X155980000Y-85005000D03*
X155980000Y-86275000D03*
X161380000Y-86275000D03*
X161380000Y-85005000D03*
X161380000Y-83735000D03*
X161380000Y-82465000D03*
D29*
X135265000Y-95320000D03*
X135265000Y-96590000D03*
X135265000Y-97860000D03*
X135265000Y-99130000D03*
X135265000Y-100400000D03*
X135265000Y-101670000D03*
X135265000Y-102940000D03*
X135265000Y-104210000D03*
X140665000Y-104210000D03*
X140665000Y-102940000D03*
X140665000Y-101670000D03*
X140665000Y-100400000D03*
X140665000Y-99130000D03*
X140665000Y-97860000D03*
X140665000Y-96590000D03*
X140665000Y-95320000D03*
D30*
X142401140Y-107865000D03*
X152098860Y-107865000D03*
D10*
G36*
X140541334Y-113416712D02*
X141213086Y-114088464D01*
X139798872Y-115502678D01*
X139127120Y-114830926D01*
X140541334Y-113416712D01*
X140541334Y-113416712D01*
G37*
G36*
X139975648Y-112851027D02*
X140647400Y-113522779D01*
X139233186Y-114936993D01*
X138561434Y-114265241D01*
X139975648Y-112851027D01*
X139975648Y-112851027D01*
G37*
G36*
X139409963Y-112285341D02*
X140081715Y-112957093D01*
X138667501Y-114371307D01*
X137995749Y-113699555D01*
X139409963Y-112285341D01*
X139409963Y-112285341D01*
G37*
G36*
X138844278Y-111719656D02*
X139516030Y-112391408D01*
X138101816Y-113805622D01*
X137430064Y-113133870D01*
X138844278Y-111719656D01*
X138844278Y-111719656D01*
G37*
G36*
X138278592Y-111153970D02*
X138950344Y-111825722D01*
X137536130Y-113239936D01*
X136864378Y-112568184D01*
X138278592Y-111153970D01*
X138278592Y-111153970D01*
G37*
G36*
X137712907Y-110588285D02*
X138384659Y-111260037D01*
X136970445Y-112674251D01*
X136298693Y-112002499D01*
X137712907Y-110588285D01*
X137712907Y-110588285D01*
G37*
G36*
X137147221Y-110022600D02*
X137818973Y-110694352D01*
X136404759Y-112108566D01*
X135733007Y-111436814D01*
X137147221Y-110022600D01*
X137147221Y-110022600D01*
G37*
G36*
X136581536Y-109456914D02*
X137253288Y-110128666D01*
X135839074Y-111542880D01*
X135167322Y-110871128D01*
X136581536Y-109456914D01*
X136581536Y-109456914D01*
G37*
G36*
X133116712Y-110128666D02*
X133788464Y-109456914D01*
X135202678Y-110871128D01*
X134530926Y-111542880D01*
X133116712Y-110128666D01*
X133116712Y-110128666D01*
G37*
G36*
X132551027Y-110694352D02*
X133222779Y-110022600D01*
X134636993Y-111436814D01*
X133965241Y-112108566D01*
X132551027Y-110694352D01*
X132551027Y-110694352D01*
G37*
G36*
X131985341Y-111260037D02*
X132657093Y-110588285D01*
X134071307Y-112002499D01*
X133399555Y-112674251D01*
X131985341Y-111260037D01*
X131985341Y-111260037D01*
G37*
G36*
X131419656Y-111825722D02*
X132091408Y-111153970D01*
X133505622Y-112568184D01*
X132833870Y-113239936D01*
X131419656Y-111825722D01*
X131419656Y-111825722D01*
G37*
G36*
X130853970Y-112391408D02*
X131525722Y-111719656D01*
X132939936Y-113133870D01*
X132268184Y-113805622D01*
X130853970Y-112391408D01*
X130853970Y-112391408D01*
G37*
G36*
X130288285Y-112957093D02*
X130960037Y-112285341D01*
X132374251Y-113699555D01*
X131702499Y-114371307D01*
X130288285Y-112957093D01*
X130288285Y-112957093D01*
G37*
G36*
X129722600Y-113522779D02*
X130394352Y-112851027D01*
X131808566Y-114265241D01*
X131136814Y-114936993D01*
X129722600Y-113522779D01*
X129722600Y-113522779D01*
G37*
G36*
X129156914Y-114088464D02*
X129828666Y-113416712D01*
X131242880Y-114830926D01*
X130571128Y-115502678D01*
X129156914Y-114088464D01*
X129156914Y-114088464D01*
G37*
G36*
X130571128Y-115467322D02*
X131242880Y-116139074D01*
X129828666Y-117553288D01*
X129156914Y-116881536D01*
X130571128Y-115467322D01*
X130571128Y-115467322D01*
G37*
G36*
X131136814Y-116033007D02*
X131808566Y-116704759D01*
X130394352Y-118118973D01*
X129722600Y-117447221D01*
X131136814Y-116033007D01*
X131136814Y-116033007D01*
G37*
G36*
X131702499Y-116598693D02*
X132374251Y-117270445D01*
X130960037Y-118684659D01*
X130288285Y-118012907D01*
X131702499Y-116598693D01*
X131702499Y-116598693D01*
G37*
G36*
X132268184Y-117164378D02*
X132939936Y-117836130D01*
X131525722Y-119250344D01*
X130853970Y-118578592D01*
X132268184Y-117164378D01*
X132268184Y-117164378D01*
G37*
G36*
X132833870Y-117730064D02*
X133505622Y-118401816D01*
X132091408Y-119816030D01*
X131419656Y-119144278D01*
X132833870Y-117730064D01*
X132833870Y-117730064D01*
G37*
G36*
X133399555Y-118295749D02*
X134071307Y-118967501D01*
X132657093Y-120381715D01*
X131985341Y-119709963D01*
X133399555Y-118295749D01*
X133399555Y-118295749D01*
G37*
G36*
X133965241Y-118861434D02*
X134636993Y-119533186D01*
X133222779Y-120947400D01*
X132551027Y-120275648D01*
X133965241Y-118861434D01*
X133965241Y-118861434D01*
G37*
G36*
X134530926Y-119427120D02*
X135202678Y-120098872D01*
X133788464Y-121513086D01*
X133116712Y-120841334D01*
X134530926Y-119427120D01*
X134530926Y-119427120D01*
G37*
G36*
X135167322Y-120098872D02*
X135839074Y-119427120D01*
X137253288Y-120841334D01*
X136581536Y-121513086D01*
X135167322Y-120098872D01*
X135167322Y-120098872D01*
G37*
G36*
X135733007Y-119533186D02*
X136404759Y-118861434D01*
X137818973Y-120275648D01*
X137147221Y-120947400D01*
X135733007Y-119533186D01*
X135733007Y-119533186D01*
G37*
G36*
X136298693Y-118967501D02*
X136970445Y-118295749D01*
X138384659Y-119709963D01*
X137712907Y-120381715D01*
X136298693Y-118967501D01*
X136298693Y-118967501D01*
G37*
G36*
X136864378Y-118401816D02*
X137536130Y-117730064D01*
X138950344Y-119144278D01*
X138278592Y-119816030D01*
X136864378Y-118401816D01*
X136864378Y-118401816D01*
G37*
G36*
X137430064Y-117836130D02*
X138101816Y-117164378D01*
X139516030Y-118578592D01*
X138844278Y-119250344D01*
X137430064Y-117836130D01*
X137430064Y-117836130D01*
G37*
G36*
X137995749Y-117270445D02*
X138667501Y-116598693D01*
X140081715Y-118012907D01*
X139409963Y-118684659D01*
X137995749Y-117270445D01*
X137995749Y-117270445D01*
G37*
G36*
X138561434Y-116704759D02*
X139233186Y-116033007D01*
X140647400Y-117447221D01*
X139975648Y-118118973D01*
X138561434Y-116704759D01*
X138561434Y-116704759D01*
G37*
G36*
X139127120Y-116139074D02*
X139798872Y-115467322D01*
X141213086Y-116881536D01*
X140541334Y-117553288D01*
X139127120Y-116139074D01*
X139127120Y-116139074D01*
G37*
D23*
X119945000Y-92625000D03*
D24*
X119945000Y-95165000D03*
X119945000Y-97705000D03*
X119945000Y-100245000D03*
D15*
X184080000Y-102785000D03*
D16*
X186620000Y-102785000D03*
X184080000Y-105325000D03*
X186620000Y-105325000D03*
X184080000Y-107865000D03*
X186620000Y-107865000D03*
X184080000Y-110405000D03*
X186620000Y-110405000D03*
X184080000Y-112945000D03*
X186620000Y-112945000D03*
D23*
X180270000Y-112945000D03*
D24*
X180270000Y-110405000D03*
X180270000Y-107865000D03*
X180270000Y-105325000D03*
X180270000Y-102785000D03*
D31*
X160950000Y-80560000D03*
X158950000Y-80560000D03*
X166030000Y-91990000D03*
X164030000Y-91990000D03*
X166030000Y-97070000D03*
X164030000Y-97070000D03*
X155775000Y-96435000D03*
X157775000Y-96435000D03*
X155775000Y-92625000D03*
X157775000Y-92625000D03*
D10*
G36*
X129105281Y-122731445D02*
X127938555Y-121564719D01*
X128928505Y-120574769D01*
X130095231Y-121741495D01*
X129105281Y-122731445D01*
X129105281Y-122731445D01*
G37*
G36*
X130519495Y-121317231D02*
X129352769Y-120150505D01*
X130342719Y-119160555D01*
X131509445Y-120327281D01*
X130519495Y-121317231D01*
X130519495Y-121317231D01*
G37*
D31*
X184350000Y-100245000D03*
X186350000Y-100245000D03*
X143440000Y-111675000D03*
X141440000Y-111675000D03*
D10*
G36*
X128818719Y-117636555D02*
X129985445Y-118803281D01*
X128995495Y-119793231D01*
X127828769Y-118626505D01*
X128818719Y-117636555D01*
X128818719Y-117636555D01*
G37*
G36*
X127404505Y-119050769D02*
X128571231Y-120217495D01*
X127581281Y-121207445D01*
X126414555Y-120040719D01*
X127404505Y-119050769D01*
X127404505Y-119050769D01*
G37*
D31*
X184350000Y-90085000D03*
X186350000Y-90085000D03*
X115865000Y-102785000D03*
X113865000Y-102785000D03*
X137582000Y-108500000D03*
X135582000Y-108500000D03*
X137582000Y-106595000D03*
X135582000Y-106595000D03*
D32*
X125025000Y-88545000D03*
X125025000Y-86545000D03*
X135185000Y-88545000D03*
X135185000Y-86545000D03*
D33*
X156140000Y-120979020D03*
X156140000Y-118880980D03*
X159315000Y-120979020D03*
X159315000Y-118880980D03*
D34*
X165665000Y-106280000D03*
X165665000Y-108180000D03*
D35*
X167890000Y-89450000D03*
X169790000Y-89450000D03*
X165980000Y-89450000D03*
X164080000Y-89450000D03*
X169790000Y-94530000D03*
X167890000Y-94530000D03*
X165980000Y-94530000D03*
X164080000Y-94530000D03*
X120895000Y-113580000D03*
X118995000Y-113580000D03*
X166615000Y-114850000D03*
X164715000Y-114850000D03*
X176775000Y-114850000D03*
X174875000Y-114850000D03*
X144630000Y-93415000D03*
X142730000Y-93415000D03*
X144630000Y-97790000D03*
X142730000Y-97790000D03*
X144630000Y-101600000D03*
X142730000Y-101600000D03*
X144630000Y-95885000D03*
X142730000Y-95885000D03*
D34*
X156140000Y-117070000D03*
X156140000Y-115170000D03*
X159315000Y-116435000D03*
X159315000Y-114535000D03*
D35*
X155825000Y-100245000D03*
X157725000Y-100245000D03*
X120895000Y-104055000D03*
X118995000Y-104055000D03*
X120895000Y-107865000D03*
X118995000Y-107865000D03*
X120895000Y-105960000D03*
X118995000Y-105960000D03*
D36*
X130105000Y-93235000D03*
D37*
X130105000Y-86935000D03*
X127805000Y-86935000D03*
X132405000Y-86935000D03*
D38*
X164395000Y-86910000D03*
D39*
X164395000Y-79290000D03*
D34*
X170110000Y-80565000D03*
X170110000Y-82465000D03*
X167570000Y-81510000D03*
X167570000Y-79610000D03*
D33*
X152330000Y-87324020D03*
X152330000Y-85225980D03*
D34*
X152330000Y-83415000D03*
X152330000Y-81515000D03*
D13*
X185000000Y-80000000D03*
D14*
X187400000Y-80000000D03*
X186697056Y-81697056D03*
X185000000Y-82400000D03*
X183302944Y-81697056D03*
X182600000Y-80000000D03*
X183302944Y-78302944D03*
X185000000Y-77600000D03*
X186697056Y-78302944D03*
D12*
X120000000Y-80000000D03*
D40*
X142805000Y-88815000D03*
D38*
X140305000Y-88815000D03*
D35*
X144630000Y-99695000D03*
X142730000Y-99695000D03*
D40*
X120580000Y-86275000D03*
D38*
X118580000Y-86275000D03*
D41*
X170110000Y-87290000D03*
X170110000Y-83990000D03*
X167570000Y-87290000D03*
X167570000Y-83990000D03*
X125025000Y-90495000D03*
X125025000Y-93795000D03*
M02*
