M48
;DRILL file {KiCad 4.0.7} date Monday, 16 October 2017 'AMt' 00:26:50
;FORMAT={-:-/ absolute / metric / decimal}
FMAT,2
METRIC,TZ
T1C0.400
T2C0.500
T3C0.800
T4C1.016
T5C1.100
T6C1.300
T7C3.200
%
G90
G05
M71
T1
X0.Y0.
X112.325Y-102.15
X112.325Y-103.42
X116.135Y-86.275
X118.04Y-84.37
X118.04Y-88.18
X122.485Y-111.04
X125.66Y-85.005
X126.295Y-111.04
X127.493Y-120.129
X128.2Y-116.755
X129.017Y-121.653
X131.375Y-85.005
X132.645Y-114.215
X132.645Y-115.485
X133.28Y-85.005
X133.28Y-107.865
X133.28Y-113.58
X133.915Y-108.5
X133.915Y-114.215
X133.915Y-116.755
X134.55Y-112.31
X135.185Y-85.005
X135.185Y-105.325
X135.185Y-109.77
X135.185Y-111.675
X135.185Y-112.945
X135.185Y-115.485
X135.185Y-118.025
X136.455Y-102.946
X136.455Y-114.215
X136.455Y-116.755
X137.16Y-104.14
X137.725Y-115.485
X137.795Y-102.235
X137.795Y-103.505
X138.36Y-88.815
X138.43Y-104.14
X139.63Y-119.295
X140.265Y-86.91
X141.44Y-111.675
X141.535Y-113.58
X151.695Y-79.925
X152.965Y-79.925
X153.6Y-87.545
X157.41Y-83.1
X157.41Y-84.37
X158.045Y-79.29
X158.045Y-81.83
X158.045Y-90.72
X158.045Y-94.53
X158.045Y-98.34
X159.315Y-92.625
X159.315Y-96.435
X161.22Y-108.5
X161.22Y-111.04
X161.855Y-80.56
X161.855Y-109.135
X161.855Y-110.405
X163.125Y-107.865
X163.76Y-88.18
X163.76Y-90.72
X163.76Y-93.26
X163.76Y-95.8
X163.76Y-98.34
X163.76Y-108.5
X163.76Y-112.31
X163.76Y-114.85
X165.03Y-104.69
X165.665Y-109.135
X165.665Y-120.565
X166.3Y-104.69
X166.935Y-78.02
X166.935Y-116.12
X166.935Y-119.93
X168.205Y-78.02
X173.92Y-111.675
X173.92Y-114.85
X177.095Y-116.12
X177.095Y-119.93
X187.89Y-89.45
X187.89Y-90.72
X187.89Y-99.61
X187.89Y-100.88
T2
X112.6Y-80.
X112.6Y-120.
X113.303Y-78.303
X113.303Y-81.697
X113.303Y-118.303
X113.303Y-121.697
X115.Y-77.6
X115.Y-82.4
X115.Y-117.6
X115.Y-122.4
X116.697Y-78.303
X116.697Y-81.697
X116.697Y-118.303
X116.697Y-121.697
X117.4Y-80.
X117.4Y-120.
X182.6Y-80.
X182.6Y-120.
X183.303Y-78.303
X183.303Y-81.697
X183.303Y-118.303
X183.303Y-121.697
X185.Y-77.6
X185.Y-82.4
X185.Y-117.6
X185.Y-122.4
X186.697Y-78.303
X186.697Y-81.697
X186.697Y-118.303
X186.697Y-121.697
X187.4Y-80.
X187.4Y-120.
T3
X118.08Y-86.275
X120.58Y-86.275
X140.305Y-88.815
X142.805Y-88.815
X164.395Y-79.29
X164.395Y-86.91
T4
X113.595Y-92.625
X113.595Y-95.165
X113.595Y-97.705
X113.595Y-100.245
X113.595Y-105.96
X113.595Y-108.5
X113.595Y-111.04
X116.135Y-92.625
X116.135Y-95.165
X116.135Y-97.705
X116.135Y-100.245
X116.135Y-105.96
X116.135Y-108.5
X116.135Y-111.04
X119.945Y-92.625
X119.945Y-95.165
X119.945Y-97.705
X119.945Y-100.245
X120.58Y-116.755
X120.58Y-119.295
X120.58Y-121.835
X124.39Y-116.755
X124.39Y-119.295
X124.39Y-121.835
X147.555Y-92.31
X150.095Y-92.31
X152.635Y-92.31
X158.045Y-103.42
X158.045Y-105.96
X173.285Y-78.655
X173.285Y-81.195
X173.285Y-83.735
X173.285Y-86.275
X173.285Y-88.815
X175.825Y-78.655
X175.825Y-81.195
X175.825Y-83.735
X175.825Y-86.275
X175.825Y-88.815
X180.27Y-92.625
X180.27Y-95.165
X180.27Y-97.705
X180.27Y-102.785
X180.27Y-105.325
X180.27Y-107.865
X180.27Y-110.405
X180.27Y-112.945
X184.08Y-92.625
X184.08Y-95.165
X184.08Y-97.705
X184.08Y-102.785
X184.08Y-105.325
X184.08Y-107.865
X184.08Y-110.405
X184.08Y-112.945
X186.62Y-92.625
X186.62Y-95.165
X186.62Y-97.705
X186.62Y-102.785
X186.62Y-105.325
X186.62Y-107.865
X186.62Y-110.405
X186.62Y-112.945
T5
X146.465Y-117.39
X146.465Y-121.89
X152.965Y-117.39
X152.965Y-121.89
X162.34Y-117.335
X162.34Y-121.835
X168.84Y-117.335
X168.84Y-121.835
X172.5Y-117.335
X172.5Y-121.835
X179.Y-117.335
X179.Y-121.835
T6
X125.66Y-79.925
X130.66Y-79.925
X142.805Y-79.925
X147.805Y-79.925
T7
X115.Y-80.
X115.Y-120.
X185.Y-80.
X185.Y-120.
T0
M30
