G04 #@! TF.FileFunction,Soldermask,Bot*
%FSLAX46Y46*%
G04 Gerber Fmt 4.6, Leading zero omitted, Abs format (unit mm)*
G04 Created by KiCad (PCBNEW 4.0.7) date Monday, 16 October 2017 'AMt' 00:26:45*
%MOMM*%
%LPD*%
G01*
G04 APERTURE LIST*
%ADD10C,0.100000*%
%ADD11C,6.800000*%
%ADD12C,1.000000*%
%ADD13R,2.127200X2.127200*%
%ADD14O,2.127200X2.127200*%
%ADD15R,2.127200X2.432000*%
%ADD16O,2.127200X2.432000*%
%ADD17R,2.432000X2.432000*%
%ADD18O,2.432000X2.432000*%
%ADD19R,2.432000X2.127200*%
%ADD20O,2.432000X2.127200*%
%ADD21R,2.900000X2.900000*%
%ADD22C,2.900000*%
%ADD23C,2.400000*%
%ADD24C,2.000000*%
%ADD25O,2.000000X2.000000*%
%ADD26R,2.000000X2.000000*%
G04 APERTURE END LIST*
D10*
D11*
X115000000Y-80000000D03*
D12*
X117400000Y-80000000D03*
X116697056Y-81697056D03*
X115000000Y-82400000D03*
X113302944Y-81697056D03*
X112600000Y-80000000D03*
X113302944Y-78302944D03*
X115000000Y-77600000D03*
X116697056Y-78302944D03*
D11*
X115000000Y-120000000D03*
D12*
X117400000Y-120000000D03*
X116697056Y-121697056D03*
X115000000Y-122400000D03*
X113302944Y-121697056D03*
X112600000Y-120000000D03*
X113302944Y-118302944D03*
X115000000Y-117600000D03*
X116697056Y-118302944D03*
D11*
X185000000Y-120000000D03*
D12*
X187400000Y-120000000D03*
X186697056Y-121697056D03*
X185000000Y-122400000D03*
X183302944Y-121697056D03*
X182600000Y-120000000D03*
X183302944Y-118302944D03*
X185000000Y-117600000D03*
X186697056Y-118302944D03*
D13*
X116135000Y-105960000D03*
D14*
X113595000Y-105960000D03*
X116135000Y-108500000D03*
X113595000Y-108500000D03*
X116135000Y-111040000D03*
X113595000Y-111040000D03*
D13*
X173285000Y-88815000D03*
D14*
X175825000Y-88815000D03*
X173285000Y-86275000D03*
X175825000Y-86275000D03*
X173285000Y-83735000D03*
X175825000Y-83735000D03*
X173285000Y-81195000D03*
X175825000Y-81195000D03*
X173285000Y-78655000D03*
X175825000Y-78655000D03*
D15*
X147555000Y-92310000D03*
D16*
X150095000Y-92310000D03*
X152635000Y-92310000D03*
D17*
X158045000Y-105960000D03*
D18*
X158045000Y-103420000D03*
D13*
X184080000Y-92625000D03*
D14*
X186620000Y-92625000D03*
X184080000Y-95165000D03*
X186620000Y-95165000D03*
X184080000Y-97705000D03*
X186620000Y-97705000D03*
D13*
X116135000Y-100245000D03*
D14*
X113595000Y-100245000D03*
X116135000Y-97705000D03*
X113595000Y-97705000D03*
X116135000Y-95165000D03*
X113595000Y-95165000D03*
X116135000Y-92625000D03*
X113595000Y-92625000D03*
D19*
X180270000Y-97705000D03*
D20*
X180270000Y-95165000D03*
X180270000Y-92625000D03*
D19*
X124390000Y-116755000D03*
D20*
X124390000Y-119295000D03*
X124390000Y-121835000D03*
D19*
X120580000Y-116755000D03*
D20*
X120580000Y-119295000D03*
X120580000Y-121835000D03*
D21*
X125660000Y-79925000D03*
D22*
X130660000Y-79925000D03*
D21*
X142805000Y-79925000D03*
D22*
X147805000Y-79925000D03*
D23*
X146465000Y-121890000D03*
X146465000Y-117390000D03*
X152965000Y-121890000D03*
X152965000Y-117390000D03*
X162340000Y-121835000D03*
X162340000Y-117335000D03*
X168840000Y-121835000D03*
X168840000Y-117335000D03*
X172500000Y-121835000D03*
X172500000Y-117335000D03*
X179000000Y-121835000D03*
X179000000Y-117335000D03*
D19*
X119945000Y-92625000D03*
D20*
X119945000Y-95165000D03*
X119945000Y-97705000D03*
X119945000Y-100245000D03*
D13*
X184080000Y-102785000D03*
D14*
X186620000Y-102785000D03*
X184080000Y-105325000D03*
X186620000Y-105325000D03*
X184080000Y-107865000D03*
X186620000Y-107865000D03*
X184080000Y-110405000D03*
X186620000Y-110405000D03*
X184080000Y-112945000D03*
X186620000Y-112945000D03*
D19*
X180270000Y-112945000D03*
D20*
X180270000Y-110405000D03*
X180270000Y-107865000D03*
X180270000Y-105325000D03*
X180270000Y-102785000D03*
D24*
X164395000Y-86910000D03*
D25*
X164395000Y-79290000D03*
D11*
X185000000Y-80000000D03*
D12*
X187400000Y-80000000D03*
X186697056Y-81697056D03*
X185000000Y-82400000D03*
X183302944Y-81697056D03*
X182600000Y-80000000D03*
X183302944Y-78302944D03*
X185000000Y-77600000D03*
X186697056Y-78302944D03*
D26*
X120580000Y-86275000D03*
D24*
X118080000Y-86275000D03*
D26*
X142805000Y-88815000D03*
D24*
X140305000Y-88815000D03*
M02*
