G04 #@! TF.FileFunction,Legend,Top*
%FSLAX46Y46*%
G04 Gerber Fmt 4.6, Leading zero omitted, Abs format (unit mm)*
G04 Created by KiCad (PCBNEW 4.0.7) date Monday, 16 October 2017 'AMt' 00:26:45*
%MOMM*%
%LPD*%
G01*
G04 APERTURE LIST*
%ADD10C,0.100000*%
%ADD11C,0.200000*%
%ADD12C,0.300000*%
%ADD13C,0.120000*%
%ADD14C,0.150000*%
G04 APERTURE END LIST*
D10*
D11*
X123120000Y-85386000D02*
X150552000Y-85386000D01*
D12*
X142257715Y-82445143D02*
X143400572Y-82445143D01*
X142829143Y-83016571D02*
X142829143Y-81873714D01*
X147543429Y-82445143D02*
X148686286Y-82445143D01*
X124985715Y-82445143D02*
X126128572Y-82445143D01*
X125557143Y-83016571D02*
X125557143Y-81873714D01*
X130271429Y-82445143D02*
X131414286Y-82445143D01*
D11*
X136836000Y-75226000D02*
X136836000Y-74972000D01*
X136836000Y-76242000D02*
X136836000Y-75226000D01*
X136836000Y-83354000D02*
X136836000Y-85386000D01*
X136836000Y-80560000D02*
X136836000Y-81068000D01*
X150552000Y-74972000D02*
X150552000Y-85386000D01*
X123120000Y-74972000D02*
X123120000Y-85386000D01*
X136836000Y-78020000D02*
X136836000Y-80560000D01*
D12*
X124414287Y-76436571D02*
X124128573Y-76436571D01*
X123985716Y-76508000D01*
X123914287Y-76579429D01*
X123771430Y-76793714D01*
X123700001Y-77079429D01*
X123700001Y-77650857D01*
X123771430Y-77793714D01*
X123842858Y-77865143D01*
X123985716Y-77936571D01*
X124271430Y-77936571D01*
X124414287Y-77865143D01*
X124485716Y-77793714D01*
X124557144Y-77650857D01*
X124557144Y-77293714D01*
X124485716Y-77150857D01*
X124414287Y-77079429D01*
X124271430Y-77008000D01*
X123985716Y-77008000D01*
X123842858Y-77079429D01*
X123771430Y-77150857D01*
X123700001Y-77293714D01*
X125271429Y-77865143D02*
X125271429Y-77936571D01*
X125200001Y-78079429D01*
X125128572Y-78150857D01*
X126628573Y-76436571D02*
X125914287Y-76436571D01*
X125842858Y-77150857D01*
X125914287Y-77079429D01*
X126057144Y-77008000D01*
X126414287Y-77008000D01*
X126557144Y-77079429D01*
X126628573Y-77150857D01*
X126700001Y-77293714D01*
X126700001Y-77650857D01*
X126628573Y-77793714D01*
X126557144Y-77865143D01*
X126414287Y-77936571D01*
X126057144Y-77936571D01*
X125914287Y-77865143D01*
X125842858Y-77793714D01*
X127342858Y-77365143D02*
X128485715Y-77365143D01*
X129985715Y-77936571D02*
X129128572Y-77936571D01*
X129557144Y-77936571D02*
X129557144Y-76436571D01*
X129414287Y-76650857D01*
X129271429Y-76793714D01*
X129128572Y-76865143D01*
X130557143Y-76579429D02*
X130628572Y-76508000D01*
X130771429Y-76436571D01*
X131128572Y-76436571D01*
X131271429Y-76508000D01*
X131342858Y-76579429D01*
X131414286Y-76722286D01*
X131414286Y-76865143D01*
X131342858Y-77079429D01*
X130485715Y-77936571D01*
X131414286Y-77936571D01*
X131842857Y-76436571D02*
X132342857Y-77936571D01*
X132842857Y-76436571D01*
X145186287Y-76436571D02*
X144472001Y-76436571D01*
X144400572Y-77150857D01*
X144472001Y-77079429D01*
X144614858Y-77008000D01*
X144972001Y-77008000D01*
X145114858Y-77079429D01*
X145186287Y-77150857D01*
X145257715Y-77293714D01*
X145257715Y-77650857D01*
X145186287Y-77793714D01*
X145114858Y-77865143D01*
X144972001Y-77936571D01*
X144614858Y-77936571D01*
X144472001Y-77865143D01*
X144400572Y-77793714D01*
X145686286Y-76436571D02*
X146186286Y-77936571D01*
X146686286Y-76436571D01*
X134514571Y-76426571D02*
X134800285Y-76426571D01*
X134943143Y-76498000D01*
X135086000Y-76640857D01*
X135157428Y-76926571D01*
X135157428Y-77426571D01*
X135086000Y-77712286D01*
X134943143Y-77855143D01*
X134800285Y-77926571D01*
X134514571Y-77926571D01*
X134371714Y-77855143D01*
X134228857Y-77712286D01*
X134157428Y-77426571D01*
X134157428Y-76926571D01*
X134228857Y-76640857D01*
X134371714Y-76498000D01*
X134514571Y-76426571D01*
X135800286Y-77926571D02*
X135800286Y-76426571D01*
X136157429Y-76426571D01*
X136371714Y-76498000D01*
X136514572Y-76640857D01*
X136586000Y-76783714D01*
X136657429Y-77069429D01*
X136657429Y-77283714D01*
X136586000Y-77569429D01*
X136514572Y-77712286D01*
X136371714Y-77855143D01*
X136157429Y-77926571D01*
X135800286Y-77926571D01*
X137300286Y-77140857D02*
X137800286Y-77140857D01*
X138014572Y-77926571D02*
X137300286Y-77926571D01*
X137300286Y-76426571D01*
X138014572Y-76426571D01*
X139514572Y-77926571D02*
X139014572Y-77212286D01*
X138657429Y-77926571D02*
X138657429Y-76426571D01*
X139228857Y-76426571D01*
X139371715Y-76498000D01*
X139443143Y-76569429D01*
X139514572Y-76712286D01*
X139514572Y-76926571D01*
X139443143Y-77069429D01*
X139371715Y-77140857D01*
X139228857Y-77212286D01*
X138657429Y-77212286D01*
X133264573Y-81526571D02*
X134193144Y-81526571D01*
X133693144Y-82098000D01*
X133907430Y-82098000D01*
X134050287Y-82169429D01*
X134121716Y-82240857D01*
X134193144Y-82383714D01*
X134193144Y-82740857D01*
X134121716Y-82883714D01*
X134050287Y-82955143D01*
X133907430Y-83026571D01*
X133478858Y-83026571D01*
X133336001Y-82955143D01*
X133264573Y-82883714D01*
X135121715Y-81526571D02*
X135264572Y-81526571D01*
X135407429Y-81598000D01*
X135478858Y-81669429D01*
X135550287Y-81812286D01*
X135621715Y-82098000D01*
X135621715Y-82455143D01*
X135550287Y-82740857D01*
X135478858Y-82883714D01*
X135407429Y-82955143D01*
X135264572Y-83026571D01*
X135121715Y-83026571D01*
X134978858Y-82955143D01*
X134907429Y-82883714D01*
X134836001Y-82740857D01*
X134764572Y-82455143D01*
X134764572Y-82098000D01*
X134836001Y-81812286D01*
X134907429Y-81669429D01*
X134978858Y-81598000D01*
X135121715Y-81526571D01*
X136550286Y-81526571D02*
X136693143Y-81526571D01*
X136836000Y-81598000D01*
X136907429Y-81669429D01*
X136978858Y-81812286D01*
X137050286Y-82098000D01*
X137050286Y-82455143D01*
X136978858Y-82740857D01*
X136907429Y-82883714D01*
X136836000Y-82955143D01*
X136693143Y-83026571D01*
X136550286Y-83026571D01*
X136407429Y-82955143D01*
X136336000Y-82883714D01*
X136264572Y-82740857D01*
X136193143Y-82455143D01*
X136193143Y-82098000D01*
X136264572Y-81812286D01*
X136336000Y-81669429D01*
X136407429Y-81598000D01*
X136550286Y-81526571D01*
X137693143Y-83026571D02*
X137693143Y-82026571D01*
X137693143Y-82169429D02*
X137764571Y-82098000D01*
X137907429Y-82026571D01*
X138121714Y-82026571D01*
X138264571Y-82098000D01*
X138336000Y-82240857D01*
X138336000Y-83026571D01*
X138336000Y-82240857D02*
X138407429Y-82098000D01*
X138550286Y-82026571D01*
X138764571Y-82026571D01*
X138907429Y-82098000D01*
X138978857Y-82240857D01*
X138978857Y-83026571D01*
X139621714Y-82598000D02*
X140336000Y-82598000D01*
X139478857Y-83026571D02*
X139978857Y-81526571D01*
X140478857Y-83026571D01*
X171540571Y-110039142D02*
X171540571Y-110753428D01*
X170040571Y-110753428D01*
X170754857Y-109539142D02*
X170754857Y-109039142D01*
X171540571Y-108824856D02*
X171540571Y-109539142D01*
X170040571Y-109539142D01*
X170040571Y-108824856D01*
X171540571Y-108181999D02*
X170040571Y-108181999D01*
X170040571Y-107824856D01*
X170112000Y-107610571D01*
X170254857Y-107467713D01*
X170397714Y-107396285D01*
X170683429Y-107324856D01*
X170897714Y-107324856D01*
X171183429Y-107396285D01*
X171326286Y-107467713D01*
X171469143Y-107610571D01*
X171540571Y-107824856D01*
X171540571Y-108181999D01*
X170754857Y-105039142D02*
X170826286Y-104824856D01*
X170897714Y-104753428D01*
X171040571Y-104681999D01*
X171254857Y-104681999D01*
X171397714Y-104753428D01*
X171469143Y-104824856D01*
X171540571Y-104967714D01*
X171540571Y-105539142D01*
X170040571Y-105539142D01*
X170040571Y-105039142D01*
X170112000Y-104896285D01*
X170183429Y-104824856D01*
X170326286Y-104753428D01*
X170469143Y-104753428D01*
X170612000Y-104824856D01*
X170683429Y-104896285D01*
X170754857Y-105039142D01*
X170754857Y-105539142D01*
X171540571Y-103824856D02*
X171469143Y-103967714D01*
X171397714Y-104039142D01*
X171254857Y-104110571D01*
X170826286Y-104110571D01*
X170683429Y-104039142D01*
X170612000Y-103967714D01*
X170540571Y-103824856D01*
X170540571Y-103610571D01*
X170612000Y-103467714D01*
X170683429Y-103396285D01*
X170826286Y-103324856D01*
X171254857Y-103324856D01*
X171397714Y-103396285D01*
X171469143Y-103467714D01*
X171540571Y-103610571D01*
X171540571Y-103824856D01*
X171540571Y-102824856D02*
X170540571Y-102039142D01*
X170540571Y-102824856D02*
X171540571Y-102039142D01*
X170040571Y-100539142D02*
X171540571Y-100039142D01*
X170040571Y-99539142D01*
X171397714Y-99039142D02*
X171469143Y-98967714D01*
X171540571Y-99039142D01*
X171469143Y-99110571D01*
X171397714Y-99039142D01*
X171540571Y-99039142D01*
X170040571Y-98467713D02*
X170040571Y-97539142D01*
X170612000Y-98039142D01*
X170612000Y-97824856D01*
X170683429Y-97681999D01*
X170754857Y-97610570D01*
X170897714Y-97539142D01*
X171254857Y-97539142D01*
X171397714Y-97610570D01*
X171469143Y-97681999D01*
X171540571Y-97824856D01*
X171540571Y-98253428D01*
X171469143Y-98396285D01*
X171397714Y-98467713D01*
X173304857Y-111681999D02*
X173304857Y-112181999D01*
X174090571Y-112181999D02*
X172590571Y-112181999D01*
X172590571Y-111467713D01*
X174090571Y-110253428D02*
X173304857Y-110253428D01*
X173162000Y-110324857D01*
X173090571Y-110467714D01*
X173090571Y-110753428D01*
X173162000Y-110896285D01*
X174019143Y-110253428D02*
X174090571Y-110396285D01*
X174090571Y-110753428D01*
X174019143Y-110896285D01*
X173876286Y-110967714D01*
X173733429Y-110967714D01*
X173590571Y-110896285D01*
X173519143Y-110753428D01*
X173519143Y-110396285D01*
X173447714Y-110253428D01*
X174090571Y-109539142D02*
X172590571Y-109539142D01*
X173162000Y-109539142D02*
X173090571Y-109396285D01*
X173090571Y-109110571D01*
X173162000Y-108967714D01*
X173233429Y-108896285D01*
X173376286Y-108824856D01*
X173804857Y-108824856D01*
X173947714Y-108896285D01*
X174019143Y-108967714D01*
X174090571Y-109110571D01*
X174090571Y-109396285D01*
X174019143Y-109539142D01*
X174090571Y-108181999D02*
X173090571Y-108181999D01*
X172590571Y-108181999D02*
X172662000Y-108253428D01*
X172733429Y-108181999D01*
X172662000Y-108110571D01*
X172590571Y-108181999D01*
X172733429Y-108181999D01*
X174090571Y-106824856D02*
X173304857Y-106824856D01*
X173162000Y-106896285D01*
X173090571Y-107039142D01*
X173090571Y-107324856D01*
X173162000Y-107467713D01*
X174019143Y-106824856D02*
X174090571Y-106967713D01*
X174090571Y-107324856D01*
X174019143Y-107467713D01*
X173876286Y-107539142D01*
X173733429Y-107539142D01*
X173590571Y-107467713D01*
X173519143Y-107324856D01*
X173519143Y-106967713D01*
X173447714Y-106824856D01*
X173090571Y-106110570D02*
X174090571Y-106110570D01*
X173233429Y-106110570D02*
X173162000Y-106039142D01*
X173090571Y-105896284D01*
X173090571Y-105681999D01*
X173162000Y-105539142D01*
X173304857Y-105467713D01*
X174090571Y-105467713D01*
X172662000Y-102824856D02*
X172590571Y-102967713D01*
X172590571Y-103181999D01*
X172662000Y-103396284D01*
X172804857Y-103539142D01*
X172947714Y-103610570D01*
X173233429Y-103681999D01*
X173447714Y-103681999D01*
X173733429Y-103610570D01*
X173876286Y-103539142D01*
X174019143Y-103396284D01*
X174090571Y-103181999D01*
X174090571Y-103039142D01*
X174019143Y-102824856D01*
X173947714Y-102753427D01*
X173447714Y-102753427D01*
X173447714Y-103039142D01*
X174019143Y-101539142D02*
X174090571Y-101681999D01*
X174090571Y-101967713D01*
X174019143Y-102110570D01*
X173876286Y-102181999D01*
X173304857Y-102181999D01*
X173162000Y-102110570D01*
X173090571Y-101967713D01*
X173090571Y-101681999D01*
X173162000Y-101539142D01*
X173304857Y-101467713D01*
X173447714Y-101467713D01*
X173590571Y-102181999D01*
X174090571Y-100824856D02*
X173090571Y-100824856D01*
X172590571Y-100824856D02*
X172662000Y-100896285D01*
X172733429Y-100824856D01*
X172662000Y-100753428D01*
X172590571Y-100824856D01*
X172733429Y-100824856D01*
X174090571Y-100110570D02*
X172876286Y-100110570D01*
X172733429Y-100039142D01*
X172662000Y-99967713D01*
X172590571Y-99824856D01*
X172590571Y-99610570D01*
X172662000Y-99467713D01*
X172733429Y-99396284D01*
X172876286Y-99324856D01*
X173090571Y-99324856D01*
X173090571Y-99539142D01*
X173162000Y-99681999D01*
X173304857Y-99753427D01*
X173376286Y-99753427D01*
X173519143Y-99681999D01*
X173590571Y-99539142D01*
X173590571Y-99324856D01*
X173662000Y-99181999D01*
X173804857Y-99110570D01*
X173876286Y-99110570D01*
X174019143Y-99181999D01*
X174090571Y-99324856D01*
X174090571Y-99610570D01*
X174019143Y-99753427D01*
X174090571Y-98253427D02*
X174019143Y-98396285D01*
X173876286Y-98467713D01*
X172590571Y-98467713D01*
X174019143Y-97110571D02*
X174090571Y-97253428D01*
X174090571Y-97539142D01*
X174019143Y-97681999D01*
X173876286Y-97753428D01*
X173304857Y-97753428D01*
X173162000Y-97681999D01*
X173090571Y-97539142D01*
X173090571Y-97253428D01*
X173162000Y-97110571D01*
X173304857Y-97039142D01*
X173447714Y-97039142D01*
X173590571Y-97753428D01*
X174090571Y-96396285D02*
X173090571Y-96396285D01*
X173376286Y-96396285D02*
X173233429Y-96324857D01*
X173162000Y-96253428D01*
X173090571Y-96110571D01*
X173090571Y-95967714D01*
X176640571Y-109467713D02*
X176640571Y-110324856D01*
X176640571Y-109896284D02*
X175140571Y-109896284D01*
X175354857Y-110039141D01*
X175497714Y-110181999D01*
X175569143Y-110324856D01*
X175140571Y-108110570D02*
X175140571Y-108824856D01*
X175854857Y-108896285D01*
X175783429Y-108824856D01*
X175712000Y-108681999D01*
X175712000Y-108324856D01*
X175783429Y-108181999D01*
X175854857Y-108110570D01*
X175997714Y-108039142D01*
X176354857Y-108039142D01*
X176497714Y-108110570D01*
X176569143Y-108181999D01*
X176640571Y-108324856D01*
X176640571Y-108681999D01*
X176569143Y-108824856D01*
X176497714Y-108896285D01*
X176497714Y-107396285D02*
X176569143Y-107324857D01*
X176640571Y-107396285D01*
X176569143Y-107467714D01*
X176497714Y-107396285D01*
X176640571Y-107396285D01*
X176640571Y-105896285D02*
X176640571Y-106753428D01*
X176640571Y-106324856D02*
X175140571Y-106324856D01*
X175354857Y-106467713D01*
X175497714Y-106610571D01*
X175569143Y-106753428D01*
X175140571Y-104967714D02*
X175140571Y-104824857D01*
X175212000Y-104682000D01*
X175283429Y-104610571D01*
X175426286Y-104539142D01*
X175712000Y-104467714D01*
X176069143Y-104467714D01*
X176354857Y-104539142D01*
X176497714Y-104610571D01*
X176569143Y-104682000D01*
X176640571Y-104824857D01*
X176640571Y-104967714D01*
X176569143Y-105110571D01*
X176497714Y-105182000D01*
X176354857Y-105253428D01*
X176069143Y-105324857D01*
X175712000Y-105324857D01*
X175426286Y-105253428D01*
X175283429Y-105182000D01*
X175212000Y-105110571D01*
X175140571Y-104967714D01*
X176497714Y-103824857D02*
X176569143Y-103753429D01*
X176640571Y-103824857D01*
X176569143Y-103896286D01*
X176497714Y-103824857D01*
X176640571Y-103824857D01*
X175283429Y-103182000D02*
X175212000Y-103110571D01*
X175140571Y-102967714D01*
X175140571Y-102610571D01*
X175212000Y-102467714D01*
X175283429Y-102396285D01*
X175426286Y-102324857D01*
X175569143Y-102324857D01*
X175783429Y-102396285D01*
X176640571Y-103253428D01*
X176640571Y-102324857D01*
X175140571Y-101396286D02*
X175140571Y-101253429D01*
X175212000Y-101110572D01*
X175283429Y-101039143D01*
X175426286Y-100967714D01*
X175712000Y-100896286D01*
X176069143Y-100896286D01*
X176354857Y-100967714D01*
X176497714Y-101039143D01*
X176569143Y-101110572D01*
X176640571Y-101253429D01*
X176640571Y-101396286D01*
X176569143Y-101539143D01*
X176497714Y-101610572D01*
X176354857Y-101682000D01*
X176069143Y-101753429D01*
X175712000Y-101753429D01*
X175426286Y-101682000D01*
X175283429Y-101610572D01*
X175212000Y-101539143D01*
X175140571Y-101396286D01*
X176640571Y-99467715D02*
X176640571Y-100324858D01*
X176640571Y-99896286D02*
X175140571Y-99896286D01*
X175354857Y-100039143D01*
X175497714Y-100182001D01*
X175569143Y-100324858D01*
X175140571Y-98967715D02*
X175140571Y-97967715D01*
X176640571Y-98610572D01*
D13*
X169110000Y-83890000D02*
X169110000Y-88190000D01*
X169110000Y-88190000D02*
X171110000Y-88190000D01*
X171110000Y-88190000D02*
X171110000Y-83890000D01*
X166570000Y-83890000D02*
X166570000Y-88190000D01*
X166570000Y-88190000D02*
X168570000Y-88190000D01*
X168570000Y-88190000D02*
X168570000Y-83890000D01*
D14*
X147282843Y-103000000D02*
G75*
G03X147282843Y-103000000I-282843J0D01*
G01*
X153000000Y-97000000D02*
X147000000Y-97000000D01*
X153000000Y-103000000D02*
X153000000Y-97000000D01*
X148000000Y-103000000D02*
X153000000Y-103000000D01*
X147000000Y-102000000D02*
X148000000Y-103000000D01*
X147000000Y-97000000D02*
X147000000Y-102000000D01*
D13*
X126025000Y-93895000D02*
X126025000Y-89595000D01*
X126025000Y-89595000D02*
X124025000Y-89595000D01*
X124025000Y-89595000D02*
X124025000Y-93895000D01*
D14*
X147465000Y-122890000D02*
X151965000Y-122890000D01*
X146215000Y-118890000D02*
X146215000Y-120390000D01*
X151965000Y-116390000D02*
X147465000Y-116390000D01*
X153215000Y-120390000D02*
X153215000Y-118890000D01*
X163340000Y-122835000D02*
X167840000Y-122835000D01*
X162090000Y-118835000D02*
X162090000Y-120335000D01*
X167840000Y-116335000D02*
X163340000Y-116335000D01*
X169090000Y-120335000D02*
X169090000Y-118835000D01*
X173500000Y-122835000D02*
X178000000Y-122835000D01*
X172250000Y-118835000D02*
X172250000Y-120335000D01*
X178000000Y-116335000D02*
X173500000Y-116335000D01*
X179250000Y-120335000D02*
X179250000Y-118835000D01*
X156605000Y-81795000D02*
X156605000Y-81845000D01*
X160755000Y-81795000D02*
X160755000Y-81940000D01*
X160755000Y-86945000D02*
X160755000Y-86800000D01*
X156605000Y-86945000D02*
X156605000Y-86800000D01*
X156605000Y-81795000D02*
X160755000Y-81795000D01*
X156605000Y-86945000D02*
X160755000Y-86945000D01*
X156605000Y-81845000D02*
X155205000Y-81845000D01*
X135890000Y-94690000D02*
X135890000Y-94715000D01*
X140040000Y-94690000D02*
X140040000Y-94795000D01*
X140040000Y-104840000D02*
X140040000Y-104735000D01*
X135890000Y-104840000D02*
X135890000Y-104735000D01*
X135890000Y-94690000D02*
X140040000Y-94690000D01*
X135890000Y-104840000D02*
X140040000Y-104840000D01*
X135890000Y-94715000D02*
X134515000Y-94715000D01*
X141400380Y-110364360D02*
X153099620Y-110364360D01*
X153099620Y-105365640D02*
X141400380Y-105365640D01*
X153099620Y-110364360D02*
X153099620Y-109516000D01*
X153099620Y-105365640D02*
X153099620Y-106214000D01*
X141400380Y-110364360D02*
X141400380Y-109516000D01*
X141400380Y-105365640D02*
X141400380Y-106214000D01*
X140311524Y-115485000D02*
X140152425Y-115325901D01*
X135185000Y-120611524D02*
X134955190Y-120381714D01*
X130058476Y-115485000D02*
X130288286Y-115714810D01*
X135185000Y-110358476D02*
X135414810Y-110588286D01*
X140311524Y-115485000D02*
X140081714Y-115714810D01*
X135185000Y-110358476D02*
X134955190Y-110588286D01*
X130058476Y-115485000D02*
X130288286Y-115255190D01*
X135185000Y-120611524D02*
X135414810Y-120381714D01*
X140152425Y-115325901D02*
X141160052Y-114318274D01*
X159450000Y-81410000D02*
X160450000Y-81410000D01*
X160450000Y-79710000D02*
X159450000Y-79710000D01*
X164530000Y-92840000D02*
X165530000Y-92840000D01*
X165530000Y-91140000D02*
X164530000Y-91140000D01*
X164530000Y-97920000D02*
X165530000Y-97920000D01*
X165530000Y-96220000D02*
X164530000Y-96220000D01*
X157275000Y-95585000D02*
X156275000Y-95585000D01*
X156275000Y-97285000D02*
X157275000Y-97285000D01*
X157275000Y-91775000D02*
X156275000Y-91775000D01*
X156275000Y-93475000D02*
X157275000Y-93475000D01*
X129476513Y-119991406D02*
X128769406Y-120698513D01*
X129971487Y-121900594D02*
X130678594Y-121193487D01*
X185850000Y-99395000D02*
X184850000Y-99395000D01*
X184850000Y-101095000D02*
X185850000Y-101095000D01*
X141940000Y-112525000D02*
X142940000Y-112525000D01*
X142940000Y-110825000D02*
X141940000Y-110825000D01*
X128447487Y-120376594D02*
X129154594Y-119669487D01*
X127952513Y-118467406D02*
X127245406Y-119174513D01*
X185850000Y-89235000D02*
X184850000Y-89235000D01*
X184850000Y-90935000D02*
X185850000Y-90935000D01*
X114365000Y-103635000D02*
X115365000Y-103635000D01*
X115365000Y-101935000D02*
X114365000Y-101935000D01*
X136082000Y-109350000D02*
X137082000Y-109350000D01*
X137082000Y-107650000D02*
X136082000Y-107650000D01*
X136082000Y-107445000D02*
X137082000Y-107445000D01*
X137082000Y-105745000D02*
X136082000Y-105745000D01*
X124175000Y-87045000D02*
X124175000Y-88045000D01*
X125875000Y-88045000D02*
X125875000Y-87045000D01*
X134335000Y-87045000D02*
X134335000Y-88045000D01*
X136035000Y-88045000D02*
X136035000Y-87045000D01*
X155390000Y-118330000D02*
X155390000Y-121030000D01*
X156890000Y-118330000D02*
X156890000Y-121030000D01*
X155990000Y-119830000D02*
X156240000Y-119830000D01*
X156240000Y-119830000D02*
X156090000Y-119680000D01*
X156490000Y-119580000D02*
X155790000Y-119580000D01*
X156140000Y-119930000D02*
X156140000Y-120280000D01*
X156140000Y-119580000D02*
X156490000Y-119930000D01*
X156490000Y-119930000D02*
X155790000Y-119930000D01*
X155790000Y-119930000D02*
X156140000Y-119580000D01*
X158565000Y-118330000D02*
X158565000Y-121030000D01*
X160065000Y-118330000D02*
X160065000Y-121030000D01*
X159165000Y-119830000D02*
X159415000Y-119830000D01*
X159415000Y-119830000D02*
X159265000Y-119680000D01*
X159665000Y-119580000D02*
X158965000Y-119580000D01*
X159315000Y-119930000D02*
X159315000Y-120280000D01*
X159315000Y-119580000D02*
X159665000Y-119930000D01*
X159665000Y-119930000D02*
X158965000Y-119930000D01*
X158965000Y-119930000D02*
X159315000Y-119580000D01*
X164790000Y-107830000D02*
X164790000Y-106630000D01*
X166540000Y-106630000D02*
X166540000Y-107830000D01*
X169440000Y-90325000D02*
X168240000Y-90325000D01*
X168240000Y-88575000D02*
X169440000Y-88575000D01*
X164430000Y-88575000D02*
X165630000Y-88575000D01*
X165630000Y-90325000D02*
X164430000Y-90325000D01*
X168240000Y-93655000D02*
X169440000Y-93655000D01*
X169440000Y-95405000D02*
X168240000Y-95405000D01*
X164430000Y-93655000D02*
X165630000Y-93655000D01*
X165630000Y-95405000D02*
X164430000Y-95405000D01*
X119345000Y-112705000D02*
X120545000Y-112705000D01*
X120545000Y-114455000D02*
X119345000Y-114455000D01*
X165065000Y-113975000D02*
X166265000Y-113975000D01*
X166265000Y-115725000D02*
X165065000Y-115725000D01*
X175225000Y-113975000D02*
X176425000Y-113975000D01*
X176425000Y-115725000D02*
X175225000Y-115725000D01*
X143080000Y-92540000D02*
X144280000Y-92540000D01*
X144280000Y-94290000D02*
X143080000Y-94290000D01*
X143080000Y-97620000D02*
X144280000Y-97620000D01*
X144280000Y-99370000D02*
X143080000Y-99370000D01*
X143080000Y-100160000D02*
X144280000Y-100160000D01*
X144280000Y-101910000D02*
X143080000Y-101910000D01*
X143080000Y-95080000D02*
X144280000Y-95080000D01*
X144280000Y-96830000D02*
X143080000Y-96830000D01*
X157015000Y-115520000D02*
X157015000Y-116720000D01*
X155265000Y-116720000D02*
X155265000Y-115520000D01*
X160190000Y-114885000D02*
X160190000Y-116085000D01*
X158440000Y-116085000D02*
X158440000Y-114885000D01*
X157375000Y-101120000D02*
X156175000Y-101120000D01*
X156175000Y-99370000D02*
X157375000Y-99370000D01*
X119345000Y-103180000D02*
X120545000Y-103180000D01*
X120545000Y-104930000D02*
X119345000Y-104930000D01*
X119345000Y-106990000D02*
X120545000Y-106990000D01*
X120545000Y-108740000D02*
X119345000Y-108740000D01*
X119345000Y-105085000D02*
X120545000Y-105085000D01*
X120545000Y-106835000D02*
X119345000Y-106835000D01*
D13*
X126695000Y-91995000D02*
X127955000Y-91995000D01*
X133515000Y-91995000D02*
X132255000Y-91995000D01*
X126695000Y-88235000D02*
X126695000Y-91995000D01*
X133515000Y-85985000D02*
X133515000Y-91995000D01*
X163415000Y-86310000D02*
X163085000Y-86310000D01*
X163085000Y-86310000D02*
X163085000Y-79890000D01*
X163085000Y-79890000D02*
X163415000Y-79890000D01*
X165375000Y-86310000D02*
X165705000Y-86310000D01*
X165705000Y-86310000D02*
X165705000Y-79890000D01*
X165705000Y-79890000D02*
X165375000Y-79890000D01*
D14*
X169235000Y-82115000D02*
X169235000Y-80915000D01*
X170985000Y-80915000D02*
X170985000Y-82115000D01*
X168445000Y-79960000D02*
X168445000Y-81160000D01*
X166695000Y-81160000D02*
X166695000Y-79960000D01*
X151580000Y-84675000D02*
X151580000Y-87375000D01*
X153080000Y-84675000D02*
X153080000Y-87375000D01*
X152180000Y-86175000D02*
X152430000Y-86175000D01*
X152430000Y-86175000D02*
X152280000Y-86025000D01*
X152680000Y-85925000D02*
X151980000Y-85925000D01*
X152330000Y-86275000D02*
X152330000Y-86625000D01*
X152330000Y-85925000D02*
X152680000Y-86275000D01*
X152680000Y-86275000D02*
X151980000Y-86275000D01*
X151980000Y-86275000D02*
X152330000Y-85925000D01*
X153205000Y-81865000D02*
X153205000Y-83065000D01*
X151455000Y-83065000D02*
X151455000Y-81865000D01*
D13*
X116312180Y-87454136D02*
G75*
G03X122347482Y-87455000I3017820J1179136D01*
G01*
X116312180Y-85095864D02*
G75*
G02X122347482Y-85095000I3017820J-1179136D01*
G01*
X116312180Y-85095864D02*
G75*
G03X116312518Y-87455000I3017820J-1179136D01*
G01*
X119330000Y-89475000D02*
X119330000Y-83075000D01*
X119290000Y-89475000D02*
X119290000Y-83075000D01*
X119250000Y-89475000D02*
X119250000Y-83075000D01*
X119210000Y-89473000D02*
X119210000Y-83077000D01*
X119170000Y-89472000D02*
X119170000Y-83078000D01*
X119130000Y-89469000D02*
X119130000Y-83081000D01*
X119090000Y-89467000D02*
X119090000Y-83083000D01*
X119050000Y-89463000D02*
X119050000Y-87255000D01*
X119050000Y-85295000D02*
X119050000Y-83087000D01*
X119010000Y-89460000D02*
X119010000Y-87255000D01*
X119010000Y-85295000D02*
X119010000Y-83090000D01*
X118970000Y-89455000D02*
X118970000Y-87255000D01*
X118970000Y-85295000D02*
X118970000Y-83095000D01*
X118930000Y-89451000D02*
X118930000Y-87255000D01*
X118930000Y-85295000D02*
X118930000Y-83099000D01*
X118890000Y-89445000D02*
X118890000Y-87255000D01*
X118890000Y-85295000D02*
X118890000Y-83105000D01*
X118850000Y-89440000D02*
X118850000Y-87255000D01*
X118850000Y-85295000D02*
X118850000Y-83110000D01*
X118810000Y-89433000D02*
X118810000Y-87255000D01*
X118810000Y-85295000D02*
X118810000Y-83117000D01*
X118770000Y-89427000D02*
X118770000Y-87255000D01*
X118770000Y-85295000D02*
X118770000Y-83123000D01*
X118730000Y-89419000D02*
X118730000Y-87255000D01*
X118730000Y-85295000D02*
X118730000Y-83131000D01*
X118690000Y-89412000D02*
X118690000Y-87255000D01*
X118690000Y-85295000D02*
X118690000Y-83138000D01*
X118650000Y-89403000D02*
X118650000Y-87255000D01*
X118650000Y-85295000D02*
X118650000Y-83147000D01*
X118609000Y-89394000D02*
X118609000Y-87255000D01*
X118609000Y-85295000D02*
X118609000Y-83156000D01*
X118569000Y-89385000D02*
X118569000Y-87255000D01*
X118569000Y-85295000D02*
X118569000Y-83165000D01*
X118529000Y-89375000D02*
X118529000Y-87255000D01*
X118529000Y-85295000D02*
X118529000Y-83175000D01*
X118489000Y-89365000D02*
X118489000Y-87255000D01*
X118489000Y-85295000D02*
X118489000Y-83185000D01*
X118449000Y-89354000D02*
X118449000Y-87255000D01*
X118449000Y-85295000D02*
X118449000Y-83196000D01*
X118409000Y-89342000D02*
X118409000Y-87255000D01*
X118409000Y-85295000D02*
X118409000Y-83208000D01*
X118369000Y-89330000D02*
X118369000Y-87255000D01*
X118369000Y-85295000D02*
X118369000Y-83220000D01*
X118329000Y-89317000D02*
X118329000Y-87255000D01*
X118329000Y-85295000D02*
X118329000Y-83233000D01*
X118289000Y-89304000D02*
X118289000Y-87255000D01*
X118289000Y-85295000D02*
X118289000Y-83246000D01*
X118249000Y-89290000D02*
X118249000Y-87255000D01*
X118249000Y-85295000D02*
X118249000Y-83260000D01*
X118209000Y-89276000D02*
X118209000Y-87255000D01*
X118209000Y-85295000D02*
X118209000Y-83274000D01*
X118169000Y-89261000D02*
X118169000Y-87255000D01*
X118169000Y-85295000D02*
X118169000Y-83289000D01*
X118129000Y-89245000D02*
X118129000Y-87255000D01*
X118129000Y-85295000D02*
X118129000Y-83305000D01*
X118089000Y-89229000D02*
X118089000Y-87255000D01*
X118089000Y-85295000D02*
X118089000Y-83321000D01*
X118049000Y-89212000D02*
X118049000Y-87255000D01*
X118049000Y-85295000D02*
X118049000Y-83338000D01*
X118009000Y-89194000D02*
X118009000Y-87255000D01*
X118009000Y-85295000D02*
X118009000Y-83356000D01*
X117969000Y-89176000D02*
X117969000Y-87255000D01*
X117969000Y-85295000D02*
X117969000Y-83374000D01*
X117929000Y-89157000D02*
X117929000Y-87255000D01*
X117929000Y-85295000D02*
X117929000Y-83393000D01*
X117889000Y-89138000D02*
X117889000Y-87255000D01*
X117889000Y-85295000D02*
X117889000Y-83412000D01*
X117849000Y-89118000D02*
X117849000Y-87255000D01*
X117849000Y-85295000D02*
X117849000Y-83432000D01*
X117809000Y-89097000D02*
X117809000Y-87255000D01*
X117809000Y-85295000D02*
X117809000Y-83453000D01*
X117769000Y-89075000D02*
X117769000Y-87255000D01*
X117769000Y-85295000D02*
X117769000Y-83475000D01*
X117729000Y-89053000D02*
X117729000Y-87255000D01*
X117729000Y-85295000D02*
X117729000Y-83497000D01*
X117689000Y-89030000D02*
X117689000Y-87255000D01*
X117689000Y-85295000D02*
X117689000Y-83520000D01*
X117649000Y-89006000D02*
X117649000Y-87255000D01*
X117649000Y-85295000D02*
X117649000Y-83544000D01*
X117609000Y-88981000D02*
X117609000Y-87255000D01*
X117609000Y-85295000D02*
X117609000Y-83569000D01*
X117569000Y-88956000D02*
X117569000Y-87255000D01*
X117569000Y-85295000D02*
X117569000Y-83594000D01*
X117529000Y-88929000D02*
X117529000Y-87255000D01*
X117529000Y-85295000D02*
X117529000Y-83621000D01*
X117489000Y-88902000D02*
X117489000Y-87255000D01*
X117489000Y-85295000D02*
X117489000Y-83648000D01*
X117449000Y-88874000D02*
X117449000Y-87255000D01*
X117449000Y-85295000D02*
X117449000Y-83676000D01*
X117409000Y-88845000D02*
X117409000Y-87255000D01*
X117409000Y-85295000D02*
X117409000Y-83705000D01*
X117369000Y-88815000D02*
X117369000Y-87255000D01*
X117369000Y-85295000D02*
X117369000Y-83735000D01*
X117329000Y-88785000D02*
X117329000Y-87255000D01*
X117329000Y-85295000D02*
X117329000Y-83765000D01*
X117289000Y-88753000D02*
X117289000Y-87255000D01*
X117289000Y-85295000D02*
X117289000Y-83797000D01*
X117249000Y-88720000D02*
X117249000Y-87255000D01*
X117249000Y-85295000D02*
X117249000Y-83830000D01*
X117209000Y-88686000D02*
X117209000Y-87255000D01*
X117209000Y-85295000D02*
X117209000Y-83864000D01*
X117169000Y-88650000D02*
X117169000Y-87255000D01*
X117169000Y-85295000D02*
X117169000Y-83900000D01*
X117129000Y-88614000D02*
X117129000Y-87255000D01*
X117129000Y-85295000D02*
X117129000Y-83936000D01*
X117089000Y-88576000D02*
X117089000Y-83974000D01*
X117049000Y-88537000D02*
X117049000Y-84013000D01*
X117009000Y-88497000D02*
X117009000Y-84053000D01*
X116969000Y-88455000D02*
X116969000Y-84095000D01*
X116929000Y-88412000D02*
X116929000Y-84138000D01*
X116889000Y-88367000D02*
X116889000Y-84183000D01*
X116849000Y-88320000D02*
X116849000Y-84230000D01*
X116809000Y-88272000D02*
X116809000Y-84278000D01*
X116769000Y-88221000D02*
X116769000Y-84329000D01*
X116729000Y-88169000D02*
X116729000Y-84381000D01*
X116689000Y-88114000D02*
X116689000Y-84436000D01*
X116649000Y-88056000D02*
X116649000Y-84494000D01*
X116609000Y-87996000D02*
X116609000Y-84554000D01*
X116569000Y-87933000D02*
X116569000Y-84617000D01*
X116529000Y-87866000D02*
X116529000Y-84684000D01*
X116489000Y-87795000D02*
X116489000Y-84755000D01*
X116449000Y-87720000D02*
X116449000Y-84830000D01*
X116409000Y-87639000D02*
X116409000Y-84911000D01*
X116369000Y-87553000D02*
X116369000Y-84997000D01*
X116329000Y-87459000D02*
X116329000Y-85091000D01*
X116289000Y-87356000D02*
X116289000Y-85194000D01*
X116249000Y-87241000D02*
X116249000Y-85309000D01*
X116209000Y-87109000D02*
X116209000Y-85441000D01*
X116169000Y-86951000D02*
X116169000Y-85599000D01*
X116129000Y-86743000D02*
X116129000Y-85807000D01*
X122780000Y-86275000D02*
X121580000Y-86275000D01*
X122180000Y-86925000D02*
X122180000Y-85625000D01*
X138537180Y-89994136D02*
G75*
G03X144572482Y-89995000I3017820J1179136D01*
G01*
X138537180Y-87635864D02*
G75*
G02X144572482Y-87635000I3017820J-1179136D01*
G01*
X138537180Y-87635864D02*
G75*
G03X138537518Y-89995000I3017820J-1179136D01*
G01*
X141555000Y-92015000D02*
X141555000Y-85615000D01*
X141515000Y-92015000D02*
X141515000Y-85615000D01*
X141475000Y-92015000D02*
X141475000Y-85615000D01*
X141435000Y-92013000D02*
X141435000Y-85617000D01*
X141395000Y-92012000D02*
X141395000Y-85618000D01*
X141355000Y-92009000D02*
X141355000Y-85621000D01*
X141315000Y-92007000D02*
X141315000Y-85623000D01*
X141275000Y-92003000D02*
X141275000Y-89795000D01*
X141275000Y-87835000D02*
X141275000Y-85627000D01*
X141235000Y-92000000D02*
X141235000Y-89795000D01*
X141235000Y-87835000D02*
X141235000Y-85630000D01*
X141195000Y-91995000D02*
X141195000Y-89795000D01*
X141195000Y-87835000D02*
X141195000Y-85635000D01*
X141155000Y-91991000D02*
X141155000Y-89795000D01*
X141155000Y-87835000D02*
X141155000Y-85639000D01*
X141115000Y-91985000D02*
X141115000Y-89795000D01*
X141115000Y-87835000D02*
X141115000Y-85645000D01*
X141075000Y-91980000D02*
X141075000Y-89795000D01*
X141075000Y-87835000D02*
X141075000Y-85650000D01*
X141035000Y-91973000D02*
X141035000Y-89795000D01*
X141035000Y-87835000D02*
X141035000Y-85657000D01*
X140995000Y-91967000D02*
X140995000Y-89795000D01*
X140995000Y-87835000D02*
X140995000Y-85663000D01*
X140955000Y-91959000D02*
X140955000Y-89795000D01*
X140955000Y-87835000D02*
X140955000Y-85671000D01*
X140915000Y-91952000D02*
X140915000Y-89795000D01*
X140915000Y-87835000D02*
X140915000Y-85678000D01*
X140875000Y-91943000D02*
X140875000Y-89795000D01*
X140875000Y-87835000D02*
X140875000Y-85687000D01*
X140834000Y-91934000D02*
X140834000Y-89795000D01*
X140834000Y-87835000D02*
X140834000Y-85696000D01*
X140794000Y-91925000D02*
X140794000Y-89795000D01*
X140794000Y-87835000D02*
X140794000Y-85705000D01*
X140754000Y-91915000D02*
X140754000Y-89795000D01*
X140754000Y-87835000D02*
X140754000Y-85715000D01*
X140714000Y-91905000D02*
X140714000Y-89795000D01*
X140714000Y-87835000D02*
X140714000Y-85725000D01*
X140674000Y-91894000D02*
X140674000Y-89795000D01*
X140674000Y-87835000D02*
X140674000Y-85736000D01*
X140634000Y-91882000D02*
X140634000Y-89795000D01*
X140634000Y-87835000D02*
X140634000Y-85748000D01*
X140594000Y-91870000D02*
X140594000Y-89795000D01*
X140594000Y-87835000D02*
X140594000Y-85760000D01*
X140554000Y-91857000D02*
X140554000Y-89795000D01*
X140554000Y-87835000D02*
X140554000Y-85773000D01*
X140514000Y-91844000D02*
X140514000Y-89795000D01*
X140514000Y-87835000D02*
X140514000Y-85786000D01*
X140474000Y-91830000D02*
X140474000Y-89795000D01*
X140474000Y-87835000D02*
X140474000Y-85800000D01*
X140434000Y-91816000D02*
X140434000Y-89795000D01*
X140434000Y-87835000D02*
X140434000Y-85814000D01*
X140394000Y-91801000D02*
X140394000Y-89795000D01*
X140394000Y-87835000D02*
X140394000Y-85829000D01*
X140354000Y-91785000D02*
X140354000Y-89795000D01*
X140354000Y-87835000D02*
X140354000Y-85845000D01*
X140314000Y-91769000D02*
X140314000Y-89795000D01*
X140314000Y-87835000D02*
X140314000Y-85861000D01*
X140274000Y-91752000D02*
X140274000Y-89795000D01*
X140274000Y-87835000D02*
X140274000Y-85878000D01*
X140234000Y-91734000D02*
X140234000Y-89795000D01*
X140234000Y-87835000D02*
X140234000Y-85896000D01*
X140194000Y-91716000D02*
X140194000Y-89795000D01*
X140194000Y-87835000D02*
X140194000Y-85914000D01*
X140154000Y-91697000D02*
X140154000Y-89795000D01*
X140154000Y-87835000D02*
X140154000Y-85933000D01*
X140114000Y-91678000D02*
X140114000Y-89795000D01*
X140114000Y-87835000D02*
X140114000Y-85952000D01*
X140074000Y-91658000D02*
X140074000Y-89795000D01*
X140074000Y-87835000D02*
X140074000Y-85972000D01*
X140034000Y-91637000D02*
X140034000Y-89795000D01*
X140034000Y-87835000D02*
X140034000Y-85993000D01*
X139994000Y-91615000D02*
X139994000Y-89795000D01*
X139994000Y-87835000D02*
X139994000Y-86015000D01*
X139954000Y-91593000D02*
X139954000Y-89795000D01*
X139954000Y-87835000D02*
X139954000Y-86037000D01*
X139914000Y-91570000D02*
X139914000Y-89795000D01*
X139914000Y-87835000D02*
X139914000Y-86060000D01*
X139874000Y-91546000D02*
X139874000Y-89795000D01*
X139874000Y-87835000D02*
X139874000Y-86084000D01*
X139834000Y-91521000D02*
X139834000Y-89795000D01*
X139834000Y-87835000D02*
X139834000Y-86109000D01*
X139794000Y-91496000D02*
X139794000Y-89795000D01*
X139794000Y-87835000D02*
X139794000Y-86134000D01*
X139754000Y-91469000D02*
X139754000Y-89795000D01*
X139754000Y-87835000D02*
X139754000Y-86161000D01*
X139714000Y-91442000D02*
X139714000Y-89795000D01*
X139714000Y-87835000D02*
X139714000Y-86188000D01*
X139674000Y-91414000D02*
X139674000Y-89795000D01*
X139674000Y-87835000D02*
X139674000Y-86216000D01*
X139634000Y-91385000D02*
X139634000Y-89795000D01*
X139634000Y-87835000D02*
X139634000Y-86245000D01*
X139594000Y-91355000D02*
X139594000Y-89795000D01*
X139594000Y-87835000D02*
X139594000Y-86275000D01*
X139554000Y-91325000D02*
X139554000Y-89795000D01*
X139554000Y-87835000D02*
X139554000Y-86305000D01*
X139514000Y-91293000D02*
X139514000Y-89795000D01*
X139514000Y-87835000D02*
X139514000Y-86337000D01*
X139474000Y-91260000D02*
X139474000Y-89795000D01*
X139474000Y-87835000D02*
X139474000Y-86370000D01*
X139434000Y-91226000D02*
X139434000Y-89795000D01*
X139434000Y-87835000D02*
X139434000Y-86404000D01*
X139394000Y-91190000D02*
X139394000Y-89795000D01*
X139394000Y-87835000D02*
X139394000Y-86440000D01*
X139354000Y-91154000D02*
X139354000Y-89795000D01*
X139354000Y-87835000D02*
X139354000Y-86476000D01*
X139314000Y-91116000D02*
X139314000Y-86514000D01*
X139274000Y-91077000D02*
X139274000Y-86553000D01*
X139234000Y-91037000D02*
X139234000Y-86593000D01*
X139194000Y-90995000D02*
X139194000Y-86635000D01*
X139154000Y-90952000D02*
X139154000Y-86678000D01*
X139114000Y-90907000D02*
X139114000Y-86723000D01*
X139074000Y-90860000D02*
X139074000Y-86770000D01*
X139034000Y-90812000D02*
X139034000Y-86818000D01*
X138994000Y-90761000D02*
X138994000Y-86869000D01*
X138954000Y-90709000D02*
X138954000Y-86921000D01*
X138914000Y-90654000D02*
X138914000Y-86976000D01*
X138874000Y-90596000D02*
X138874000Y-87034000D01*
X138834000Y-90536000D02*
X138834000Y-87094000D01*
X138794000Y-90473000D02*
X138794000Y-87157000D01*
X138754000Y-90406000D02*
X138754000Y-87224000D01*
X138714000Y-90335000D02*
X138714000Y-87295000D01*
X138674000Y-90260000D02*
X138674000Y-87370000D01*
X138634000Y-90179000D02*
X138634000Y-87451000D01*
X138594000Y-90093000D02*
X138594000Y-87537000D01*
X138554000Y-89999000D02*
X138554000Y-87631000D01*
X138514000Y-89896000D02*
X138514000Y-87734000D01*
X138474000Y-89781000D02*
X138474000Y-87849000D01*
X138434000Y-89649000D02*
X138434000Y-87981000D01*
X138394000Y-89491000D02*
X138394000Y-88139000D01*
X138354000Y-89283000D02*
X138354000Y-88347000D01*
X145005000Y-88815000D02*
X143805000Y-88815000D01*
X144405000Y-89465000D02*
X144405000Y-88165000D01*
D14*
X171832381Y-91648476D02*
X170832381Y-91648476D01*
X170832381Y-91410381D01*
X170880000Y-91267523D01*
X170975238Y-91172285D01*
X171070476Y-91124666D01*
X171260952Y-91077047D01*
X171403810Y-91077047D01*
X171594286Y-91124666D01*
X171689524Y-91172285D01*
X171784762Y-91267523D01*
X171832381Y-91410381D01*
X171832381Y-91648476D01*
X170927619Y-90696095D02*
X170880000Y-90648476D01*
X170832381Y-90553238D01*
X170832381Y-90315142D01*
X170880000Y-90219904D01*
X170927619Y-90172285D01*
X171022857Y-90124666D01*
X171118095Y-90124666D01*
X171260952Y-90172285D01*
X171832381Y-90743714D01*
X171832381Y-90124666D01*
X170832381Y-89505619D02*
X170832381Y-89410380D01*
X170880000Y-89315142D01*
X170927619Y-89267523D01*
X171022857Y-89219904D01*
X171213333Y-89172285D01*
X171451429Y-89172285D01*
X171641905Y-89219904D01*
X171737143Y-89267523D01*
X171784762Y-89315142D01*
X171832381Y-89410380D01*
X171832381Y-89505619D01*
X171784762Y-89600857D01*
X171737143Y-89648476D01*
X171641905Y-89696095D01*
X171451429Y-89743714D01*
X171213333Y-89743714D01*
X171022857Y-89696095D01*
X170927619Y-89648476D01*
X170880000Y-89600857D01*
X170832381Y-89505619D01*
X171832381Y-88219904D02*
X171832381Y-88791333D01*
X171832381Y-88505619D02*
X170832381Y-88505619D01*
X170975238Y-88600857D01*
X171070476Y-88696095D01*
X171118095Y-88791333D01*
X166498381Y-87584476D02*
X165498381Y-87584476D01*
X165498381Y-87346381D01*
X165546000Y-87203523D01*
X165641238Y-87108285D01*
X165736476Y-87060666D01*
X165926952Y-87013047D01*
X166069810Y-87013047D01*
X166260286Y-87060666D01*
X166355524Y-87108285D01*
X166450762Y-87203523D01*
X166498381Y-87346381D01*
X166498381Y-87584476D01*
X165593619Y-86632095D02*
X165546000Y-86584476D01*
X165498381Y-86489238D01*
X165498381Y-86251142D01*
X165546000Y-86155904D01*
X165593619Y-86108285D01*
X165688857Y-86060666D01*
X165784095Y-86060666D01*
X165926952Y-86108285D01*
X166498381Y-86679714D01*
X166498381Y-86060666D01*
X165498381Y-85441619D02*
X165498381Y-85346380D01*
X165546000Y-85251142D01*
X165593619Y-85203523D01*
X165688857Y-85155904D01*
X165879333Y-85108285D01*
X166117429Y-85108285D01*
X166307905Y-85155904D01*
X166403143Y-85203523D01*
X166450762Y-85251142D01*
X166498381Y-85346380D01*
X166498381Y-85441619D01*
X166450762Y-85536857D01*
X166403143Y-85584476D01*
X166307905Y-85632095D01*
X166117429Y-85679714D01*
X165879333Y-85679714D01*
X165688857Y-85632095D01*
X165593619Y-85584476D01*
X165546000Y-85536857D01*
X165498381Y-85441619D01*
X165593619Y-84727333D02*
X165546000Y-84679714D01*
X165498381Y-84584476D01*
X165498381Y-84346380D01*
X165546000Y-84251142D01*
X165593619Y-84203523D01*
X165688857Y-84155904D01*
X165784095Y-84155904D01*
X165926952Y-84203523D01*
X166498381Y-84774952D01*
X166498381Y-84155904D01*
X149623524Y-104380381D02*
X149623524Y-103380381D01*
X149861619Y-103380381D01*
X150004477Y-103428000D01*
X150099715Y-103523238D01*
X150147334Y-103618476D01*
X150194953Y-103808952D01*
X150194953Y-103951810D01*
X150147334Y-104142286D01*
X150099715Y-104237524D01*
X150004477Y-104332762D01*
X149861619Y-104380381D01*
X149623524Y-104380381D01*
X150528286Y-103380381D02*
X151147334Y-103380381D01*
X150814000Y-103761333D01*
X150956858Y-103761333D01*
X151052096Y-103808952D01*
X151099715Y-103856571D01*
X151147334Y-103951810D01*
X151147334Y-104189905D01*
X151099715Y-104285143D01*
X151052096Y-104332762D01*
X150956858Y-104380381D01*
X150671143Y-104380381D01*
X150575905Y-104332762D01*
X150528286Y-104285143D01*
X151766381Y-103380381D02*
X151861620Y-103380381D01*
X151956858Y-103428000D01*
X152004477Y-103475619D01*
X152052096Y-103570857D01*
X152099715Y-103761333D01*
X152099715Y-103999429D01*
X152052096Y-104189905D01*
X152004477Y-104285143D01*
X151956858Y-104332762D01*
X151861620Y-104380381D01*
X151766381Y-104380381D01*
X151671143Y-104332762D01*
X151623524Y-104285143D01*
X151575905Y-104189905D01*
X151528286Y-103999429D01*
X151528286Y-103761333D01*
X151575905Y-103570857D01*
X151623524Y-103475619D01*
X151671143Y-103428000D01*
X151766381Y-103380381D01*
X153052096Y-104380381D02*
X152480667Y-104380381D01*
X152766381Y-104380381D02*
X152766381Y-103380381D01*
X152671143Y-103523238D01*
X152575905Y-103618476D01*
X152480667Y-103666095D01*
X123826381Y-93835476D02*
X122826381Y-93835476D01*
X122826381Y-93597381D01*
X122874000Y-93454523D01*
X122969238Y-93359285D01*
X123064476Y-93311666D01*
X123254952Y-93264047D01*
X123397810Y-93264047D01*
X123588286Y-93311666D01*
X123683524Y-93359285D01*
X123778762Y-93454523D01*
X123826381Y-93597381D01*
X123826381Y-93835476D01*
X122826381Y-92359285D02*
X122826381Y-92835476D01*
X123302571Y-92883095D01*
X123254952Y-92835476D01*
X123207333Y-92740238D01*
X123207333Y-92502142D01*
X123254952Y-92406904D01*
X123302571Y-92359285D01*
X123397810Y-92311666D01*
X123635905Y-92311666D01*
X123731143Y-92359285D01*
X123778762Y-92406904D01*
X123826381Y-92502142D01*
X123826381Y-92740238D01*
X123778762Y-92835476D01*
X123731143Y-92883095D01*
X122826381Y-91692619D02*
X122826381Y-91597380D01*
X122874000Y-91502142D01*
X122921619Y-91454523D01*
X123016857Y-91406904D01*
X123207333Y-91359285D01*
X123445429Y-91359285D01*
X123635905Y-91406904D01*
X123731143Y-91454523D01*
X123778762Y-91502142D01*
X123826381Y-91597380D01*
X123826381Y-91692619D01*
X123778762Y-91787857D01*
X123731143Y-91835476D01*
X123635905Y-91883095D01*
X123445429Y-91930714D01*
X123207333Y-91930714D01*
X123016857Y-91883095D01*
X122921619Y-91835476D01*
X122874000Y-91787857D01*
X122826381Y-91692619D01*
X123826381Y-90406904D02*
X123826381Y-90978333D01*
X123826381Y-90692619D02*
X122826381Y-90692619D01*
X122969238Y-90787857D01*
X123064476Y-90883095D01*
X123112095Y-90978333D01*
X144860762Y-121961714D02*
X144908381Y-121818857D01*
X144908381Y-121580761D01*
X144860762Y-121485523D01*
X144813143Y-121437904D01*
X144717905Y-121390285D01*
X144622667Y-121390285D01*
X144527429Y-121437904D01*
X144479810Y-121485523D01*
X144432190Y-121580761D01*
X144384571Y-121771238D01*
X144336952Y-121866476D01*
X144289333Y-121914095D01*
X144194095Y-121961714D01*
X144098857Y-121961714D01*
X144003619Y-121914095D01*
X143956000Y-121866476D01*
X143908381Y-121771238D01*
X143908381Y-121533142D01*
X143956000Y-121390285D01*
X143908381Y-121056952D02*
X144908381Y-120818857D01*
X144194095Y-120628380D01*
X144908381Y-120437904D01*
X143908381Y-120199809D01*
X143908381Y-119914095D02*
X143908381Y-119295047D01*
X144289333Y-119628381D01*
X144289333Y-119485523D01*
X144336952Y-119390285D01*
X144384571Y-119342666D01*
X144479810Y-119295047D01*
X144717905Y-119295047D01*
X144813143Y-119342666D01*
X144860762Y-119390285D01*
X144908381Y-119485523D01*
X144908381Y-119771238D01*
X144860762Y-119866476D01*
X144813143Y-119914095D01*
X143908381Y-118676000D02*
X143908381Y-118580761D01*
X143956000Y-118485523D01*
X144003619Y-118437904D01*
X144098857Y-118390285D01*
X144289333Y-118342666D01*
X144527429Y-118342666D01*
X144717905Y-118390285D01*
X144813143Y-118437904D01*
X144860762Y-118485523D01*
X144908381Y-118580761D01*
X144908381Y-118676000D01*
X144860762Y-118771238D01*
X144813143Y-118818857D01*
X144717905Y-118866476D01*
X144527429Y-118914095D01*
X144289333Y-118914095D01*
X144098857Y-118866476D01*
X144003619Y-118818857D01*
X143956000Y-118771238D01*
X143908381Y-118676000D01*
X144908381Y-117390285D02*
X144908381Y-117961714D01*
X144908381Y-117676000D02*
X143908381Y-117676000D01*
X144051238Y-117771238D01*
X144146476Y-117866476D01*
X144194095Y-117961714D01*
X148551905Y-124446381D02*
X148218571Y-123970190D01*
X147980476Y-124446381D02*
X147980476Y-123446381D01*
X148361429Y-123446381D01*
X148456667Y-123494000D01*
X148504286Y-123541619D01*
X148551905Y-123636857D01*
X148551905Y-123779714D01*
X148504286Y-123874952D01*
X148456667Y-123922571D01*
X148361429Y-123970190D01*
X147980476Y-123970190D01*
X149361429Y-124398762D02*
X149266191Y-124446381D01*
X149075714Y-124446381D01*
X148980476Y-124398762D01*
X148932857Y-124303524D01*
X148932857Y-123922571D01*
X148980476Y-123827333D01*
X149075714Y-123779714D01*
X149266191Y-123779714D01*
X149361429Y-123827333D01*
X149409048Y-123922571D01*
X149409048Y-124017810D01*
X148932857Y-124113048D01*
X149790000Y-124398762D02*
X149885238Y-124446381D01*
X150075714Y-124446381D01*
X150170953Y-124398762D01*
X150218572Y-124303524D01*
X150218572Y-124255905D01*
X150170953Y-124160667D01*
X150075714Y-124113048D01*
X149932857Y-124113048D01*
X149837619Y-124065429D01*
X149790000Y-123970190D01*
X149790000Y-123922571D01*
X149837619Y-123827333D01*
X149932857Y-123779714D01*
X150075714Y-123779714D01*
X150170953Y-123827333D01*
X151028096Y-124398762D02*
X150932858Y-124446381D01*
X150742381Y-124446381D01*
X150647143Y-124398762D01*
X150599524Y-124303524D01*
X150599524Y-123922571D01*
X150647143Y-123827333D01*
X150742381Y-123779714D01*
X150932858Y-123779714D01*
X151028096Y-123827333D01*
X151075715Y-123922571D01*
X151075715Y-124017810D01*
X150599524Y-124113048D01*
X151361429Y-123779714D02*
X151742381Y-123779714D01*
X151504286Y-123446381D02*
X151504286Y-124303524D01*
X151551905Y-124398762D01*
X151647143Y-124446381D01*
X151742381Y-124446381D01*
X171022762Y-121961714D02*
X171070381Y-121818857D01*
X171070381Y-121580761D01*
X171022762Y-121485523D01*
X170975143Y-121437904D01*
X170879905Y-121390285D01*
X170784667Y-121390285D01*
X170689429Y-121437904D01*
X170641810Y-121485523D01*
X170594190Y-121580761D01*
X170546571Y-121771238D01*
X170498952Y-121866476D01*
X170451333Y-121914095D01*
X170356095Y-121961714D01*
X170260857Y-121961714D01*
X170165619Y-121914095D01*
X170118000Y-121866476D01*
X170070381Y-121771238D01*
X170070381Y-121533142D01*
X170118000Y-121390285D01*
X170070381Y-121056952D02*
X171070381Y-120818857D01*
X170356095Y-120628380D01*
X171070381Y-120437904D01*
X170070381Y-120199809D01*
X170070381Y-119914095D02*
X170070381Y-119295047D01*
X170451333Y-119628381D01*
X170451333Y-119485523D01*
X170498952Y-119390285D01*
X170546571Y-119342666D01*
X170641810Y-119295047D01*
X170879905Y-119295047D01*
X170975143Y-119342666D01*
X171022762Y-119390285D01*
X171070381Y-119485523D01*
X171070381Y-119771238D01*
X171022762Y-119866476D01*
X170975143Y-119914095D01*
X170070381Y-118676000D02*
X170070381Y-118580761D01*
X170118000Y-118485523D01*
X170165619Y-118437904D01*
X170260857Y-118390285D01*
X170451333Y-118342666D01*
X170689429Y-118342666D01*
X170879905Y-118390285D01*
X170975143Y-118437904D01*
X171022762Y-118485523D01*
X171070381Y-118580761D01*
X171070381Y-118676000D01*
X171022762Y-118771238D01*
X170975143Y-118818857D01*
X170879905Y-118866476D01*
X170689429Y-118914095D01*
X170451333Y-118914095D01*
X170260857Y-118866476D01*
X170165619Y-118818857D01*
X170118000Y-118771238D01*
X170070381Y-118676000D01*
X170165619Y-117961714D02*
X170118000Y-117914095D01*
X170070381Y-117818857D01*
X170070381Y-117580761D01*
X170118000Y-117485523D01*
X170165619Y-117437904D01*
X170260857Y-117390285D01*
X170356095Y-117390285D01*
X170498952Y-117437904D01*
X171070381Y-118009333D01*
X171070381Y-117390285D01*
X163661428Y-124487381D02*
X163661428Y-123487381D01*
X164042381Y-123487381D01*
X164137619Y-123535000D01*
X164185238Y-123582619D01*
X164232857Y-123677857D01*
X164232857Y-123820714D01*
X164185238Y-123915952D01*
X164137619Y-123963571D01*
X164042381Y-124011190D01*
X163661428Y-124011190D01*
X165090000Y-123820714D02*
X165090000Y-124487381D01*
X164661428Y-123820714D02*
X164661428Y-124344524D01*
X164709047Y-124439762D01*
X164804285Y-124487381D01*
X164947143Y-124487381D01*
X165042381Y-124439762D01*
X165090000Y-124392143D01*
X165518571Y-124439762D02*
X165613809Y-124487381D01*
X165804285Y-124487381D01*
X165899524Y-124439762D01*
X165947143Y-124344524D01*
X165947143Y-124296905D01*
X165899524Y-124201667D01*
X165804285Y-124154048D01*
X165661428Y-124154048D01*
X165566190Y-124106429D01*
X165518571Y-124011190D01*
X165518571Y-123963571D01*
X165566190Y-123868333D01*
X165661428Y-123820714D01*
X165804285Y-123820714D01*
X165899524Y-123868333D01*
X166375714Y-124487381D02*
X166375714Y-123487381D01*
X166804286Y-124487381D02*
X166804286Y-123963571D01*
X166756667Y-123868333D01*
X166661429Y-123820714D01*
X166518571Y-123820714D01*
X166423333Y-123868333D01*
X166375714Y-123915952D01*
X168566191Y-124487381D02*
X167994762Y-124487381D01*
X168280476Y-124487381D02*
X168280476Y-123487381D01*
X168185238Y-123630238D01*
X168090000Y-123725476D01*
X167994762Y-123773095D01*
X181182762Y-121961714D02*
X181230381Y-121818857D01*
X181230381Y-121580761D01*
X181182762Y-121485523D01*
X181135143Y-121437904D01*
X181039905Y-121390285D01*
X180944667Y-121390285D01*
X180849429Y-121437904D01*
X180801810Y-121485523D01*
X180754190Y-121580761D01*
X180706571Y-121771238D01*
X180658952Y-121866476D01*
X180611333Y-121914095D01*
X180516095Y-121961714D01*
X180420857Y-121961714D01*
X180325619Y-121914095D01*
X180278000Y-121866476D01*
X180230381Y-121771238D01*
X180230381Y-121533142D01*
X180278000Y-121390285D01*
X180230381Y-121056952D02*
X181230381Y-120818857D01*
X180516095Y-120628380D01*
X181230381Y-120437904D01*
X180230381Y-120199809D01*
X180230381Y-119914095D02*
X180230381Y-119295047D01*
X180611333Y-119628381D01*
X180611333Y-119485523D01*
X180658952Y-119390285D01*
X180706571Y-119342666D01*
X180801810Y-119295047D01*
X181039905Y-119295047D01*
X181135143Y-119342666D01*
X181182762Y-119390285D01*
X181230381Y-119485523D01*
X181230381Y-119771238D01*
X181182762Y-119866476D01*
X181135143Y-119914095D01*
X180230381Y-118676000D02*
X180230381Y-118580761D01*
X180278000Y-118485523D01*
X180325619Y-118437904D01*
X180420857Y-118390285D01*
X180611333Y-118342666D01*
X180849429Y-118342666D01*
X181039905Y-118390285D01*
X181135143Y-118437904D01*
X181182762Y-118485523D01*
X181230381Y-118580761D01*
X181230381Y-118676000D01*
X181182762Y-118771238D01*
X181135143Y-118818857D01*
X181039905Y-118866476D01*
X180849429Y-118914095D01*
X180611333Y-118914095D01*
X180420857Y-118866476D01*
X180325619Y-118818857D01*
X180278000Y-118771238D01*
X180230381Y-118676000D01*
X180230381Y-118009333D02*
X180230381Y-117390285D01*
X180611333Y-117723619D01*
X180611333Y-117580761D01*
X180658952Y-117485523D01*
X180706571Y-117437904D01*
X180801810Y-117390285D01*
X181039905Y-117390285D01*
X181135143Y-117437904D01*
X181182762Y-117485523D01*
X181230381Y-117580761D01*
X181230381Y-117866476D01*
X181182762Y-117961714D01*
X181135143Y-118009333D01*
X173821428Y-124487381D02*
X173821428Y-123487381D01*
X174202381Y-123487381D01*
X174297619Y-123535000D01*
X174345238Y-123582619D01*
X174392857Y-123677857D01*
X174392857Y-123820714D01*
X174345238Y-123915952D01*
X174297619Y-123963571D01*
X174202381Y-124011190D01*
X173821428Y-124011190D01*
X175250000Y-123820714D02*
X175250000Y-124487381D01*
X174821428Y-123820714D02*
X174821428Y-124344524D01*
X174869047Y-124439762D01*
X174964285Y-124487381D01*
X175107143Y-124487381D01*
X175202381Y-124439762D01*
X175250000Y-124392143D01*
X175678571Y-124439762D02*
X175773809Y-124487381D01*
X175964285Y-124487381D01*
X176059524Y-124439762D01*
X176107143Y-124344524D01*
X176107143Y-124296905D01*
X176059524Y-124201667D01*
X175964285Y-124154048D01*
X175821428Y-124154048D01*
X175726190Y-124106429D01*
X175678571Y-124011190D01*
X175678571Y-123963571D01*
X175726190Y-123868333D01*
X175821428Y-123820714D01*
X175964285Y-123820714D01*
X176059524Y-123868333D01*
X176535714Y-124487381D02*
X176535714Y-123487381D01*
X176964286Y-124487381D02*
X176964286Y-123963571D01*
X176916667Y-123868333D01*
X176821429Y-123820714D01*
X176678571Y-123820714D01*
X176583333Y-123868333D01*
X176535714Y-123915952D01*
X178154762Y-123582619D02*
X178202381Y-123535000D01*
X178297619Y-123487381D01*
X178535715Y-123487381D01*
X178630953Y-123535000D01*
X178678572Y-123582619D01*
X178726191Y-123677857D01*
X178726191Y-123773095D01*
X178678572Y-123915952D01*
X178107143Y-124487381D01*
X178726191Y-124487381D01*
X156965714Y-87124381D02*
X156965714Y-87933905D01*
X157013333Y-88029143D01*
X157060952Y-88076762D01*
X157156190Y-88124381D01*
X157346667Y-88124381D01*
X157441905Y-88076762D01*
X157489524Y-88029143D01*
X157537143Y-87933905D01*
X157537143Y-87124381D01*
X157965714Y-87219619D02*
X158013333Y-87172000D01*
X158108571Y-87124381D01*
X158346667Y-87124381D01*
X158441905Y-87172000D01*
X158489524Y-87219619D01*
X158537143Y-87314857D01*
X158537143Y-87410095D01*
X158489524Y-87552952D01*
X157918095Y-88124381D01*
X158537143Y-88124381D01*
X159156190Y-87124381D02*
X159251429Y-87124381D01*
X159346667Y-87172000D01*
X159394286Y-87219619D01*
X159441905Y-87314857D01*
X159489524Y-87505333D01*
X159489524Y-87743429D01*
X159441905Y-87933905D01*
X159394286Y-88029143D01*
X159346667Y-88076762D01*
X159251429Y-88124381D01*
X159156190Y-88124381D01*
X159060952Y-88076762D01*
X159013333Y-88029143D01*
X158965714Y-87933905D01*
X158918095Y-87743429D01*
X158918095Y-87505333D01*
X158965714Y-87314857D01*
X159013333Y-87219619D01*
X159060952Y-87172000D01*
X159156190Y-87124381D01*
X160441905Y-88124381D02*
X159870476Y-88124381D01*
X160156190Y-88124381D02*
X160156190Y-87124381D01*
X160060952Y-87267238D01*
X159965714Y-87362476D01*
X159870476Y-87410095D01*
X133851714Y-93217381D02*
X133851714Y-94026905D01*
X133899333Y-94122143D01*
X133946952Y-94169762D01*
X134042190Y-94217381D01*
X134232667Y-94217381D01*
X134327905Y-94169762D01*
X134375524Y-94122143D01*
X134423143Y-94026905D01*
X134423143Y-93217381D01*
X134804095Y-93217381D02*
X135423143Y-93217381D01*
X135089809Y-93598333D01*
X135232667Y-93598333D01*
X135327905Y-93645952D01*
X135375524Y-93693571D01*
X135423143Y-93788810D01*
X135423143Y-94026905D01*
X135375524Y-94122143D01*
X135327905Y-94169762D01*
X135232667Y-94217381D01*
X134946952Y-94217381D01*
X134851714Y-94169762D01*
X134804095Y-94122143D01*
X136042190Y-93217381D02*
X136137429Y-93217381D01*
X136232667Y-93265000D01*
X136280286Y-93312619D01*
X136327905Y-93407857D01*
X136375524Y-93598333D01*
X136375524Y-93836429D01*
X136327905Y-94026905D01*
X136280286Y-94122143D01*
X136232667Y-94169762D01*
X136137429Y-94217381D01*
X136042190Y-94217381D01*
X135946952Y-94169762D01*
X135899333Y-94122143D01*
X135851714Y-94026905D01*
X135804095Y-93836429D01*
X135804095Y-93598333D01*
X135851714Y-93407857D01*
X135899333Y-93312619D01*
X135946952Y-93265000D01*
X136042190Y-93217381D01*
X137327905Y-94217381D02*
X136756476Y-94217381D01*
X137042190Y-94217381D02*
X137042190Y-93217381D01*
X136946952Y-93360238D01*
X136851714Y-93455476D01*
X136756476Y-93503095D01*
X150139428Y-111270190D02*
X150139428Y-111746381D01*
X149806095Y-110746381D02*
X150139428Y-111270190D01*
X150472762Y-110746381D01*
X151234667Y-111079714D02*
X151234667Y-111746381D01*
X150996571Y-110698762D02*
X150758476Y-111413048D01*
X151377524Y-111413048D01*
X151948952Y-110746381D02*
X152044191Y-110746381D01*
X152139429Y-110794000D01*
X152187048Y-110841619D01*
X152234667Y-110936857D01*
X152282286Y-111127333D01*
X152282286Y-111365429D01*
X152234667Y-111555905D01*
X152187048Y-111651143D01*
X152139429Y-111698762D01*
X152044191Y-111746381D01*
X151948952Y-111746381D01*
X151853714Y-111698762D01*
X151806095Y-111651143D01*
X151758476Y-111555905D01*
X151710857Y-111365429D01*
X151710857Y-111127333D01*
X151758476Y-110936857D01*
X151806095Y-110841619D01*
X151853714Y-110794000D01*
X151948952Y-110746381D01*
X153234667Y-111746381D02*
X152663238Y-111746381D01*
X152948952Y-111746381D02*
X152948952Y-110746381D01*
X152853714Y-110889238D01*
X152758476Y-110984476D01*
X152663238Y-111032095D01*
X128378592Y-112880958D02*
X128951012Y-113453378D01*
X129052027Y-113487050D01*
X129119370Y-113487050D01*
X129220385Y-113453378D01*
X129355073Y-113318690D01*
X129388745Y-113217675D01*
X129388745Y-113150332D01*
X129355073Y-113049317D01*
X128782653Y-112476897D01*
X129658118Y-112072836D02*
X130129523Y-112544240D01*
X129220385Y-111971821D02*
X129557103Y-112645256D01*
X129994836Y-112207523D01*
X129927492Y-111332058D02*
X129994836Y-111264714D01*
X130095851Y-111231042D01*
X130163195Y-111231042D01*
X130264210Y-111264714D01*
X130432569Y-111365729D01*
X130600928Y-111534088D01*
X130701943Y-111702447D01*
X130735615Y-111803462D01*
X130735615Y-111870805D01*
X130701943Y-111971820D01*
X130634599Y-112039164D01*
X130533584Y-112072836D01*
X130466240Y-112072836D01*
X130365225Y-112039164D01*
X130196867Y-111938149D01*
X130028507Y-111769790D01*
X129927492Y-111601431D01*
X129893820Y-111500416D01*
X129893820Y-111433073D01*
X129927492Y-111332058D01*
X131543737Y-111130027D02*
X131139675Y-111534088D01*
X131341706Y-111332058D02*
X130634599Y-110624951D01*
X130668271Y-110793310D01*
X130668271Y-110927996D01*
X130634599Y-111029012D01*
X158830953Y-79393143D02*
X158783334Y-79440762D01*
X158640477Y-79488381D01*
X158545239Y-79488381D01*
X158402381Y-79440762D01*
X158307143Y-79345524D01*
X158259524Y-79250286D01*
X158211905Y-79059810D01*
X158211905Y-78916952D01*
X158259524Y-78726476D01*
X158307143Y-78631238D01*
X158402381Y-78536000D01*
X158545239Y-78488381D01*
X158640477Y-78488381D01*
X158783334Y-78536000D01*
X158830953Y-78583619D01*
X159211905Y-78583619D02*
X159259524Y-78536000D01*
X159354762Y-78488381D01*
X159592858Y-78488381D01*
X159688096Y-78536000D01*
X159735715Y-78583619D01*
X159783334Y-78678857D01*
X159783334Y-78774095D01*
X159735715Y-78916952D01*
X159164286Y-79488381D01*
X159783334Y-79488381D01*
X160402381Y-78488381D02*
X160497620Y-78488381D01*
X160592858Y-78536000D01*
X160640477Y-78583619D01*
X160688096Y-78678857D01*
X160735715Y-78869333D01*
X160735715Y-79107429D01*
X160688096Y-79297905D01*
X160640477Y-79393143D01*
X160592858Y-79440762D01*
X160497620Y-79488381D01*
X160402381Y-79488381D01*
X160307143Y-79440762D01*
X160259524Y-79393143D01*
X160211905Y-79297905D01*
X160164286Y-79107429D01*
X160164286Y-78869333D01*
X160211905Y-78678857D01*
X160259524Y-78583619D01*
X160307143Y-78536000D01*
X160402381Y-78488381D01*
X161688096Y-79488381D02*
X161116667Y-79488381D01*
X161402381Y-79488381D02*
X161402381Y-78488381D01*
X161307143Y-78631238D01*
X161211905Y-78726476D01*
X161116667Y-78774095D01*
X160354953Y-92347143D02*
X160307334Y-92394762D01*
X160164477Y-92442381D01*
X160069239Y-92442381D01*
X159926381Y-92394762D01*
X159831143Y-92299524D01*
X159783524Y-92204286D01*
X159735905Y-92013810D01*
X159735905Y-91870952D01*
X159783524Y-91680476D01*
X159831143Y-91585238D01*
X159926381Y-91490000D01*
X160069239Y-91442381D01*
X160164477Y-91442381D01*
X160307334Y-91490000D01*
X160354953Y-91537619D01*
X160735905Y-91537619D02*
X160783524Y-91490000D01*
X160878762Y-91442381D01*
X161116858Y-91442381D01*
X161212096Y-91490000D01*
X161259715Y-91537619D01*
X161307334Y-91632857D01*
X161307334Y-91728095D01*
X161259715Y-91870952D01*
X160688286Y-92442381D01*
X161307334Y-92442381D01*
X161926381Y-91442381D02*
X162021620Y-91442381D01*
X162116858Y-91490000D01*
X162164477Y-91537619D01*
X162212096Y-91632857D01*
X162259715Y-91823333D01*
X162259715Y-92061429D01*
X162212096Y-92251905D01*
X162164477Y-92347143D01*
X162116858Y-92394762D01*
X162021620Y-92442381D01*
X161926381Y-92442381D01*
X161831143Y-92394762D01*
X161783524Y-92347143D01*
X161735905Y-92251905D01*
X161688286Y-92061429D01*
X161688286Y-91823333D01*
X161735905Y-91632857D01*
X161783524Y-91537619D01*
X161831143Y-91490000D01*
X161926381Y-91442381D01*
X162640667Y-91537619D02*
X162688286Y-91490000D01*
X162783524Y-91442381D01*
X163021620Y-91442381D01*
X163116858Y-91490000D01*
X163164477Y-91537619D01*
X163212096Y-91632857D01*
X163212096Y-91728095D01*
X163164477Y-91870952D01*
X162593048Y-92442381D01*
X163212096Y-92442381D01*
X160354953Y-97427143D02*
X160307334Y-97474762D01*
X160164477Y-97522381D01*
X160069239Y-97522381D01*
X159926381Y-97474762D01*
X159831143Y-97379524D01*
X159783524Y-97284286D01*
X159735905Y-97093810D01*
X159735905Y-96950952D01*
X159783524Y-96760476D01*
X159831143Y-96665238D01*
X159926381Y-96570000D01*
X160069239Y-96522381D01*
X160164477Y-96522381D01*
X160307334Y-96570000D01*
X160354953Y-96617619D01*
X160735905Y-96617619D02*
X160783524Y-96570000D01*
X160878762Y-96522381D01*
X161116858Y-96522381D01*
X161212096Y-96570000D01*
X161259715Y-96617619D01*
X161307334Y-96712857D01*
X161307334Y-96808095D01*
X161259715Y-96950952D01*
X160688286Y-97522381D01*
X161307334Y-97522381D01*
X161926381Y-96522381D02*
X162021620Y-96522381D01*
X162116858Y-96570000D01*
X162164477Y-96617619D01*
X162212096Y-96712857D01*
X162259715Y-96903333D01*
X162259715Y-97141429D01*
X162212096Y-97331905D01*
X162164477Y-97427143D01*
X162116858Y-97474762D01*
X162021620Y-97522381D01*
X161926381Y-97522381D01*
X161831143Y-97474762D01*
X161783524Y-97427143D01*
X161735905Y-97331905D01*
X161688286Y-97141429D01*
X161688286Y-96903333D01*
X161735905Y-96712857D01*
X161783524Y-96617619D01*
X161831143Y-96570000D01*
X161926381Y-96522381D01*
X162593048Y-96522381D02*
X163212096Y-96522381D01*
X162878762Y-96903333D01*
X163021620Y-96903333D01*
X163116858Y-96950952D01*
X163164477Y-96998571D01*
X163212096Y-97093810D01*
X163212096Y-97331905D01*
X163164477Y-97427143D01*
X163116858Y-97474762D01*
X163021620Y-97522381D01*
X162735905Y-97522381D01*
X162640667Y-97474762D01*
X162593048Y-97427143D01*
X155655953Y-95141143D02*
X155608334Y-95188762D01*
X155465477Y-95236381D01*
X155370239Y-95236381D01*
X155227381Y-95188762D01*
X155132143Y-95093524D01*
X155084524Y-94998286D01*
X155036905Y-94807810D01*
X155036905Y-94664952D01*
X155084524Y-94474476D01*
X155132143Y-94379238D01*
X155227381Y-94284000D01*
X155370239Y-94236381D01*
X155465477Y-94236381D01*
X155608334Y-94284000D01*
X155655953Y-94331619D01*
X155989286Y-94236381D02*
X156608334Y-94236381D01*
X156275000Y-94617333D01*
X156417858Y-94617333D01*
X156513096Y-94664952D01*
X156560715Y-94712571D01*
X156608334Y-94807810D01*
X156608334Y-95045905D01*
X156560715Y-95141143D01*
X156513096Y-95188762D01*
X156417858Y-95236381D01*
X156132143Y-95236381D01*
X156036905Y-95188762D01*
X155989286Y-95141143D01*
X157227381Y-94236381D02*
X157322620Y-94236381D01*
X157417858Y-94284000D01*
X157465477Y-94331619D01*
X157513096Y-94426857D01*
X157560715Y-94617333D01*
X157560715Y-94855429D01*
X157513096Y-95045905D01*
X157465477Y-95141143D01*
X157417858Y-95188762D01*
X157322620Y-95236381D01*
X157227381Y-95236381D01*
X157132143Y-95188762D01*
X157084524Y-95141143D01*
X157036905Y-95045905D01*
X156989286Y-94855429D01*
X156989286Y-94617333D01*
X157036905Y-94426857D01*
X157084524Y-94331619D01*
X157132143Y-94284000D01*
X157227381Y-94236381D01*
X158513096Y-95236381D02*
X157941667Y-95236381D01*
X158227381Y-95236381D02*
X158227381Y-94236381D01*
X158132143Y-94379238D01*
X158036905Y-94474476D01*
X157941667Y-94522095D01*
X155655953Y-91331143D02*
X155608334Y-91378762D01*
X155465477Y-91426381D01*
X155370239Y-91426381D01*
X155227381Y-91378762D01*
X155132143Y-91283524D01*
X155084524Y-91188286D01*
X155036905Y-90997810D01*
X155036905Y-90854952D01*
X155084524Y-90664476D01*
X155132143Y-90569238D01*
X155227381Y-90474000D01*
X155370239Y-90426381D01*
X155465477Y-90426381D01*
X155608334Y-90474000D01*
X155655953Y-90521619D01*
X155989286Y-90426381D02*
X156608334Y-90426381D01*
X156275000Y-90807333D01*
X156417858Y-90807333D01*
X156513096Y-90854952D01*
X156560715Y-90902571D01*
X156608334Y-90997810D01*
X156608334Y-91235905D01*
X156560715Y-91331143D01*
X156513096Y-91378762D01*
X156417858Y-91426381D01*
X156132143Y-91426381D01*
X156036905Y-91378762D01*
X155989286Y-91331143D01*
X157227381Y-90426381D02*
X157322620Y-90426381D01*
X157417858Y-90474000D01*
X157465477Y-90521619D01*
X157513096Y-90616857D01*
X157560715Y-90807333D01*
X157560715Y-91045429D01*
X157513096Y-91235905D01*
X157465477Y-91331143D01*
X157417858Y-91378762D01*
X157322620Y-91426381D01*
X157227381Y-91426381D01*
X157132143Y-91378762D01*
X157084524Y-91331143D01*
X157036905Y-91235905D01*
X156989286Y-91045429D01*
X156989286Y-90807333D01*
X157036905Y-90616857D01*
X157084524Y-90521619D01*
X157132143Y-90474000D01*
X157227381Y-90426381D01*
X157941667Y-90521619D02*
X157989286Y-90474000D01*
X158084524Y-90426381D01*
X158322620Y-90426381D01*
X158417858Y-90474000D01*
X158465477Y-90521619D01*
X158513096Y-90616857D01*
X158513096Y-90712095D01*
X158465477Y-90854952D01*
X157894048Y-91426381D01*
X158513096Y-91426381D01*
X130455253Y-123259824D02*
X130455253Y-123327167D01*
X130387909Y-123461854D01*
X130320566Y-123529198D01*
X130185878Y-123596542D01*
X130051191Y-123596542D01*
X129950176Y-123562870D01*
X129781817Y-123461855D01*
X129680802Y-123360839D01*
X129579786Y-123192481D01*
X129546115Y-123091465D01*
X129546115Y-122956778D01*
X129613459Y-122822091D01*
X129680802Y-122754747D01*
X129815489Y-122687404D01*
X129882833Y-122687404D01*
X130657283Y-122249671D02*
X131128688Y-122721076D01*
X130219550Y-122148657D02*
X130556268Y-122822092D01*
X130994001Y-122384359D01*
X130926657Y-121508893D02*
X130994001Y-121441549D01*
X131095016Y-121407877D01*
X131162359Y-121407877D01*
X131263374Y-121441549D01*
X131431733Y-121542564D01*
X131600092Y-121710924D01*
X131701107Y-121879282D01*
X131734779Y-121980297D01*
X131734779Y-122047641D01*
X131701107Y-122148656D01*
X131633763Y-122216000D01*
X131532748Y-122249672D01*
X131465405Y-122249672D01*
X131364390Y-122216000D01*
X131196031Y-122114985D01*
X131027672Y-121946626D01*
X130926657Y-121778267D01*
X130892985Y-121677252D01*
X130892985Y-121609908D01*
X130926657Y-121508893D01*
X132542901Y-121306862D02*
X132138840Y-121710924D01*
X132340870Y-121508893D02*
X131633763Y-120801786D01*
X131667435Y-120970145D01*
X131667435Y-121104832D01*
X131633763Y-121205847D01*
X180420953Y-100475143D02*
X180373334Y-100522762D01*
X180230477Y-100570381D01*
X180135239Y-100570381D01*
X179992381Y-100522762D01*
X179897143Y-100427524D01*
X179849524Y-100332286D01*
X179801905Y-100141810D01*
X179801905Y-99998952D01*
X179849524Y-99808476D01*
X179897143Y-99713238D01*
X179992381Y-99618000D01*
X180135239Y-99570381D01*
X180230477Y-99570381D01*
X180373334Y-99618000D01*
X180420953Y-99665619D01*
X181278096Y-99903714D02*
X181278096Y-100570381D01*
X181040000Y-99522762D02*
X180801905Y-100237048D01*
X181420953Y-100237048D01*
X181992381Y-99570381D02*
X182087620Y-99570381D01*
X182182858Y-99618000D01*
X182230477Y-99665619D01*
X182278096Y-99760857D01*
X182325715Y-99951333D01*
X182325715Y-100189429D01*
X182278096Y-100379905D01*
X182230477Y-100475143D01*
X182182858Y-100522762D01*
X182087620Y-100570381D01*
X181992381Y-100570381D01*
X181897143Y-100522762D01*
X181849524Y-100475143D01*
X181801905Y-100379905D01*
X181754286Y-100189429D01*
X181754286Y-99951333D01*
X181801905Y-99760857D01*
X181849524Y-99665619D01*
X181897143Y-99618000D01*
X181992381Y-99570381D01*
X182706667Y-99665619D02*
X182754286Y-99618000D01*
X182849524Y-99570381D01*
X183087620Y-99570381D01*
X183182858Y-99618000D01*
X183230477Y-99665619D01*
X183278096Y-99760857D01*
X183278096Y-99856095D01*
X183230477Y-99998952D01*
X182659048Y-100570381D01*
X183278096Y-100570381D01*
X145114953Y-112159143D02*
X145067334Y-112206762D01*
X144924477Y-112254381D01*
X144829239Y-112254381D01*
X144686381Y-112206762D01*
X144591143Y-112111524D01*
X144543524Y-112016286D01*
X144495905Y-111825810D01*
X144495905Y-111682952D01*
X144543524Y-111492476D01*
X144591143Y-111397238D01*
X144686381Y-111302000D01*
X144829239Y-111254381D01*
X144924477Y-111254381D01*
X145067334Y-111302000D01*
X145114953Y-111349619D01*
X145972096Y-111587714D02*
X145972096Y-112254381D01*
X145734000Y-111206762D02*
X145495905Y-111921048D01*
X146114953Y-111921048D01*
X146686381Y-111254381D02*
X146781620Y-111254381D01*
X146876858Y-111302000D01*
X146924477Y-111349619D01*
X146972096Y-111444857D01*
X147019715Y-111635333D01*
X147019715Y-111873429D01*
X146972096Y-112063905D01*
X146924477Y-112159143D01*
X146876858Y-112206762D01*
X146781620Y-112254381D01*
X146686381Y-112254381D01*
X146591143Y-112206762D01*
X146543524Y-112159143D01*
X146495905Y-112063905D01*
X146448286Y-111873429D01*
X146448286Y-111635333D01*
X146495905Y-111444857D01*
X146543524Y-111349619D01*
X146591143Y-111302000D01*
X146686381Y-111254381D01*
X147353048Y-111254381D02*
X147972096Y-111254381D01*
X147638762Y-111635333D01*
X147781620Y-111635333D01*
X147876858Y-111682952D01*
X147924477Y-111730571D01*
X147972096Y-111825810D01*
X147972096Y-112063905D01*
X147924477Y-112159143D01*
X147876858Y-112206762D01*
X147781620Y-112254381D01*
X147495905Y-112254381D01*
X147400667Y-112206762D01*
X147353048Y-112159143D01*
X126645253Y-119195824D02*
X126645253Y-119263167D01*
X126577909Y-119397854D01*
X126510566Y-119465198D01*
X126375878Y-119532542D01*
X126241191Y-119532542D01*
X126140176Y-119498870D01*
X125971817Y-119397855D01*
X125870802Y-119296839D01*
X125769786Y-119128481D01*
X125736115Y-119027465D01*
X125736115Y-118892778D01*
X125803459Y-118758091D01*
X125870802Y-118690747D01*
X126005489Y-118623404D01*
X126072833Y-118623404D01*
X126847283Y-118185671D02*
X127318688Y-118657076D01*
X126409550Y-118084657D02*
X126746268Y-118758092D01*
X127184001Y-118320359D01*
X127116657Y-117444893D02*
X127184001Y-117377549D01*
X127285016Y-117343877D01*
X127352359Y-117343877D01*
X127453374Y-117377549D01*
X127621733Y-117478564D01*
X127790092Y-117646924D01*
X127891107Y-117815282D01*
X127924779Y-117916297D01*
X127924779Y-117983641D01*
X127891107Y-118084656D01*
X127823763Y-118152000D01*
X127722748Y-118185672D01*
X127655405Y-118185672D01*
X127554390Y-118152000D01*
X127386031Y-118050985D01*
X127217672Y-117882626D01*
X127116657Y-117714267D01*
X127082985Y-117613252D01*
X127082985Y-117545908D01*
X127116657Y-117444893D01*
X128194153Y-116838801D02*
X128665558Y-117310206D01*
X127756420Y-116737786D02*
X128093138Y-117411222D01*
X128530871Y-116973488D01*
X184230953Y-88791143D02*
X184183334Y-88838762D01*
X184040477Y-88886381D01*
X183945239Y-88886381D01*
X183802381Y-88838762D01*
X183707143Y-88743524D01*
X183659524Y-88648286D01*
X183611905Y-88457810D01*
X183611905Y-88314952D01*
X183659524Y-88124476D01*
X183707143Y-88029238D01*
X183802381Y-87934000D01*
X183945239Y-87886381D01*
X184040477Y-87886381D01*
X184183334Y-87934000D01*
X184230953Y-87981619D01*
X185088096Y-88219714D02*
X185088096Y-88886381D01*
X184850000Y-87838762D02*
X184611905Y-88553048D01*
X185230953Y-88553048D01*
X185802381Y-87886381D02*
X185897620Y-87886381D01*
X185992858Y-87934000D01*
X186040477Y-87981619D01*
X186088096Y-88076857D01*
X186135715Y-88267333D01*
X186135715Y-88505429D01*
X186088096Y-88695905D01*
X186040477Y-88791143D01*
X185992858Y-88838762D01*
X185897620Y-88886381D01*
X185802381Y-88886381D01*
X185707143Y-88838762D01*
X185659524Y-88791143D01*
X185611905Y-88695905D01*
X185564286Y-88505429D01*
X185564286Y-88267333D01*
X185611905Y-88076857D01*
X185659524Y-87981619D01*
X185707143Y-87934000D01*
X185802381Y-87886381D01*
X187040477Y-87886381D02*
X186564286Y-87886381D01*
X186516667Y-88362571D01*
X186564286Y-88314952D01*
X186659524Y-88267333D01*
X186897620Y-88267333D01*
X186992858Y-88314952D01*
X187040477Y-88362571D01*
X187088096Y-88457810D01*
X187088096Y-88695905D01*
X187040477Y-88791143D01*
X186992858Y-88838762D01*
X186897620Y-88886381D01*
X186659524Y-88886381D01*
X186564286Y-88838762D01*
X186516667Y-88791143D01*
X117428953Y-103015143D02*
X117381334Y-103062762D01*
X117238477Y-103110381D01*
X117143239Y-103110381D01*
X117000381Y-103062762D01*
X116905143Y-102967524D01*
X116857524Y-102872286D01*
X116809905Y-102681810D01*
X116809905Y-102538952D01*
X116857524Y-102348476D01*
X116905143Y-102253238D01*
X117000381Y-102158000D01*
X117143239Y-102110381D01*
X117238477Y-102110381D01*
X117381334Y-102158000D01*
X117428953Y-102205619D01*
X118286096Y-102443714D02*
X118286096Y-103110381D01*
X118048000Y-102062762D02*
X117809905Y-102777048D01*
X118428953Y-102777048D01*
X119000381Y-102110381D02*
X119095620Y-102110381D01*
X119190858Y-102158000D01*
X119238477Y-102205619D01*
X119286096Y-102300857D01*
X119333715Y-102491333D01*
X119333715Y-102729429D01*
X119286096Y-102919905D01*
X119238477Y-103015143D01*
X119190858Y-103062762D01*
X119095620Y-103110381D01*
X119000381Y-103110381D01*
X118905143Y-103062762D01*
X118857524Y-103015143D01*
X118809905Y-102919905D01*
X118762286Y-102729429D01*
X118762286Y-102491333D01*
X118809905Y-102300857D01*
X118857524Y-102205619D01*
X118905143Y-102158000D01*
X119000381Y-102110381D01*
X119667048Y-102110381D02*
X120333715Y-102110381D01*
X119905143Y-103110381D01*
X131906953Y-108857143D02*
X131859334Y-108904762D01*
X131716477Y-108952381D01*
X131621239Y-108952381D01*
X131478381Y-108904762D01*
X131383143Y-108809524D01*
X131335524Y-108714286D01*
X131287905Y-108523810D01*
X131287905Y-108380952D01*
X131335524Y-108190476D01*
X131383143Y-108095238D01*
X131478381Y-108000000D01*
X131621239Y-107952381D01*
X131716477Y-107952381D01*
X131859334Y-108000000D01*
X131906953Y-108047619D01*
X132764096Y-108285714D02*
X132764096Y-108952381D01*
X132526000Y-107904762D02*
X132287905Y-108619048D01*
X132906953Y-108619048D01*
X133478381Y-107952381D02*
X133573620Y-107952381D01*
X133668858Y-108000000D01*
X133716477Y-108047619D01*
X133764096Y-108142857D01*
X133811715Y-108333333D01*
X133811715Y-108571429D01*
X133764096Y-108761905D01*
X133716477Y-108857143D01*
X133668858Y-108904762D01*
X133573620Y-108952381D01*
X133478381Y-108952381D01*
X133383143Y-108904762D01*
X133335524Y-108857143D01*
X133287905Y-108761905D01*
X133240286Y-108571429D01*
X133240286Y-108333333D01*
X133287905Y-108142857D01*
X133335524Y-108047619D01*
X133383143Y-108000000D01*
X133478381Y-107952381D01*
X134383143Y-108380952D02*
X134287905Y-108333333D01*
X134240286Y-108285714D01*
X134192667Y-108190476D01*
X134192667Y-108142857D01*
X134240286Y-108047619D01*
X134287905Y-108000000D01*
X134383143Y-107952381D01*
X134573620Y-107952381D01*
X134668858Y-108000000D01*
X134716477Y-108047619D01*
X134764096Y-108142857D01*
X134764096Y-108190476D01*
X134716477Y-108285714D01*
X134668858Y-108333333D01*
X134573620Y-108380952D01*
X134383143Y-108380952D01*
X134287905Y-108428571D01*
X134240286Y-108476190D01*
X134192667Y-108571429D01*
X134192667Y-108761905D01*
X134240286Y-108857143D01*
X134287905Y-108904762D01*
X134383143Y-108952381D01*
X134573620Y-108952381D01*
X134668858Y-108904762D01*
X134716477Y-108857143D01*
X134764096Y-108761905D01*
X134764096Y-108571429D01*
X134716477Y-108476190D01*
X134668858Y-108428571D01*
X134573620Y-108380952D01*
X131906953Y-107079143D02*
X131859334Y-107126762D01*
X131716477Y-107174381D01*
X131621239Y-107174381D01*
X131478381Y-107126762D01*
X131383143Y-107031524D01*
X131335524Y-106936286D01*
X131287905Y-106745810D01*
X131287905Y-106602952D01*
X131335524Y-106412476D01*
X131383143Y-106317238D01*
X131478381Y-106222000D01*
X131621239Y-106174381D01*
X131716477Y-106174381D01*
X131859334Y-106222000D01*
X131906953Y-106269619D01*
X132764096Y-106507714D02*
X132764096Y-107174381D01*
X132526000Y-106126762D02*
X132287905Y-106841048D01*
X132906953Y-106841048D01*
X133478381Y-106174381D02*
X133573620Y-106174381D01*
X133668858Y-106222000D01*
X133716477Y-106269619D01*
X133764096Y-106364857D01*
X133811715Y-106555333D01*
X133811715Y-106793429D01*
X133764096Y-106983905D01*
X133716477Y-107079143D01*
X133668858Y-107126762D01*
X133573620Y-107174381D01*
X133478381Y-107174381D01*
X133383143Y-107126762D01*
X133335524Y-107079143D01*
X133287905Y-106983905D01*
X133240286Y-106793429D01*
X133240286Y-106555333D01*
X133287905Y-106364857D01*
X133335524Y-106269619D01*
X133383143Y-106222000D01*
X133478381Y-106174381D01*
X134287905Y-107174381D02*
X134478381Y-107174381D01*
X134573620Y-107126762D01*
X134621239Y-107079143D01*
X134716477Y-106936286D01*
X134764096Y-106745810D01*
X134764096Y-106364857D01*
X134716477Y-106269619D01*
X134668858Y-106222000D01*
X134573620Y-106174381D01*
X134383143Y-106174381D01*
X134287905Y-106222000D01*
X134240286Y-106269619D01*
X134192667Y-106364857D01*
X134192667Y-106602952D01*
X134240286Y-106698190D01*
X134287905Y-106745810D01*
X134383143Y-106793429D01*
X134573620Y-106793429D01*
X134668858Y-106745810D01*
X134716477Y-106698190D01*
X134764096Y-106602952D01*
X123731143Y-88664047D02*
X123778762Y-88711666D01*
X123826381Y-88854523D01*
X123826381Y-88949761D01*
X123778762Y-89092619D01*
X123683524Y-89187857D01*
X123588286Y-89235476D01*
X123397810Y-89283095D01*
X123254952Y-89283095D01*
X123064476Y-89235476D01*
X122969238Y-89187857D01*
X122874000Y-89092619D01*
X122826381Y-88949761D01*
X122826381Y-88854523D01*
X122874000Y-88711666D01*
X122921619Y-88664047D01*
X122826381Y-87759285D02*
X122826381Y-88235476D01*
X123302571Y-88283095D01*
X123254952Y-88235476D01*
X123207333Y-88140238D01*
X123207333Y-87902142D01*
X123254952Y-87806904D01*
X123302571Y-87759285D01*
X123397810Y-87711666D01*
X123635905Y-87711666D01*
X123731143Y-87759285D01*
X123778762Y-87806904D01*
X123826381Y-87902142D01*
X123826381Y-88140238D01*
X123778762Y-88235476D01*
X123731143Y-88283095D01*
X122826381Y-87092619D02*
X122826381Y-86997380D01*
X122874000Y-86902142D01*
X122921619Y-86854523D01*
X123016857Y-86806904D01*
X123207333Y-86759285D01*
X123445429Y-86759285D01*
X123635905Y-86806904D01*
X123731143Y-86854523D01*
X123778762Y-86902142D01*
X123826381Y-86997380D01*
X123826381Y-87092619D01*
X123778762Y-87187857D01*
X123731143Y-87235476D01*
X123635905Y-87283095D01*
X123445429Y-87330714D01*
X123207333Y-87330714D01*
X123016857Y-87283095D01*
X122921619Y-87235476D01*
X122874000Y-87187857D01*
X122826381Y-87092619D01*
X122921619Y-86378333D02*
X122874000Y-86330714D01*
X122826381Y-86235476D01*
X122826381Y-85997380D01*
X122874000Y-85902142D01*
X122921619Y-85854523D01*
X123016857Y-85806904D01*
X123112095Y-85806904D01*
X123254952Y-85854523D01*
X123826381Y-86425952D01*
X123826381Y-85806904D01*
X134446953Y-90823143D02*
X134399334Y-90870762D01*
X134256477Y-90918381D01*
X134161239Y-90918381D01*
X134018381Y-90870762D01*
X133923143Y-90775524D01*
X133875524Y-90680286D01*
X133827905Y-90489810D01*
X133827905Y-90346952D01*
X133875524Y-90156476D01*
X133923143Y-90061238D01*
X134018381Y-89966000D01*
X134161239Y-89918381D01*
X134256477Y-89918381D01*
X134399334Y-89966000D01*
X134446953Y-90013619D01*
X135351715Y-89918381D02*
X134875524Y-89918381D01*
X134827905Y-90394571D01*
X134875524Y-90346952D01*
X134970762Y-90299333D01*
X135208858Y-90299333D01*
X135304096Y-90346952D01*
X135351715Y-90394571D01*
X135399334Y-90489810D01*
X135399334Y-90727905D01*
X135351715Y-90823143D01*
X135304096Y-90870762D01*
X135208858Y-90918381D01*
X134970762Y-90918381D01*
X134875524Y-90870762D01*
X134827905Y-90823143D01*
X136018381Y-89918381D02*
X136113620Y-89918381D01*
X136208858Y-89966000D01*
X136256477Y-90013619D01*
X136304096Y-90108857D01*
X136351715Y-90299333D01*
X136351715Y-90537429D01*
X136304096Y-90727905D01*
X136256477Y-90823143D01*
X136208858Y-90870762D01*
X136113620Y-90918381D01*
X136018381Y-90918381D01*
X135923143Y-90870762D01*
X135875524Y-90823143D01*
X135827905Y-90727905D01*
X135780286Y-90537429D01*
X135780286Y-90299333D01*
X135827905Y-90108857D01*
X135875524Y-90013619D01*
X135923143Y-89966000D01*
X136018381Y-89918381D01*
X136685048Y-89918381D02*
X137304096Y-89918381D01*
X136970762Y-90299333D01*
X137113620Y-90299333D01*
X137208858Y-90346952D01*
X137256477Y-90394571D01*
X137304096Y-90489810D01*
X137304096Y-90727905D01*
X137256477Y-90823143D01*
X137208858Y-90870762D01*
X137113620Y-90918381D01*
X136827905Y-90918381D01*
X136732667Y-90870762D01*
X136685048Y-90823143D01*
X155068381Y-122001476D02*
X154068381Y-122001476D01*
X154068381Y-121763381D01*
X154116000Y-121620523D01*
X154211238Y-121525285D01*
X154306476Y-121477666D01*
X154496952Y-121430047D01*
X154639810Y-121430047D01*
X154830286Y-121477666D01*
X154925524Y-121525285D01*
X155020762Y-121620523D01*
X155068381Y-121763381D01*
X155068381Y-122001476D01*
X154068381Y-121096714D02*
X154068381Y-120477666D01*
X154449333Y-120811000D01*
X154449333Y-120668142D01*
X154496952Y-120572904D01*
X154544571Y-120525285D01*
X154639810Y-120477666D01*
X154877905Y-120477666D01*
X154973143Y-120525285D01*
X155020762Y-120572904D01*
X155068381Y-120668142D01*
X155068381Y-120953857D01*
X155020762Y-121049095D01*
X154973143Y-121096714D01*
X154068381Y-119858619D02*
X154068381Y-119763380D01*
X154116000Y-119668142D01*
X154163619Y-119620523D01*
X154258857Y-119572904D01*
X154449333Y-119525285D01*
X154687429Y-119525285D01*
X154877905Y-119572904D01*
X154973143Y-119620523D01*
X155020762Y-119668142D01*
X155068381Y-119763380D01*
X155068381Y-119858619D01*
X155020762Y-119953857D01*
X154973143Y-120001476D01*
X154877905Y-120049095D01*
X154687429Y-120096714D01*
X154449333Y-120096714D01*
X154258857Y-120049095D01*
X154163619Y-120001476D01*
X154116000Y-119953857D01*
X154068381Y-119858619D01*
X154163619Y-119144333D02*
X154116000Y-119096714D01*
X154068381Y-119001476D01*
X154068381Y-118763380D01*
X154116000Y-118668142D01*
X154163619Y-118620523D01*
X154258857Y-118572904D01*
X154354095Y-118572904D01*
X154496952Y-118620523D01*
X155068381Y-119191952D01*
X155068381Y-118572904D01*
X154385953Y-124446381D02*
X153909762Y-124446381D01*
X153909762Y-123446381D01*
X154719286Y-123922571D02*
X155052620Y-123922571D01*
X155195477Y-124446381D02*
X154719286Y-124446381D01*
X154719286Y-123446381D01*
X155195477Y-123446381D01*
X155624048Y-124446381D02*
X155624048Y-123446381D01*
X155862143Y-123446381D01*
X156005001Y-123494000D01*
X156100239Y-123589238D01*
X156147858Y-123684476D01*
X156195477Y-123874952D01*
X156195477Y-124017810D01*
X156147858Y-124208286D01*
X156100239Y-124303524D01*
X156005001Y-124398762D01*
X155862143Y-124446381D01*
X155624048Y-124446381D01*
X157147858Y-124446381D02*
X156576429Y-124446381D01*
X156862143Y-124446381D02*
X156862143Y-123446381D01*
X156766905Y-123589238D01*
X156671667Y-123684476D01*
X156576429Y-123732095D01*
X158243381Y-122001476D02*
X157243381Y-122001476D01*
X157243381Y-121763381D01*
X157291000Y-121620523D01*
X157386238Y-121525285D01*
X157481476Y-121477666D01*
X157671952Y-121430047D01*
X157814810Y-121430047D01*
X158005286Y-121477666D01*
X158100524Y-121525285D01*
X158195762Y-121620523D01*
X158243381Y-121763381D01*
X158243381Y-122001476D01*
X157243381Y-121096714D02*
X157243381Y-120477666D01*
X157624333Y-120811000D01*
X157624333Y-120668142D01*
X157671952Y-120572904D01*
X157719571Y-120525285D01*
X157814810Y-120477666D01*
X158052905Y-120477666D01*
X158148143Y-120525285D01*
X158195762Y-120572904D01*
X158243381Y-120668142D01*
X158243381Y-120953857D01*
X158195762Y-121049095D01*
X158148143Y-121096714D01*
X157243381Y-119858619D02*
X157243381Y-119763380D01*
X157291000Y-119668142D01*
X157338619Y-119620523D01*
X157433857Y-119572904D01*
X157624333Y-119525285D01*
X157862429Y-119525285D01*
X158052905Y-119572904D01*
X158148143Y-119620523D01*
X158195762Y-119668142D01*
X158243381Y-119763380D01*
X158243381Y-119858619D01*
X158195762Y-119953857D01*
X158148143Y-120001476D01*
X158052905Y-120049095D01*
X157862429Y-120096714D01*
X157624333Y-120096714D01*
X157433857Y-120049095D01*
X157338619Y-120001476D01*
X157291000Y-119953857D01*
X157243381Y-119858619D01*
X157243381Y-119191952D02*
X157243381Y-118572904D01*
X157624333Y-118906238D01*
X157624333Y-118763380D01*
X157671952Y-118668142D01*
X157719571Y-118620523D01*
X157814810Y-118572904D01*
X158052905Y-118572904D01*
X158148143Y-118620523D01*
X158195762Y-118668142D01*
X158243381Y-118763380D01*
X158243381Y-119049095D01*
X158195762Y-119144333D01*
X158148143Y-119191952D01*
X158830953Y-124446381D02*
X158354762Y-124446381D01*
X158354762Y-123446381D01*
X159164286Y-123922571D02*
X159497620Y-123922571D01*
X159640477Y-124446381D02*
X159164286Y-124446381D01*
X159164286Y-123446381D01*
X159640477Y-123446381D01*
X160069048Y-124446381D02*
X160069048Y-123446381D01*
X160307143Y-123446381D01*
X160450001Y-123494000D01*
X160545239Y-123589238D01*
X160592858Y-123684476D01*
X160640477Y-123874952D01*
X160640477Y-124017810D01*
X160592858Y-124208286D01*
X160545239Y-124303524D01*
X160450001Y-124398762D01*
X160307143Y-124446381D01*
X160069048Y-124446381D01*
X161021429Y-123541619D02*
X161069048Y-123494000D01*
X161164286Y-123446381D01*
X161402382Y-123446381D01*
X161497620Y-123494000D01*
X161545239Y-123541619D01*
X161592858Y-123636857D01*
X161592858Y-123732095D01*
X161545239Y-123874952D01*
X160973810Y-124446381D01*
X161592858Y-124446381D01*
X168217381Y-108349047D02*
X167741190Y-108682381D01*
X168217381Y-108920476D02*
X167217381Y-108920476D01*
X167217381Y-108539523D01*
X167265000Y-108444285D01*
X167312619Y-108396666D01*
X167407857Y-108349047D01*
X167550714Y-108349047D01*
X167645952Y-108396666D01*
X167693571Y-108444285D01*
X167741190Y-108539523D01*
X167741190Y-108920476D01*
X167312619Y-107968095D02*
X167265000Y-107920476D01*
X167217381Y-107825238D01*
X167217381Y-107587142D01*
X167265000Y-107491904D01*
X167312619Y-107444285D01*
X167407857Y-107396666D01*
X167503095Y-107396666D01*
X167645952Y-107444285D01*
X168217381Y-108015714D01*
X168217381Y-107396666D01*
X167217381Y-106777619D02*
X167217381Y-106682380D01*
X167265000Y-106587142D01*
X167312619Y-106539523D01*
X167407857Y-106491904D01*
X167598333Y-106444285D01*
X167836429Y-106444285D01*
X168026905Y-106491904D01*
X168122143Y-106539523D01*
X168169762Y-106587142D01*
X168217381Y-106682380D01*
X168217381Y-106777619D01*
X168169762Y-106872857D01*
X168122143Y-106920476D01*
X168026905Y-106968095D01*
X167836429Y-107015714D01*
X167598333Y-107015714D01*
X167407857Y-106968095D01*
X167312619Y-106920476D01*
X167265000Y-106872857D01*
X167217381Y-106777619D01*
X167550714Y-105587142D02*
X168217381Y-105587142D01*
X167169762Y-105825238D02*
X167884048Y-106063333D01*
X167884048Y-105444285D01*
X167720953Y-91680381D02*
X167387619Y-91204190D01*
X167149524Y-91680381D02*
X167149524Y-90680381D01*
X167530477Y-90680381D01*
X167625715Y-90728000D01*
X167673334Y-90775619D01*
X167720953Y-90870857D01*
X167720953Y-91013714D01*
X167673334Y-91108952D01*
X167625715Y-91156571D01*
X167530477Y-91204190D01*
X167149524Y-91204190D01*
X168101905Y-90775619D02*
X168149524Y-90728000D01*
X168244762Y-90680381D01*
X168482858Y-90680381D01*
X168578096Y-90728000D01*
X168625715Y-90775619D01*
X168673334Y-90870857D01*
X168673334Y-90966095D01*
X168625715Y-91108952D01*
X168054286Y-91680381D01*
X168673334Y-91680381D01*
X169292381Y-90680381D02*
X169387620Y-90680381D01*
X169482858Y-90728000D01*
X169530477Y-90775619D01*
X169578096Y-90870857D01*
X169625715Y-91061333D01*
X169625715Y-91299429D01*
X169578096Y-91489905D01*
X169530477Y-91585143D01*
X169482858Y-91632762D01*
X169387620Y-91680381D01*
X169292381Y-91680381D01*
X169197143Y-91632762D01*
X169149524Y-91585143D01*
X169101905Y-91489905D01*
X169054286Y-91299429D01*
X169054286Y-91061333D01*
X169101905Y-90870857D01*
X169149524Y-90775619D01*
X169197143Y-90728000D01*
X169292381Y-90680381D01*
X170530477Y-90680381D02*
X170054286Y-90680381D01*
X170006667Y-91156571D01*
X170054286Y-91108952D01*
X170149524Y-91061333D01*
X170387620Y-91061333D01*
X170482858Y-91108952D01*
X170530477Y-91156571D01*
X170578096Y-91251810D01*
X170578096Y-91489905D01*
X170530477Y-91585143D01*
X170482858Y-91632762D01*
X170387620Y-91680381D01*
X170149524Y-91680381D01*
X170054286Y-91632762D01*
X170006667Y-91585143D01*
X160354953Y-89902381D02*
X160021619Y-89426190D01*
X159783524Y-89902381D02*
X159783524Y-88902381D01*
X160164477Y-88902381D01*
X160259715Y-88950000D01*
X160307334Y-88997619D01*
X160354953Y-89092857D01*
X160354953Y-89235714D01*
X160307334Y-89330952D01*
X160259715Y-89378571D01*
X160164477Y-89426190D01*
X159783524Y-89426190D01*
X160735905Y-88997619D02*
X160783524Y-88950000D01*
X160878762Y-88902381D01*
X161116858Y-88902381D01*
X161212096Y-88950000D01*
X161259715Y-88997619D01*
X161307334Y-89092857D01*
X161307334Y-89188095D01*
X161259715Y-89330952D01*
X160688286Y-89902381D01*
X161307334Y-89902381D01*
X161926381Y-88902381D02*
X162021620Y-88902381D01*
X162116858Y-88950000D01*
X162164477Y-88997619D01*
X162212096Y-89092857D01*
X162259715Y-89283333D01*
X162259715Y-89521429D01*
X162212096Y-89711905D01*
X162164477Y-89807143D01*
X162116858Y-89854762D01*
X162021620Y-89902381D01*
X161926381Y-89902381D01*
X161831143Y-89854762D01*
X161783524Y-89807143D01*
X161735905Y-89711905D01*
X161688286Y-89521429D01*
X161688286Y-89283333D01*
X161735905Y-89092857D01*
X161783524Y-88997619D01*
X161831143Y-88950000D01*
X161926381Y-88902381D01*
X163116858Y-88902381D02*
X162926381Y-88902381D01*
X162831143Y-88950000D01*
X162783524Y-88997619D01*
X162688286Y-89140476D01*
X162640667Y-89330952D01*
X162640667Y-89711905D01*
X162688286Y-89807143D01*
X162735905Y-89854762D01*
X162831143Y-89902381D01*
X163021620Y-89902381D01*
X163116858Y-89854762D01*
X163164477Y-89807143D01*
X163212096Y-89711905D01*
X163212096Y-89473810D01*
X163164477Y-89378571D01*
X163116858Y-89330952D01*
X163021620Y-89283333D01*
X162831143Y-89283333D01*
X162735905Y-89330952D01*
X162688286Y-89378571D01*
X162640667Y-89473810D01*
X167720953Y-96760381D02*
X167387619Y-96284190D01*
X167149524Y-96760381D02*
X167149524Y-95760381D01*
X167530477Y-95760381D01*
X167625715Y-95808000D01*
X167673334Y-95855619D01*
X167720953Y-95950857D01*
X167720953Y-96093714D01*
X167673334Y-96188952D01*
X167625715Y-96236571D01*
X167530477Y-96284190D01*
X167149524Y-96284190D01*
X168101905Y-95855619D02*
X168149524Y-95808000D01*
X168244762Y-95760381D01*
X168482858Y-95760381D01*
X168578096Y-95808000D01*
X168625715Y-95855619D01*
X168673334Y-95950857D01*
X168673334Y-96046095D01*
X168625715Y-96188952D01*
X168054286Y-96760381D01*
X168673334Y-96760381D01*
X169292381Y-95760381D02*
X169387620Y-95760381D01*
X169482858Y-95808000D01*
X169530477Y-95855619D01*
X169578096Y-95950857D01*
X169625715Y-96141333D01*
X169625715Y-96379429D01*
X169578096Y-96569905D01*
X169530477Y-96665143D01*
X169482858Y-96712762D01*
X169387620Y-96760381D01*
X169292381Y-96760381D01*
X169197143Y-96712762D01*
X169149524Y-96665143D01*
X169101905Y-96569905D01*
X169054286Y-96379429D01*
X169054286Y-96141333D01*
X169101905Y-95950857D01*
X169149524Y-95855619D01*
X169197143Y-95808000D01*
X169292381Y-95760381D01*
X169959048Y-95760381D02*
X170625715Y-95760381D01*
X170197143Y-96760381D01*
X160354953Y-94982381D02*
X160021619Y-94506190D01*
X159783524Y-94982381D02*
X159783524Y-93982381D01*
X160164477Y-93982381D01*
X160259715Y-94030000D01*
X160307334Y-94077619D01*
X160354953Y-94172857D01*
X160354953Y-94315714D01*
X160307334Y-94410952D01*
X160259715Y-94458571D01*
X160164477Y-94506190D01*
X159783524Y-94506190D01*
X160735905Y-94077619D02*
X160783524Y-94030000D01*
X160878762Y-93982381D01*
X161116858Y-93982381D01*
X161212096Y-94030000D01*
X161259715Y-94077619D01*
X161307334Y-94172857D01*
X161307334Y-94268095D01*
X161259715Y-94410952D01*
X160688286Y-94982381D01*
X161307334Y-94982381D01*
X161926381Y-93982381D02*
X162021620Y-93982381D01*
X162116858Y-94030000D01*
X162164477Y-94077619D01*
X162212096Y-94172857D01*
X162259715Y-94363333D01*
X162259715Y-94601429D01*
X162212096Y-94791905D01*
X162164477Y-94887143D01*
X162116858Y-94934762D01*
X162021620Y-94982381D01*
X161926381Y-94982381D01*
X161831143Y-94934762D01*
X161783524Y-94887143D01*
X161735905Y-94791905D01*
X161688286Y-94601429D01*
X161688286Y-94363333D01*
X161735905Y-94172857D01*
X161783524Y-94077619D01*
X161831143Y-94030000D01*
X161926381Y-93982381D01*
X162831143Y-94410952D02*
X162735905Y-94363333D01*
X162688286Y-94315714D01*
X162640667Y-94220476D01*
X162640667Y-94172857D01*
X162688286Y-94077619D01*
X162735905Y-94030000D01*
X162831143Y-93982381D01*
X163021620Y-93982381D01*
X163116858Y-94030000D01*
X163164477Y-94077619D01*
X163212096Y-94172857D01*
X163212096Y-94220476D01*
X163164477Y-94315714D01*
X163116858Y-94363333D01*
X163021620Y-94410952D01*
X162831143Y-94410952D01*
X162735905Y-94458571D01*
X162688286Y-94506190D01*
X162640667Y-94601429D01*
X162640667Y-94791905D01*
X162688286Y-94887143D01*
X162735905Y-94934762D01*
X162831143Y-94982381D01*
X163021620Y-94982381D01*
X163116858Y-94934762D01*
X163164477Y-94887143D01*
X163212096Y-94791905D01*
X163212096Y-94601429D01*
X163164477Y-94506190D01*
X163116858Y-94458571D01*
X163021620Y-94410952D01*
X122508953Y-114032381D02*
X122175619Y-113556190D01*
X121937524Y-114032381D02*
X121937524Y-113032381D01*
X122318477Y-113032381D01*
X122413715Y-113080000D01*
X122461334Y-113127619D01*
X122508953Y-113222857D01*
X122508953Y-113365714D01*
X122461334Y-113460952D01*
X122413715Y-113508571D01*
X122318477Y-113556190D01*
X121937524Y-113556190D01*
X122842286Y-113032381D02*
X123461334Y-113032381D01*
X123128000Y-113413333D01*
X123270858Y-113413333D01*
X123366096Y-113460952D01*
X123413715Y-113508571D01*
X123461334Y-113603810D01*
X123461334Y-113841905D01*
X123413715Y-113937143D01*
X123366096Y-113984762D01*
X123270858Y-114032381D01*
X122985143Y-114032381D01*
X122889905Y-113984762D01*
X122842286Y-113937143D01*
X124080381Y-113032381D02*
X124175620Y-113032381D01*
X124270858Y-113080000D01*
X124318477Y-113127619D01*
X124366096Y-113222857D01*
X124413715Y-113413333D01*
X124413715Y-113651429D01*
X124366096Y-113841905D01*
X124318477Y-113937143D01*
X124270858Y-113984762D01*
X124175620Y-114032381D01*
X124080381Y-114032381D01*
X123985143Y-113984762D01*
X123937524Y-113937143D01*
X123889905Y-113841905D01*
X123842286Y-113651429D01*
X123842286Y-113413333D01*
X123889905Y-113222857D01*
X123937524Y-113127619D01*
X123985143Y-113080000D01*
X124080381Y-113032381D01*
X125366096Y-114032381D02*
X124794667Y-114032381D01*
X125080381Y-114032381D02*
X125080381Y-113032381D01*
X124985143Y-113175238D01*
X124889905Y-113270476D01*
X124794667Y-113318095D01*
X164672953Y-113524381D02*
X164339619Y-113048190D01*
X164101524Y-113524381D02*
X164101524Y-112524381D01*
X164482477Y-112524381D01*
X164577715Y-112572000D01*
X164625334Y-112619619D01*
X164672953Y-112714857D01*
X164672953Y-112857714D01*
X164625334Y-112952952D01*
X164577715Y-113000571D01*
X164482477Y-113048190D01*
X164101524Y-113048190D01*
X165006286Y-112524381D02*
X165625334Y-112524381D01*
X165292000Y-112905333D01*
X165434858Y-112905333D01*
X165530096Y-112952952D01*
X165577715Y-113000571D01*
X165625334Y-113095810D01*
X165625334Y-113333905D01*
X165577715Y-113429143D01*
X165530096Y-113476762D01*
X165434858Y-113524381D01*
X165149143Y-113524381D01*
X165053905Y-113476762D01*
X165006286Y-113429143D01*
X166244381Y-112524381D02*
X166339620Y-112524381D01*
X166434858Y-112572000D01*
X166482477Y-112619619D01*
X166530096Y-112714857D01*
X166577715Y-112905333D01*
X166577715Y-113143429D01*
X166530096Y-113333905D01*
X166482477Y-113429143D01*
X166434858Y-113476762D01*
X166339620Y-113524381D01*
X166244381Y-113524381D01*
X166149143Y-113476762D01*
X166101524Y-113429143D01*
X166053905Y-113333905D01*
X166006286Y-113143429D01*
X166006286Y-112905333D01*
X166053905Y-112714857D01*
X166101524Y-112619619D01*
X166149143Y-112572000D01*
X166244381Y-112524381D01*
X166958667Y-112619619D02*
X167006286Y-112572000D01*
X167101524Y-112524381D01*
X167339620Y-112524381D01*
X167434858Y-112572000D01*
X167482477Y-112619619D01*
X167530096Y-112714857D01*
X167530096Y-112810095D01*
X167482477Y-112952952D01*
X166911048Y-113524381D01*
X167530096Y-113524381D01*
X170768953Y-115302381D02*
X170435619Y-114826190D01*
X170197524Y-115302381D02*
X170197524Y-114302381D01*
X170578477Y-114302381D01*
X170673715Y-114350000D01*
X170721334Y-114397619D01*
X170768953Y-114492857D01*
X170768953Y-114635714D01*
X170721334Y-114730952D01*
X170673715Y-114778571D01*
X170578477Y-114826190D01*
X170197524Y-114826190D01*
X171102286Y-114302381D02*
X171721334Y-114302381D01*
X171388000Y-114683333D01*
X171530858Y-114683333D01*
X171626096Y-114730952D01*
X171673715Y-114778571D01*
X171721334Y-114873810D01*
X171721334Y-115111905D01*
X171673715Y-115207143D01*
X171626096Y-115254762D01*
X171530858Y-115302381D01*
X171245143Y-115302381D01*
X171149905Y-115254762D01*
X171102286Y-115207143D01*
X172340381Y-114302381D02*
X172435620Y-114302381D01*
X172530858Y-114350000D01*
X172578477Y-114397619D01*
X172626096Y-114492857D01*
X172673715Y-114683333D01*
X172673715Y-114921429D01*
X172626096Y-115111905D01*
X172578477Y-115207143D01*
X172530858Y-115254762D01*
X172435620Y-115302381D01*
X172340381Y-115302381D01*
X172245143Y-115254762D01*
X172197524Y-115207143D01*
X172149905Y-115111905D01*
X172102286Y-114921429D01*
X172102286Y-114683333D01*
X172149905Y-114492857D01*
X172197524Y-114397619D01*
X172245143Y-114350000D01*
X172340381Y-114302381D01*
X173007048Y-114302381D02*
X173626096Y-114302381D01*
X173292762Y-114683333D01*
X173435620Y-114683333D01*
X173530858Y-114730952D01*
X173578477Y-114778571D01*
X173626096Y-114873810D01*
X173626096Y-115111905D01*
X173578477Y-115207143D01*
X173530858Y-115254762D01*
X173435620Y-115302381D01*
X173149905Y-115302381D01*
X173054667Y-115254762D01*
X173007048Y-115207143D01*
X139018953Y-93966381D02*
X138685619Y-93490190D01*
X138447524Y-93966381D02*
X138447524Y-92966381D01*
X138828477Y-92966381D01*
X138923715Y-93014000D01*
X138971334Y-93061619D01*
X139018953Y-93156857D01*
X139018953Y-93299714D01*
X138971334Y-93394952D01*
X138923715Y-93442571D01*
X138828477Y-93490190D01*
X138447524Y-93490190D01*
X139352286Y-92966381D02*
X139971334Y-92966381D01*
X139638000Y-93347333D01*
X139780858Y-93347333D01*
X139876096Y-93394952D01*
X139923715Y-93442571D01*
X139971334Y-93537810D01*
X139971334Y-93775905D01*
X139923715Y-93871143D01*
X139876096Y-93918762D01*
X139780858Y-93966381D01*
X139495143Y-93966381D01*
X139399905Y-93918762D01*
X139352286Y-93871143D01*
X140590381Y-92966381D02*
X140685620Y-92966381D01*
X140780858Y-93014000D01*
X140828477Y-93061619D01*
X140876096Y-93156857D01*
X140923715Y-93347333D01*
X140923715Y-93585429D01*
X140876096Y-93775905D01*
X140828477Y-93871143D01*
X140780858Y-93918762D01*
X140685620Y-93966381D01*
X140590381Y-93966381D01*
X140495143Y-93918762D01*
X140447524Y-93871143D01*
X140399905Y-93775905D01*
X140352286Y-93585429D01*
X140352286Y-93347333D01*
X140399905Y-93156857D01*
X140447524Y-93061619D01*
X140495143Y-93014000D01*
X140590381Y-92966381D01*
X141780858Y-93299714D02*
X141780858Y-93966381D01*
X141542762Y-92918762D02*
X141304667Y-93633048D01*
X141923715Y-93633048D01*
X146432381Y-99713047D02*
X145956190Y-100046381D01*
X146432381Y-100284476D02*
X145432381Y-100284476D01*
X145432381Y-99903523D01*
X145480000Y-99808285D01*
X145527619Y-99760666D01*
X145622857Y-99713047D01*
X145765714Y-99713047D01*
X145860952Y-99760666D01*
X145908571Y-99808285D01*
X145956190Y-99903523D01*
X145956190Y-100284476D01*
X145432381Y-99379714D02*
X145432381Y-98760666D01*
X145813333Y-99094000D01*
X145813333Y-98951142D01*
X145860952Y-98855904D01*
X145908571Y-98808285D01*
X146003810Y-98760666D01*
X146241905Y-98760666D01*
X146337143Y-98808285D01*
X146384762Y-98855904D01*
X146432381Y-98951142D01*
X146432381Y-99236857D01*
X146384762Y-99332095D01*
X146337143Y-99379714D01*
X145432381Y-98141619D02*
X145432381Y-98046380D01*
X145480000Y-97951142D01*
X145527619Y-97903523D01*
X145622857Y-97855904D01*
X145813333Y-97808285D01*
X146051429Y-97808285D01*
X146241905Y-97855904D01*
X146337143Y-97903523D01*
X146384762Y-97951142D01*
X146432381Y-98046380D01*
X146432381Y-98141619D01*
X146384762Y-98236857D01*
X146337143Y-98284476D01*
X146241905Y-98332095D01*
X146051429Y-98379714D01*
X145813333Y-98379714D01*
X145622857Y-98332095D01*
X145527619Y-98284476D01*
X145480000Y-98236857D01*
X145432381Y-98141619D01*
X145432381Y-96903523D02*
X145432381Y-97379714D01*
X145908571Y-97427333D01*
X145860952Y-97379714D01*
X145813333Y-97284476D01*
X145813333Y-97046380D01*
X145860952Y-96951142D01*
X145908571Y-96903523D01*
X146003810Y-96855904D01*
X146241905Y-96855904D01*
X146337143Y-96903523D01*
X146384762Y-96951142D01*
X146432381Y-97046380D01*
X146432381Y-97284476D01*
X146384762Y-97379714D01*
X146337143Y-97427333D01*
X142560953Y-103364381D02*
X142227619Y-102888190D01*
X141989524Y-103364381D02*
X141989524Y-102364381D01*
X142370477Y-102364381D01*
X142465715Y-102412000D01*
X142513334Y-102459619D01*
X142560953Y-102554857D01*
X142560953Y-102697714D01*
X142513334Y-102792952D01*
X142465715Y-102840571D01*
X142370477Y-102888190D01*
X141989524Y-102888190D01*
X142894286Y-102364381D02*
X143513334Y-102364381D01*
X143180000Y-102745333D01*
X143322858Y-102745333D01*
X143418096Y-102792952D01*
X143465715Y-102840571D01*
X143513334Y-102935810D01*
X143513334Y-103173905D01*
X143465715Y-103269143D01*
X143418096Y-103316762D01*
X143322858Y-103364381D01*
X143037143Y-103364381D01*
X142941905Y-103316762D01*
X142894286Y-103269143D01*
X144132381Y-102364381D02*
X144227620Y-102364381D01*
X144322858Y-102412000D01*
X144370477Y-102459619D01*
X144418096Y-102554857D01*
X144465715Y-102745333D01*
X144465715Y-102983429D01*
X144418096Y-103173905D01*
X144370477Y-103269143D01*
X144322858Y-103316762D01*
X144227620Y-103364381D01*
X144132381Y-103364381D01*
X144037143Y-103316762D01*
X143989524Y-103269143D01*
X143941905Y-103173905D01*
X143894286Y-102983429D01*
X143894286Y-102745333D01*
X143941905Y-102554857D01*
X143989524Y-102459619D01*
X144037143Y-102412000D01*
X144132381Y-102364381D01*
X145322858Y-102364381D02*
X145132381Y-102364381D01*
X145037143Y-102412000D01*
X144989524Y-102459619D01*
X144894286Y-102602476D01*
X144846667Y-102792952D01*
X144846667Y-103173905D01*
X144894286Y-103269143D01*
X144941905Y-103316762D01*
X145037143Y-103364381D01*
X145227620Y-103364381D01*
X145322858Y-103316762D01*
X145370477Y-103269143D01*
X145418096Y-103173905D01*
X145418096Y-102935810D01*
X145370477Y-102840571D01*
X145322858Y-102792952D01*
X145227620Y-102745333D01*
X145037143Y-102745333D01*
X144941905Y-102792952D01*
X144894286Y-102840571D01*
X144846667Y-102935810D01*
X146130953Y-96252381D02*
X145797619Y-95776190D01*
X145559524Y-96252381D02*
X145559524Y-95252381D01*
X145940477Y-95252381D01*
X146035715Y-95300000D01*
X146083334Y-95347619D01*
X146130953Y-95442857D01*
X146130953Y-95585714D01*
X146083334Y-95680952D01*
X146035715Y-95728571D01*
X145940477Y-95776190D01*
X145559524Y-95776190D01*
X146464286Y-95252381D02*
X147083334Y-95252381D01*
X146750000Y-95633333D01*
X146892858Y-95633333D01*
X146988096Y-95680952D01*
X147035715Y-95728571D01*
X147083334Y-95823810D01*
X147083334Y-96061905D01*
X147035715Y-96157143D01*
X146988096Y-96204762D01*
X146892858Y-96252381D01*
X146607143Y-96252381D01*
X146511905Y-96204762D01*
X146464286Y-96157143D01*
X147702381Y-95252381D02*
X147797620Y-95252381D01*
X147892858Y-95300000D01*
X147940477Y-95347619D01*
X147988096Y-95442857D01*
X148035715Y-95633333D01*
X148035715Y-95871429D01*
X147988096Y-96061905D01*
X147940477Y-96157143D01*
X147892858Y-96204762D01*
X147797620Y-96252381D01*
X147702381Y-96252381D01*
X147607143Y-96204762D01*
X147559524Y-96157143D01*
X147511905Y-96061905D01*
X147464286Y-95871429D01*
X147464286Y-95633333D01*
X147511905Y-95442857D01*
X147559524Y-95347619D01*
X147607143Y-95300000D01*
X147702381Y-95252381D01*
X148369048Y-95252381D02*
X149035715Y-95252381D01*
X148607143Y-96252381D01*
X155195381Y-117239047D02*
X154719190Y-117572381D01*
X155195381Y-117810476D02*
X154195381Y-117810476D01*
X154195381Y-117429523D01*
X154243000Y-117334285D01*
X154290619Y-117286666D01*
X154385857Y-117239047D01*
X154528714Y-117239047D01*
X154623952Y-117286666D01*
X154671571Y-117334285D01*
X154719190Y-117429523D01*
X154719190Y-117810476D01*
X154195381Y-116905714D02*
X154195381Y-116286666D01*
X154576333Y-116620000D01*
X154576333Y-116477142D01*
X154623952Y-116381904D01*
X154671571Y-116334285D01*
X154766810Y-116286666D01*
X155004905Y-116286666D01*
X155100143Y-116334285D01*
X155147762Y-116381904D01*
X155195381Y-116477142D01*
X155195381Y-116762857D01*
X155147762Y-116858095D01*
X155100143Y-116905714D01*
X154195381Y-115667619D02*
X154195381Y-115572380D01*
X154243000Y-115477142D01*
X154290619Y-115429523D01*
X154385857Y-115381904D01*
X154576333Y-115334285D01*
X154814429Y-115334285D01*
X155004905Y-115381904D01*
X155100143Y-115429523D01*
X155147762Y-115477142D01*
X155195381Y-115572380D01*
X155195381Y-115667619D01*
X155147762Y-115762857D01*
X155100143Y-115810476D01*
X155004905Y-115858095D01*
X154814429Y-115905714D01*
X154576333Y-115905714D01*
X154385857Y-115858095D01*
X154290619Y-115810476D01*
X154243000Y-115762857D01*
X154195381Y-115667619D01*
X154623952Y-114762857D02*
X154576333Y-114858095D01*
X154528714Y-114905714D01*
X154433476Y-114953333D01*
X154385857Y-114953333D01*
X154290619Y-114905714D01*
X154243000Y-114858095D01*
X154195381Y-114762857D01*
X154195381Y-114572380D01*
X154243000Y-114477142D01*
X154290619Y-114429523D01*
X154385857Y-114381904D01*
X154433476Y-114381904D01*
X154528714Y-114429523D01*
X154576333Y-114477142D01*
X154623952Y-114572380D01*
X154623952Y-114762857D01*
X154671571Y-114858095D01*
X154719190Y-114905714D01*
X154814429Y-114953333D01*
X155004905Y-114953333D01*
X155100143Y-114905714D01*
X155147762Y-114858095D01*
X155195381Y-114762857D01*
X155195381Y-114572380D01*
X155147762Y-114477142D01*
X155100143Y-114429523D01*
X155004905Y-114381904D01*
X154814429Y-114381904D01*
X154719190Y-114429523D01*
X154671571Y-114477142D01*
X154623952Y-114572380D01*
X158243381Y-116477047D02*
X157767190Y-116810381D01*
X158243381Y-117048476D02*
X157243381Y-117048476D01*
X157243381Y-116667523D01*
X157291000Y-116572285D01*
X157338619Y-116524666D01*
X157433857Y-116477047D01*
X157576714Y-116477047D01*
X157671952Y-116524666D01*
X157719571Y-116572285D01*
X157767190Y-116667523D01*
X157767190Y-117048476D01*
X157243381Y-116143714D02*
X157243381Y-115524666D01*
X157624333Y-115858000D01*
X157624333Y-115715142D01*
X157671952Y-115619904D01*
X157719571Y-115572285D01*
X157814810Y-115524666D01*
X158052905Y-115524666D01*
X158148143Y-115572285D01*
X158195762Y-115619904D01*
X158243381Y-115715142D01*
X158243381Y-116000857D01*
X158195762Y-116096095D01*
X158148143Y-116143714D01*
X157243381Y-114905619D02*
X157243381Y-114810380D01*
X157291000Y-114715142D01*
X157338619Y-114667523D01*
X157433857Y-114619904D01*
X157624333Y-114572285D01*
X157862429Y-114572285D01*
X158052905Y-114619904D01*
X158148143Y-114667523D01*
X158195762Y-114715142D01*
X158243381Y-114810380D01*
X158243381Y-114905619D01*
X158195762Y-115000857D01*
X158148143Y-115048476D01*
X158052905Y-115096095D01*
X157862429Y-115143714D01*
X157624333Y-115143714D01*
X157433857Y-115096095D01*
X157338619Y-115048476D01*
X157291000Y-115000857D01*
X157243381Y-114905619D01*
X158243381Y-114096095D02*
X158243381Y-113905619D01*
X158195762Y-113810380D01*
X158148143Y-113762761D01*
X158005286Y-113667523D01*
X157814810Y-113619904D01*
X157433857Y-113619904D01*
X157338619Y-113667523D01*
X157291000Y-113715142D01*
X157243381Y-113810380D01*
X157243381Y-114000857D01*
X157291000Y-114096095D01*
X157338619Y-114143714D01*
X157433857Y-114191333D01*
X157671952Y-114191333D01*
X157767190Y-114143714D01*
X157814810Y-114096095D01*
X157862429Y-114000857D01*
X157862429Y-113810380D01*
X157814810Y-113715142D01*
X157767190Y-113667523D01*
X157671952Y-113619904D01*
X155655953Y-99046381D02*
X155322619Y-98570190D01*
X155084524Y-99046381D02*
X155084524Y-98046381D01*
X155465477Y-98046381D01*
X155560715Y-98094000D01*
X155608334Y-98141619D01*
X155655953Y-98236857D01*
X155655953Y-98379714D01*
X155608334Y-98474952D01*
X155560715Y-98522571D01*
X155465477Y-98570190D01*
X155084524Y-98570190D01*
X155989286Y-98046381D02*
X156608334Y-98046381D01*
X156275000Y-98427333D01*
X156417858Y-98427333D01*
X156513096Y-98474952D01*
X156560715Y-98522571D01*
X156608334Y-98617810D01*
X156608334Y-98855905D01*
X156560715Y-98951143D01*
X156513096Y-98998762D01*
X156417858Y-99046381D01*
X156132143Y-99046381D01*
X156036905Y-98998762D01*
X155989286Y-98951143D01*
X157560715Y-99046381D02*
X156989286Y-99046381D01*
X157275000Y-99046381D02*
X157275000Y-98046381D01*
X157179762Y-98189238D01*
X157084524Y-98284476D01*
X156989286Y-98332095D01*
X158179762Y-98046381D02*
X158275001Y-98046381D01*
X158370239Y-98094000D01*
X158417858Y-98141619D01*
X158465477Y-98236857D01*
X158513096Y-98427333D01*
X158513096Y-98665429D01*
X158465477Y-98855905D01*
X158417858Y-98951143D01*
X158370239Y-98998762D01*
X158275001Y-99046381D01*
X158179762Y-99046381D01*
X158084524Y-98998762D01*
X158036905Y-98951143D01*
X157989286Y-98855905D01*
X157941667Y-98665429D01*
X157941667Y-98427333D01*
X157989286Y-98236857D01*
X158036905Y-98141619D01*
X158084524Y-98094000D01*
X158179762Y-98046381D01*
X122254953Y-104634381D02*
X121921619Y-104158190D01*
X121683524Y-104634381D02*
X121683524Y-103634381D01*
X122064477Y-103634381D01*
X122159715Y-103682000D01*
X122207334Y-103729619D01*
X122254953Y-103824857D01*
X122254953Y-103967714D01*
X122207334Y-104062952D01*
X122159715Y-104110571D01*
X122064477Y-104158190D01*
X121683524Y-104158190D01*
X123112096Y-103967714D02*
X123112096Y-104634381D01*
X122874000Y-103586762D02*
X122635905Y-104301048D01*
X123254953Y-104301048D01*
X123826381Y-103634381D02*
X123921620Y-103634381D01*
X124016858Y-103682000D01*
X124064477Y-103729619D01*
X124112096Y-103824857D01*
X124159715Y-104015333D01*
X124159715Y-104253429D01*
X124112096Y-104443905D01*
X124064477Y-104539143D01*
X124016858Y-104586762D01*
X123921620Y-104634381D01*
X123826381Y-104634381D01*
X123731143Y-104586762D01*
X123683524Y-104539143D01*
X123635905Y-104443905D01*
X123588286Y-104253429D01*
X123588286Y-104015333D01*
X123635905Y-103824857D01*
X123683524Y-103729619D01*
X123731143Y-103682000D01*
X123826381Y-103634381D01*
X125112096Y-104634381D02*
X124540667Y-104634381D01*
X124826381Y-104634381D02*
X124826381Y-103634381D01*
X124731143Y-103777238D01*
X124635905Y-103872476D01*
X124540667Y-103920095D01*
X122254953Y-108190381D02*
X121921619Y-107714190D01*
X121683524Y-108190381D02*
X121683524Y-107190381D01*
X122064477Y-107190381D01*
X122159715Y-107238000D01*
X122207334Y-107285619D01*
X122254953Y-107380857D01*
X122254953Y-107523714D01*
X122207334Y-107618952D01*
X122159715Y-107666571D01*
X122064477Y-107714190D01*
X121683524Y-107714190D01*
X123112096Y-107523714D02*
X123112096Y-108190381D01*
X122874000Y-107142762D02*
X122635905Y-107857048D01*
X123254953Y-107857048D01*
X123826381Y-107190381D02*
X123921620Y-107190381D01*
X124016858Y-107238000D01*
X124064477Y-107285619D01*
X124112096Y-107380857D01*
X124159715Y-107571333D01*
X124159715Y-107809429D01*
X124112096Y-107999905D01*
X124064477Y-108095143D01*
X124016858Y-108142762D01*
X123921620Y-108190381D01*
X123826381Y-108190381D01*
X123731143Y-108142762D01*
X123683524Y-108095143D01*
X123635905Y-107999905D01*
X123588286Y-107809429D01*
X123588286Y-107571333D01*
X123635905Y-107380857D01*
X123683524Y-107285619D01*
X123731143Y-107238000D01*
X123826381Y-107190381D01*
X124540667Y-107285619D02*
X124588286Y-107238000D01*
X124683524Y-107190381D01*
X124921620Y-107190381D01*
X125016858Y-107238000D01*
X125064477Y-107285619D01*
X125112096Y-107380857D01*
X125112096Y-107476095D01*
X125064477Y-107618952D01*
X124493048Y-108190381D01*
X125112096Y-108190381D01*
X122254953Y-106412381D02*
X121921619Y-105936190D01*
X121683524Y-106412381D02*
X121683524Y-105412381D01*
X122064477Y-105412381D01*
X122159715Y-105460000D01*
X122207334Y-105507619D01*
X122254953Y-105602857D01*
X122254953Y-105745714D01*
X122207334Y-105840952D01*
X122159715Y-105888571D01*
X122064477Y-105936190D01*
X121683524Y-105936190D01*
X123112096Y-105745714D02*
X123112096Y-106412381D01*
X122874000Y-105364762D02*
X122635905Y-106079048D01*
X123254953Y-106079048D01*
X123826381Y-105412381D02*
X123921620Y-105412381D01*
X124016858Y-105460000D01*
X124064477Y-105507619D01*
X124112096Y-105602857D01*
X124159715Y-105793333D01*
X124159715Y-106031429D01*
X124112096Y-106221905D01*
X124064477Y-106317143D01*
X124016858Y-106364762D01*
X123921620Y-106412381D01*
X123826381Y-106412381D01*
X123731143Y-106364762D01*
X123683524Y-106317143D01*
X123635905Y-106221905D01*
X123588286Y-106031429D01*
X123588286Y-105793333D01*
X123635905Y-105602857D01*
X123683524Y-105507619D01*
X123731143Y-105460000D01*
X123826381Y-105412381D01*
X124493048Y-105412381D02*
X125112096Y-105412381D01*
X124778762Y-105793333D01*
X124921620Y-105793333D01*
X125016858Y-105840952D01*
X125064477Y-105888571D01*
X125112096Y-105983810D01*
X125112096Y-106221905D01*
X125064477Y-106317143D01*
X125016858Y-106364762D01*
X124921620Y-106412381D01*
X124635905Y-106412381D01*
X124540667Y-106364762D01*
X124493048Y-106317143D01*
X126993714Y-94744381D02*
X126993714Y-95553905D01*
X127041333Y-95649143D01*
X127088952Y-95696762D01*
X127184190Y-95744381D01*
X127374667Y-95744381D01*
X127469905Y-95696762D01*
X127517524Y-95649143D01*
X127565143Y-95553905D01*
X127565143Y-94744381D01*
X128517524Y-94744381D02*
X128041333Y-94744381D01*
X127993714Y-95220571D01*
X128041333Y-95172952D01*
X128136571Y-95125333D01*
X128374667Y-95125333D01*
X128469905Y-95172952D01*
X128517524Y-95220571D01*
X128565143Y-95315810D01*
X128565143Y-95553905D01*
X128517524Y-95649143D01*
X128469905Y-95696762D01*
X128374667Y-95744381D01*
X128136571Y-95744381D01*
X128041333Y-95696762D01*
X127993714Y-95649143D01*
X129184190Y-94744381D02*
X129279429Y-94744381D01*
X129374667Y-94792000D01*
X129422286Y-94839619D01*
X129469905Y-94934857D01*
X129517524Y-95125333D01*
X129517524Y-95363429D01*
X129469905Y-95553905D01*
X129422286Y-95649143D01*
X129374667Y-95696762D01*
X129279429Y-95744381D01*
X129184190Y-95744381D01*
X129088952Y-95696762D01*
X129041333Y-95649143D01*
X128993714Y-95553905D01*
X128946095Y-95363429D01*
X128946095Y-95125333D01*
X128993714Y-94934857D01*
X129041333Y-94839619D01*
X129088952Y-94792000D01*
X129184190Y-94744381D01*
X130469905Y-95744381D02*
X129898476Y-95744381D01*
X130184190Y-95744381D02*
X130184190Y-94744381D01*
X130088952Y-94887238D01*
X129993714Y-94982476D01*
X129898476Y-95030095D01*
X164466381Y-84219047D02*
X163990190Y-84552381D01*
X164466381Y-84790476D02*
X163466381Y-84790476D01*
X163466381Y-84409523D01*
X163514000Y-84314285D01*
X163561619Y-84266666D01*
X163656857Y-84219047D01*
X163799714Y-84219047D01*
X163894952Y-84266666D01*
X163942571Y-84314285D01*
X163990190Y-84409523D01*
X163990190Y-84790476D01*
X163561619Y-83838095D02*
X163514000Y-83790476D01*
X163466381Y-83695238D01*
X163466381Y-83457142D01*
X163514000Y-83361904D01*
X163561619Y-83314285D01*
X163656857Y-83266666D01*
X163752095Y-83266666D01*
X163894952Y-83314285D01*
X164466381Y-83885714D01*
X164466381Y-83266666D01*
X163466381Y-82647619D02*
X163466381Y-82552380D01*
X163514000Y-82457142D01*
X163561619Y-82409523D01*
X163656857Y-82361904D01*
X163847333Y-82314285D01*
X164085429Y-82314285D01*
X164275905Y-82361904D01*
X164371143Y-82409523D01*
X164418762Y-82457142D01*
X164466381Y-82552380D01*
X164466381Y-82647619D01*
X164418762Y-82742857D01*
X164371143Y-82790476D01*
X164275905Y-82838095D01*
X164085429Y-82885714D01*
X163847333Y-82885714D01*
X163656857Y-82838095D01*
X163561619Y-82790476D01*
X163514000Y-82742857D01*
X163466381Y-82647619D01*
X163561619Y-81933333D02*
X163514000Y-81885714D01*
X163466381Y-81790476D01*
X163466381Y-81552380D01*
X163514000Y-81457142D01*
X163561619Y-81409523D01*
X163656857Y-81361904D01*
X163752095Y-81361904D01*
X163894952Y-81409523D01*
X164466381Y-81980952D01*
X164466381Y-81361904D01*
X170816381Y-79139047D02*
X170340190Y-79472381D01*
X170816381Y-79710476D02*
X169816381Y-79710476D01*
X169816381Y-79329523D01*
X169864000Y-79234285D01*
X169911619Y-79186666D01*
X170006857Y-79139047D01*
X170149714Y-79139047D01*
X170244952Y-79186666D01*
X170292571Y-79234285D01*
X170340190Y-79329523D01*
X170340190Y-79710476D01*
X169911619Y-78758095D02*
X169864000Y-78710476D01*
X169816381Y-78615238D01*
X169816381Y-78377142D01*
X169864000Y-78281904D01*
X169911619Y-78234285D01*
X170006857Y-78186666D01*
X170102095Y-78186666D01*
X170244952Y-78234285D01*
X170816381Y-78805714D01*
X170816381Y-78186666D01*
X169816381Y-77567619D02*
X169816381Y-77472380D01*
X169864000Y-77377142D01*
X169911619Y-77329523D01*
X170006857Y-77281904D01*
X170197333Y-77234285D01*
X170435429Y-77234285D01*
X170625905Y-77281904D01*
X170721143Y-77329523D01*
X170768762Y-77377142D01*
X170816381Y-77472380D01*
X170816381Y-77567619D01*
X170768762Y-77662857D01*
X170721143Y-77710476D01*
X170625905Y-77758095D01*
X170435429Y-77805714D01*
X170197333Y-77805714D01*
X170006857Y-77758095D01*
X169911619Y-77710476D01*
X169864000Y-77662857D01*
X169816381Y-77567619D01*
X170816381Y-76281904D02*
X170816381Y-76853333D01*
X170816381Y-76567619D02*
X169816381Y-76567619D01*
X169959238Y-76662857D01*
X170054476Y-76758095D01*
X170102095Y-76853333D01*
X166450953Y-78726381D02*
X166117619Y-78250190D01*
X165879524Y-78726381D02*
X165879524Y-77726381D01*
X166260477Y-77726381D01*
X166355715Y-77774000D01*
X166403334Y-77821619D01*
X166450953Y-77916857D01*
X166450953Y-78059714D01*
X166403334Y-78154952D01*
X166355715Y-78202571D01*
X166260477Y-78250190D01*
X165879524Y-78250190D01*
X166831905Y-77821619D02*
X166879524Y-77774000D01*
X166974762Y-77726381D01*
X167212858Y-77726381D01*
X167308096Y-77774000D01*
X167355715Y-77821619D01*
X167403334Y-77916857D01*
X167403334Y-78012095D01*
X167355715Y-78154952D01*
X166784286Y-78726381D01*
X167403334Y-78726381D01*
X168022381Y-77726381D02*
X168117620Y-77726381D01*
X168212858Y-77774000D01*
X168260477Y-77821619D01*
X168308096Y-77916857D01*
X168355715Y-78107333D01*
X168355715Y-78345429D01*
X168308096Y-78535905D01*
X168260477Y-78631143D01*
X168212858Y-78678762D01*
X168117620Y-78726381D01*
X168022381Y-78726381D01*
X167927143Y-78678762D01*
X167879524Y-78631143D01*
X167831905Y-78535905D01*
X167784286Y-78345429D01*
X167784286Y-78107333D01*
X167831905Y-77916857D01*
X167879524Y-77821619D01*
X167927143Y-77774000D01*
X168022381Y-77726381D01*
X168689048Y-77726381D02*
X169308096Y-77726381D01*
X168974762Y-78107333D01*
X169117620Y-78107333D01*
X169212858Y-78154952D01*
X169260477Y-78202571D01*
X169308096Y-78297810D01*
X169308096Y-78535905D01*
X169260477Y-78631143D01*
X169212858Y-78678762D01*
X169117620Y-78726381D01*
X168831905Y-78726381D01*
X168736667Y-78678762D01*
X168689048Y-78631143D01*
X154532381Y-87965476D02*
X153532381Y-87965476D01*
X153532381Y-87727381D01*
X153580000Y-87584523D01*
X153675238Y-87489285D01*
X153770476Y-87441666D01*
X153960952Y-87394047D01*
X154103810Y-87394047D01*
X154294286Y-87441666D01*
X154389524Y-87489285D01*
X154484762Y-87584523D01*
X154532381Y-87727381D01*
X154532381Y-87965476D01*
X153532381Y-86489285D02*
X153532381Y-86965476D01*
X154008571Y-87013095D01*
X153960952Y-86965476D01*
X153913333Y-86870238D01*
X153913333Y-86632142D01*
X153960952Y-86536904D01*
X154008571Y-86489285D01*
X154103810Y-86441666D01*
X154341905Y-86441666D01*
X154437143Y-86489285D01*
X154484762Y-86536904D01*
X154532381Y-86632142D01*
X154532381Y-86870238D01*
X154484762Y-86965476D01*
X154437143Y-87013095D01*
X153532381Y-85822619D02*
X153532381Y-85727380D01*
X153580000Y-85632142D01*
X153627619Y-85584523D01*
X153722857Y-85536904D01*
X153913333Y-85489285D01*
X154151429Y-85489285D01*
X154341905Y-85536904D01*
X154437143Y-85584523D01*
X154484762Y-85632142D01*
X154532381Y-85727380D01*
X154532381Y-85822619D01*
X154484762Y-85917857D01*
X154437143Y-85965476D01*
X154341905Y-86013095D01*
X154151429Y-86060714D01*
X153913333Y-86060714D01*
X153722857Y-86013095D01*
X153627619Y-85965476D01*
X153580000Y-85917857D01*
X153532381Y-85822619D01*
X153627619Y-85108333D02*
X153580000Y-85060714D01*
X153532381Y-84965476D01*
X153532381Y-84727380D01*
X153580000Y-84632142D01*
X153627619Y-84584523D01*
X153722857Y-84536904D01*
X153818095Y-84536904D01*
X153960952Y-84584523D01*
X154532381Y-85155952D01*
X154532381Y-84536904D01*
X154560381Y-83457047D02*
X154084190Y-83790381D01*
X154560381Y-84028476D02*
X153560381Y-84028476D01*
X153560381Y-83647523D01*
X153608000Y-83552285D01*
X153655619Y-83504666D01*
X153750857Y-83457047D01*
X153893714Y-83457047D01*
X153988952Y-83504666D01*
X154036571Y-83552285D01*
X154084190Y-83647523D01*
X154084190Y-84028476D01*
X153560381Y-82552285D02*
X153560381Y-83028476D01*
X154036571Y-83076095D01*
X153988952Y-83028476D01*
X153941333Y-82933238D01*
X153941333Y-82695142D01*
X153988952Y-82599904D01*
X154036571Y-82552285D01*
X154131810Y-82504666D01*
X154369905Y-82504666D01*
X154465143Y-82552285D01*
X154512762Y-82599904D01*
X154560381Y-82695142D01*
X154560381Y-82933238D01*
X154512762Y-83028476D01*
X154465143Y-83076095D01*
X153560381Y-81885619D02*
X153560381Y-81790380D01*
X153608000Y-81695142D01*
X153655619Y-81647523D01*
X153750857Y-81599904D01*
X153941333Y-81552285D01*
X154179429Y-81552285D01*
X154369905Y-81599904D01*
X154465143Y-81647523D01*
X154512762Y-81695142D01*
X154560381Y-81790380D01*
X154560381Y-81885619D01*
X154512762Y-81980857D01*
X154465143Y-82028476D01*
X154369905Y-82076095D01*
X154179429Y-82123714D01*
X153941333Y-82123714D01*
X153750857Y-82076095D01*
X153655619Y-82028476D01*
X153608000Y-81980857D01*
X153560381Y-81885619D01*
X154560381Y-80599904D02*
X154560381Y-81171333D01*
X154560381Y-80885619D02*
X153560381Y-80885619D01*
X153703238Y-80980857D01*
X153798476Y-81076095D01*
X153846095Y-81171333D01*
X115228643Y-87860047D02*
X115276262Y-87907666D01*
X115323881Y-88050523D01*
X115323881Y-88145761D01*
X115276262Y-88288619D01*
X115181024Y-88383857D01*
X115085786Y-88431476D01*
X114895310Y-88479095D01*
X114752452Y-88479095D01*
X114561976Y-88431476D01*
X114466738Y-88383857D01*
X114371500Y-88288619D01*
X114323881Y-88145761D01*
X114323881Y-88050523D01*
X114371500Y-87907666D01*
X114419119Y-87860047D01*
X114323881Y-86955285D02*
X114323881Y-87431476D01*
X114800071Y-87479095D01*
X114752452Y-87431476D01*
X114704833Y-87336238D01*
X114704833Y-87098142D01*
X114752452Y-87002904D01*
X114800071Y-86955285D01*
X114895310Y-86907666D01*
X115133405Y-86907666D01*
X115228643Y-86955285D01*
X115276262Y-87002904D01*
X115323881Y-87098142D01*
X115323881Y-87336238D01*
X115276262Y-87431476D01*
X115228643Y-87479095D01*
X114323881Y-86288619D02*
X114323881Y-86193380D01*
X114371500Y-86098142D01*
X114419119Y-86050523D01*
X114514357Y-86002904D01*
X114704833Y-85955285D01*
X114942929Y-85955285D01*
X115133405Y-86002904D01*
X115228643Y-86050523D01*
X115276262Y-86098142D01*
X115323881Y-86193380D01*
X115323881Y-86288619D01*
X115276262Y-86383857D01*
X115228643Y-86431476D01*
X115133405Y-86479095D01*
X114942929Y-86526714D01*
X114704833Y-86526714D01*
X114514357Y-86479095D01*
X114419119Y-86431476D01*
X114371500Y-86383857D01*
X114323881Y-86288619D01*
X115323881Y-85002904D02*
X115323881Y-85574333D01*
X115323881Y-85288619D02*
X114323881Y-85288619D01*
X114466738Y-85383857D01*
X114561976Y-85479095D01*
X114609595Y-85574333D01*
X146407143Y-89638047D02*
X146454762Y-89685666D01*
X146502381Y-89828523D01*
X146502381Y-89923761D01*
X146454762Y-90066619D01*
X146359524Y-90161857D01*
X146264286Y-90209476D01*
X146073810Y-90257095D01*
X145930952Y-90257095D01*
X145740476Y-90209476D01*
X145645238Y-90161857D01*
X145550000Y-90066619D01*
X145502381Y-89923761D01*
X145502381Y-89828523D01*
X145550000Y-89685666D01*
X145597619Y-89638047D01*
X145502381Y-88733285D02*
X145502381Y-89209476D01*
X145978571Y-89257095D01*
X145930952Y-89209476D01*
X145883333Y-89114238D01*
X145883333Y-88876142D01*
X145930952Y-88780904D01*
X145978571Y-88733285D01*
X146073810Y-88685666D01*
X146311905Y-88685666D01*
X146407143Y-88733285D01*
X146454762Y-88780904D01*
X146502381Y-88876142D01*
X146502381Y-89114238D01*
X146454762Y-89209476D01*
X146407143Y-89257095D01*
X145502381Y-88066619D02*
X145502381Y-87971380D01*
X145550000Y-87876142D01*
X145597619Y-87828523D01*
X145692857Y-87780904D01*
X145883333Y-87733285D01*
X146121429Y-87733285D01*
X146311905Y-87780904D01*
X146407143Y-87828523D01*
X146454762Y-87876142D01*
X146502381Y-87971380D01*
X146502381Y-88066619D01*
X146454762Y-88161857D01*
X146407143Y-88209476D01*
X146311905Y-88257095D01*
X146121429Y-88304714D01*
X145883333Y-88304714D01*
X145692857Y-88257095D01*
X145597619Y-88209476D01*
X145550000Y-88161857D01*
X145502381Y-88066619D01*
X145835714Y-86876142D02*
X146502381Y-86876142D01*
X145454762Y-87114238D02*
X146169048Y-87352333D01*
X146169048Y-86733285D01*
M02*
